<?xml version="1.0" encoding="UTF-8"?>
<svg id="Capa_1" xmlns="http://www.w3.org/2000/svg" xmlns:xlink="http://www.w3.org/1999/xlink" viewBox="0 0 100 100">
  <defs>
       <style>
      .cls-1 {
        fill: currentColor;
      }

      .cls-2 {
        fill: currentColor; /* Cambia aquí el color fijo por currentColor */
      }

      .cls-3 {
        clip-path: url(#clippath);
      }
    </style>

    <clipPath id="clippath">
      <rect class="cls-1" width="100" height="100"/>
    </clipPath>
  </defs>
  <g class="cls-3">
    <g id="Grupo_35375">
      <path id="Trazado_19289" class="cls-2" d="M99.67,74.09c-.21-1.93-2.1-1.6-3.4-1.74-4.31-.46-4.52-2.65-2.08-5.27.85-.91,2.19-2.04,1.31-3.44-1.12-1.97-2.76-3.61-4.74-4.72-1.72-.87-2.83,1.02-4.09,1.88-2.44,1.65-3.76,1.16-4.25-1.73-.14-.84-.15-1.71-.29-2.55-.1-.97-.78-1.78-1.71-2.04-2.6-1.38-5.82-.39-7.2,2.21-.4.76-.61,1.6-.62,2.45-.48,2.73-1.84,3.3-4.07,1.76-1.14-.79-2.06-1.96-3.54-2.19-.29.06-.63.03-.83.18-1.89,1.24-3.48,2.89-4.64,4.84-.88,1.75,1.13,2.79,1.87,4.13.19.33.48.6.64.94.79,1.63.29,2.74-1.41,3.18-1.09.25-2.2.43-3.31.55-1.07,0-1.97.83-2.08,1.9-1,5.41-.1,6.85,5.03,7.86,2.07.41,2.69,1.87,1.51,3.68-.51.8-1.07,1.56-1.68,2.29-.96.93-.99,2.46-.06,3.42.11.11.22.21.35.3,4.76,4.82,4.16,4.83,8.5,1.3,1.67-1.36,3.19-.67,3.66,1.48.14.84.24,1.69.28,2.55.17,1.8,1.02,2.78,2.93,2.61.84-.09,1.68-.08,2.52.03,2.73.38,3.84-.79,4.08-3.57.39-4.42,1.58-4.85,5.04-2.26,1,.75,1.96,2.25,3.37,1.41,2.08-1.14,3.75-2.88,4.81-5,.71-1.61-1.02-2.69-1.86-3.88-1.9-2.69-1.38-3.9,1.94-4.44,1.26-.21,2.99.06,3.62-1.12.84-2.23.98-4.66.4-6.96M77.55,84.96c-4.24-.1-7.63-3.57-7.61-7.81-.1-4.19,3.21-7.67,7.4-7.77,4.19-.1,7.67,3.21,7.77,7.4,0,.11,0,.22,0,.33.05,4.24-3.32,7.74-7.56,7.86"/>
      <path id="Trazado_19290" class="cls-2" d="M28.02,31.41c.01,6.65,5.37,12.05,12.02,12.12,6.57.14,12-5.07,12.14-11.64,0-.18,0-.36,0-.54.13-6.69-5.18-12.23-11.88-12.36-.06,0-.12,0-.17,0-6.75.14-12.14,5.67-12.09,12.42"/>
      <path id="Trazado_19291" class="cls-2" d="M58.32,53.8c-.1-.76-.47-1.45-1.05-1.94-.79-.81-1.51-1.7-2.36-2.42-1.7-1.94-4.57-2.33-6.73-.92-4.89,2.87-10.95,2.9-15.88.09-2.42-1.56-5.63-1.03-7.42,1.23-2.34,2.1-3.93,4.91-4.53,8-.46,2.27-.14,4.55-.4,7.11-10.8-9.22-14.21-24.47-8.35-37.41C17.53,14.26,31.79,6.8,46.07,9.5c8.43,1.61,15.8,6.66,20.36,13.93,4.56,7.08,6.17,15.65,4.5,23.9,2.2-.52,4.45-.78,6.7-.78.69,0,1.37.03,2.05.08.19-.38.32-.79.36-1.21C82.65,23.18,66.73,3.03,44.49.41c-4.07-.48-8.19-.34-12.21.42C11.15,5.38-2.77,25.6.5,46.96c3.14,21.54,22.8,36.71,44.44,34.29,1.67-.19,2.65-.58,3.08-1.53-.09-.95-.14-1.92-.14-2.9-.02-8.82,3.78-17.22,10.44-23.02"/>
    </g>
  </g>
</svg>
