<?xml version="1.0" encoding="UTF-8"?>
<svg id="Capa_1" xmlns="http://www.w3.org/2000/svg" xmlns:xlink="http://www.w3.org/1999/xlink" viewBox="0 0 30 30">
  <defs>
    <style>
      .cls-1 {
        fill: currentColor;
      }

      .cls-2 {
        fill: currentColor;
      }

      .cls-3 {
        clip-path: url(#clippath);
      }
    </style>
    <clipPath id="clippath">
      <rect class="cls-1" x="3.34" y="3.84" width="23.31" height="22.32"/>
    </clipPath>
  </defs>
  <g class="cls-3">
    <g id="Grupo_35709">
      <path id="Trazado_19626" class="cls-2" d="M26.48,11.83l-.82-.82c-.23-.23-.6-.23-.82,0,0,0,0,0,0,0l-.41.41c-1.71,1.76-4.1,2.69-6.55,2.55-.16,0-.29.13-.29.29,0,0,0,.01,0,.02.01.18.02.37.03.57.02.38.05.77.07,1.17,0,.16.14.28.3.28,3.03.1,5.96-1.07,8.09-3.23l.41-.41c.23-.23.23-.6,0-.82,0,0,0,0,0,0M12.31,13.99c0-.16-.14-.28-.3-.28-3.03-.1-5.96,1.07-8.09,3.23l-.41.41c-.23.23-.23.6,0,.82,0,0,0,0,0,0l.82.82c.23.23.6.23.82,0,0,0,0,0,0,0l.41-.41c1.71-1.76,4.1-2.69,6.55-2.55.16,0,.29-.13.29-.29,0,0,0-.01,0-.02-.01-.18-.02-.37-.03-.57-.02-.38-.05-.77-.07-1.17"/>
      <path id="Trazado_19627" class="cls-2" d="M22.69,10.71l-.74-.74c-.28-.28-.75-.28-1.03,0-.28.28-.28.75,0,1.03l.73.73c.27.3.73.32,1.03.05.3-.27.32-.73.05-1.03-.01-.01-.03-.03-.04-.04M8.37,19.05c-.28-.28-.75-.28-1.03,0-.28.28-.28.75,0,1.03h0l.46.46c.29.28.75.26,1.03-.03.26-.28.26-.72,0-1l-.46-.46ZM18.58,6.6c.16-.18.32-.36.5-.53l.41-.41c.23-.23.23-.6,0-.82,0,0,0,0,0,0l-.82-.82c-.23-.23-.6-.23-.82,0,0,0,0,0,0,0l-.41.41c-3.59,3.59-3.6,7.3-3.6,10.58.07,1.54-.06,3.09-.37,4.61l-1.94-1.94c-.28-.28-.75-.28-1.03,0s-.28.75,0,1.03l2.43,2.43c-.25.55-.56,1.07-.92,1.55l-1.56-1.57c-.29-.28-.75-.26-1.03.03-.26.28-.26.72,0,1l1.64,1.65s-.09.09-.13.14l-.41.41c-.23.23-.23.6,0,.82l.82.82c.23.23.6.23.82,0l.41-.41c3.59-3.59,3.6-7.3,3.6-10.58-.04-1.33.04-2.67.24-3.99l1.76,1.75c.26.3.72.33,1.03.07.3-.26.33-.72.07-1.03-.02-.02-.04-.05-.07-.07l-2.33-2.34c.22-.57.5-1.12.84-1.63l1.74,1.74c.3.27.76.25,1.03-.04.26-.28.26-.7,0-.98l-1.88-1.88Z"/>
    </g>
  </g>
</svg>
