<?xml version="1.0" encoding="UTF-8"?>
<svg id="Capa_1" data-name="Capa 1" xmlns="http://www.w3.org/2000/svg" viewBox="0 0 100 100">
  <defs>
    <style>
      .cls-1 {
        fill: currentColor;
      }
    </style>
  </defs>
  <g id="Grupo_31542" data-name="Grupo 31542">
    <path id="Trazado_18535" data-name="Trazado 18535" class="cls-1" d="M50.16,74.43c6.85,0,12.42,5.54,12.42,12.4,0,.15,0,.29,0,.44.38,6.64-4.69,12.33-11.33,12.71-.51.03-1.02.03-1.52,0-6.86-.06-12.37-5.68-12.31-12.54,0-.13,0-.26,0-.39.02-6.98,5.69-12.62,12.67-12.61.02,0,.05,0,.07,0"/>
    <path id="Trazado_18536" data-name="Trazado 18536" class="cls-1" d="M60.16,64.16c1.1-21.61,2.17-42.79,3.25-64.16h-26.83c1.09,21.58,2.17,42.78,3.25,64.16h20.33Z"/>
  </g>
</svg>