<?xml version="1.0" encoding="UTF-8"?>
<svg id="Capa_1" xmlns="http://www.w3.org/2000/svg" xmlns:xlink="http://www.w3.org/1999/xlink" viewBox="0 0 30 30">
  <defs>
    <style>
      .cls-1 {
        fill: currentColor;
      }

      .cls-2 {
        fill: currentColor;
      }

      .cls-3 {
        clip-path: url(#clippath);
      }
    </style>
    <clipPath id="clippath">
      <rect class="cls-1" x="4.09" y="2.5" width="21.82" height="25"/>
    </clipPath>
  </defs>
  <g class="cls-3">
    <g id="Grupo_35598">
      <path id="Trazado_19516" class="cls-2" d="M24.64,2.79c-.28-.15-.59-.25-.91-.28-.08-.01-.16-.01-.25-.01H7.88c-1.34,0-2.42,1.09-2.43,2.43v1.21h-.92c-.24,0-.44.2-.44.44v2.23c0,.25.2.44.44.44h.92v1.67h-.92c-.24,0-.44.2-.44.44v2.23c0,.24.2.44.44.44h.92v1.67h-.92c-.24,0-.44.2-.44.44v2.23c0,.25.2.44.44.44h.92v1.67h-.92c-.25,0-.44.2-.44.44,0,0,0,0,0,0v2.23c0,.25.2.44.44.44h.92v1.45c0,1.34,1.09,2.42,2.43,2.43h15.61c.08,0,.17,0,.25-.01.32-.03.63-.13.91-.28.21-.11.39-.25.56-.42.46-.45.71-1.07.71-1.71V4.93c0-.89-.49-1.71-1.27-2.13M21.76,7.63c-.1-.11-.24-.17-.38-.16-.14,0-.28.06-.38.16l-1.78,1.79V3.39s4.3,0,4.3,0v6.04s-1.76-1.8-1.76-1.8Z"/>
    </g>
  </g>
</svg>
