<?xml version="1.0" encoding="UTF-8"?>
<svg id="Capa_1" data-name="Capa 1" xmlns="http://www.w3.org/2000/svg" viewBox="0 0 200 200">
  <defs>
    <style>
      .cls-1 {
        fill: currentColor;
      }
    </style>
  </defs>
  <g id="Grupo_34541-2" data-name="Grupo 34541-2">
    <path id="Trazado_18653" data-name="Trazado 18653" class="cls-1" d="M100,0C44.77,0,0,44.77,0,100s44.77,100,100,100,100-44.77,100-100S155.23,0,100,0M152.31,110.29c-2,1.54-4.37,2.54-6.87,2.89h-32.27v32.26c-.7,5.24-4.36,9.61-9.4,11.22-7.1,2.03-14.49-2.08-16.52-9.18-.26-.9-.42-1.82-.48-2.75v-31.55h-32.26c-.89-.15-1.76-.36-2.61-.64-6.92-2.32-10.66-9.81-8.34-16.73,1.81-5.4,6.88-9.04,12.57-9.02,8.98-.49,18.87.09,27.84.2.93,0,1.88-.08,2.81,0v-31.17c.16-7.29,6.2-13.08,13.5-12.92,2.71.06,5.34.95,7.53,2.56,2.96,2.25,4.89,5.59,5.37,9.27v32.26c7.21.02,14.4-.28,21.61-.19,4.51-.24,9.04.03,13.5.78,6.9,2.41,10.53,9.96,8.12,16.86-.8,2.29-2.22,4.31-4.09,5.85"/>
  </g>
</svg>