<?xml version="1.0" encoding="UTF-8"?>
<svg id="Capa_1" xmlns="http://www.w3.org/2000/svg" viewBox="0 0 30 30">
  <defs>
    <style>
      .cls-1 {
        fill: currentColor;
      }
    </style>
  </defs>
  <path id="Icon_awesome-check-circle" class="cls-1" d="M27.5,15c0,6.9-5.59,12.5-12.5,12.5S2.5,21.9,2.5,15,8.1,2.5,15,2.5s12.5,5.59,12.5,12.5ZM13.55,21.62l9.27-9.27c.31-.31.31-.82,0-1.14,0,0,0,0,0,0l-1.14-1.14c-.31-.31-.82-.32-1.14,0,0,0,0,0,0,0l-7.56,7.56-3.53-3.53c-.32-.31-.83-.31-1.14,0l-1.14,1.14c-.31.31-.31.82,0,1.14,0,0,0,0,0,0l5.24,5.24c.31.31.82.32,1.14,0,0,0,0,0,0,0h0Z"/>
</svg>