<?xml version="1.0" encoding="UTF-8"?>
<svg id="Capa_1" xmlns="http://www.w3.org/2000/svg" viewBox="0 0 100 100">
  <defs>
    <style>
      .cls-1 {
        fill: currentColor;
      }
    </style>
  </defs>
  <g id="Grupo_31101-2">
    <path id="Trazado_18395" class="cls-1" d="M89.35,8.78c.35-4.46-2.99-8.36-7.45-8.71-.43-.03-.86-.03-1.29,0-6.31-.02-12.62-.02-18.93-.02H19.94c-4.54-.56-8.67,2.67-9.23,7.21-.09.7-.08,1.4.01,2.1.02,25.3.02,50.59,0,75.89,0,.41-.04.81-.07,1.44h-.02v6.39c.05.17.08.34.08.51.01.05.02.11.03.17.09.15.16.31.2.48.04.08.08.16.11.25.05.05.09.11.13.18,1.37,3.43,4.81,5.58,8.5,5.28,20.28-.04,40.55-.04,60.83,0,4.46.41,8.41-2.87,8.82-7.33.04-.42.04-.85.02-1.27.02-27.52.02-55.04,0-82.55M23.28,26.41h9.66v-9.61h9.58v9.56h9.68v9.7h-9.52v9.69h-9.66v-9.58h-9.74v-9.77ZM24.95,54.21c.46-.08.92-.1,1.39-.07h47.44c.46-.03.93,0,1.39.08,1.13.23,1.86,1.34,1.63,2.47-.18.86-.87,1.52-1.74,1.65-.46.06-.93.08-1.39.05H26.38c-.46.03-.93.01-1.39-.05-1.14-.19-1.91-1.26-1.73-2.41.14-.87.82-1.56,1.69-1.72M74.91,83.31c-.41.02-.83.02-1.24,0H26.38c-.46.03-.93.01-1.39-.04-1.12-.22-1.85-1.32-1.63-2.44.16-.8.78-1.44,1.57-1.62.41-.06.82-.07,1.24-.05h47.59c.36-.02.72-.02,1.08,0,1.08-.02,1.97.85,1.99,1.93,0,.07,0,.14,0,.2.05,1.06-.76,1.96-1.82,2.01-.03,0-.07,0-.1,0M73.48,70.88H26.5c-.51.03-1.03.01-1.54-.06-1.03-.12-1.79-1.03-1.73-2.06-.06-1.04.71-1.94,1.75-2.03.56-.07,1.13-.1,1.7-.08h46.8c2.33,0,3.32.61,3.36,2.06.05,1.54-.98,2.19-3.37,2.19M74.37,45.91c-4.18.03-8.36.03-12.53,0-1.61,0-2.53-.82-2.54-2.09s.95-2.12,2.64-2.13h12.38c1.6,0,2.52.79,2.53,2.08s-.89,2.13-2.48,2.14M74.61,33.36c-2.16.03-4.33,0-6.5,0s-4.33.02-6.5,0c-1.46-.02-2.39-.86-2.31-2.11-.03-1.11.85-2.04,1.96-2.06.09,0,.18,0,.27.01,4.38,0,8.76-.03,13.15,0,1.15-.06,2.13.82,2.19,1.96.06,1.15-.82,2.13-1.96,2.19-.1,0-.2,0-.3,0M74.32,20.9c-2.11.02-4.23,0-6.34,0h-6.19c-1.58,0-2.51-.83-2.49-2.12s.93-2.05,2.54-2.06c4.18-.02,8.35-.02,12.53,0,1.61,0,2.5.8,2.49,2.1s-.93,2.06-2.54,2.07"/>
  </g>
</svg>
