<?xml version="1.0" encoding="UTF-8"?>
<svg id="Capa_1" xmlns="http://www.w3.org/2000/svg" xmlns:xlink="http://www.w3.org/1999/xlink" viewBox="0 0 30 30">
  <defs>
    <style>
      .cls-1 {
        fill: currentColor;
      }

      .cls-2 {
        fill: currentColor;
      }

      .cls-3 {
        clip-path: url(#clippath);
      }
    </style>
    <clipPath id="clippath">
      <rect class="cls-1" x="3.05" y="3.84" width="23.89" height="22.32"/>
    </clipPath>
  </defs>
  <g class="cls-3">
    <g id="Grupo_35705">
      <path id="Trazado_19622" class="cls-2" d="M15.2,7.29c.86.58,2.04.36,2.62-.5.58-.86.36-2.04-.5-2.62-.86-.58-2.04-.36-2.62.5,0,0,0,0,0,0-.58.86-.36,2.03.5,2.62,0,0,0,0,0,0M10.78,11.57c.27-.39.59-.74.97-1.04l-1.51-1.26c.73-1.37.22-3.06-1.15-3.8-1.37-.73-3.06-.22-3.8,1.15-.73,1.37-.22,3.06,1.15,3.8.73.39,1.61.44,2.38.13l1.71,1.43c.08-.14.16-.28.25-.41M12.58,18.43l-.9,3.39c-1.19.27-1.93,1.44-1.66,2.63.27,1.19,1.44,1.93,2.63,1.66,1.19-.27,1.93-1.44,1.66-2.63-.11-.49-.39-.94-.79-1.25l.89-3.33c-.63-.03-1.26-.2-1.82-.48M20.09,12.91l-2.16.14c-.65-1.79-2.63-2.72-4.42-2.07-1.79.65-2.72,2.63-2.07,4.42s2.63,2.72,4.42,2.07c1.12-.41,1.96-1.37,2.2-2.54l2.15-.14c-.19-.61-.23-1.25-.12-1.88"/>
      <path id="Trazado_19623" class="cls-2" d="M7.47,15.01c-1.29-.88-3.05-.54-3.93.76-.88,1.29-.54,3.05.76,3.93,1.29.88,3.05.54,3.93-.76,0,0,0,0,0,0,.88-1.29.54-3.05-.76-3.93M25.7,11.24c-1.29-.88-3.05-.54-3.93.76-.88,1.29-.54,3.05.76,3.93,1.29.88,3.05.54,3.93-.76h0c.88-1.28.55-3.04-.73-3.91,0,0-.02-.01-.02-.02"/>
    </g>
  </g>
</svg>
