<?xml version="1.0" encoding="UTF-8"?>
<svg id="Capa_1" xmlns="http://www.w3.org/2000/svg" xmlns:xlink="http://www.w3.org/1999/xlink" viewBox="0 0 30 30">
  <defs>
    <style>
      .cls-1 {
        fill: currentColor;
      }

      .cls-2 {
        fill: currentColor;
      }

      .cls-3 {
        clip-path: url(#clippath);
      }
    </style>
    <clipPath id="clippath">
      <rect class="cls-1" x="3.34" y="3.34" width="23.32" height="23.32"/>
    </clipPath>
  </defs>
  <g class="cls-3">
    <g id="Grupo_35763">
      <path id="Trazado_19681" class="cls-2" d="M21.63,13.41h4.34v-3.89c0-.76-.61-1.37-1.37-1.37H7.8c-.57,0-1.03-.46-1.03-1.03s.46-1.03,1.03-1.03h16.12v-1.37c0-.76-.61-1.37-1.37-1.37h0s-16.46,0-16.46,0c-1.51,0-2.74,1.23-2.74,2.74h0v17.83c0,1.51,1.23,2.74,2.74,2.74h18.52c.76,0,1.37-.61,1.37-1.37h0v-3.42h-4.34c-2.34,0-4.23-1.89-4.23-4.23,0-2.34,1.89-4.23,4.23-4.23h0"/>
      <path id="Trazado_19682" class="cls-2" d="M26.32,15.12h-4.68c-1.39-.07-2.57,1-2.64,2.39-.07,1.39,1,2.57,2.39,2.64.09,0,.17,0,.26,0h4.69c.19,0,.34-.15.34-.34h0v-4.34c0-.19-.15-.34-.34-.34h0M22.2,18.66c-.57,0-1.03-.46-1.03-1.03s.46-1.03,1.03-1.03,1.03.46,1.03,1.03-.46,1.03-1.03,1.03h0"/>
    </g>
  </g>
</svg>
