<?xml version="1.0" encoding="UTF-8"?>
<svg id="Capa_1" xmlns="http://www.w3.org/2000/svg" xmlns:xlink="http://www.w3.org/1999/xlink" viewBox="0 0 30 30">
  <defs>
    <style>
      .cls-1 {
        fill: currentColor;
      }

      .cls-2 {
        fill: currentColor;
      }

      .cls-3 {
        clip-path: url(#clippath);
      }
    </style>
    <clipPath id="clippath">
      <rect class="cls-1" x="3.61" y="3.61" width="22.77" height="22.77"/>
    </clipPath>
  </defs>
  <g class="cls-3">
    <g id="Grupo_35726">
      <path id="Trazado_19643" class="cls-2" d="M15,3.61c-6.29,0-11.39,5.1-11.39,11.39s5.1,11.39,11.39,11.39,11.39-5.1,11.39-11.39S21.29,3.61,15,3.61M15,23.27c-4.57,0-8.27-3.7-8.27-8.27s3.7-8.27,8.27-8.27,8.27,3.7,8.27,8.27-3.7,8.27-8.27,8.27h0"/>
      <path id="Trazado_19644" class="cls-2" d="M15,8.65c-3.51,0-6.35,2.84-6.35,6.35s2.84,6.35,6.35,6.35,6.35-2.84,6.35-6.35h0c0-3.51-2.84-6.35-6.35-6.35h0M15,18.64c-2.01,0-3.64-1.63-3.64-3.64s1.63-3.64,3.64-3.64,3.64,1.63,3.64,3.64c0,2.01-1.63,3.64-3.64,3.64h0"/>
      <path id="Trazado_19645" class="cls-2" d="M13.2,15c0-.99.81-1.8,1.8-1.8.99,0,1.8.81,1.8,1.8,0,.99-.81,1.8-1.8,1.8-1,0-1.8-.81-1.8-1.8"/>
    </g>
  </g>
</svg>
