<?xml version="1.0" encoding="UTF-8"?>
<svg id="Capa_1" xmlns="http://www.w3.org/2000/svg" xmlns:xlink="http://www.w3.org/1999/xlink" viewBox="0 0 30 30">
  <defs>
    <style>
      .cls-1 {
        fill: currentColor;
      }

      .cls-2 {
        fill: currentColor;
      }

      .cls-3 {
        clip-path: url(#clippath);
      }
    </style>
    <clipPath id="clippath">
      <rect class="cls-1" x="4.95" y="2.5" width="20.1" height="25"/>
    </clipPath>
  </defs>
  <g class="cls-3">
    <g id="Grupo_35606">
      <path id="Trazado_19522" class="cls-2" d="M22.84,12.5h-.6v-2.69c0-4-3.24-7.25-7.25-7.25-4,0-7.25,3.24-7.25,7.25h0v2.7h-.6c-1.22,0-2.2,1-2.2,2.22v10.55c0,1.22.98,2.22,2.21,2.22h15.68c1.22,0,2.21-1,2.21-2.22,0,0,0,0,0,0v-10.55c0-1.22-.98-2.22-2.21-2.22,0,0,0,0,0,0M15.92,20.14v1.38c0,.2-.16.37-.37.37,0,0,0,0,0,0h-1.11c-.2,0-.37-.17-.37-.37v-1.38c-.83-.51-1.09-1.6-.58-2.43.51-.83,1.6-1.09,2.43-.58.83.51,1.09,1.6.58,2.43-.15.24-.35.44-.58.58M19.07,12.5h-8.14v-2.69c-.04-2.25,1.76-4.1,4.01-4.13,2.25-.04,4.1,1.76,4.13,4.01,0,.04,0,.09,0,.13v2.69Z"/>
    </g>
  </g>
</svg>
