<?xml version="1.0" encoding="UTF-8"?>
<svg id="Capa_1" xmlns="http://www.w3.org/2000/svg" xmlns:xlink="http://www.w3.org/1999/xlink" viewBox="0 0 30 30">
  <defs>
    <style>
      .cls-1 {
        fill: currentColor;
      }

      .cls-2 {
        fill: currentColor;
      }

      .cls-3 {
        clip-path: url(#clippath);
      }
    </style>
    <clipPath id="clippath">
      <rect class="cls-1" x="7.44" y="3.34" width="15.11" height="23.32"/>
    </clipPath>
  </defs>
  <g class="cls-3">
    <g id="Grupo_35755">
      <path id="Trazado_19673" class="cls-2" d="M22.38,23.39c0-.14-.13-.25-.27-.25H7.89c-.14,0-.26.11-.27.25l-.17,2.69c-.02.3.21.56.51.58.01,0,.02,0,.04,0h14.03c.3,0,.54-.24.54-.54,0-.01,0-.02,0-.04l-.17-2.69Z"/>
      <path id="Trazado_19674" class="cls-2" d="M21.54,9.27c-.02-.29-.25-.51-.54-.51h-1.88c-.09-3.25-1.72-5.42-4.12-5.42s-4.03,2.17-4.12,5.42h-1.88c-.29,0-.52.22-.54.51l-.69,11.66c-.02.3.21.56.51.57.01,0,.02,0,.03,0h13.37c.3,0,.54-.24.54-.54,0-.01,0-.02,0-.03l-.69-11.66ZM11.34,13.1c-.6,0-1.08-.49-1.08-1.08s.49-1.08,1.08-1.08c.6,0,1.08.48,1.08,1.08,0,.6-.48,1.08-1.08,1.09,0,0,0,0,0,0M12.51,8.76c.06-1.81.74-3.8,2.49-3.8s2.43,1.99,2.49,3.8h-4.99ZM18.66,13.37c-.6,0-1.08-.49-1.08-1.08s.49-1.08,1.08-1.08,1.08.49,1.08,1.08c0,.6-.48,1.08-1.08,1.08,0,0,0,0,0,0"/>
    </g>
  </g>
</svg>
