<?xml version="1.0" encoding="UTF-8"?>
<svg id="Capa_1" xmlns="http://www.w3.org/2000/svg" xmlns:xlink="http://www.w3.org/1999/xlink" viewBox="0 0 30 30">
  <defs>
    <style>
      .cls-1 {
        fill: currentColor;
      }

      .cls-2 {
        fill: currentColor;
      }

      .cls-3 {
        clip-path: url(#clippath);
      }
    </style>
    <clipPath id="clippath">
      <rect class="cls-1" x="3.34" y="3.34" width="23.32" height="23.32"/>
    </clipPath>
  </defs>
  <g class="cls-3">
    <g id="Grupo_35745">
      <path id="Trazado_19664" class="cls-2" d="M19.8,18.84l-2.51-5.64c-.1-.22-.27-.39-.49-.49l-5.64-2.51c-.41-.12-.84.11-.96.52-.04.15-.04.3,0,.45l2.51,5.64c.1.22.27.39.49.49l5.64,2.52c.41.13.84-.1.97-.51.05-.15.05-.31,0-.46M15,16.16c-.64,0-1.16-.52-1.16-1.16s.52-1.16,1.16-1.16,1.16.52,1.16,1.16h0c0,.64-.52,1.16-1.16,1.16"/>
      <path id="Trazado_19665" class="cls-2" d="M15,20.08c-.49,0-.9.4-.9.9,0,0,0,0,0,0v.6c.02.5.43.88.93.87.47-.02.85-.39.87-.87v-.6c0-.49-.4-.9-.9-.9h0M9.32,14.4h-.6c-.5.02-.88.43-.87.93.02.47.39.85.87.87h.6c.5.02.91-.37.93-.87.02-.5-.37-.91-.87-.93-.02,0-.04,0-.06,0M15,8.12c-.49,0-.9.4-.9.9,0,0,0,0,0,0v.6c.02.5.43.88.93.87.47-.02.85-.39.87-.87v-.6c0-.49-.4-.9-.9-.9,0,0,0,0,0,0M15,3.34c-6.44,0-11.66,5.22-11.66,11.66s5.22,11.66,11.66,11.66,11.66-5.22,11.66-11.66c0-6.44-5.22-11.65-11.66-11.66M15,23.67c-4.79,0-8.67-3.88-8.67-8.67s3.88-8.67,8.67-8.67,8.67,3.88,8.67,8.67c0,4.79-3.88,8.66-8.67,8.67M21.28,14.4h-.6c-.5.02-.88.43-.87.93.02.47.39.85.87.87h.6c.5-.02.88-.43.87-.93-.02-.47-.39-.85-.87-.87"/>
    </g>
  </g>
</svg>
