<?xml version="1.0" encoding="UTF-8"?>
<svg id="Capa_1" xmlns="http://www.w3.org/2000/svg" xmlns:xlink="http://www.w3.org/1999/xlink" viewBox="0 0 30 30">
  <defs>
    <style>
      .cls-1 {
        fill: currentColor;
      }

      .cls-2 {
        fill: currentColor;
      }

      .cls-3 {
        clip-path: url(#clippath);
      }
    </style>
    <clipPath id="clippath">
      <rect class="cls-1" x="3.77" y="3.84" width="22.46" height="22.32"/>
    </clipPath>
  </defs>
  <g class="cls-3">
    <g id="Grupo_35701">
      <path id="Trazado_19619" class="cls-2" d="M14.94,3.84c2.97.02,5.82,1.17,7.96,3.22,4.39,4.33,4.43,11.4.1,15.78-2.13,2.15-5.04,3.35-8.06,3.32-2.94.01-5.76-1.15-7.84-3.22-4.39-4.31-4.45-11.36-.14-15.74.05-.05.09-.09.14-.14,2.11-2.03,4.91-3.18,7.84-3.22M14.31,10.71c.47,0,.86.37.86.84,0,0,0,.02,0,.03.01.5-.37.92-.86.96-.53,0-.96-.42-.97-.95,0,0,0,0,0,0,0-.49.4-.88.89-.87.03,0,.05,0,.08,0M21.83,13.82c1.24.06,2.2,1.12,2.14,2.36-.06,1.16-.98,2.09-2.14,2.14-1.24,0-2.25-1.01-2.25-2.25s1.01-2.25,2.25-2.25M19.57,10.49c.32.03.56.32.53.64.03.33-.21.61-.53.65-.35-.02-.63-.3-.65-.65.03-.35.3-.62.65-.64M16.25,13.71c.48.02.85.41.83.89-.01.45-.38.82-.83.83-.48.06-.91-.28-.97-.75-.06-.48.28-.91.75-.97.07,0,.14,0,.22,0M14.95,18.54c1.48,0,2.68,1.21,2.67,2.7s-1.21,2.68-2.7,2.67c-1.48,0-2.67-1.2-2.67-2.68-.03-1.46,1.13-2.66,2.59-2.69.03,0,.07,0,.1,0M13.87,6.42c.68-.03,1.26.5,1.29,1.18,0,.03,0,.07,0,.1,0,.72-.58,1.29-1.29,1.29s-1.29-.58-1.29-1.29c-.03-.68.51-1.26,1.19-1.28.03,0,.07,0,.1,0M9.36,12.1c1.65.03,2.97,1.36,3.01,3.01,0,1.66-1.34,3-3,3.01,0,0,0,0,0,0-1.62.04-2.97-1.24-3.01-2.86,0-.05,0-.1,0-.15,0-1.66,1.35-3.01,3.01-3.01,0,0,0,0,0,0M21.93,8.13c-1.84-1.87-4.36-2.92-6.99-2.89-2.59-.03-5.08,1.02-6.87,2.89-1.88,1.79-2.93,4.28-2.91,6.87,0,2.62,1.05,5.13,2.91,6.98,1.83,1.8,4.3,2.81,6.87,2.79,2.6.01,5.11-.99,6.99-2.79,1.82-1.87,2.86-4.37,2.91-6.98-.03-2.59-1.07-5.06-2.91-6.87"/>
    </g>
  </g>
</svg>
