<?xml version="1.0" encoding="UTF-8"?>
<svg id="Capa_1" xmlns="http://www.w3.org/2000/svg" xmlns:xlink="http://www.w3.org/1999/xlink" viewBox="0 0 30 30">
  <defs>
    <style>
      .cls-1 {
        fill: currentColor;
      }

      .cls-2 {
        fill: currentColor;
      }

      .cls-3 {
        clip-path: url(#clippath);
      }
    </style>
    <clipPath id="clippath">
      <rect class="cls-1" x="3" y="3.07" width="24" height="23.87"/>
    </clipPath>
  </defs>
  <g class="cls-3">
    <g id="Grupo_35586">
      <path id="Trazado_19503" class="cls-2" d="M26.32,26.26c-.67.67-1.55.88-1.96.47l-.77-.77,2.4-2.45.8.8c.41.41.2,1.29-.47,1.96"/>
      <path id="Trazado_19504" class="cls-2" d="M25.31,22.73l-4.98-4.98c2.89-4.35,1.71-10.21-2.63-13.1-1.55-1.03-3.38-1.58-5.25-1.58C7.23,3.07,3,7.3,3,12.52s4.23,9.45,9.45,9.45c1.96-.01,3.88-.63,5.48-1.76l4.97,4.97,2.4-2.45ZM19.1,12.65c0,3.67-2.98,6.65-6.65,6.65-3.67,0-6.65-2.98-6.65-6.65,0-3.67,2.98-6.64,6.65-6.65,3.67,0,6.65,2.98,6.65,6.65h0"/>
    </g>
  </g>
</svg>
