<?xml version="1.0" encoding="UTF-8"?>
<svg id="Capa_1" xmlns="http://www.w3.org/2000/svg" viewBox="0 0 100 100">
  <defs>
    <style>
      .cls-1 {
        fill: currentColor;
      }
    </style>
  </defs>
  <g id="Grupo_31278-2">
    <path id="Trazado_18469" class="cls-1" d="M85.84,96.35l-16.26-16.9c-5.66,3.67-12.14,5.85-18.86,6.35.13-2.37.22-4.71.42-7.03.13-.45.46-.82.89-1.01,1.05-.43,2.13-.78,3.23-1.07,17.56-4.55,28.1-22.47,23.55-40.03-4.55-17.56-22.47-28.1-40.03-23.55-11.19,2.9-20.02,11.46-23.28,22.55-.22.74-.42,1.49-.52,1.84l-8.69.86c.73-3.09,1.66-6.13,2.77-9.11C14.63,15.24,27.56,5.49,42.58,4c.41-.09.81-.21,1.2-.36h5.58c1.27.16,2.54.31,3.81.5,22.51,3.48,37.95,24.55,34.47,47.06-.64,4.16-1.92,8.2-3.79,11.98-.75,1.05-.53,2.5.5,3.28,5.27,5.35,10.44,10.76,15.65,16.15v1.29c-.57.62-1.12,1.27-1.72,1.87-3.56,3.53-7.13,7.06-10.73,10.58h-1.72Z"/>
    <path id="Trazado_18470" class="cls-1" d="M0,61.59c.61-1.52,2.26-2.35,3.84-1.93,1.47.57,3.12-.16,3.69-1.63.1-.25.16-.51.18-.78.3-.79.69-1.55,1.16-2.25-.65-.7-1.32-1.4-1.98-2.14-1.62-1.75-1.58-2.85.16-4.55.26-.25.52-.48.78-.73,3.81-3.59,3.79-3.57,7.62-.03.58.4,1.29.54,1.97.4,1.23-.32,2.43-.73,3.6-1.21.05-1.04.09-2.17.17-3.3.12-1.68.93-2.65,2.73-2.59,1.5.05,3,.04,4.5.09,1.64.05,2.8.99,2.45,2.54-.92,4.02,1.98,4.83,4.71,6.06.75-.68,1.54-1.38,2.31-2.12.87-1.1,2.48-1.29,3.58-.41.14.11.27.24.38.37,1.07,1.04,2.14,2.14,3.13,3.24,1.07,1.18,1.33,2.69-.02,3.57-3.47,2.23-2.26,4.86-.93,7.79.98,0,2.05-.02,3.12,0,1.31-.15,2.5.78,2.65,2.1.02.19.02.38,0,.56,0,1.36,0,2.72-.04,4.08-.09,2.23-.98,3.07-3.19,3.11-1.12.02-2.64-.36-3.28.21-.94,1.07-1.6,2.35-1.93,3.73-.15.45.36,1.27.78,1.74,2.83,3.21,2.85,3.38-.24,6.39l-.46.45c-3.12,3.02-3.61,3.07-6.51-.11-.64-1.03-2-1.35-3.03-.71-.02.01-.04.02-.06.04-.97.41-1.97.75-3,1.01-.05,1.1-.05,2.3-.19,3.49.02,1.34-1.05,2.44-2.39,2.47-.1,0-.19,0-.29-.01l-4.5-.08c-1.31.14-2.49-.81-2.63-2.12-.02-.19-.02-.37,0-.56-.03-.5-.03-1,.03-1.5.41-1.29-.3-2.66-1.59-3.07-.13-.04-.25-.07-.38-.09-.91-.35-1.78-.78-2.6-1.29-.85.79-1.7,1.64-2.62,2.42-.92.95-2.44.98-3.4.06-.03-.03-.06-.05-.08-.08-1.21-1.12-2.34-2.31-3.38-3.58-1.26-1.55-.65-2.88.67-4.1.77-.71,2.04-1.56,2.03-2.32-.14-1.49-.61-2.93-1.39-4.21-.24-.45-1.39-.36-2.1-.6-1.35-.43-2.7-.9-4.05-1.36v-6.44M34.85,65.76c0-5.48-4.44-9.92-9.91-9.92s-9.92,4.44-9.92,9.91c0,5.43,4.37,9.86,9.81,9.92,5.5.04,9.99-4.39,10.03-9.88,0,0,0-.01,0-.02"/>
  </g>
</svg>
