<?xml version="1.0" encoding="UTF-8"?>
<svg id="Capa_1" xmlns="http://www.w3.org/2000/svg" xmlns:xlink="http://www.w3.org/1999/xlink" viewBox="0 0 30 30">
  <defs>
    <style>
      .cls-1 {
        fill: currentColors;
      }

      .cls-2 {
        fill: currentColor;
      }

      .cls-3 {
        clip-path: url(#clippath);
      }
    </style>
    <clipPath id="clippath">
      <rect class="cls-1" x="3.73" y="2.5" width="22.53" height="25"/>
    </clipPath>
  </defs>
  <g class="cls-3">
    <g id="Grupo_35811">
      <path id="Trazado_19730" class="cls-2" d="M24.48,9.83c-.1,0-.19.01-.29.03-1-4.28-4.8-7.33-9.2-7.36-4.4.04-8.2,3.08-9.2,7.36-.09-.02-.18-.02-.27-.03-.99,0-1.79.8-1.79,1.79v2.15c0,.99.8,1.79,1.79,1.79.21,0,.42-.04.62-.12.54,1.36,1.85,2.26,3.32,2.26.4,0,.72-.32.72-.72s-.32-.72-.72-.72c-1.18,0-2.14-.96-2.15-2.15v-2.26c.11-4.18,3.5-7.52,7.68-7.57,4.29.05,7.73,3.57,7.69,7.87,0,.02,0,.03.01.05v1.56c-.02.99.76,1.81,1.75,1.83.99.02,1.81-.76,1.83-1.75,0-.03,0-.06,0-.08v-2.15c0-.99-.8-1.79-1.79-1.79"/>
      <path id="Trazado_19731" class="cls-2" d="M20.86,19.84h-2.1c-.47,0-.91.23-1.17.61l-1.47,2.1c-.45.65-1.34.81-1.99.35-.14-.1-.27-.23-.36-.37l-1.4-2.07c-.27-.39-.71-.63-1.18-.63h-2.06c-2.66,0-4.81,2.15-4.81,4.81v2.13c0,.39.32.71.71.72h19.94c.39,0,.72-.32.72-.72h0v-2.13c0-2.66-2.15-4.81-4.81-4.81M14.99,18.05c3.26,0,5.9-2.64,5.9-5.9s-2.64-5.9-5.9-5.9-5.9,2.64-5.9,5.9h0c0,3.26,2.64,5.9,5.9,5.9"/>
    </g>
  </g>
</svg>
