<?xml version="1.0" encoding="UTF-8"?>
<svg id="Capa_1" xmlns="http://www.w3.org/2000/svg" viewBox="0 0 100 100">
  <defs>
    <style>
      .cls-1 {
        fill: currentColor;
      }
    </style>
  </defs>
  <g id="Grupo_29516">
    <path id="Trazado_16287" class="cls-1" d="M50,38.75h26.44c6.18-.37,11.49,4.34,11.85,10.52.02.39.03.77,0,1.16.06,12.66.06,25.32,0,37.98.15,6.23-4.77,11.41-11,11.56-.18,0-.35,0-.53,0-17.87.03-35.74.03-53.61,0-6.18.15-11.31-4.73-11.46-10.91,0-.15,0-.29,0-.44-.06-12.9-.06-25.8,0-38.7-.03-6.13,4.91-11.12,11.03-11.15.04,0,.08,0,.12,0,9.05-.07,18.11,0,27.17-.02M42.24,66.3c.28.71.44,2.63,1.46,3.4,2.83,2.14,2.38,4.97,2.38,7.8v2.4c.05,3.08,1.43,4.76,3.87,4.77s3.92-1.66,3.98-4.67c.03-1.44.06-2.89,0-4.33-.3-1.97.41-3.96,1.88-5.31,2.36-2.48,2.65-6.27.69-9.08-1.83-2.85-5.31-4.18-8.57-3.25-3.58,1.1-5.94,4.52-5.69,8.26"/>
    <path id="Trazado_16288" class="cls-1" d="M34.4,34.58h-11.1c-.58-11.02.92-21.37,10.06-28.69C41.36-.64,52.46-1.85,61.68,2.81c8.89,3.86,12.99,11.55,14.51,20.71.6,3.59.54,7.28.79,11.08h-11.4c-.14-2.69-.14-5.3-.45-7.89-.05-5.49-2.99-10.55-7.74-13.32-7.36-4.04-16.6-1.34-20.63,6.02-1.17,2.13-1.81,4.52-1.87,6.95-.26,2.63-.32,5.27-.48,8.22"/>
  </g>
</svg>
