<?xml version="1.0" encoding="UTF-8"?>
<svg id="Capa_1" xmlns="http://www.w3.org/2000/svg" viewBox="0 0 100 100">
  <defs>
    <style>
      .cls-1 {
        fill: currentColor;
      }
    </style>
  </defs>
  <path id="icons8_image_file_add" class="cls-1" d="M15.47,0C9.56,0,4.76,4.8,4.76,10.72v73.81c0,5.92,4.8,10.71,10.72,10.72h31.23c-2.04-2.12-3.77-4.53-5.13-7.14H15.47c-1.97,0-3.57-1.6-3.57-3.57v-6.05l11.56-11.08c1.01-.98,2.61-.98,3.63,0l11.33,10.83c-.21-1.46-.31-2.94-.32-4.42,0-1.78.15-3.57.46-5.32l-6.52-6.25c-3.77-3.62-9.73-3.62-13.51,0l-6.62,6.35V10.72c0-1.97,1.6-3.57,3.57-3.57h27.38v20.24c0,5.92,4.8,10.71,10.72,10.72h20.24v5.12c2.45.38,4.85,1.05,7.14,2.01v-10.71c0-.94-.38-1.84-1.05-2.5L48.92,1.05c-.66-.67-1.56-1.04-2.5-1.05H15.47ZM50,12.19l18.76,18.76h-15.19c-1.97,0-3.57-1.6-3.57-3.57v-15.18ZM41.67,42.86c-3.29,0-5.95,2.66-5.95,5.95,0,3.29,2.66,5.95,5.95,5.95,3.29,0,5.95-2.66,5.95-5.95h0c0-3.29-2.66-5.95-5.95-5.95t0,0ZM69.05,47.62c-14.47,0-26.19,11.73-26.19,26.19s11.73,26.19,26.19,26.19,26.19-11.73,26.19-26.19-11.73-26.19-26.19-26.19h0,0ZM69.05,54.76c1.32,0,2.38,1.07,2.38,2.38h0v14.28h14.28c1.31-.08,2.44.92,2.52,2.24.08,1.31-.92,2.44-2.24,2.52-.09,0-.19,0-.28,0h-14.29v14.28c-.08,1.31-1.21,2.32-2.52,2.24-1.21-.07-2.17-1.03-2.24-2.24v-14.28h-14.29c-1.31.08-2.44-.92-2.52-2.24s.92-2.44,2.24-2.52c.09,0,.19,0,.28,0h14.28v-14.29c0-1.32,1.07-2.38,2.38-2.38h0Z"/>
</svg>
