<?xml version="1.0" encoding="UTF-8"?>
<svg id="Capa_1" xmlns="http://www.w3.org/2000/svg" viewBox="0 0 100 100">
  <defs>
    <style>
      .cls-1 {
        fill: currentColor;
      }
    </style>
  </defs>
  <g id="Grupo_34437-3">
    <path id="Trazado_18635" class="cls-1" d="M99.85,77.91c0-11.95-1.3-13.4-12.96-14.49-.1,0-.18-.15-.63-.54v-3.36c.06-15.51,1.17-14.13-14.31-14.11h-17.12v-9.07h2.55c7.45-.11,10.73-3.43,10.76-10.93,0-5.29.07-10.58-.02-15.87.28-4.96-3.52-9.2-8.48-9.48-.35-.02-.7-.02-1.05,0-5.66-.08-11.32-.06-16.99-.01-4.98-.39-9.33,3.34-9.72,8.32-.03.43-.04.86,0,1.29-.07,5.54-.05,11.08,0,16.62-.47,5.07,3.25,9.57,8.33,10.04.6.06,1.2.05,1.8,0,1.08.02,2.16.14,3.17.2v8.86c-8.72,0-17.14-.02-25.56,0-4.37,0-5.83,1.5-5.87,5.91-.03,3.99,0,7.98,0,12.3-6.35-.76-11.17.78-13.61,6.75v22.68c1.8,4.77,6.7,7.64,11.74,6.86,4.64-.28,9.31-.04,13.96-.06,5.1.72,9.81-2.83,10.53-7.93.11-.81.12-1.64.02-2.45.04-5.16.04-10.33,0-15.49-.04-6.92-3.46-10.32-10.49-10.44-.96,0-1.92-.13-2.82-.2v-8.65h53.88v8.89h-2.8c-7.23.11-10.55,3.46-10.57,10.71,0,5.42-.08,10.83.02,16.24-.19,4.96,3.68,9.12,8.64,9.31.22,0,.44,0,.65,0,5.78.11,11.58.09,17.36,0,5.01.28,9.31-3.56,9.59-8.57.02-.41.02-.83-.02-1.24.06-4.03,0-8.07,0-12.09"/>
  </g>
</svg>