<?xml version="1.0" encoding="UTF-8"?>
<svg id="Capa_1" xmlns="http://www.w3.org/2000/svg" xmlns:xlink="http://www.w3.org/1999/xlink" viewBox="0 0 30 30">
  <defs>
    <style>
      .cls-1 {
        fill: currentColor;
      }

      .cls-2 {
        fill: currentColor;
      }

      .cls-3 {
        clip-path: url(#clippath);
      }
    </style>
    <clipPath id="clippath">
      <rect class="cls-1" x="2.59" y="3.84" width="24.82" height="22.32"/>
    </clipPath>
  </defs>
  <g class="cls-3">
    <g id="Grupo_35703">
      <path id="Trazado_19620" class="cls-2" d="M27.37,25.15l-1.13-3.4c-.06-.19-.05-.4.05-.58,2.24-4.35.53-9.7-3.83-11.94-.39-.2-.8-.37-1.22-.52.79,1.9,1,3.99.63,6.01-.81,4.21-4.13,7.5-8.35,8.27-.54.09-1.09.15-1.64.16,2.69,2.92,6.99,3.69,10.53,1.89.18-.09.39-.11.58-.05l3.41,1.14c.4.13.83-.08.97-.49.05-.16.05-.33,0-.48"/>
      <path id="Trazado_19621" class="cls-2" d="M9.9,4c-4.81.94-7.94,5.59-7.01,10.4.16.82.44,1.62.82,2.36.09.18.11.39.05.58l-1.13,3.4c-.13.4.08.83.48.97.16.05.33.05.48,0l3.41-1.14c.19-.06.4-.05.58.05,4.37,2.22,9.71.47,11.93-3.9,2.22-4.37.47-9.71-3.9-11.93-1.77-.9-3.78-1.18-5.72-.8M15.32,13.75c0,.17-.14.32-.32.32h-2.2v2.2c0,.17-.14.32-.32.32h-2.52c-.17,0-.32-.14-.32-.32v-2.2h-2.2c-.17,0-.32-.14-.32-.32v-2.52c0-.17.14-.32.32-.32h2.2v-2.2c0-.17.14-.32.32-.32h2.52c.17,0,.32.14.32.32v2.2h2.21c.17,0,.32.14.32.32v2.52Z"/>
    </g>
  </g>
</svg>
