<?xml version="1.0" encoding="UTF-8"?>
<svg id="Capa_1" xmlns="http://www.w3.org/2000/svg" xmlns:xlink="http://www.w3.org/1999/xlink" viewBox="0 0 30 30">
  <defs>
    <style>
      .cls-1 {
        fill: currentColor;
      }

      .cls-2 {
        fill: currentColor;
      }

      .cls-3 {
        clip-path: url(#clippath);
      }
    </style>
    <clipPath id="clippath">
      <rect class="cls-1" y="6.66" width="30" height="16.68"/>
    </clipPath>
  </defs>
  <g class="cls-3">
    <g id="Grupo_35807">
      <path id="Trazado_19726" class="cls-2" d="M29.23,6.66H.77c-.42,0-.77.34-.77.77v10.77c0,.42.34.77.77.77h28.46c.42,0,.77-.34.77-.77V7.43c0-.42-.34-.77-.77-.77M9.44,14l-.83,1.44-1.74-1.32.22,1.76h-1.54l.22-1.76-1.74,1.32-.84-1.44,1.99-.84-1.99-.84.84-1.44,1.73,1.31-.21-1.68h1.54l-.21,1.68,1.73-1.31.83,1.44-1.99.84,1.99.84ZM18.12,14l-.83,1.44-1.74-1.32.22,1.76h-1.54l.22-1.76-1.74,1.32-.83-1.44,1.99-.84-1.99-.84.83-1.44,1.73,1.31-.21-1.68h1.54l-.21,1.68,1.73-1.31.83,1.44-1.99.84,1.99.84ZM26.8,14l-.83,1.44-1.74-1.32.22,1.76h-1.54l.22-1.76-1.74,1.32-.83-1.44,1.99-.84-1.99-.84.83-1.44,1.73,1.31-.21-1.68h1.54l-.21,1.68,1.73-1.31.83,1.44-1.99.84,1.99.84Z"/>
      <path id="Trazado_19727" class="cls-2" d="M28.27,21.03H1.73c-.64.02-1.14.55-1.12,1.19.02.61.51,1.1,1.12,1.12h26.54c.64-.02,1.14-.55,1.12-1.19-.02-.61-.51-1.1-1.12-1.12"/>
    </g>
  </g>
</svg>
