<?xml version="1.0" encoding="UTF-8"?>
<svg id="Capa_1" xmlns="http://www.w3.org/2000/svg" xmlns:xlink="http://www.w3.org/1999/xlink" viewBox="0 0 30 30">
  <defs>
    <style>
      .cls-1 {
        fill: currentColor;
      }

      .cls-2 {
        fill: currentColor;
      }

      .cls-3 {
        clip-path: url(#clippath);
      }
    </style>
    <clipPath id="clippath">
      <rect class="cls-1" x="1.6" y="2.5" width="26.79" height="25"/>
    </clipPath>
  </defs>
  <g class="cls-3">
    <g id="Grupo_35596">
      <path id="Trazado_19514" class="cls-2" d="M27.23,9.27c-.81-.19-1.61.32-1.8,1.12,0,0,0,0,0,0l-1.74,7.56-13.1-.12-3.16-12.62c-.1-.4-.37-.75-.73-.95l-2.87-1.58c-.73-.4-1.64-.13-2.04.59-.4.73-.13,1.64.59,2.04l2.29,1.26,3.21,12.86-1.73,1.37c-.21.16-.33.41-.33.67v2.15c0,.47.38.85.85.86l2.43.03c-.69.65-.73,1.73-.08,2.43.65.69,1.73.73,2.43.08.69-.65.73-1.73.08-2.43-.02-.02-.03-.03-.05-.05l11.35.16c-.59.74-.47,1.82.27,2.42.74.59,1.82.47,2.42-.27.49-.61.5-1.48.03-2.11l1.48.02h.01c.47-.01.85-.41.84-.88-.01-.45-.37-.82-.82-.84l-19.5-.27v-.88l1.43-1.13c.14.04.28.07.42.07l15.47.14h.01c.7,0,1.31-.48,1.47-1.17l2.01-8.74c.19-.81-.32-1.61-1.12-1.8,0,0,0,0,0,0"/>
      <path id="Trazado_19515" class="cls-2" d="M20.72,9.88h-1.4v-4.05c0-.5-.4-.9-.9-.9h-2.69c-.5,0-.9.4-.9.9h0v4.05h-1.4c-.62,0-.82.4-.45.9l1.04,1.4,1.34,1.8,1.04,1.4c.23.37.72.48,1.09.25.1-.06.19-.15.25-.25l1.04-1.4,1.34-1.8,1.04-1.4c.37-.5.16-.9-.45-.9"/>
    </g>
  </g>
</svg>
