<svg id="_0532a83eae38c82133461feb63373403" data-name="0532a83eae38c82133461feb63373403" xmlns="http://www.w3.org/2000/svg" width="315.398" height="315.397" viewBox="0 0 315.398 315.397">
  <path id="Trazado_13191" data-name="Trazado 13191" d="M262.833,266.831H52.567A52.721,52.721,0,0,1,0,214.265V17.142C0,9.257,5.257,4,13.142,4H302.258C310.143,4,315.4,9.257,315.4,17.142V214.265A52.721,52.721,0,0,1,262.833,266.831ZM26.283,30.283V214.265a26.36,26.36,0,0,0,26.283,26.283H262.833a26.36,26.36,0,0,0,26.283-26.283V30.283Z" transform="translate(0 48.566)" fill="currentColor"/>
  <path id="Trazado_13192" data-name="Trazado 13192" d="M290.116,53.566H1V40.425C1,18.084,18.084,1,40.425,1H250.691c22.341,0,39.425,17.084,39.425,39.425Z" transform="translate(12.142 12.142)" fill="currentColor"/>
  <path id="Trazado_13193" data-name="Trazado 13193" d="M302.258,78.849H13.142C5.257,78.849,0,73.593,0,65.708V52.566A52.721,52.721,0,0,1,52.567,0H262.833A52.721,52.721,0,0,1,315.4,52.566V65.708C315.4,73.593,310.143,78.849,302.258,78.849ZM26.283,52.566H289.116a26.36,26.36,0,0,0-26.283-26.283H52.567A26.36,26.36,0,0,0,26.283,52.566Z" fill="currentColor"/>
  <path id="Trazado_13194" data-name="Trazado 13194" d="M19.142,266.831C11.257,266.831,6,261.574,6,253.689V17.142C6,9.257,11.257,4,19.142,4S32.283,9.257,32.283,17.142V253.689C32.283,261.574,27.027,266.831,19.142,266.831Z" transform="translate(72.85 48.566)" fill="currentColor"/>
  <path id="Trazado_13195" data-name="Trazado 13195" d="M302.258,36.283H13.142C5.257,36.283,0,31.026,0,23.142S5.257,10,13.142,10H302.258c7.885,0,13.142,5.257,13.142,13.142S310.143,36.283,302.258,36.283Z" transform="translate(0 121.415)" fill="currentColor"/>
  <path id="Trazado_13196" data-name="Trazado 13196" d="M302.258,42.283H13.142C5.257,42.283,0,37.026,0,29.142S5.257,16,13.142,16H302.258c7.885,0,13.142,5.257,13.142,13.142S310.143,42.283,302.258,42.283Z" transform="translate(0 194.265)" fill="currentColor"/>
</svg>
