<?xml version="1.0" encoding="UTF-8"?>
<svg id="Capa_1" xmlns="http://www.w3.org/2000/svg" viewBox="0 0 30 30">
  <defs>
    <style>
      .cls-1 {
        fill: currentColor;
      }
    </style>
  </defs>
  <path id="Icon_awesome-cogs" class="cls-1" d="M23.99,12l-.38.67c-.14.25-.44.35-.71.25-.55-.2-1.05-.5-1.5-.87-.22-.18-.27-.49-.13-.73l.38-.67c-.32-.38-.58-.81-.74-1.28h-.77c-.28,0-.53-.2-.57-.48-.1-.57-.1-1.16,0-1.74.05-.28.29-.49.57-.49h.77c.17-.47.42-.9.74-1.28l-.38-.67c-.14-.24-.09-.56.13-.73.45-.37.95-.67,1.5-.87.27-.1.56,0,.71.25l.38.67c.49-.09.99-.09,1.48,0l.38-.67c.14-.25.44-.35.71-.25.55.2,1.05.5,1.5.87.22.18.27.49.13.73l-.38.67c.32.38.58.81.74,1.28h.77c.28,0,.53.2.57.48.1.57.1,1.16,0,1.74-.05.28-.29.49-.57.49h-.77c-.17.47-.42.9-.74,1.28l.38.67c.14.24.09.56-.13.73-.45.37-.96.67-1.5.87-.27.1-.56,0-.71-.25l-.38-.67c-.49.09-.99.09-1.48,0h0ZM23.49,9.25c.7.66,1.81.63,2.47-.07.64-.67.64-1.73,0-2.4-.7-.66-1.81-.63-2.47.07-.64.67-.64,1.73,0,2.4ZM18.1,16.44l1.58.79c.47.27.68.85.49,1.36-.49,1.13-1.16,2.17-2,3.08-.35.42-.95.52-1.42.25l-1.36-.79c-.76.65-1.63,1.15-2.57,1.48v1.57c0,.54-.39,1.01-.92,1.1-1.17.2-2.38.2-3.55,0-.54-.09-.93-.56-.94-1.1v-1.57c-.94-.33-1.81-.83-2.57-1.48l-1.36.78c-.47.27-1.07.17-1.42-.25-.82-.91-1.49-1.95-1.97-3.07-.19-.51.02-1.09.49-1.36l1.56-.79c-.18-.98-.18-1.99,0-2.97l-1.56-.79c-.47-.27-.68-.84-.49-1.36.48-1.13,1.15-2.17,1.97-3.08.35-.42.95-.52,1.42-.25l1.36.78c.76-.65,1.63-1.15,2.57-1.48v-1.57c0-.54.38-1,.92-1.1,1.18-.2,2.38-.2,3.55,0,.54.09.93.56.93,1.1v1.57c.94.33,1.81.84,2.57,1.48l1.36-.79c.47-.27,1.06-.17,1.41.25.82.91,1.49,1.95,1.97,3.08.2.51,0,1.08-.47,1.36l-1.58.79c.18.98.18,1.99,0,2.97ZM12.6,17.43c2.77-3.6-1.34-7.71-4.94-4.94-2.77,3.6,1.34,7.71,4.94,4.94ZM23.99,25.97l-.38.67c-.14.25-.44.35-.71.25-.55-.2-1.05-.5-1.5-.87-.22-.18-.27-.49-.13-.73l.38-.67c-.32-.38-.58-.81-.74-1.28h-.77c-.28,0-.53-.2-.57-.48-.1-.57-.1-1.16,0-1.74.05-.28.29-.49.57-.49h.77c.17-.47.42-.9.74-1.28l-.38-.67c-.14-.24-.09-.56.13-.73.45-.37.96-.67,1.5-.87.27-.1.56,0,.71.25l.38.67c.49-.09.99-.09,1.48,0l.38-.67c.14-.25.44-.35.71-.25.55.2,1.05.5,1.5.87.22.18.27.49.13.73l-.38.67c.32.38.58.81.74,1.28h.77c.28,0,.53.2.57.48.1.57.1,1.16,0,1.74-.05.28-.29.49-.57.49h-.77c-.17.47-.42.9-.74,1.28l.38.67c.14.24.09.56-.13.73-.45.37-.96.67-1.5.87-.27.1-.56,0-.71-.25l-.38-.67c-.49.09-.99.09-1.48,0ZM23.49,23.22c.7.66,1.81.63,2.47-.07.64-.67.64-1.73,0-2.4-.68-.68-1.79-.68-2.47,0-.68.68-.68,1.79,0,2.47h0Z"/>
</svg>