<?xml version="1.0" encoding="UTF-8"?>
<svg id="Capa_1" xmlns="http://www.w3.org/2000/svg" viewBox="0 0 100 100">
  <defs>
    <style>
      .cls-1 {
        fill: currentColor;
      }
    </style>
  </defs>
  <g id="Grupo_34576">
    <path id="Trazado_18671" class="cls-1" d="M61.26,13.11c.28.56.46,1.15.56,1.76h7.75c.43,0,.84.19,1.14.5.31.32.48.74.48,1.18v42.8c2.15-.36,4.34-.39,6.5-.08V16.54c0-2.21-.85-4.34-2.38-5.94-1.5-1.57-3.57-2.46-5.73-2.46h-12.07l.66,2.31c1.38.38,2.52,1.35,3.11,2.65"/>
    <path id="Trazado_18672" class="cls-1" d="M15.54,87.25c-.43,0-.84-.19-1.14-.5-.3-.32-.47-.74-.47-1.18V16.54c0-.44.17-.86.47-1.18.3-.31.71-.5,1.14-.5h7.75c.1-.61.29-1.21.56-1.76.59-1.3,1.73-2.27,3.11-2.65l.66-2.31h-12.08c-2.17,0-4.24.9-5.73,2.46-1.54,1.6-2.39,3.73-2.38,5.94v69.04c0,2.21.85,4.34,2.38,5.94,1.5,1.57,3.57,2.46,5.73,2.46h41.18c-1.34-2.07-2.34-4.34-2.95-6.73H15.54Z"/>
    <path id="Trazado_18673" class="cls-1" d="M26.94,14.75c-.63,1.28-.12,2.96,1.28,2.96h28.66c1.4,0,1.92-1.68,1.28-2.96-.72-1.46-2.63-.76-2.67-.9l-1.42-5c-.33-1.78-1.79-3.13-3.59-3.33l-3.3-.52v-1.75c.03-1.76-1.37-3.21-3.13-3.25h-3c-1.76.04-3.16,1.49-3.13,3.25v1.75l-3.3.52c-1.8.2-3.26,1.55-3.59,3.33l-1.42,5c-.04.13-1.95-.56-2.67.9M42.54,5.03c2.07.03,3.72,1.74,3.69,3.81,0,0,0,.01,0,.02.05,2.04-1.56,3.73-3.59,3.79-2.04.05-3.73-1.56-3.79-3.59,0-.06,0-.13,0-.19-.04-2.07,1.61-3.78,3.68-3.82,0,0,.01,0,.02,0"/>
    <path id="Trazado_18674" class="cls-1" d="M34.1,31.43c-.03-.19-.14-.36-.29-.48l-1.75-1.25c-.31-.23-.75-.16-.98.15,0,.01-.01.02-.02.03l-4.07,6-2.76-1.98c-.31-.23-.75-.16-.98.16,0,.01-.02.02-.02.03l-1.21,1.82c-.23.34-.15.79.18,1.03l4.22,3.01.87.62c.31.23.75.16.98-.15,0-.01.01-.02.02-.03l.61-.9,5.08-7.5c.11-.16.15-.36.12-.55"/>
    <path id="Trazado_18675" class="cls-1" d="M34.1,47.36c-.03-.19-.14-.36-.29-.48l-1.75-1.25c-.31-.23-.75-.16-.98.15,0,.01-.01.02-.02.03l-4.07,6-2.76-1.98c-.31-.23-.75-.16-.98.16,0,.01-.02.02-.02.03l-1.21,1.82c-.23.34-.15.79.18,1.03l4.22,3.01.87.62c.31.23.75.16.98-.15,0-.01.01-.02.02-.03l.61-.9,5.08-7.5c.11-.16.15-.36.12-.55"/>
    <path id="Trazado_18676" class="cls-1" d="M33.8,62.81l-1.75-1.25c-.31-.23-.75-.16-.98.15,0,.01-.01.02-.02.03l-4.07,6-2.76-1.98c-.31-.23-.75-.16-.98.16,0,.01-.02.02-.02.03l-1.21,1.82c-.23.34-.15.79.18,1.03l4.21,3.01.87.62c.31.23.75.16.98-.15,0-.01.01-.02.02-.03l.61-.9,5.08-7.5c.11-.16.15-.36.12-.55-.03-.19-.14-.36-.29-.48"/>
    <path id="Rectángulo_18004" class="cls-1" d="M40.66,33.18h20.58c1.08,0,1.95.88,1.95,1.95h0c0,1.08-.88,1.95-1.95,1.95h-20.58c-1.08,0-1.95-.88-1.95-1.95h0c0-1.08.88-1.95,1.95-1.95Z"/>
    <path id="Trazado_18677" class="cls-1" d="M62.28,49.11h-22.66c-.51.01-.92.44-.92.95v2c0,.51.4.94.92.95h22.66c.51-.01.92-.44.92-.95v-2c0-.51-.4-.94-.92-.95"/>
    <path id="Trazado_18678" class="cls-1" d="M59.97,65.04h-20.34c-.51.01-.92.43-.92.95v2c0,.51.4.94.92.95h17.1c.93-1.42,2.01-2.74,3.24-3.91"/>
    <path id="Trazado_18679" class="cls-1" d="M74.69,62.96c-10.23-.36-18.8,7.64-19.16,17.87-.36,10.23,7.64,18.8,17.87,19.16,10.23.36,18.8-7.64,19.16-17.87,0-.22.01-.43.01-.65.17-10.05-7.83-18.34-17.88-18.52M84.41,84.71h-6.61c-.69,1.15-1.92,1.86-3.26,1.87-2.17-.04-3.89-1.83-3.85-4h0c0-1.36.67-2.63,1.8-3.38v-7.2c-.04-1.13.85-2.09,1.98-2.13s2.09.85,2.13,1.98c0,.05,0,.1,0,.14v7.22c.49.32.9.75,1.21,1.25h6.61c1.17.06,2.08,1.05,2.02,2.23-.05,1.09-.93,1.97-2.02,2.02"/>
    <path id="Trazado_18680" class="cls-1" d="M74.53,81.11c-.82-.03-1.5.61-1.53,1.42s.61,1.5,1.42,1.53,1.5-.61,1.53-1.42c0-.02,0-.04,0-.05.01-.8-.62-1.46-1.42-1.47h0"/>
  </g>
</svg>
