<?xml version="1.0" encoding="UTF-8"?>
<svg id="Capa_1" xmlns="http://www.w3.org/2000/svg" xmlns:xlink="http://www.w3.org/1999/xlink" viewBox="0 0 30 30">
  <defs>
    <style>
      .cls-1 {
        fill: currentColor;
      }

      .cls-2 {
        fill: currentColor;
      }

      .cls-3 {
        clip-path: url(#clippath);
      }
    </style>
    <clipPath id="clippath">
      <rect class="cls-1" x=".46" y="2.51" width="29.08" height="24.99"/>
    </clipPath>
  </defs>
  <g class="cls-3">
    <g id="Grupo_35827">
      <path id="Trazado_19746" class="cls-2" d="M.46,10.17c.09-3.17,2.07-5.98,5.04-7.12,1.7-.68,3.59-.73,5.32-.14,1.74.56,3.23,1.72,4.2,3.26.17-.24.34-.48.51-.7.64-.81,1.44-1.49,2.34-1.98,3.38-1.86,7.61-1.02,10,2.01.83,1.04,1.37,2.29,1.56,3.61.15.93.13,1.89-.06,2.81-.33,1.68-1.17,3.22-2.41,4.41-.75.73-1.48,1.47-2.21,2.21l-4.38,4.38-1.63,1.64c-.79.79-1.59,1.59-2.38,2.38-.73.74-1.92.74-2.66.01,0,0-.02-.02-.03-.03-.64-.64-1.28-1.28-1.92-1.92l-4.62-4.62-1.37-1.37c-1.02-1.02-2.04-2.03-3.05-3.06-.75-.75-1.33-1.66-1.72-2.65-.17-.44-.31-.9-.4-1.37-.02-.12-.04-.24-.06-.36h3.87c.06,0,.12.03.15.09.77,1.34,1.55,2.69,2.32,4.03.17.35.59.48.94.31.18-.09.31-.25.36-.44.39-1.14.78-2.27,1.17-3.41.36-1.04.71-2.08,1.06-3.12.01-.03.02-.07.05-.13.05.3.1.56.15.83.21,1.19.42,2.39.63,3.58.14.81.28,1.62.42,2.43.11.62.22,1.23.33,1.85.07.43.14.86.22,1.28.08.46.17.91.25,1.37.05.32.3.56.62.6.3.03.59-.13.71-.41.49-1.01.99-2.03,1.48-3.04.38-.79.77-1.58,1.15-2.37,0-.02.02-.04.04-.08l.12.68c.18,1.05.36,2.09.54,3.14.07.38.44.64.82.57.24-.04.44-.2.53-.42.2-.47.39-.94.59-1.42.36-.86.72-1.72,1.07-2.58.04-.11.09-.15.21-.14.1,0,.19,0,.29,0,.07-.01.13.03.15.09.25.64.81,1.11,1.48,1.25,1.13.25,2.24-.46,2.49-1.58s-.46-2.24-1.58-2.49c-1-.22-2.01.31-2.39,1.25-.01.06-.07.1-.13.09-.3,0-.6,0-.9,0-.3-.02-.57.16-.67.44-.24.57-.48,1.14-.72,1.72-.08.2-.16.39-.26.58-.03-.17-.06-.34-.09-.52-.14-.83-.29-1.66-.43-2.49-.04-.21-.07-.41-.11-.62-.07-.28-.3-.49-.59-.53-.29-.04-.57.1-.71.36-.29.6-.58,1.19-.87,1.79-.6,1.23-1.19,2.45-1.78,3.68,0,.02-.02.04-.04.08-.04-.25-.09-.48-.13-.71-.15-.85-.3-1.71-.45-2.56-.14-.79-.28-1.59-.42-2.38-.3-1.7-.6-3.4-.9-5.1-.06-.32-.1-.63-.16-.95-.02-.12-.05-.24-.09-.36-.11-.27-.37-.44-.66-.43-.3,0-.56.19-.65.47-.17.48-.33.95-.49,1.43-.28.82-.56,1.64-.84,2.46-.42,1.24-.84,2.48-1.27,3.72-.02.06-.04.12-.07.19-.03-.06-.06-.1-.09-.15-.31-.55-.63-1.09-.94-1.64-.26-.45-.52-.91-.79-1.36-.13-.22-.37-.36-.62-.35H.46"/>
    </g>
  </g>
</svg>