<?xml version="1.0" encoding="UTF-8"?>
<svg id="Capa_1" xmlns="http://www.w3.org/2000/svg" viewBox="0 0 100 100">
  <defs>
    <style>
      .cls-1 {
        fill: currentColor;
      }
    </style>
  </defs>
  <g id="Grupo_29526">
    <path id="Trazado_16289" class="cls-1" d="M0,75.12v-42.06c.31.19.62.36.93.56,15.09,9.72,30.18,19.46,45.26,29.2,2.56,1.66,4.88,1.68,7.45.02,15.04-9.74,30.11-19.44,45.2-29.1.34-.22.68-.42,1.1-.67,0,13.86.19,27.53-.08,41.19-.13,6.41-3.58,10.99-9.24,13.43-1.59.69-3.39.84-5.1,1.24H14.45c-.25-.07-.5-.12-.76-.15-6.08-.51-11.04-4.6-12.95-10.72-.3-.96-.49-1.96-.74-2.94"/>
    <path id="Trazado_16290" class="cls-1" d="M50.01,11.08c11.55,0,23.1,0,34.65,0,5.93,0,10.44,2.7,13.39,8.17.49.91.76,1.96,1.17,2.93.34.81.12,1.25-.61,1.71-14.13,9.08-28.25,18.19-42.37,27.31-1.75,1.13-3.52,2.22-5.23,3.4-.54.48-1.35.49-1.9.02-15.36-9.92-30.73-19.82-46.12-29.7-.61-.39-1.2-.82-1.84-1.17-.58-.31-.64-.7-.48-1.33,1.63-6.71,7.68-11.41,14.59-11.34,11.58-.02,23.17-.02,34.75,0"/>
  </g>
</svg>
