<?xml version="1.0" encoding="UTF-8"?>
<svg id="Capa_1" xmlns="http://www.w3.org/2000/svg" xmlns:xlink="http://www.w3.org/1999/xlink" viewBox="0 0 30 30">
  <defs>
    <style>
      .cls-1 {
        fill: currentColor;
      }

      .cls-2 {
        fill: currentColor;
      }

      .cls-3 {
        clip-path: url(#clippath);
      }
    </style>
    <clipPath id="clippath">
      <rect class="cls-1" x="5.3" y="3.61" width="19.39" height="22.77"/>
    </clipPath>
  </defs>
  <g class="cls-3">
    <g id="Grupo_35737">
      <path id="Trazado_19656" class="cls-2" d="M15.02,15.89c-.52,0-.93.42-.93.93,0,.52.42.93.93.93s.93-.42.93-.93c0-.25-.1-.49-.27-.66-.18-.18-.41-.27-.66-.27M15,10.59c-3.37,0-6.1,2.73-6.1,6.1s2.73,6.1,6.1,6.1,6.1-2.73,6.1-6.1-2.73-6.1-6.1-6.1h0M18.21,15.15l-1.17,1.05c.33,1.12-.3,2.3-1.42,2.64s-2.3-.3-2.64-1.42c-.33-1.12.3-2.3,1.42-2.64.47-.14.98-.11,1.44.08l1.16-1.04c.37-.33.94-.3,1.27.07.33.37.3.94-.07,1.27"/>
      <path id="Trazado_19657" class="cls-2" d="M16.71,7.15v-.57h1.26c.17,0,.3-.13.3-.3h0v-2.07c0-.33-.27-.6-.6-.6,0,0,0,0,0,0h-5.33c-.33,0-.6.27-.6.6v2.07c0,.17.13.3.3.3h1.26v.57c-1.68.3-3.25,1.04-4.55,2.15l-.75-.75c-.23-.23-.61-.23-.85,0l-1.47,1.47c-.23.23-.23.61,0,.85,0,0,0,0,0,0l.95.95c-2.69,4.63-1.12,10.56,3.5,13.25,4.63,2.69,10.56,1.12,13.25-3.5,2.69-4.63,1.12-10.56-3.5-13.25-.98-.57-2.05-.96-3.17-1.16M15,24.29c-4.2,0-7.6-3.4-7.6-7.6,0-4.2,3.4-7.6,7.6-7.6,4.2,0,7.6,3.4,7.6,7.6h0c0,4.19-3.4,7.59-7.6,7.6"/>
    </g>
  </g>
</svg>
