<?xml version="1.0" encoding="UTF-8"?>
<svg id="Capa_1" xmlns="http://www.w3.org/2000/svg" viewBox="0 0 100 100">
  <defs>
    <style>
      .cls-1 {
        fill: currentColor;
      }
    </style>
  </defs>
  <g id="Grupo_31103-2">
    <path id="Trazado_18400" class="cls-1" d="M97.39,100H2.59V26.18c.2.02.41.06.61.06h30.11c.29-.02.58-.05.87-.1,0-3.08.03-6.07,0-9.07-.06-.85.28-1.68.91-2.26,4.65-4.59,9.27-9.23,13.9-13.85.32-.32.64-.61,1-.96.2.17.36.29.5.43,4.92,4.91,9.85,9.82,14.73,14.77.37.46.57,1.04.56,1.63.03,9.67.02,19.34.02,29.01v1.59h31.6l-.02,52.58ZM13.21,47.26h10.35v-10.35h-10.35v10.35ZM55.14,36.87h-10.31v10.42h10.33l-.02-10.42ZM13.2,68.3h10.33v-10.39h-10.33v10.39ZM55.18,57.91h-10.36v10.39h10.36v-10.39ZM76.43,68.3h10.29v-10.39h-10.29v10.39ZM55.16,15.85h-10.33v10.33h10.33v-10.33ZM23.56,79.06h-10.33v10.33h10.33v-10.33ZM55.16,79.06h-10.34v10.33h10.33v-10.33ZM86.76,79.06h-10.33v10.33h10.33v-10.33Z"/>
  </g>
</svg>