<?xml version="1.0" encoding="UTF-8"?>
<svg id="Capa_1" xmlns="http://www.w3.org/2000/svg" xmlns:xlink="http://www.w3.org/1999/xlink" viewBox="0 0 30 30">
  <defs>
    <style>
      .cls-1 {
        fill: currentColor;
      }

      .cls-2 {
        clip-path: url(#clippath);
      }

      .cls-3 {
        fill: currentColor;
        fill-rule: evenodd;
      }
    </style>
    <clipPath id="clippath">
      <rect class="cls-1" x="2.45" y="2.5" width="25.11" height="25"/>
    </clipPath>
  </defs>
  <g class="cls-2">
    <g id="Grupo_35688">
      <path id="Trazado_19613" class="cls-3" d="M11.68,4.05c-2.11-2.07-5.49-2.07-7.6,0-2.12,2.06-2.18,5.45-.12,7.57.04.04.08.08.12.12l14.21,14.2c2.1,2.15,5.55,2.2,7.7.1,2.15-2.1,2.2-5.55.1-7.7-.03-.03-.06-.06-.08-.09L11.68,4.05ZM11.08,7.01h0c.38-.29.91-.29,1.29,0,.35.3.4.83.1,1.19-.03.03-.06.07-.1.1-.31.36-.84.4-1.2.09-.03-.03-.06-.06-.09-.09-.3-.37-.3-.91,0-1.28M5.05,6.33h0c-.35-.3-.4-.83-.09-1.19.03-.03.06-.06.09-.09.31-.36.85-.4,1.2-.09.03.03.06.06.09.09.3.37.3.91,0,1.28-.38.29-.91.29-1.29,0M6.05,9.28h0c-.3-.38-.3-.91,0-1.28.38-.3.91-.3,1.29,0,.35.3.4.83.09,1.19-.03.03-.06.06-.09.09-.31.36-.85.4-1.2.09-.03-.03-.06-.06-.09-.09M8.33,12.34h0c-.31.36-.84.4-1.2.09-.03-.03-.06-.06-.09-.09-.3-.38-.3-.91,0-1.28.38-.29.91-.29,1.29,0,.35.32.38.87.06,1.22-.02.02-.04.04-.06.06M8.13,7.31h0c-.35-.3-.4-.84-.09-1.19.03-.03.06-.06.09-.09.38-.3.91-.3,1.29,0,.28.38.28.9,0,1.28-.31.36-.84.4-1.2.09-.03-.03-.06-.06-.09-.09M9.12,10.37h0c-.35-.28-.41-.8-.13-1.16.04-.05.08-.09.13-.13.29-.35.81-.4,1.16-.12.04.03.08.07.12.12.3.37.3.91,0,1.28-.37.29-.9.29-1.27,0M13.07,18.65h0l-1.79-1.78c-1.48-1.54-1.48-3.98,0-5.52,1.51-1.55,3.99-1.59,5.54-.08.03.03.05.05.08.08l1.78,1.68c1.55,1.55,1.55,4.07,0,5.62-1.55,1.55-4.07,1.55-5.62,0M18.88,22.89h0c-.25.33-.72.4-1.05.15-.05-.04-.1-.09-.15-.15-.35-.32-.38-.87-.06-1.22.02-.02.04-.04.06-.06.34-.3.86-.3,1.2,0,.35.3.4.83.09,1.19-.03.03-.06.06-.09.09M19.67,20.92h0c-.3-.38-.3-.91,0-1.28.31-.36.84-.4,1.2-.09.03.03.06.06.09.09.35.36.35.93,0,1.29-.36.35-.93.35-1.29,0h0M21.94,23.88h0c-.3.35-.82.4-1.18.1-.04-.03-.07-.06-.1-.1-.3-.34-.3-.84,0-1.18.29-.35.81-.4,1.16-.12.04.03.08.07.12.12.33.23.4.68.18,1.01-.05.07-.11.13-.18.18M21.65,18.85h0c-.3-.38-.3-.91,0-1.29.37-.29.9-.29,1.27,0,.36.31.4.85.09,1.2-.03.03-.06.06-.09.09-.3.35-.82.4-1.18.1-.04-.03-.07-.06-.1-.1M22.74,21.9h0c-.35-.3-.4-.83-.1-1.19.03-.03.06-.07.1-.1.3-.35.82-.4,1.18-.1.04.03.07.06.1.1.3.38.3.91,0,1.28-.37.3-.9.3-1.27,0M25,24.96h0c-.38.29-.91.29-1.29,0-.35-.3-.4-.83-.09-1.19.03-.03.06-.06.09-.09.31-.36.85-.4,1.2-.09.03.03.06.06.09.09.3.37.3.91,0,1.28"/>
    </g>
  </g>
</svg>
