<?xml version="1.0" encoding="UTF-8"?>
<svg id="Capa_1" xmlns="http://www.w3.org/2000/svg" viewBox="0 0 100 100">
  <defs>
    <style>
      .cls-1 {
        fill: currentColor;
      }
    </style>
  </defs>
  <g id="Grupo_31092">
    <path id="Trazado_18393" class="cls-1" d="M53.68.46l46.32,14.26v84.76h-17.79v-28.41h-17.88v28.43h-10.65V.46ZM66.14,24.53h-1.9c-1.96.03-3.53,1.66-3.49,3.62.03,1.81,1.42,3.31,3.23,3.48,1.41.1,2.82.1,4.23,0,1.91-.17,3.35-1.83,3.23-3.75-.12-1.86-1.65-3.32-3.52-3.35h-1.78M80.46,24.53h-1.9c-1.97,0-3.55,1.61-3.54,3.58,0,1.87,1.46,3.41,3.33,3.54,1.37.09,2.75.09,4.13,0,1.91-.16,3.35-1.8,3.26-3.72-.1-1.86-1.62-3.34-3.49-3.38-.6-.02-1.19,0-1.78,0M66.17,38.83h-1.9c-1.96,0-3.55,1.6-3.55,3.57,0,1.83,1.4,3.36,3.23,3.53,1.41.1,2.82.1,4.23,0,1.91-.15,3.36-1.8,3.26-3.72-.1-1.87-1.62-3.34-3.49-3.38-.6-.02-1.19,0-1.78,0M80.4,38.83h-1.9c-1.96.04-3.53,1.66-3.49,3.63.04,1.83,1.45,3.33,3.28,3.48,1.37.09,2.75.09,4.12,0,1.92-.12,3.39-1.75,3.31-3.67-.08-1.91-1.64-3.42-3.55-3.44h-1.78M66.1,53.11c-.63,0-1.27-.02-1.9,0-1.96.05-3.52,1.67-3.47,3.64.04,1.83,1.46,3.32,3.28,3.46,1.37.09,2.75.09,4.13,0,1.91-.13,3.38-1.76,3.3-3.68-.08-1.91-1.65-3.42-3.56-3.43h-1.78M80.4,53.1h-1.9c-1.96.03-3.53,1.64-3.51,3.61.03,1.84,1.45,3.35,3.28,3.49,1.41.1,2.82.1,4.23,0,1.87-.17,3.28-1.77,3.21-3.65-.06-1.92-1.62-3.44-3.54-3.46h-1.78"/>
    <path id="Trazado_18394" class="cls-1" d="M46.42,14.66v84.82h-10.68v-24.42c.26-1.99-1.13-3.81-3.12-4.07-.31-.04-.61-.04-.92,0h-9.93c-1.96-.19-3.7,1.24-3.89,3.19-.02.23-.02.46,0,.7v24.48c-.13.09-.19.16-.25.16-4.73,0-9.45.06-14.17,0-1.96-.05-3.5-1.68-3.45-3.63,0-.08,0-.17.02-.25V30.54c0-3.08.71-4.01,3.68-4.78l41.94-10.92c.21-.05.43-.1.77-.18M19.76,38.82h-1.9c-1.97.02-3.54,1.63-3.52,3.6.02,1.84,1.44,3.36,3.28,3.51,1.37.09,2.75.09,4.12,0,1.96-.13,3.45-1.82,3.32-3.78-.12-1.86-1.65-3.31-3.51-3.33-.59-.02-1.19,0-1.78,0M33.97,38.82c-.63,0-1.27-.02-1.9,0-1.96.05-3.52,1.68-3.47,3.64.04,1.83,1.46,3.32,3.28,3.46,1.37.09,2.75.09,4.12,0,1.96-.16,3.42-1.87,3.26-3.83-.15-1.84-1.67-3.26-3.52-3.28h-1.78M19.59,60.23h0c.67,0,1.34.03,2.01,0,1.97-.03,3.54-1.65,3.51-3.62-.03-1.97-1.65-3.54-3.62-3.51-1.23-.03-2.45-.03-3.68,0-1.87.03-3.4,1.51-3.48,3.38-.08,1.91,1.35,3.55,3.26,3.73.67.06,1.34,0,2.01,0M33.95,60.22c.67,0,1.34.04,2.01,0,1.96-.17,3.41-1.89,3.24-3.85-.15-1.79-1.62-3.19-3.42-3.25-1.23-.03-2.45-.03-3.68,0-1.91.02-3.47,1.55-3.52,3.46-.04,1.91,1.43,3.52,3.34,3.65.67.05,1.34,0,2.01,0"/>
  </g>
</svg>