<?xml version="1.0" encoding="UTF-8"?>
<svg id="Capa_1" xmlns="http://www.w3.org/2000/svg" viewBox="0 0 100 100">
  <defs>
    <style>
      .cls-1 {
        fill: currentColor;
      }
    </style>
  </defs>
  <g id="Grupo_15746">
    <path id="Trazado_11179" class="cls-1" d="M50.1,80.38c2.09,0,4.18-2.13,8.41-6.36l25.25-25.26c4.64-4.64,3.09-5.51-1.79-5.51h-12.76V12.6c-.02-6.36-5.18-11.5-11.53-11.49h-15.39c-6.36,0-11.52,5.14-11.54,11.49v30.66h-12.51c-5.42,0-6.57.87-1.93,5.51l25.36,25.26c4.24,4.23,6.33,6.36,8.41,6.36"/>
  </g>
  <g id="Grupo_15748">
    <path id="Trazado_11180" class="cls-1" d="M0,72.07v15.33c.02,6.36,5.18,11.5,11.54,11.49h76.92c6.36,0,11.52-5.14,11.54-11.49v-15.33h-7.69v15.33c-.01,2.12-1.73,3.83-3.85,3.83H11.54c-2.12,0-3.84-1.71-3.85-3.83v-15.33H0Z"/>
  </g>
</svg>
