<?xml version="1.0" encoding="UTF-8"?>
<svg id="Capa_1" data-name="Capa 1" xmlns="http://www.w3.org/2000/svg" viewBox="0 0 100 100">
  <defs>
    <style>
      .cls-1 {
        fill: currentColor;
      }
    </style>
  </defs>
  <path id="Trazado_19644" data-name="Trazado 19644" class="cls-1" d="M92.85,20.55c-1.98-1.72-4.52-2.68-7.14-2.69-.45-3.33,1.7-10.16-3.23-10.72H20.66c-3.94.47-6.76,4.05-6.29,7.99.38,3.23,2.88,5.79,6.09,6.27h65.6c3.65.24,6.57,3.15,6.81,6.81v64.77c-.11,3.75-3.07,6.79-6.81,7.02l-65.83-.03c-7.16-.67-12.74-6.5-13.08-13.68V13.51C7.61,6.25,13.39.47,20.64,0h65.63c3.33.33,6.03,2.85,6.58,6.15v14.39ZM50,71.43c.58-8.2-.1-16.44-2-24.44-.9-3.27-2.16-6.42-3.75-9.41-.55-.98-1.52-1.65-2.63-1.83-3.71-.28-7.44-.29-11.15-.03-1.29-.04-2.51.62-3.19,1.72-1.74,3.25-3.09,6.7-4.03,10.26-1.73,7.79-2.34,15.79-1.8,23.75h7.14v-7.15h14.28v7.14h7.14ZM85.71,50h-28.57v7.14h19.86l-19.09,19.19c-.34.44-.6.93-.77,1.46v7.92h28.57v-7.14h-19.86l19.09-19.18c.34-.44.6-.93.77-1.46v-7.93Z"/>
  <path id="Trazado_19645" data-name="Trazado 19645" class="cls-1" d="M42.63,57.15h-13.85c.23-3.01.81-5.99,1.73-8.87.54-1.77,1.19-3.5,1.95-5.18.21-.25.38-.2.66-.23,1.72-.13,3.44-.13,5.16,0,.27.03.45,0,.66.23s1.25,3.08,1.45,3.68c1.2,3.35,1.95,6.84,2.23,10.38"/>
</svg>
