<?xml version="1.0" encoding="UTF-8"?>
<svg id="Capa_1" xmlns="http://www.w3.org/2000/svg" viewBox="0 0 100 100">
  <defs>
    <style>
      .cls-1 {
        fill: currentColor;
      }
    </style>
  </defs>
  <g id="Grupo_31086">
    <path id="Trazado_18385" class="cls-1" d="M85.98,53.87v43.01c0,2.6-.12,2.71-2.71,2.71-7.15,0-14.3,0-21.45,0-.61,0-1.22-.06-2.01-.1v-30.38h-19.57v30.47h-7.57c-5.41,0-10.83-.07-16.24.03-1.96.04-2.52-.71-2.5-2.57.1-11.8.13-23.59.17-35.39,0-2.55,0-5.1,0-7.93H4.17c-.48.07-.97.05-1.45-.05-.95-.37-2.24-.67-2.65-1.41-.3-.55.32-1.96.93-2.61,4.54-4.78,9.19-9.46,13.79-14.17C25.56,24.49,36.33,13.47,47.09,2.44c2.72-2.78,3.04-2.77,5.79.05l45.53,46.59c.29.3.7.55.84.91.33.84.95,1.9.68,2.56-.52.75-1.36,1.22-2.27,1.27-3.12.14-6.24.06-9.37.06h-2.31"/>
  </g>
</svg>