<?xml version="1.0" encoding="UTF-8"?>
<svg id="Capa_1" xmlns="http://www.w3.org/2000/svg" viewBox="0 0 30 30">
  <defs>
    <style>
      .cls-1 {
        fill: currentColor;
      }
    </style>
  </defs>
  <path id="Trazado_19482" class="cls-1" d="M22.78,16.57c-1.61-2.42-3.27-4.55-4.52-6.89-1.25-2.4-.31-5.36,2.09-6.61.52-.27,1.09-.45,1.68-.52,2.74-.42,5.31,1.46,5.73,4.2.13.82.05,1.67-.23,2.45-.35.91-.81,1.78-1.36,2.59-1.03,1.54-2.14,3.01-3.4,4.77M20.18,7.29c-.03,1.43,1.11,2.6,2.54,2.63,1.43.03,2.6-1.11,2.63-2.54,0-.03,0-.07,0-.1,0-1.42-1.13-2.58-2.54-2.6-1.44,0-2.62,1.16-2.62,2.6,0,0,0,0,0,0"/>
  <path id="Trazado_19483" class="cls-1" d="M17.94,20.33c.98,0,1.57.45,1.59,1.22s-.54,1.27-1.55,1.27c-3.52.01-7.05.02-10.57,0-.81,0-1.43-.3-1.47-1.23-.03-.81.51-1.27,1.52-1.27,1.75,0,3.49,0,5.24,0h5.23"/>
  <path id="Trazado_19484" class="cls-1" d="M7.38,17.94c-.94-.02-1.44-.47-1.43-1.26.02-.89.59-1.21,1.36-1.22,1.91-.02,3.81,0,5.72,0,.02,0,.05,0,.07,0,.71-.03,1.31.51,1.34,1.22h0c.08.7-.56,1.25-1.44,1.28-.95.02-1.91,0-2.86,0s-1.84.02-2.76,0"/>
  <path id="Trazado_19485" class="cls-1" d="M24.74,20.77h.04c0,1.16,0,2.33.03,3.49.02.77-.23.92-.95.92-6.13-.03-12.27-.03-18.4,0-.7,0-.95-.13-.95-.91.04-5.08.04-10.15,0-15.23,0-.86.27-1.01,1.06-1,1.9.03,3.81.03,5.75.02h4.92c-.13-.8-.12-1.61.02-2.4h-4.94c-2.41.02-4.83.02-7.24.02-1.62,0-1.89.28-1.89,1.9v18.2c0,1.43.3,1.73,1.76,1.73h21.56c1.32,0,1.63-.31,1.63-1.64v-5.09h.02v-6.3c-.85,1.01-1.66,2.06-2.4,3.16v3.14Z"/>
</svg>