<?xml version="1.0" encoding="UTF-8"?>
<svg id="Capa_1" xmlns="http://www.w3.org/2000/svg" xmlns:xlink="http://www.w3.org/1999/xlink" viewBox="0 0 30 30">
  <defs>
    <style>
      .cls-1 {
        fill: currentColor;
      }

      .cls-2 {
        fill: currentColor;
      }

      .cls-3 {
        clip-path: url(#clippath);
      }
    </style>
    <clipPath id="clippath">
      <rect class="cls-1" x="6.34" y="3.84" width="17.33" height="22.32"/>
    </clipPath>
  </defs>
  <g class="cls-3">
    <g id="Grupo_35707">
      <path id="Trazado_19624" class="cls-2" d="M19.29,22.52c-.45-.54-1.26-.6-1.8-.15h0c-2.21,1.86-5.51,1.58-7.37-.62-1.5-1.78-1.65-4.35-.35-6.28.41-.57.27-1.37-.3-1.78-.57-.41-1.37-.27-1.78.3-.01.02-.03.04-.04.06-2.39,3.57-1.44,8.4,2.12,10.8,2.89,1.94,6.7,1.72,9.36-.52.54-.45.61-1.26.15-1.8,0,0,0,0,0,0"/>
      <path id="Trazado_19625" class="cls-2" d="M23.61,23l-2.11-6.62c-.15-.48-.59-.8-1.09-.8h-6.68v-2.17h4.45c.63-.02,1.13-.55,1.12-1.18-.02-.61-.51-1.1-1.12-1.12h-4.46v-2.48c1.24-.67,1.69-2.22,1.02-3.45-.67-1.24-2.22-1.69-3.45-1.02-1.24.67-1.69,2.22-1.02,3.45.26.48.67.86,1.16,1.09v8.04c.01.63.53,1.15,1.16,1.15h6.99l1.85,5.82c.17.61.81.96,1.42.79.61-.17.96-.81.79-1.42,0-.02-.01-.04-.02-.07"/>
    </g>
  </g>
</svg>
