<?xml version="1.0" encoding="UTF-8"?>
<svg id="Capa_1" xmlns="http://www.w3.org/2000/svg" xmlns:xlink="http://www.w3.org/1999/xlink" viewBox="0 0 30 30">
  <defs>
    <style>
      .cls-1 {
        fill: currentColor;
      }

      .cls-2 {
        fill: currentColor;
      }

      .cls-3 {
        clip-path: url(#clippath);
      }
    </style>
    <clipPath id="clippath">
      <rect class="cls-1" x="4.24" y="2.5" width="21.52" height="25"/>
    </clipPath>
  </defs>
  <g class="cls-3">
    <g id="Grupo_35686">
      <path id="Trazado_19612" class="cls-2" d="M17.43,23.07c.6-.1,1.19-.2,1.79-.3.11.22.21.45.28.69-1.53,2.38-4.17,3.83-7,3.84-4.55-.03-8.24-3.71-8.26-8.27.05-3.08,1.79-5.88,4.52-7.29v2.17c-1.6,1.22-2.58,3.1-2.65,5.12,0,3.53,2.85,6.39,6.38,6.4,0,0,0,0,.01,0,1.92.03,3.75-.84,4.93-2.36M15.76,5.45h0c0-1.63-1.33-2.95-2.97-2.95-1.6-.03-2.93,1.25-2.95,2.86,0,.03,0,.06,0,.1.01,1.63,1.33,2.94,2.95,2.95,1.62-.04,2.92-1.33,2.97-2.95M25.61,24.83h0l-3.05-7.18c-.4-.81-1.28-1.25-2.17-1.08l-6.22,1.48v-6.69c0-1.09-.88-1.97-1.96-1.97-1.06.04-1.89.91-1.88,1.97v9.05c.02.57.28,1.1.71,1.48.49.33,1.08.47,1.66.39l7-1.67,2.45,5.71c.25.71.93,1.19,1.68,1.19.28-.01.55-.08.8-.2.94-.4,1.39-1.48.99-2.43,0-.01-.01-.03-.02-.04"/>
    </g>
  </g>
</svg>
