<?xml version="1.0" encoding="UTF-8"?>
<svg id="Capa_1" xmlns="http://www.w3.org/2000/svg" xmlns:xlink="http://www.w3.org/1999/xlink" viewBox="0 0 30 30">
  <defs>
    <style>
      .cls-1 {
        fill: currentColor;
      }

      .cls-2 {
        fill: currentColor;
      }

      .cls-3 {
        clip-path: url(#clippath);
      }
    </style>
    <clipPath id="clippath">
      <rect class="cls-1" x="3.78" y="2.5" width="22.43" height="25"/>
    </clipPath>
  </defs>
  <g class="cls-3">
    <g id="Grupo_35817">
      <path id="Trazado_19736" class="cls-2" d="M26.08,9.33c-.47-1.51-2.08-2.36-3.6-1.89-1.2.37-2.02,1.48-2.02,2.74,0,.34-.17.65-.46.82l-.49.28c-.45.26-.61.84-.35,1.3,0,0,0,0,0,0h0v.02c.26.45.84.61,1.3.35l.49-.28c.29-.16.65-.16.94.02,1.37.8,3.13.33,3.92-1.04.41-.7.5-1.54.25-2.31"/>
      <path id="Trazado_19737" class="cls-2" d="M10.81,17.41c-.26-.45-.84-.61-1.3-.35,0,0,0,0,0,0l-.49.28c-.29.16-.65.16-.94-.02-1.38-.79-3.14-.32-3.93,1.06-.79,1.38-.32,3.14,1.06,3.93,1.38.79,3.14.32,3.93-1.06.25-.43.38-.93.38-1.43,0-.34.17-.65.46-.83l.49-.28c.45-.26.61-.84.35-1.3,0,0,0,0,0,0h0ZM10.48,11.28l-.49-.28c-.29-.17-.46-.49-.46-.82,0-1.59-1.29-2.87-2.88-2.87-1.59,0-2.87,1.29-2.87,2.88,0,1.59,1.29,2.87,2.88,2.87.5,0,.99-.13,1.43-.38.29-.17.65-.18.94-.02l.49.28c.45.26,1.04.11,1.3-.35,0,0,0,0,0,0v-.02c.27-.45.12-1.04-.34-1.3,0,0,0,0,0,0M13.56,7.85c.29.16.48.47.48.81v.56c0,.52.43.95.95.95h.02c.52,0,.95-.42.95-.95v-.56c0-.34.19-.64.48-.81,1.37-.8,1.84-2.56,1.05-3.93-.8-1.37-2.56-1.84-3.93-1.05-1.37.8-1.84,2.56-1.05,3.93.25.43.61.79,1.05,1.05M24.77,17.32c-.88-.51-1.98-.51-2.86,0-.29.17-.65.18-.94.02l-.49-.28c-.45-.26-1.04-.11-1.3.35,0,0,0,0,0,0v.02c-.27.45-.12,1.04.34,1.3,0,0,0,0,0,0l.49.28c.29.17.46.49.46.82,0,1.59,1.29,2.87,2.88,2.87,1.59,0,2.87-1.29,2.87-2.88,0-1.03-.55-1.98-1.45-2.49M15,11.8c-1.77,0-3.2,1.43-3.2,3.2s1.43,3.2,3.2,3.2,3.2-1.43,3.2-3.2h0c0-1.77-1.43-3.2-3.2-3.2M16.44,22.14c-.3-.16-.48-.47-.49-.81v-.56c0-.52-.43-.95-.95-.95h-.02c-.52,0-.95.42-.95.95v.56c0,.34-.19.64-.48.81-1.37.8-1.84,2.56-1.05,3.93.8,1.37,2.56,1.84,3.93,1.05,1.37-.8,1.84-2.56,1.05-3.93-.25-.43-.61-.79-1.05-1.05"/>
    </g>
  </g>
</svg>
