<?xml version="1.0" encoding="UTF-8"?>
<svg id="Capa_1" xmlns="http://www.w3.org/2000/svg" viewBox="0 0 30 30">
  <defs>
    <style>
      .cls-1 {
        fill: currentColor;
      }
    </style>
  </defs>
  <path id="Trazado_19490" class="cls-1" d="M24.95,12.32c0-.99-.31-1.3-1.3-1.3-1.2,0-2.4,0-3.61,0-1.65.04-3.01-1.26-3.05-2.9,0-.05,0-.1,0-.15,0-1.22-.02-2.44,0-3.66.07-.54-.25-1.06-.76-1.24H6.69c-1.11.26-1.81,1.34-1.6,2.46v18.95c-.21,1.12.5,2.2,1.6,2.46h16.66c1.29-.54,1.6-1.02,1.6-2.46,0-4.05,0-8.1,0-12.15ZM9.06,13.81c.1-.51.58-.86,1.09-.8,1.43,0,2.86,0,4.3,0,1.8,0,3.6,0,5.41,0,.75,0,1.24.5,1.14,1.13-.09.55-.51.87-1.21.87-1.59,0-3.18,0-4.77,0s-3.18,0-4.77,0c-.79,0-1.32-.56-1.17-1.21h0ZM21,18.01c-.03.57-.51,1-1.07.97-.03,0-.06,0-.08,0h-9.65c-.56.07-1.08-.32-1.15-.88,0-.03,0-.06,0-.08,0-.57.46-1.04,1.03-1.04.04,0,.08,0,.12,0,3.22,0,6.43,0,9.65,0,.57-.07,1.09.34,1.15.91,0,.04,0,.08,0,.12h0ZM19.89,22.97c-.85.02-1.7,0-2.54,0h-6.84c-.16,0-.32,0-.48,0-.56-.01-1-.47-1-1.03.02-.55.48-.99,1.03-.97,0,0,.02,0,.02,0,1.48-.02,2.97,0,4.45,0h5.3c.53-.07,1.03.29,1.14.81.1.56-.28,1.08-.83,1.18-.08.01-.16.02-.25.01h0Z"/>
  <path id="Trazado_19491" class="cls-1" d="M19.74,3.07c-.44.17-.73.58-.74,1.05,0,.99-.03,1.98.01,2.97.01,1.08.9,1.94,1.98,1.93.02,0,.04,0,.06,0,.92,0,1.84-.01,2.76,0,.55.08,1.06-.29,1.14-.84.06-.36-.09-.73-.39-.95-1.19-1.18-2.37-2.37-3.56-3.55-.22-.22-.48-.41-.72-.61h-.53Z"/>
</svg>