<?xml version="1.0" encoding="UTF-8"?>
<svg id="Capa_1" xmlns="http://www.w3.org/2000/svg" viewBox="0 0 30 30">
  <defs>
    <style>
      .cls-1 {
        fill: currentColor;
      }
    </style>
  </defs>
  <path id="Trazado_19770" class="cls-1" d="M15.02,27.49h-7.86c-2.72.17-5.06-1.91-5.23-4.63-.01-.19-.01-.38,0-.57V7.58c-.1-2.7,2-4.97,4.7-5.08.13,0,.26,0,.39,0h16.02c2.69-.1,4.95,2,5.05,4.69,0,.12,0,.24,0,.36v14.86c.09,2.7-2.02,4.97-4.73,5.06-.11,0-.22,0-.33,0-2.67.01-5.34,0-8.01,0M7.38,17.46c-1.27,1.5-1.07,3.75.43,5.02,1.28,1.08,3.14,1.12,4.46.1l-4.9-5.11M22.39,12.8l-4.93-5.14c-1.14,1.33-1.13,3.29.02,4.61,1.24,1.45,3.39,1.69,4.91.53M22.38,22.6l-4.92-5.14c-1.14,1.34-1.13,3.31.04,4.64,1.24,1.43,3.38,1.65,4.88.51M7.39,7.67c-1.25,1.46-1.1,3.66.34,4.94,1.32,1.17,3.64,1.25,4.53.13l-4.87-5.08M18.12,7.02l4.92,5.12c1.23-1.55.96-3.81-.59-5.03-1.26-1-3.03-1.03-4.33-.08M23.03,21.92c1.2-1.48,1-3.65-.45-4.9-1.23-1.11-3.42-1.21-4.43-.16l4.87,5.07M12.96,12.14c1.18-1.5.98-3.66-.45-4.92-1.25-1.12-3.11-1.19-4.44-.18l4.9,5.1M12.96,21.96c1.15-1.46,1-3.57-.36-4.84-1.24-1.19-3.17-1.3-4.54-.26l4.9,5.1"/>
</svg>