<?xml version="1.0" encoding="UTF-8"?>
<svg id="Capa_1" xmlns="http://www.w3.org/2000/svg" xmlns:xlink="http://www.w3.org/1999/xlink" viewBox="0 0 30 30">
  <defs>
    <style>
      .cls-1 {
        fill: currentColor;
      }

      .cls-2 {
        fill: currentColor;
      }

      .cls-3 {
        clip-path: url(#clippath);
      }
    </style>
    <clipPath id="clippath">
      <rect class="cls-1" x="0" y="4.74" width="29.98" height="20.51"/>
    </clipPath>
  </defs>
  <g class="cls-3">
    <g id="Grupo_35823">
      <path id="Trazado_19742" class="cls-2" d="M0,21.91L8.09,4.74c2.16,1.02,4.52,1.55,6.91,1.56,2.39,0,4.75-.54,6.91-1.56l8.08,17.16c-3.83,1.82-7.95,2.92-12.18,3.25-6.12.5-12.26-.62-17.8-3.24M8.27,19.88c.24.34.43.61.64.88,1.37,1.93,3.91,2.65,6.08,1.72,1.41-.49,2.52-1.6,3.02-3.01.27-.74-.1-1.55-.84-1.83-.05-.02-.1-.03-.15-.05-1.46-.3-2.59-1.44-2.88-2.9-.19-.74-.94-1.19-1.68-1-.75.17-1.24.9-1.1,1.66.23,1.34.92,2.56,1.96,3.45.32.28.67.52,1.01.78-.79.61-1.9.58-2.64-.09-.44-.44-.82-.94-1.12-1.49-.46-1.14-1.76-1.7-2.91-1.24-.25.1-.48.25-.68.43-.8.64-1.46,1.44-1.93,2.36-.42.67-.22,1.56.46,1.99s1.56.22,1.99-.46c.02-.04.05-.08.07-.12.22-.36.46-.7.71-1.09M19.12,8.72c-2.17.02-3.92,1.79-3.91,3.97.02,2.17,1.79,3.92,3.97,3.91,2.17-.02,3.92-1.79,3.91-3.97,0-.03,0-.06,0-.09-.06-2.14-1.82-3.84-3.97-3.82"/>
    </g>
  </g>
</svg>
