<?xml version="1.0" encoding="UTF-8"?>
<svg id="Capa_1" xmlns="http://www.w3.org/2000/svg" xmlns:xlink="http://www.w3.org/1999/xlink" viewBox="0 0 30 30">
  <defs>
    <style>
      .cls-1 {
        fill: currentColor;
      }

      .cls-2 {
        fill: currentColor;
      }

      .cls-3 {
        clip-path: url(#clippath);
      }
    </style>
    <clipPath id="clippath">
      <rect class="cls-1" x="4.87" y="2.62" width="20.26" height="24.76"/>
    </clipPath>
  </defs>
  <g class="cls-3">
    <g id="Grupo_35787">
      <path id="Trazado_19706" class="cls-2" d="M24.14,17.23c-.07-.01-.14-.02-.21-.02-.4,0-.78.16-1.09.42-.15-.51-.57-.9-1.1-1-.07-.01-.14-.02-.2-.02-.38,0-.74.14-1.03.37-.19-.5-.63-.86-1.15-.96-.06,0-.12-.01-.18-.01-.46,0-.9.2-1.22.54v-3.78c.02-.53-.31-1.01-.81-1.19-.13-.04-.26-.06-.39-.06-.66,0-1.2.53-1.2,1.19,0,0,0,0,0,0v9.57c-.66,0-1.19-.53-1.2-1.19v-1.08c0-.23-.19-.41-.41-.41h-.36c-.89,0-1.62.72-1.62,1.62v2.95c0,.52.22,1.01.61,1.35l1.61,1.41c.33.29.75.44,1.18.44h6.62c.48,0,.93-.19,1.27-.53l1.34-1.34c.34-.34.53-.79.53-1.27v-5.77c.01-.6-.4-1.12-.99-1.24"/>
      <path id="Trazado_19707" class="cls-2" d="M20.33,9.26c-.03-.17-.18-.3-.35-.3h-.73c-.24-.07-.42-.26-.5-.5-.14-.43-.32-.84-.54-1.23-.08-.14-.06-.31.05-.42l.59-.59c.13-.13.14-.32.04-.47-.45-.6-.98-1.14-1.58-1.58-.14-.1-.34-.09-.47.04l-.59.59c-.11.11-.29.13-.42.05-.47-.27-.97-.48-1.49-.62-.15-.04-.26-.18-.26-.33v-.84c0-.17-.12-.32-.3-.35-.75-.11-1.5-.11-2.25,0-.17.03-.3.18-.3.35v.85c0,.15-.09.28-.24.33-.52.16-1.03.37-1.52.61-.14.08-.31.06-.42-.05l-.59-.59c-.12-.13-.32-.14-.47-.04-.6.45-1.14.98-1.58,1.58-.1.14-.09.34.04.47l.59.59c.11.11.13.29.05.42-.22.39-.41.81-.54,1.24-.07.24-.26.42-.5.5h-.73c-.17,0-.32.12-.35.3-.12.75-.12,1.52,0,2.28.03.17.18.3.35.3h.73c.24.07.42.26.5.5.14.43.32.84.54,1.23.08.14.06.31-.05.43l-.59.59c-.13.12-.14.32-.04.47.45.6.98,1.14,1.58,1.58.14.1.34.09.47-.04l.59-.59c.11-.11.29-.13.43-.05.47.27.97.48,1.49.62.15.04.26.17.26.33v.84c0,.17.12.32.3.35.75.11,1.5.11,2.25,0,.17-.03.3-.18.3-.35v-1.1h0v-3.9s0-.07,0-.11c-.31.2-.65.34-1.02.4-1.45.23-2.81-.75-3.05-2.2-.23-1.45.75-2.81,2.2-3.05,1.45-.23,2.81.75,3.05,2.2.03.17.04.33.03.5.44-.28.94-.44,1.46-.43.29,0,.57.05.84.13.79.26,1.42.88,1.68,1.67h.69c.17,0,.32-.12.35-.3.12-.76.12-1.53,0-2.28"/>
    </g>
  </g>
</svg>
