<?xml version="1.0" encoding="UTF-8"?>
<svg id="Capa_1" xmlns="http://www.w3.org/2000/svg" viewBox="0 0 100 100">
  <defs>
    <style>
      .cls-1 {
        fill: currentColor;
      }
    </style>
  </defs>
  <g id="Grupo_34703-3">
    <path id="Trazado_18700" class="cls-1" d="M.24,23.11c1.31-.69,2.04-1.12,2.82-1.47,14.5-6.42,29.03-12.8,43.5-19.29,2.17-1.09,4.73-1.09,6.9,0,14.47,6.5,29,12.87,43.5,19.29.78.35,1.53.78,2.7,1.39-1.2.58-2.01,1-2.85,1.37-14.49,6.44-28.97,12.92-43.52,19.26-1.65.77-3.52.92-5.26.41C32.25,37.29,16.56,30.3.24,23.11"/>
    <path id="Trazado_18701" class="cls-1" d="M.01,50.05c5.76-2.56,10.63-4.8,15.58-6.82,1.04-.18,2.12,0,3.04.53,8.08,3.52,16.16,7.05,24.19,10.7,4.63,2.25,10.04,2.25,14.67,0,8.02-3.66,16.09-7.21,24.2-10.66,1.37-.52,2.88-.53,4.25-.03,4.47,1.79,8.86,3.9,13.74,6.1-.77.53-1.57,1.01-2.4,1.45-14.71,6.52-29.41,13.05-44.17,19.46-1.44.72-3.09.9-4.65.51-15.89-6.82-31.7-13.84-48.47-21.22"/>
    <path id="Trazado_18702" class="cls-1" d="M100,77c-1.54.75-2.51,1.21-3.49,1.65-14.19,6.29-28.41,12.54-42.56,18.92-2.36,1.2-5.15,1.21-7.52.04-14.26-6.42-28.59-12.68-42.88-19.02-.97-.43-1.92-.92-3.36-1.61,5.33-2.36,10.1-4.58,14.98-6.53,1.23-.29,2.52-.15,3.65.42,8.09,3.48,16.16,7.01,24.18,10.67,4.53,2.21,9.81,2.22,14.35.04,8.13-3.67,16.27-7.32,24.48-10.79,1.38-.51,2.89-.51,4.27,0,4.47,1.8,8.85,3.92,13.9,6.21"/>
  </g>
</svg>
