<?xml version="1.0" encoding="UTF-8"?>
<svg id="Capa_1" xmlns="http://www.w3.org/2000/svg" viewBox="0 0 100 100">
  <defs>
    <style>
      .cls-1 {
        fill: currentColor;
      }
    </style>
  </defs>
  <g id="Grupo_34523-3">
    <path id="Trazado_18658" class="cls-1" d="M15.26,77.84c-.75.07-1.5.13-2.24.21-2.54.49-5.1-.77-6.26-3.07-1.43-2.36-1.14-5.38.71-7.43,4.03-4.76,2.83-9.27-3.03-11.48C1.73,55.2-.08,52.65,0,49.8c-.05-2.79,1.84-5.24,4.55-5.89,3.59-.81,5.84-4.38,5.02-7.97-.3-1.32-.99-2.51-1.99-3.43-2.02-1.93-2.41-5.01-.94-7.38,1.35-2.51,4.21-3.82,6.99-3.19,6,1,9.25-2.19,8.34-8.19-.71-2.77.56-5.67,3.07-7.03,2.52-1.53,5.78-1.06,7.77,1.11,2.42,2.58,6.48,2.72,9.06.3.92-.86,1.57-1.98,1.86-3.21C44.4,2.03,46.97,0,49.92.03c3.04-.05,5.7,2.03,6.37,5,.87,3.42,4.34,5.49,7.76,4.62,1.14-.29,2.18-.89,3-1.73,2.04-2.26,5.39-2.74,7.98-1.15,2.55,1.49,3.75,4.53,2.9,7.36-.98,3.39.96,6.93,4.35,7.91,1.2.35,2.48.34,3.68-.04,3.44-.93,6.99,1.1,7.92,4.54.61,2.25-.04,4.66-1.71,6.3-2.6,2.43-2.73,6.51-.3,9.11.85.91,1.94,1.55,3.15,1.85,2.86.65,4.91,3.18,4.97,6.11-.05,3.02-2.1,5.63-5.02,6.4-3.4.81-5.5,4.23-4.69,7.64.28,1.18.9,2.26,1.77,3.1,2.1,2.03,2.63,5.2,1.28,7.79-1.48,2.61-4.55,3.88-7.44,3.07-3.41-1-6.98.96-7.97,4.37-.37,1.27-.34,2.63.09,3.88.73,2.77-.5,5.68-2.99,7.08-2.47,1.4-5.55,1.09-7.69-.77-5-3.92-9.14-2.73-11.34,3.24-.85,2.53-3.21,4.24-5.88,4.25-2.78.18-5.31-1.58-6.1-4.25-1.11-2.92-2.61-5.44-6.08-5.3-1.77.13-3.46.75-4.9,1.79-2.12,1.98-5.23,2.46-7.85,1.21-2.71-1.54-4-4.74-3.12-7.73.88-3.36-1.14-6.8-4.51-7.68-.75-.2-1.53-.25-2.3-.16M50.18,80.06v-.08c5.58,0,11.18-.11,16.76.03,7.26,0,13.15-5.87,13.18-13.13-.13-11.26,0-22.53-.04-33.82.14-7.16-5.56-13.08-12.73-13.22-.05,0-.11,0-.16,0-11.52-.13-23.03-.13-34.55,0-7.13.11-12.82,5.99-12.71,13.12,0,0,0,0,0,0-.02,11.27-.02,22.55,0,33.82-.2,7.12,5.41,13.07,12.53,13.27.15,0,.31,0,.46,0,5.77.07,11.51,0,17.26,0"/>
    <path id="Trazado_18659" class="cls-1" d="M23.95,49.95c0-5.59-.03-11.18,0-16.78-.2-4.91,3.61-9.05,8.52-9.25.19,0,.38,0,.57,0,11.27-.07,22.54-.07,33.8,0,4.95-.12,9.07,3.79,9.19,8.75,0,.23,0,.47-.01.7v33.05c.34,4.97-3.4,9.27-8.37,9.62-.45.03-.91.03-1.36,0-10.92-.04-21.84-.04-32.76,0-4.96.31-9.23-3.45-9.54-8.41-.02-.3-.02-.6-.01-.9-.05-5.59,0-11.18,0-16.78M33.45,39.99v2.5c.04,3.46,1.4,4.82,4.83,4.85,1.66,0,3.33.03,5,0,2.14.28,4.1-1.23,4.38-3.37.04-.3.04-.6.01-.89.07-1.92.05-3.84,0-5.74.25-2.14-1.28-4.07-3.41-4.33-.3-.04-.6-.04-.9,0-1.83-.07-3.66-.07-5.49,0-2.18-.26-4.16,1.3-4.42,3.48-.04.34-.04.69.01,1.03v2.5M52.29,40.08c.03,6.89.42,7.27,7.41,7.27h1c4.8,0,5.85-1.05,5.85-5.85,0-8.43-.09-8.53-8.42-8.52-4.8,0-5.81,1.01-5.84,5.85v1.25M59.36,66.94h2.24c3.66-.03,4.93-1.29,4.95-4.93,0-1.83.06-3.66,0-5.48.12-1.93-1.35-3.59-3.28-3.7-.09,0-.19,0-.28,0-2.4-.13-4.82-.11-7.23,0-1.79-.06-3.29,1.34-3.35,3.13,0,.07,0,.14,0,.21-.14,2.49-.13,4.98.04,7.47.07,1.9,1.66,3.38,3.55,3.32.04,0,.09,0,.13,0,1.08.05,2.16,0,3.24,0M40.45,66.93h2.74c3.07-.05,4.42-1.29,4.52-4.34.07-2.08.06-4.16-.05-6.23.11-1.84-1.28-3.42-3.12-3.53-.1,0-.2,0-.3,0-2.41-.13-4.82-.14-7.23-.03-1.94,0-3.51,1.55-3.52,3.49,0,.09,0,.18,0,.27-.07,2.16-.08,4.33,0,6.48-.09,2.07,1.51,3.81,3.58,3.9.12,0,.25,0,.37,0,1,.04,1.99,0,2.99,0"/>
    <rect id="Rect치ngulo_17487" class="cls-1" x="36.96" y="36.48" width="7.29" height="7.3"/>
    <rect id="Rect치ngulo_17488" class="cls-1" x="55.74" y="36.52" width="7.26" height="7.24"/>
    <rect id="Rect치ngulo_17489" class="cls-1" x="55.7" y="56.18" width="7.25" height="7.23"/>
    <rect id="Rect치ngulo_17490" class="cls-1" x="36.91" y="56.17" width="7.37" height="7.18"/>
  </g>
</svg>