<?xml version="1.0" encoding="UTF-8"?>
<svg id="Capa_1" xmlns="http://www.w3.org/2000/svg" viewBox="0 0 100 100">
  <defs>
    <style>
      .cls-1 {
        fill: currentColor;
      }
    </style>
  </defs>
  <polygon class="cls-1" points="35.95 12.06 27.49 12.06 27.49 18.43 21.53 18.43 21.53 26.72 27.61 26.72 27.61 32.75 36.04 32.75 36.04 26.68 42.25 26.68 42.25 18.31 35.95 18.31 35.95 12.06"/>
  <path class="cls-1" d="M96.49,89.19h0v-5.6c.02-18.05.04-36.11.07-54.16.47-3.27-1.81-6.3-5.08-6.77-.54-.08-1.08-.08-1.62,0h-23.73c-1.06,0-2.11.09-3.41.15v66.45h-3.58v-27.35c0-18.39,0-36.79-.02-55.18.25-3.44-2.33-6.43-5.78-6.68-.3-.02-.6-.02-.9,0L11.64.06c-5.87,0-7.95,2.05-7.95,7.9v79.54c0,.58-.05,1.15-.08,1.71H0v10.77h100v-10.58l-3.51-.21ZM42.85,89.22h-21.73v-27.49h21.73v27.49ZM32.76,39.13c-9.16.57-17.05-6.39-17.62-15.56-.57-9.16,6.39-17.05,15.56-17.62,9.16-.57,17.05,6.39,17.62,15.56,0,.07,0,.14.01.2.43,9.08-6.5,16.83-15.57,17.42ZM89.87,47.93l-.02,7.58h-7.5v-7.58h7.51ZM70.92,35.35h7.56v7.61h-7.56v-7.61ZM78.52,48v7.59h-7.58v-7.59h7.58ZM78.52,68.49h-7.61v-7.64h7.63l-.02,7.64ZM82.28,35.34h7.57v7.57h-7.55l-.02-7.57ZM89.95,68.46h-7.6v-7.58h7.6v7.58Z"/>
</svg>