<?xml version="1.0" encoding="UTF-8"?>
<svg id="Capa_1" xmlns="http://www.w3.org/2000/svg" xmlns:xlink="http://www.w3.org/1999/xlink" viewBox="0 0 30 30">
  <defs>
    <style>
      .cls-1 {
        fill: currentColor;
      }

      .cls-2 {
        fill: currentColor;
      }

      .cls-3 {
        clip-path: url(#clippath);
      }
    </style>
    <clipPath id="clippath">
      <rect class="cls-1" x="2.32" y="2.5" width="25.36" height="25"/>
    </clipPath>
  </defs>
  <g class="cls-3">
    <g id="Grupo_35625">
      <path id="Trazado_19540" class="cls-2" d="M26.2,2.8c-.87-.16-1.76-.26-2.64-.28-.8-.07-1.6-.02-2.38.15-.87.36-1.69.83-2.43,1.4-1.54,1.14-3.01,2.39-4.37,3.75-1.79,1.71-3.41,3.4-4.81,5.02-1.25,1.45-2.55,3.06-3.88,4.79v-.02c-.14.13-.27.26-.38.4-.01.01-.02.03-.03.04-1.28,1.53-3.06,4.36-2.47,6.54.03.06.06.11.09.18.2.12.4.25.59.38.24.09.49.18.73.27.25.02.5.04.75.06,1.3-.16,2.57-.55,3.74-1.14.2-.18.4-.38.6-.56l.04-.06c2.33-3.48,4.98-6.73,7.9-9.73,2.56-2.77,5.46-5.21,8.62-7.25.45-.24.87-.54,1.25-.88.25-.26.43-.59.5-.95.1-.46.01-.94-.25-1.33-.27-.41-.7-.69-1.19-.77"/>
      <path id="Trazado_19541" class="cls-2" d="M22.7,19c-1.09-1.47-2.28-2.86-3.56-4.16-1.63-1.7-3.24-3.24-4.78-4.57-1.31-1.13-2.77-2.31-4.33-3.51-.1-.03-.19-.09-.27-.16-1.28-1.2-2.8-2.11-4.47-2.67-.05-.02-.1-.05-.15-.08-.68-.19-1.41-.19-2.09,0-.09.04-.17.09-.24.15-.13.34-.25.69-.38,1.03-.02.1-.04.19-.06.29-.02.19-.03.39-.05.57.14,1.09.44,2.16.89,3.16.17.32.38.62.61.9.06.04.11.08.17.11,3.31,2.22,6.41,4.74,9.26,7.52,2.64,2.44,4.95,5.19,6.9,8.21.23.43.52.83.84,1.19.25.24.56.4.9.46.44.1.89.01,1.27-.23.39-.26.66-.67.74-1.13.15-.83.24-1.67.26-2.51.07-.76.02-1.53-.14-2.27-.34-.83-.79-1.6-1.33-2.31"/>
    </g>
  </g>
</svg>
