<?xml version="1.0" encoding="UTF-8"?>
<svg id="Capa_1" data-name="Capa 1" xmlns="http://www.w3.org/2000/svg" viewBox="0 0 100 100">
  <defs>
    <style>
      .cls-1 {
        fill: currentColor;
      }
    </style>
  </defs>
  <g id="Grupo_31544" data-name="Grupo 31544">
    <path id="Trazado_18537" data-name="Trazado 18537" class="cls-1" d="M18.45,0h.12l31.03,31.09c.09.08.18.16.28.23.11-.09.19-.16.25-.23L81.19,0h.12c.14.2.29.39.45.56,5.81,5.83,11.63,11.67,17.46,17.5.23.17.47.32.73.44l-31.44,31.5,31.26,31.35v.12c-.2.14-.38.29-.56.44-5.83,5.84-11.67,11.69-17.5,17.54-.16.16-.32.31-.57.54l-31.32-31.45-31.18,31.27L.04,81.19l31.29-31.36L.04,18.48c.17-.14.37-.29.55-.46C6.39,12.2,12.19,6.38,18,.56c.16-.18.31-.37.45-.56"/>
  </g>
</svg>