<?xml version="1.0" encoding="UTF-8"?>
<svg id="Capa_1" xmlns="http://www.w3.org/2000/svg" xmlns:xlink="http://www.w3.org/1999/xlink" viewBox="0 0 30 30">
  <defs>
    <style>
      .cls-1 {
        fill: currentColor;
      }

      .cls-2 {
        fill: currentColor;
      }

      .cls-3 {
        clip-path: url(#clippath);
      }
    </style>
    <clipPath id="clippath">
      <rect class="cls-1" x="2.51" y="2.51" width="24.99" height="24.99"/>
    </clipPath>
  </defs>
  <g class="cls-3">
    <g id="Grupo_35819">
      <path id="Trazado_19738" class="cls-2" d="M27.49,15.06v8.98c.11,1.79-1.26,3.34-3.05,3.45-.13,0-.26,0-.39,0H5.91c-1.8.08-3.32-1.31-3.4-3.1,0-.1,0-.21,0-.31V5.8c-.03-1.79,1.4-3.26,3.19-3.29.03,0,.06,0,.09,0,6.15,0,12.3,0,18.45,0,1.8,0,3.25,1.46,3.25,3.25,0,0,0,0,0,0,.01,3.1,0,6.19,0,9.28M15,16h9.82c.88,0,1.34-.3,1.32-.87s-.42-.81-1.31-.81H5.14c-.16,0-.32,0-.48,0-.43,0-.78.33-.79.75-.05.42.24.81.66.87.22.04.44.06.66.04h9.82M20.52,4.86c-.74,0-1.49,0-2.23,0-.63,0-.98.31-.98.82,0,.58.36.91,1.01.92h4.28c.69,0,.81.13.82.81,0,1.16,0,2.33,0,3.5,0,.73.24,1.01.88,1.01.58,0,.86-.33.87-1.05,0-1.16.01-2.33,0-3.5.08-1.31-.91-2.43-2.21-2.52-.11,0-.22,0-.33,0-.7,0-1.41,0-2.11,0M20.46,25.14v-.07c.9,0,1.81.07,2.71-.02,1.02-.11,1.82-.95,1.88-1.97.05-1.42.04-2.85,0-4.28-.04-.27-.2-.5-.44-.63-.24-.09-.5-.05-.7.1-.26.29-.43.64-.49,1.02-.06,1.08-.02,2.17-.02,3.25,0,.73-.12.85-.84.85-1.39,0-2.77,0-4.16,0-.73,0-1.06.3-1.06.92,0,.58.3.81,1.08.82h2.05M4.86,9.01h0c-.03.68-.02,1.36.03,2.04.06.34.27.63.58.78.34,0,.67-.14.9-.39.16-.23.24-.5.22-.78.02-1.04,0-2.09,0-3.13,0-.87.14-1,1.01-1.01,1.1,0,2.21.01,3.31,0,.53,0,.97-.4,1-.93,0-.46-.35-.73-.99-.73-1.2,0-2.41-.02-3.61,0-1.28-.07-2.39.91-2.46,2.19,0,.09,0,.18,0,.27,0,.56,0,1.12,0,1.69M9.01,25.07h0c.68,0,1.37.02,2.05,0,.44,0,.81-.36.81-.8,0-.04,0-.09,0-.13-.03-.52-.3-.74-.82-.72-.86.02-1.73.01-2.59,0-1.97-.02-1.93.29-1.91-1.91,0-.82.02-1.65-.01-2.47,0-.49-.38-.9-.86-.93-.35-.06-.69.17-.75.53,0,.05-.01.1,0,.15-.01,1.5-.04,3.01.07,4.51.17,1.01,1.04,1.76,2.07,1.77.66.02,1.32,0,1.99,0"/>
    </g>
  </g>
</svg>
