<?xml version="1.0" encoding="UTF-8"?>
<svg id="Capa_1" xmlns="http://www.w3.org/2000/svg" xmlns:xlink="http://www.w3.org/1999/xlink" viewBox="0 0 30 30">
  <defs>
    <style>
      .cls-1 {
        fill: currentColor;
      }

      .cls-2 {
        fill: currentColor;
      }

      .cls-3 {
        clip-path: url(#clippath);
      }
    </style>
    <clipPath id="clippath">
      <rect class="cls-1" x="5.85" y="2.5" width="18.3" height="25"/>
    </clipPath>
  </defs>
  <g class="cls-3">
    <g id="Grupo_35715">
      <path id="Trazado_19632" class="cls-2" d="M13.89,24.52c-.11-.11-.3-.11-.41,0,0,0,0,0,0,0l-.59.59s-.08.11-.08.18l-.15,1.9c-.01.16.11.3.27.31.02,0,.04,0,.06,0l1.82-.21c.07,0,.13-.04.17-.08l.59-.59c.11-.11.12-.3,0-.41,0,0,0,0,0,0l-1.68-1.68ZM21.75,20.02l-1.68-1.68c-.11-.11-.3-.11-.41,0h0s-4.71,4.71-4.71,4.71c-.11.11-.11.3,0,.41,0,0,0,0,0,0l1.68,1.68c.11.11.3.12.41,0,0,0,0,0,0,0l4.71-4.71c.11-.11.11-.3,0-.41h0M20.49,8.05c0-.65-.52-1.17-1.17-1.17h-.64c-.16,0-.29.13-.29.29h0v1.76c0,.16-.13.29-.29.29h-9.91c-.16,0-.29-.13-.29-.29h0v-1.76c0-.16-.13-.29-.29-.29h-.58c-.65,0-1.17.52-1.17,1.17,0,0,0,0,0,0v15.23c0,.65.52,1.17,1.17,1.17h4.55c.07-.14.17-.26.28-.37.21-.21.8-.8.8-.8l7.84-7.84v-7.38ZM13.75,16.47h-4.1c-.4,0-.73-.33-.73-.73s.33-.73.73-.73h4.1c.4,0,.73.33.73.73,0,.4-.33.73-.73.73M16.68,13.54h-7.03c-.4,0-.73-.33-.73-.73s.33-.73.73-.73h7.03c.4,0,.73.33.73.73s-.33.73-.73.73"/>
      <path id="Trazado_19633" class="cls-2" d="M15.38,4.96c-.44-.14-.74-.55-.74-1.01.01-.79-.62-1.44-1.41-1.46,0,0-.01,0-.02,0h-.06c-.77-.02-1.42.59-1.44,1.36,0,0,0,.02,0,.03.02.48-.28.92-.74,1.07-.93.31-1.61.6-1.61,1.64v.88c0,.16.13.29.29.29h7.04c.16,0,.29-.13.29-.29h0v-.88c0-1.03-.67-1.32-1.6-1.64M24.07,17.7l-1.68-1.68c-.11-.11-.3-.11-.41,0,0,0,0,0,0,0l-.88.88c-.11.11-.11.3,0,.41h0s1.68,1.68,1.68,1.68c.11.11.3.11.41,0h0s.88-.88.88-.88c.11-.11.11-.3,0-.41h0"/>
    </g>
  </g>
</svg>
