<?xml version="1.0" encoding="UTF-8"?>
<svg id="Capa_1" xmlns="http://www.w3.org/2000/svg" viewBox="0 0 30 30">
  <defs>
    <style>
      .cls-1 {
        fill: currentColor;
      }
    </style>
  </defs>
  <path id="Trazado_19468" class="cls-1" d="M20.53,13.7c0-2.79-.02-5.45.02-8.1.01-.72-.13-.98-.92-.97-4.65.04-9.29.04-13.94,0-.72,0-.84.23-.83.87.02,5.61.02,11.22,0,16.83,0,.66.13.89.84.87,2.17-.05,4.34,0,6.52-.03.64-.01.82.16.57.76-.1.22-.15.46-.17.7-.01.6-.31.72-.87.71-2.5-.03-5.01-.01-7.51-.02-1.22,0-1.5-.28-1.5-1.49,0-6.58,0-13.15,0-19.73,0-1.33.28-1.6,1.58-1.6h16.65c1.48,0,1.73.25,1.74,1.73,0,2.38,0,4.77.01,7.15.06.38-.15.76-.5.92-.6.41-1.17.88-1.69,1.4Z"/>
  <path id="Trazado_19469" class="cls-1" d="M19.94,25.18c-.13-.12-.24-.22-.35-.33-1.15-1.15-2.3-2.31-3.47-3.44-.32-.31-.3-.48,0-.78,2.17-2.14,4.32-4.3,6.47-6.46.33-.47.97-.59,1.45-.26.1.07.19.16.26.26.84.87,1.7,1.71,2.56,2.56.44.31.54.92.23,1.35-.06.08-.13.15-.21.21-2.18,2.17-4.35,4.35-6.52,6.52-.13.12-.26.23-.42.36Z"/>
  <path id="Trazado_19470" class="cls-1" d="M12.58,12.21c-1.6,0-3.19,0-4.79,0-.93,0-1.42-.41-1.39-1.16.03-.85.61-1.12,1.34-1.13,3.22,0,6.45,0,9.67,0,.92,0,1.44.46,1.41,1.16s-.55,1.11-1.46,1.12c-1.6,0-3.19,0-4.79,0Z"/>
  <path id="Trazado_19471" class="cls-1" d="M10.23,14.4c.87,0,1.74-.01,2.62,0,.8.02,1.39.53,1.32,1.17-.03.65-.58,1.15-1.22,1.12-.02,0-.05,0-.07,0-1.74,0-3.49.02-5.23,0-.7,0-1.23-.31-1.24-1.12-.01-.72.45-1.13,1.31-1.15.84-.02,1.68,0,2.53,0Z"/>
  <path id="Trazado_19472" class="cls-1" d="M15.06,21.76l4.13,4.15c-1.07.25-2.12.5-3.18.76-.63.03-1.24.27-1.72.68-.17.19-.46.2-.64.03,0,0,0,0-.01-.01-.18-.13-.23-.37-.1-.56,0,0,0,0,0-.01,1.03-1.36.91-3.07,1.4-4.6.03-.11.06-.22.11-.44Z"/>
</svg>