<?xml version="1.0" encoding="UTF-8"?>
<svg id="Capa_1" xmlns="http://www.w3.org/2000/svg" viewBox="0 0 100 100">
  <defs>
    <style>
      .cls-1 {
        fill: currentColor;
      }
    </style>
  </defs>
  <g id="Grupo_34465-2">
    <path id="Trazado_18641" class="cls-1" d="M22.6,44.18h-7c-2.59,0-5.13-.7-7.37-2-1.07-.61-2.06-1.35-2.95-2.2-2.43-2.26-4.03-5.28-4.52-8.56-.15-.94-.22-1.89-.23-2.85-.03-4.49-.03-8.99,0-13.49.01-3.13,1.01-6.18,2.85-8.71,1.19-1.68,2.71-3.09,4.46-4.16,1.84-1.15,3.92-1.86,6.08-2.08.7-.07,1.4-.12,2.1-.12h14.01c1.62.03,3.23.34,4.75.92,1.52.56,2.93,1.36,4.19,2.37,1.52,1.21,2.79,2.69,3.76,4.37.94,1.63,1.56,3.42,1.84,5.28.11.71.17,1.44.18,2.16,0,4.62.03,9.23,0,13.85,0,4.33-1.85,8.46-5.07,11.35-2.04,1.88-4.57,3.14-7.31,3.61-1.03.17-2.07.26-3.12.27-2.21.04-4.42,0-6.62,0"/>
    <path id="Trazado_18642" class="cls-1" d="M77.42,0h7.14c2.07.03,4.11.49,5.99,1.37,4.68,2.15,7.97,6.5,8.75,11.59.13.86.19,1.74.18,2.61v13.04c.03,2.11-.36,4.2-1.15,6.15-1.47,3.54-4.22,6.4-7.69,8.02-1.42.68-2.95,1.11-4.52,1.27-.92.08-1.84.12-2.76.12-4.42,0-8.85.02-13.24,0-1.89-.02-3.76-.42-5.49-1.17-2.07-.86-3.92-2.18-5.41-3.85-1.91-2.07-3.17-4.65-3.63-7.43-.18-1.2-.28-2.42-.28-3.63-.03-4.32-.05-8.65,0-12.97-.01-2.83.81-5.59,2.35-7.96.6-.92,1.28-1.79,2.04-2.6,2.08-2.13,4.74-3.6,7.65-4.23.85-.18,1.72-.29,2.59-.32,2.5-.04,5,0,7.49,0"/>
    <path id="Trazado_18643" class="cls-1" d="M77.42,55.83h7.14c2.08.02,4.12.48,6,1.36,4.68,2.15,7.97,6.5,8.75,11.59.13.86.19,1.74.18,2.61v13.04c.03,2.11-.36,4.2-1.15,6.15-1.47,3.54-4.22,6.4-7.69,8.02-1.42.68-2.95,1.11-4.52,1.27-.92.08-1.84.12-2.76.12-4.42,0-8.85.02-13.24,0-1.89-.02-3.76-.42-5.49-1.17-2.07-.86-3.92-2.18-5.41-3.85-1.91-2.07-3.17-4.65-3.63-7.43-.18-1.2-.28-2.42-.28-3.63-.03-4.32-.05-8.65,0-12.97-.01-2.83.81-5.59,2.35-7.96.6-.92,1.28-1.79,2.04-2.6,2.08-2.12,4.75-3.59,7.66-4.2.85-.18,1.72-.29,2.59-.32,2.5-.04,5,0,7.49,0"/>
    <path id="Trazado_18644" class="cls-1" d="M22.62,100h-7.11c-2.1-.01-4.17-.48-6.07-1.37-1.5-.68-2.88-1.61-4.07-2.74-2.58-2.37-4.23-5.57-4.67-9.03-.11-.82-.17-1.65-.17-2.47,0-4.52-.03-9.04,0-13.56.02-2.04.46-4.06,1.3-5.92.72-1.61,1.71-3.09,2.92-4.36,1.84-1.94,4.16-3.36,6.72-4.11,1.5-.43,3.06-.64,4.62-.62h13.46c6.6.03,12.43,4.3,14.45,10.58.43,1.27.65,2.59.68,3.92,0,4.9.09,9.8.04,14.69-.02,3.46-1.25,6.81-3.49,9.45-1.32,1.6-2.96,2.91-4.81,3.85-1.58.83-3.3,1.35-5.08,1.54-.7.07-1.4.11-2.1.12h-6.62"/>
  </g>
</svg>
