<?xml version="1.0" encoding="UTF-8"?>
<svg id="Capa_1" data-name="Capa 1" xmlns="http://www.w3.org/2000/svg" viewBox="0 0 100 100">
  <defs>
    <style>
      .cls-1 {
        fill: currentColor;
      }
    </style>
  </defs>
  <path id="Trazado_19651" data-name="Trazado 19651" class="cls-1" d="M1.5,98.52c-1.01-1.15-1.54-2.64-1.49-4.17.5-4.3,6.79-16.59,6.47-19.77C-7.04,50.44,1.57,19.91,25.71,6.39,36.12.56,48.27-1.36,59.97.96c18.39,3.89,33.12,17.63,38.26,35.71,7.26,26.69-8.49,54.22-35.18,61.48-12.66,3.44-26.16,1.78-37.61-4.62l-19.77,6.46c-1.53.06-3.02-.47-4.17-1.47M44.89,30.78l-2.59-9.36c-.47-.67-3.08.55-3.82.86-8.42,3.6-14.79,10.75-17.4,19.53l9.75,3.03c1.71-6.94,7.12-12.35,14.06-14.06M69.26,44.84l9.36-2.59c.67-.47-.55-3.08-.86-3.82-3.6-8.42-10.75-14.79-19.53-17.4l-3.04,9.76c6.94,1.7,12.36,7.12,14.07,14.06M30.83,55.14l-9.36,2.57c-.67.47.55,3.08.86,3.82,3.6,8.42,10.75,14.79,19.53,17.4l3.03-9.75c-6.93-1.71-12.35-7.12-14.06-14.06M55.19,69.18l2.59,9.36c.47.67,3.08-.55,3.82-.86,8.42-3.6,14.79-10.75,17.4-19.53l-9.74-3.02c-1.71,6.93-7.12,12.35-14.06,14.06"/>
</svg>