<?xml version="1.0" encoding="UTF-8"?>
<svg id="Capa_1" xmlns="http://www.w3.org/2000/svg" xmlns:xlink="http://www.w3.org/1999/xlink" viewBox="0 0 30 30">
  <defs>
    <style>
      .cls-1 {
        fill: currentColor;
      }

      .cls-2 {
        fill: currentColor;
      }

      .cls-3 {
        clip-path: url(#clippath);
      }
    </style>
    <clipPath id="clippath">
      <rect class="cls-1" x="3.01" y="3.84" width="23.97" height="22.32"/>
    </clipPath>
  </defs>
  <g class="cls-3">
    <g id="Grupo_35713">
      <path id="Trazado_19630" class="cls-2" d="M24.32,17.43h-.88c-.44,0-.8.36-.8.8h0v.38c0,2.8-2.27,5.06-5.07,5.06-.11,0-.23,0-.34-.01-2.7-.24-4.75-2.52-4.71-5.23v-.27c2.39-.43,6.44-2.39,7-10.58.05-.7-.2-1.38-.68-1.89-.52-.55-1.24-.86-1.99-.85h-.19c-.69-1.03-2.08-1.31-3.11-.62-1.03.69-1.31,2.08-.62,3.11.69,1.03,2.08,1.31,3.11.62.25-.16.46-.38.62-.62h.19c.07,0,.14.02.18.08-.37,5.33-2.47,8.38-5.76,8.38s-5.39-3.05-5.76-8.37c.04-.06.11-.1.18-.09h.38c.69,1.03,2.08,1.31,3.11.62,1.03-.69,1.31-2.08.62-3.11-.69-1.03-2.08-1.31-3.11-.62-.25.16-.46.38-.62.62h-.38c-.75,0-1.47.31-1.99.85-.48.51-.73,1.19-.68,1.89.56,8.19,4.61,10.15,7,10.58v.23c-.05,3.95,2.9,7.29,6.82,7.74,4.16.4,7.85-2.65,8.24-6.8.02-.24.03-.47.03-.71v-.38c0-.44-.36-.8-.8-.8"/>
      <path id="Trazado_19631" class="cls-2" d="M26.98,11.35c-.06-1.33-1.42-2.4-3.1-2.4s-3.04,1.07-3.1,2.41h-.01v.71c.06,1.02.74,1.89,1.71,2.21-.01.05-.02.09-.02.14h0v.33c.18.79.96,1.29,1.75,1.11.55-.12.99-.56,1.11-1.11v-.33h0s-.01-.09-.02-.14c.97-.32,1.65-1.19,1.71-2.21v-.71h-.01ZM23.87,12.43c-.62.06-1.17-.38-1.24-1,.16-.69.84-1.12,1.53-.96.48.11.85.48.96.96-.08.62-.63,1.06-1.25,1"/>
    </g>
  </g>
</svg>
