<?xml version="1.0" encoding="UTF-8"?>
<svg id="Capa_1" xmlns="http://www.w3.org/2000/svg" xmlns:xlink="http://www.w3.org/1999/xlink" viewBox="0 0 30 30">
  <defs>
    <style>
      .cls-1 {
        fill: currentColor;
      }

      .cls-2 {
        fill: currentColor;
      }

      .cls-3 {
        clip-path: url(#clippath);
      }
    </style>
    <clipPath id="clippath">
      <rect class="cls-1" x="1.87" y="2.5" width="26.26" height="25"/>
    </clipPath>
  </defs>
  <g class="cls-3">
    <g id="Grupo_35668">
      <path id="Trazado_19594" class="cls-2" d="M9.08,19.38l-2.24,7.39c-.21.71.11.94.71.52l6.34-4.41c.67-.42,1.53-.42,2.2,0l5.61,3.9.73.51c.61.42.93.19.71-.52l-2.24-7.39c-.12-.48-.07-.98.15-1.43.12-.26.3-.49.53-.67l5.41-4.1.75-.57c.59-.45.47-.82-.27-.84l-7.72-.16c-.79-.06-1.48-.56-1.78-1.29l-2.54-7.3c-.24-.7-.64-.7-.88,0l-.32.91-2.22,6.39c-.21.52-.61.93-1.12,1.14-.21.09-.43.15-.66.16l-7.72.16c-.74.01-.86.39-.27.84l.33.25,5.83,4.42c.61.51.88,1.33.68,2.1"/>
    </g>
  </g>
</svg>
