<?xml version="1.0" encoding="UTF-8"?>
<svg id="Capa_1" xmlns="http://www.w3.org/2000/svg" viewBox="0 0 30 30">
  <defs>
    <style>
      .cls-1 {
        fill: currentColor;
      }
    </style>
  </defs>
  <path id="Icon_awesome-file-medical-alt" class="cls-1" d="M18.13,9.14V2.5h-9.76c-.65,0-1.17.52-1.17,1.16,0,0,0,0,0,0v11.32h-2.73c-.22,0-.39.18-.39.39v.78c0,.22.18.39.39.39h6.88c.15,0,.28.08.35.21l.97,1.94,2.77-5.55c.09-.19.33-.27.52-.18.08.04.14.1.18.18l1.69,3.39h3.43c.43,0,.78.35.78.78s-.35.78-.78.78h-4.39l-1.08-2.16-2.77,5.55c-.09.19-.33.27-.52.18-.08-.04-.14-.1-.18-.18l-1.7-3.39h-3.42v8.2c0,.65.52,1.17,1.16,1.17,0,0,0,0,.01,0h16.39c.65,0,1.17-.52,1.17-1.17,0,0,0,0,0,0V10.31h-6.64c-.65,0-1.17-.53-1.17-1.17ZM25.59,7.63l-4.78-4.78c-.22-.22-.52-.34-.83-.34h-.3v6.25h6.25v-.3c0-.31-.12-.6-.34-.82h0Z"/>
</svg>