<?xml version="1.0" encoding="UTF-8"?>
<svg id="Capa_1" xmlns="http://www.w3.org/2000/svg" xmlns:xlink="http://www.w3.org/1999/xlink" viewBox="0 0 30 30">
  <defs>
    <style>
      .cls-1 {
        fill: currentColor;
      }

      .cls-2 {
        fill: currentColor;
      }

      .cls-3 {
        clip-path: url(#clippath);
      }
    </style>
    <clipPath id="clippath">
      <rect class="cls-1" x="2.68" y="2.5" width="24.65" height="25"/>
    </clipPath>
  </defs>
  <g class="cls-3">
    <g id="Grupo_35623">
      <path id="Trazado_19539" class="cls-2" d="M25.71,2.5c-.78.02-1.56.09-2.33.23-.7.08-1.39.27-2.04.55-.69.46-1.32,1.01-1.86,1.64-1.14,1.26-2.18,2.61-3.12,4.02-1.25,1.8-2.35,3.55-3.27,5.2-.83,1.48-1.67,3.11-2.51,4.84-.52-.69-1.15-1.29-1.85-1.79-.67-.51-1.47-.8-2.31-.84-.88.05-1.72.39-2.39.96-.78.48-1.28,1.32-1.34,2.24.11.85.53,1.63,1.17,2.21,1.01,1.08,1.93,2.25,2.76,3.48.32.52.68,1.02,1.06,1.5.24.27.55.47.89.59.57.15,1.15.21,1.74.18.81.06,1.62-.07,2.37-.37.45-.24.82-.61,1.07-1.05.41-.8.78-1.63,1.1-2.47,1.41-3.42,3.12-6.71,5.12-9.83,1.73-2.85,3.8-5.48,6.19-7.81.35-.29.66-.62.93-.99.17-.27.26-.59.25-.91,0-.41-.16-.81-.45-1.11-.31-.31-.73-.48-1.17-.46"/>
    </g>
  </g>
</svg>
