<?xml version="1.0" encoding="UTF-8"?>
<svg id="Capa_1" xmlns="http://www.w3.org/2000/svg" xmlns:xlink="http://www.w3.org/1999/xlink" viewBox="0 0 30 30">
  <defs>
    <style>
      .cls-1 {
        fill: currentColor;
      }

      .cls-2 {
        fill: currentColor;
      }

      .cls-3 {
        clip-path: url(#clippath);
      }
    </style>
    <clipPath id="clippath">
      <rect class="cls-1" x="5.82" y="3.34" width="18.36" height="23.32"/>
    </clipPath>
  </defs>
  <g class="cls-3">
    <g id="Grupo_35761">
      <path id="Trazado_19679" class="cls-2" d="M18.72,15.73c-3.02,0-5.46,2.45-5.46,5.46s2.45,5.46,5.46,5.46,5.46-2.45,5.46-5.46h0c0-3.02-2.45-5.46-5.46-5.46M18.45,20.23l1.23.64c.73.37,1.14,1.17,1,1.98-.09.62-.5,1.14-1.07,1.39v.16c.01.42-.31.77-.73.79-.42.01-.77-.31-.79-.73,0-.02,0-.04,0-.05v-.11c-.61-.2-1.1-.65-1.35-1.24-.16-.39.03-.83.42-.99.38-.15.81.02.98.38.13.29.42.46.73.44.16,0,.29-.12.31-.28.03-.16-.05-.32-.19-.39l-1.23-.64c-.74-.38-1.14-1.2-.99-2.02.12-.7.64-1.27,1.33-1.45v-.11c-.01-.42.31-.77.73-.79.42-.01.77.31.79.73,0,.02,0,.04,0,.05v.28c.48.23.87.63,1.08,1.12.17.38,0,.83-.39,1-.38.17-.83,0-1-.39h0c-.13-.29-.42-.46-.73-.44-.16,0-.29.12-.31.28-.04.16.04.32.19.39"/>
      <path id="Trazado_19680" class="cls-2" d="M20.1,3.75l-1.34.73c-.18.1-.4.1-.58,0l-1.95-1.06c-.18-.1-.4-.1-.58,0l-1.95,1.06c-.18.1-.4.1-.58,0l-1.95-1.06c-.18-.1-.4-.1-.58,0l-1.95,1.06c-.18.1-.4.1-.58,0l-1.34-.73c-.29-.16-.66-.05-.82.24-.05.09-.07.19-.07.29v19.45c0,.34.27.61.61.61.1,0,.2-.03.29-.07l1.34-.73c.18-.1.4-.1.58,0l1.95,1.06c.18.1.4.1.58,0l1.14-.62c-1.54-3.53.06-7.63,3.59-9.18,1.61-.7,3.42-.77,5.08-.2V4.28c0-.34-.27-.61-.61-.61-.1,0-.2.03-.29.07M9.76,18.49h-.91c-.42-.01-.75-.37-.73-.79.01-.4.33-.72.73-.73h.91c.42-.01.77.31.79.73s-.31.77-.73.79c-.02,0-.04,0-.05,0M11.54,15.46h-2.69c-.42.01-.77-.31-.79-.73s.31-.77.73-.79c.02,0,.04,0,.05,0h2.69c.42-.01.77.31.79.73s-.31.77-.73.79c-.02,0-.04,0-.05,0M17.81,12.42h-8.96c-.42.01-.77-.31-.79-.73s.31-.77.73-.79c.02,0,.04,0,.05,0h8.96c.42-.01.77.31.79.73s-.31.77-.73.79c-.02,0-.04,0-.05,0M17.81,9.38h-8.96c-.42-.01-.75-.37-.73-.79.01-.4.33-.72.73-.73h8.96c.42-.01.77.31.79.73s-.31.77-.73.79c-.02,0-.04,0-.05,0"/>
    </g>
  </g>
</svg>
