<?xml version="1.0" encoding="UTF-8"?>
<svg id="Capa_1" xmlns="http://www.w3.org/2000/svg" xmlns:xlink="http://www.w3.org/1999/xlink" viewBox="0 0 30 30">
  <defs>
    <style>
      .cls-1 {
        fill: currentColor;
      }

      .cls-2 {
        fill: currentColor;
      }

      .cls-3 {
        clip-path: url(#clippath);
      }
    </style>
    <clipPath id="clippath">
      <rect class="cls-1" x="2.5" y="2.51" width="24.99" height="24.99"/>
    </clipPath>
  </defs>
  <g class="cls-3">
    <g id="Grupo_35833">
      <path id="Trazado_19756" class="cls-2" d="M16.82,14.47c-.19-.52-.42-1.04-.63-1.55h-.09s-.68,2.23-.68,2.23h0c-.18.4-.32.82-.42,1.25-.18.41-.31.83-.41,1.26h0c-.2.49-.37.99-.5,1.5-.09.46-.4.84-.83,1.01h0c-.88.01-1.06-.12-1.35-.94-.1-.37-.23-.73-.4-1.07l-1.07-3.27c-.17.16-.27.27-.39.37-.29.25-.49.61-.87.75h-.08c-2.07,0-4.13,0-6.2,0-.28,0-.4.07-.38.37.02.54.01,1.08.01,1.62,0,.73-.01,1.47,0,2.2-.03.55.4,1.02.95,1.05.03,0,.06,0,.09,0,.87,0,1.74,0,2.62,0h2.42c.09,0,.17.06.18.16,0,0,0,.01,0,.02v2.41c0,.79.02,1.58-.01,2.37-.07.55.24,1.08.76,1.29h10.99c.45-.13.75-.55.75-1.02,0-.77,0-1.54,0-2.31,0-.97.02-1.94.03-2.91h5.01c.19.04.39,0,.56-.09.23-.03.42-.2.49-.42.01-.11.08-.2.17-.25v-4.5c-2.8,0-5.6.02-8.41.02-1.53,0-1.61.26-2.27-1.55"/>
      <path id="Trazado_19757" class="cls-2" d="M26.83,8.84c-.17-.09-.37-.12-.56-.09-1.55,0-3.1,0-4.66,0-.29,0-.37-.08-.37-.37.02-1.55.01-3.1,0-4.66.04-.19,0-.39-.09-.56h0c-.1-.41-.47-.68-.89-.66-.62-.02-1.24,0-1.86,0h-8.66c-.42-.04-.82.23-.92.65-.09.17-.12.37-.09.56,0,1.67-.01,3.35-.01,5.02h-.14s-2.25.01-2.25.01c-.9,0-1.79,0-2.69-.01-.19-.01-.39.02-.56.1-.43.16-.68.62-.57,1.07h0v2h0c0,.54,0,1.08-.02,1.62-.02.34.1.45.45.45,1.68-.01,3.36,0,5.03,0,.12,0,.25.05.35-.07h0c.07-.15.29-.16.35-.33.39-.32.75-.69,1.06-1.09h0c.42-.42.85-.8,1.51-.58.31.16.54.43.67.75l.93,2.99h.12l.59-1.83h0c.14-.35.26-.71.36-1.08l.55-1.59.51-1.5h0c.1-.42.21-.83.69-.99h0c.89-.15,1.19.02,1.51.86.12.32.26.64.39.96.4,1.08.8,2.15,1.19,3.23.08.22.23.24.42.24h2.91c1.8,0,3.6.02,5.4.03v-4.57c-.21-.21-.3-.55-.66-.58M6.17,8.84h0ZM6.58,13.91h0s0,0,0,0h0"/>
    </g>
  </g>
</svg>
