<?xml version="1.0" encoding="UTF-8"?>
<svg id="Capa_1" xmlns="http://www.w3.org/2000/svg" xmlns:xlink="http://www.w3.org/1999/xlink" viewBox="0 0 30 30">
  <defs>
    <style>
      .cls-1 {
        fill: currentColor;
      }

      .cls-2 {
        fill: currentColor;
      }

      .cls-3 {
        clip-path: url(#clippath);
      }
    </style>
    <clipPath id="clippath">
      <rect class="cls-1" x="5.87" y="2.51" width="18.25" height="24.99"/>
    </clipPath>
  </defs>
  <g class="cls-3">
    <g id="Grupo_35831">
      <path id="Trazado_19749" class="cls-2" d="M9.9,2.51c1.12.65,1.15.69.94,2.06-.43,2.71.22,5.04,2.63,6.57,2.1,1.41,4.75,1.71,7.11.78.54-.21,1.03-.54,1.42-.97.59-.64,1.22-.71,1.74-.21.54.51.51,1.17-.1,1.8-1.66,1.61-3.94,2.41-6.24,2.18-.25,0-.46-.16-.54-.39-.53-1.34-2.04-2-3.38-1.47-.21.08-.4.19-.58.32-.18.13-.43.12-.6-.03-2.23-1.39-3.67-3.76-3.86-6.38-.05-.84-.02-1.69.09-2.53,0-.79.49-1.49,1.24-1.74h.14Z"/>
      <path id="Trazado_19750" class="cls-2" d="M5.99,15.49s-.08,0-.11-.03v-.67s.08-.02.12-.02c.19.17.21.47.04.67-.02.02-.03.03-.05.05"/>
      <path id="Trazado_19751" class="cls-2" d="M5.99,15.49c0-.24,0-.48,0-.71.21-.55.83-.82,1.38-.6.27.11.49.32.6.59.38.71.86,1.36,1.42,1.92,2.07,1.92,5.1,2.4,7.66,1.21,1.47-.61,2.74-1.61,3.68-2.9.23-.4.67-.63,1.12-.59.57.07.98.59.91,1.17-.02.14-.06.28-.14.4-1.11,1.71-2.72,3.04-4.62,3.82-.29.12-.44,0-.64-.17-1.1-1.05-2.85-1.02-3.9.08-.14.15-.27.32-.38.5-.18.32-.57.45-.91.3-2.01-.41-3.81-1.52-5.07-3.14-.48-.56-.86-1.19-1.13-1.88"/>
      <path id="Trazado_19752" class="cls-2" d="M13.88,27.49c-1.29,0-2.57-.22-3.78-.67-.57-.14-.92-.71-.79-1.28.14-.57.71-.92,1.28-.79.06.01.12.03.17.06,1.37.49,2.84.66,4.28.47,2.86-.46,5.11-2.68,5.6-5.53.02-.18.06-.35.13-.52.18-.49.69-.76,1.2-.64.49.06.85.49.83.99-.04.78-.22,1.54-.53,2.25-1.3,3.48-4.66,5.75-8.37,5.65"/>
      <path id="Trazado_19753" class="cls-2" d="M15.45,23.93c-1.24.02-2.25-.97-2.27-2.21,0-.03,0-.06,0-.09.03-1.27,1.06-2.28,2.33-2.27,1.26.04,2.27,1.06,2.28,2.33,0,1.25-1.03,2.25-2.28,2.24-.02,0-.04,0-.06,0"/>
      <path id="Trazado_19754" class="cls-2" d="M18.1,8.55c-.04,1.26-1.1,2.26-2.36,2.22-1.26-.04-2.26-1.1-2.22-2.36.03-1.25,1.07-2.24,2.32-2.21.01,0,.03,0,.04,0,1.24.02,2.23,1.03,2.22,2.27,0,.03,0,.05,0,.08"/>
      <path id="Trazado_19755" class="cls-2" d="M14.39,17.63c-1.24,0-2.27-.98-2.31-2.22-.01-1.28,1.02-2.33,2.3-2.34s2.33,1.02,2.34,2.3h0c-.02,1.27-1.06,2.28-2.33,2.27"/>
    </g>
  </g>
</svg>
