<?xml version="1.0" encoding="UTF-8"?>
<svg id="Capa_1" xmlns="http://www.w3.org/2000/svg" viewBox="0 0 100 100">
  <defs>
    <style>
      .cls-1 {
        fill: currentColor;
      }
    </style>
  </defs>
  <g id="Grupo_34978-3">
    <path id="Trazado_18749" class="cls-1" d="M15.69,11.54v7.61c-.14,2.02,1.38,3.77,3.4,3.93,2.03-.11,3.58-1.85,3.46-3.87,0-.01,0-.02,0-.03,0-5.07,0-10.15,0-15.22-.17-2.01,1.33-3.78,3.34-3.94.04,0,.08,0,.12,0,2.02.14,3.54,1.88,3.41,3.9,0,.02,0,.04,0,.06v7.55h13.73v7.65c-.14,2.03,1.4,3.78,3.43,3.92,0,0,0,0,.01,0,2.02-.15,3.54-1.9,3.4-3.92V3.89c-.23-1.9,1.11-3.62,3.01-3.86,1.9-.23,3.62,1.11,3.86,3.01.04.3.03.6,0,.89v7.58h13.7c0,.22.02.38.02.57v7.05c-.12,1.92,1.22,3.62,3.11,3.95,1.89.1,3.52-1.3,3.72-3.18.04-.35.06-.71.04-1.06V3.89c-.23-1.9,1.13-3.62,3.02-3.85,1.9-.23,3.62,1.13,3.85,3.02.04.3.03.59,0,.89v7.6h1.43c1.62-.12,3.25.02,4.82.42,4.64,1.72,7.65,6.21,7.47,11.15v65.53c.15,5.41-3.61,10.14-8.91,11.22-.97.1-1.95.14-2.93.12H12.23c-5.48-.29-9.86-4.65-10.18-10.13-.06-.58-.09-1.17-.08-1.75V22.9c-.13-5.21,3.33-9.82,8.37-11.15.46-.11.94-.18,1.42-.21,1.3-.03,2.6,0,3.94,0M12.29,88.41h75.43v-53.79H12.29v53.79Z"/>
    <path id="Trazado_18750" class="cls-1" d="M43.61,64.37c2.04-2.09,4.06-4.19,6.13-6.25,4.87-4.85,9.74-9.69,14.61-14.52,1.48-1.52,3.92-1.55,5.44-.06.58.56.96,1.29,1.1,2.09.22,1.14-.1,2.32-.88,3.18-4.61,5.53-9.24,11.05-13.88,16.57-2.7,3.22-5.39,6.44-8.08,9.66-1.67,2.13-4.76,2.51-6.89.84-.22-.17-.42-.36-.6-.56-3.43-3.57-6.86-7.13-10.3-10.68-1.1-1.02-1.5-2.6-1.02-4.02.64-2.03,2.8-3.15,4.82-2.52.39.12.75.3,1.08.54l8.08,5.49.38.25"/>
  </g>
</svg>
