<?xml version="1.0" encoding="UTF-8"?>
<svg id="Capa_1" xmlns="http://www.w3.org/2000/svg" viewBox="0 0 100 100">
  <defs>
    <style>
      .cls-1 {
        fill: currentColor;
      }
    </style>
  </defs>
  <g id="Grupo_31283-2">
    <path id="Trazado_18493" class="cls-1" d="M21.84,12.64h37.42c.04,2.86-.25,5.84,2.35,7.69,1.17.84,2.55,1.35,3.99,1.47,3.93.2,5.36-1.92,6.49-9,3.62-1.23,7.55.7,8.78,4.32.33.97.44,2,.32,3.02.05,7.18,0,14.36,0,21.53,0,.6-.08,1.2-.14,1.92h-6v-12.2H6.39c-.05.77-.15,1.49-.15,2.22,0,12.97.04,25.94-.06,38.91,0,2.11.66,2.55,2.64,2.53,10.57-.1,21.15-.05,31.73-.05h2.95v6.07c-.62.03-1.35.11-2.08.11H8.07C2.5,81.2,0,78.71,0,73.18V20.83C0,14.72,2.86,12.12,9.33,12.69c0,.93-.04,1.9,0,2.86-.03,3.45,2.74,6.28,6.19,6.31.05,0,.1,0,.15,0,3.41,0,6.18-2.76,6.18-6.17,0-.08,0-.16,0-.24.02-.84,0-1.68,0-2.8"/>
    <path id="Trazado_18494" class="cls-1" d="M50.02,74.88c.06-13.8,11.3-24.94,25.11-24.88,13.8.06,24.94,11.3,24.88,25.11-.06,13.79-11.28,24.92-25.07,24.88-13.78-.02-24.93-11.2-24.91-24.98,0-.04,0-.08,0-.13M93.74,74.94c-.04-10.37-8.47-18.74-18.84-18.7-10.37.04-18.74,8.47-18.7,18.84.04,10.37,8.47,18.74,18.84,18.7.04,0,.08,0,.11,0,10.31-.14,18.59-8.53,18.59-18.84"/>
    <rect id="Rectángulo_16554" class="cls-1" x="12.69" y="37.67" width="12.1" height="12.25"/>
    <rect id="Rectángulo_16555" class="cls-1" x="50.19" y="37.59" width="12.09" height="12.25"/>
    <rect id="Rectángulo_16556" class="cls-1" x="12.63" y="56.4" width="12.18" height="12.12"/>
    <rect id="Rectángulo_16557" class="cls-1" x="31.44" y="37.72" width="12.15" height="12.17"/>
    <rect id="Rectángulo_16558" class="cls-1" x="31.37" y="56.42" width="12.16" height="12.08"/>
    <path id="Trazado_18495" class="cls-1" d="M18.72,9.35c0,1.92.05,3.84,0,5.77-.07,2.25-1.26,3.58-3.08,3.58-1.75-.02-3.15-1.45-3.14-3.2,0-.12,0-.23.02-.35-.04-3.84-.04-7.7,0-11.57-.21-1.75,1.04-3.35,2.79-3.56.1-.01.19-.02.29-.02,1.82,0,3.08,1.34,3.12,3.55.05,1.92,0,3.84,0,5.77"/>
    <path id="Trazado_18496" class="cls-1" d="M62.51,9.23V3.47c-.2-1.66.98-3.18,2.65-3.38.12-.01.24-.02.36-.02,1.83-.15,3.13,1.27,3.16,3.46.05,3.93.03,7.86,0,11.79.22,1.64-.94,3.15-2.58,3.37-.14.02-.27.03-.41.03-1.85.13-3.12-1.28-3.18-3.46-.05-2,0-4.01,0-6.01"/>
    <path id="Trazado_18497" class="cls-1" d="M74.97,75.03c3.15,0,5.98-.03,8.81,0,2.25.03,3.6,1.15,3.67,2.97.08,1.92-1.31,3.17-3.66,3.19-3.84.04-7.69.05-11.53,0-2.34-.03-3.41-1.06-3.46-3.39-.07-3.92-.07-7.85,0-11.78.03-2.21,1.31-3.52,3.16-3.46s3,1.38,3.03,3.61c.04,2.84,0,5.68,0,8.87"/>
  </g>
</svg>