<?xml version="1.0" encoding="UTF-8"?>
<svg id="Capa_1" xmlns="http://www.w3.org/2000/svg" viewBox="0 0 100 100">
  <defs>
    <style>
      .cls-1 {
        fill: currentColor;
      }
    </style>
  </defs>
  <path id="Icon_awesome-calendar-alt" class="cls-1" d="M6.25,90.63c0,5.18,4.2,9.37,9.37,9.37h68.75c5.18,0,9.37-4.2,9.37-9.37v-53.13H6.25v53.13ZM68.75,52.35c0-1.29,1.05-2.34,2.35-2.35h7.82c1.29,0,2.34,1.05,2.35,2.35v7.81c0,1.29-1.05,2.34-2.35,2.35h-7.82c-1.29,0-2.34-1.05-2.35-2.35v-7.81ZM68.75,77.35c0-1.29,1.05-2.34,2.35-2.35h7.82c1.29,0,2.34,1.05,2.35,2.35v7.81c0,1.29-1.05,2.34-2.35,2.35h-7.82c-1.29,0-2.34-1.05-2.35-2.35v-7.81ZM43.75,52.35c0-1.29,1.05-2.34,2.35-2.35h7.81c1.29,0,2.34,1.05,2.35,2.35v7.81c0,1.29-1.05,2.34-2.35,2.35h-7.81c-1.29,0-2.34-1.05-2.35-2.35v-7.81ZM43.75,77.35c0-1.29,1.05-2.34,2.35-2.35h7.81c1.29,0,2.34,1.04,2.35,2.33v7.81c0,1.29-1.05,2.34-2.35,2.35h-7.81c-1.29,0-2.34-1.05-2.35-2.35v-7.8ZM18.75,52.35c0-1.29,1.05-2.34,2.35-2.35h7.82c1.29,0,2.34,1.05,2.35,2.35v7.81c0,1.29-1.05,2.34-2.35,2.35h-7.82c-1.29,0-2.34-1.05-2.35-2.35v-7.81ZM18.75,77.35c0-1.29,1.05-2.34,2.35-2.35h7.82c1.29,0,2.34,1.05,2.35,2.35v7.81c0,1.29-1.05,2.34-2.35,2.35h-7.82c-1.29,0-2.34-1.05-2.35-2.35v-7.81ZM84.38,12.5h-9.38V3.13c0-1.72-1.4-3.12-3.12-3.13h-6.25c-1.73,0-3.12,1.4-3.13,3.13v9.37h-25V3.13c0-1.72-1.4-3.12-3.12-3.13h-6.25c-1.73,0-3.12,1.4-3.13,3.13v9.37h-9.37c-5.18,0-9.37,4.2-9.37,9.37v9.37h87.5v-9.37c0-5.18-4.2-9.37-9.37-9.37Z"/>
</svg>
