<?xml version="1.0" encoding="UTF-8"?>
<svg id="Capa_1" xmlns="http://www.w3.org/2000/svg" viewBox="0 0 100 100">
  <defs>
    <style>
      .cls-1 {
        fill: currentColor;
      }
    </style>
  </defs>
  <g id="Grupo_31282-2">
    <path id="Trazado_18474" class="cls-1" d="M47.31,58.85c-3.96,3.1-9.18,4.06-13.99,2.58-3.66-1.13-6.85-3.44-9.06-6.57-.15-.2-.24-.38-.58-.24-3.81,1.54-7.62,3.07-11.33,4.83-2.81,1.25-5.27,3.18-7.14,5.63-2.58,3.66-4.26,7.87-4.92,12.3-.02.59-.12,1.17-.3,1.73v.7c.08.23.08.47,0,.7v1c.29.49.75.85,1.29,1.02,2.16.87,4.39,1.56,6.66,2.08,6.61,1.42,13.33,2.25,20.09,2.49,5.31.27,10.62.31,15.93.11,2.31-.08,4.6-.21,6.88-.38.32-.02.38-.12.37-.42-.04-.36-.03-.73-.03-1.1-.13-8.63.03-17.25,0-25.88,0-.62,0-1.23.05-1.85.05-.86.02-1.73-.09-2.59-1.08,1.46-2.38,2.75-3.84,3.82"/>
    <path id="Trazado_18475" class="cls-1" d="M56.07,36.05c.05-1.02-.37-2.01-1.12-2.69-.34-.22-.52-.63-.46-1.03v-.75c0-.17-.05-.33-.16-.45-1.73-2.09-3.96-3.7-6.49-4.67-3.06-1.09-6.3-1.64-9.55-1.61-2.42-.06-4.83.15-7.2.63-3.44.6-6.6,2.26-9.05,4.74-.75.61-1.13,1.57-1.02,2.53.05.16-.02.34-.18.42-.59.34-1.01.91-1.15,1.58-.39,1.52-.44,3.11-.14,4.65.52,2.92,1.9,5.62,3.96,7.75.32.34.55.74.68,1.18.67,2.24,1.79,4.32,3.31,6.1,4.23,5.16,11.64,6.36,17.27,2.79,3.15-2.05,5.45-5.16,6.49-8.76.16-.52.44-.99.8-1.4,2.86-2.92,4.32-6.94,3.99-11.02"/>
    <path id="Trazado_18476" class="cls-1" d="M90.35,54.65c.38.15.81.15,1.2,0,.86-.19,1.5-.91,1.6-1.78.09-1.07.11-2.14.07-3.22.05-.46.03-.93-.07-1.38-.22-1.23-1.39-2.05-2.62-1.84-1.01.18-1.78,1.01-1.86,2.04-.05,1.4-.05,2.79,0,4.19.04.97.74,1.8,1.7,1.99"/>
    <path id="Trazado_18477" class="cls-1" d="M60.77,52.85c.2,1.23,1.37,2.07,2.6,1.87,1.07-.18,1.86-1.08,1.9-2.17.04-1.33.04-2.67,0-4-.06-1.25-1.13-2.21-2.38-2.15-1.02.05-1.88.77-2.1,1.77-.12.72-.14,1.45-.08,2.17-.05.84-.03,1.68.06,2.52"/>
    <path id="Trazado_18478" class="cls-1" d="M23.35,27.72s-.05.08-.05.12.05.06.09.11c.03-.06.07-.09.07-.13s-.04-.12-.12-.1"/>
    <path id="Trazado_18479" class="cls-1" d="M98.65,49.96h0c-1.33-.06-2.66-.04-4,0h0c-.2.12-.09.3-.08.44.04.73.04,1.46,0,2.19-.01,1.26-.7,2.42-1.8,3.03-1.73,1-3.95.42-4.95-1.31-.25-.43-.41-.92-.47-1.41-.13-.91-.03-1.83-.08-2.73,0-.38-.31-.21-.46-.21-6.53,0-13.05,0-19.57-.02-.55,0-.67.16-.55.63h0c.01.81-.02,1.63-.1,2.44-.3,1.98-2.14,3.33-4.12,3.03-1.48-.22-2.67-1.33-2.99-2.79-.14-.92-.18-1.85-.12-2.78,0-.16.13-.36-.08-.49-1.33-.04-2.66-.05-3.99,0-.07,0-.13,0-.2,0-.73.22-1.2.93-1.1,1.69v39.62c-.02.67.43,1.27,1.08,1.45.05.04.12.07.18.08h.07c.13.03.26.03.38,0h43.1c.6-.05,1.08-.5,1.18-1.08v-40.57c-.14-.63-.66-1.11-1.3-1.19M95.06,89.76h-36.17c-1.23,0-1.78-.56-1.78-1.81v-27.18c0-1.15.26-1.54,1.35-1.92h36.31c.15,0,.3,0,.45-.02,1.3.15,1.72.63,1.72,1.96v27.08c0,1.33-.54,1.87-1.87,1.87M94.76,51.98v.2-.2"/>
    <path id="Trazado_18480" class="cls-1" d="M19.59,14.84v5.62c0,.12,0,.23-.1.32v7.53c0,.08.01.17.03.25.1.43.44.77.87.88.42.13.65-.13.9-.38.39-.44.82-.83,1.28-1.18.17-.06.33-.15.47-.28.84-.7,1.77-1.28,2.76-1.73.21-.11.4-.23.58-.38.15-.07.3-.14.45-.2,3.02-1.12,6.2-1.72,9.41-1.77,2.91-.13,5.83.09,8.69.67,3.58.58,6.87,2.32,9.36,4.95.26.37.77.46,1.14.2.04-.03.07-.05.1-.09.36-.27.55-.71.5-1.15,0-4.5,0-8.99.03-13.49,0-.66-.25-1.29-.7-1.77-1.23-1.34-2.72-2.42-4.38-3.16-3.33-1.41-6.88-2.22-10.49-2.41v-.08h-5.6v.08c-2.95.2-5.86.78-8.67,1.72-2.33.73-4.42,2.05-6.07,3.84-.42.44-.66,1.02-.66,1.62.13.09.11.23.11.36M33.18,14.32h0c.17-.05.38.04.51-.19h0c.15-.04.31-.07.46-.08h1.19l.66.03c.23.02.47,0,.69-.05v-2.53c0-.77.28-1.22.83-1.35.62-.14,1.05.14,1.37.91h0v2.58h0s-.02.06,0,.09h0c-.07.28.08.33.33.33.86,0,1.72,0,2.58-.02.47.07.86.4,1.01.85.17.56-.15,1.14-.71,1.31-.1.03-.19.04-.29.04h-2.55c-.29,0-.46.05-.38.38h0c0,.86,0,1.72,0,2.58h0c-.06.24-.18.46-.34.65-.3.31-.75.41-1.15.26-.43-.14-.71-.54-.71-.99,0-.81-.02-1.63,0-2.44,0-.36-.11-.45-.45-.45h-2.64c-.31-.02-.58-.2-.7-.48h0c-.33-.42-.25-1.02.17-1.35.04-.03.08-.05.12-.08"/>
    <path id="Trazado_18481" class="cls-1" d="M65.56,80.14c-1.96-.05-3.93-.04-5.89,0-.37-.02-.71.23-.79.6-.04.14-.07.29-.08.43v5.42c.01.11.03.23.07.33.06.42.43.72.85.69,1.91.02,3.82.02,5.73,0,.49.01.89-.37.9-.86,0,0,0-.02,0-.03v-5.73c.03-.44-.31-.83-.75-.86,0,0-.01,0-.02,0"/>
    <path id="Trazado_18482" class="cls-1" d="M88.5,68.54h5.64c.44.04.83-.26.9-.7.03-.07.06-.15.07-.23v-5.67c-.01-.06-.03-.13-.06-.18-.04-.41-.39-.72-.8-.7-1.96-.04-3.93-.05-5.9,0-.47.03-.82.43-.8.9,0,0,0,0,0,0v5.64c-.03.49.34.91.83.94.04,0,.08,0,.12,0"/>
    <path id="Trazado_18483" class="cls-1" d="M94.09,70.55h-5.54c-.51-.05-.95.32-1,.83,0,.06,0,.11,0,.17v5.54c-.04.41.21.8.6.93.2.09.42.12.63.1h5.02c.18.02.37,0,.54-.07.37-.03.67-.33.7-.7.03-.11.05-.22.06-.33v-5.38c.01-.13-.01-.27-.07-.38-.08-.45-.5-.75-.95-.7"/>
    <path id="Trazado_18484" class="cls-1" d="M65.4,70.55c-1.88-.01-3.76-.01-5.64,0-.44-.04-.83.26-.9.69-.06.12-.09.25-.07.38v5.33c-.02.13,0,.27.06.38.02.34.28.62.61.68.15.07.32.1.48.08h5.27c.15.02.3,0,.43-.08.42-.06.71-.43.69-.85.02-1.89.02-3.79,0-5.68.02-.5-.37-.92-.87-.95-.03,0-.06,0-.08,0"/>
    <path id="Trazado_18485" class="cls-1" d="M84.56,70.54h-5.64c-.5-.03-.93.36-.96.87,0,.02,0,.05,0,.07-.01,1.88-.01,3.76,0,5.64-.04.43.26.83.69.91.11.04.22.06.33.07h5.4c.23.03.47-.04.65-.18.21-.08.36-.27.38-.49.07-.15.1-.32.08-.48v-5.27c.02-.15,0-.3-.07-.43-.07-.43-.46-.74-.89-.69"/>
    <path id="Trazado_18486" class="cls-1" d="M75.16,80.14c-2-.05-3.99-.05-5.99,0-.34,0-.63.26-.69.6-.03.07-.06.15-.07.23v5.82s.03.1.05.14h0c.04.42.42.73.84.69,1.91.02,3.82.02,5.73,0,.42.04.79-.27.83-.69.03-.11.05-.22.06-.33v-5.42c.01-.15-.01-.3-.08-.43-.06-.34-.35-.59-.69-.6"/>
    <path id="Trazado_18487" class="cls-1" d="M75.85,71.14h0c-.12-.4-.51-.65-.92-.6h-5.52c-.41-.04-.8.21-.92.6l-.03.17h0c-.06.1-.08.22-.07.33,0,1.79,0,3.59,0,5.38-.02.12,0,.24.07.33h0c.15.56.45.77,1.1.77h5.14c.16.03.33,0,.48-.07h.04l.04-.02c.31-.04.55-.28.6-.59.07-.15.1-.32.08-.48v-5.27c.01-.18-.02-.37-.1-.53"/>
    <path id="Trazado_18488" class="cls-1" d="M85.44,61.65h0c-.06-.34-.35-.58-.69-.6-.81,0-1.63-.03-2.44-.02-1.21,0-2.43-.05-3.64.04-.46.1-.77.54-.71,1v5.44c-.06.51.32.98.83,1.03.06,0,.12,0,.19,0h5.59c.4.03.76-.22.87-.6.08-.18.11-.38.1-.58,0-1.72,0-3.45,0-5.17.02-.18,0-.37-.09-.53"/>
    <path id="Trazado_18489" class="cls-1" d="M68.46,67.85c.02.29.22.53.5.6.16.1.34.13.53.1h5.38c.16,0,.33.03.47-.1.25-.06.44-.25.48-.5.08-.17.11-.35.09-.53v-5.27c.02-.17,0-.33-.08-.48-.05-.34-.35-.59-.69-.59-2-.05-3.99-.05-5.99,0-.34,0-.63.25-.69.59-.06.12-.09.25-.08.38,0,1.84,0,3.68,0,5.52.01.1.03.19.07.28"/>
    <path id="Trazado_18490" class="cls-1" d="M58.87,67.84c.13.56.54.7,1.05.7h5.33c.18.03.37,0,.52-.1l.2-.12c.26-.13.41-.4.38-.68v-5.72c.03-.44-.3-.83-.74-.86,0,0-.02,0-.03,0-2-.05-3.99-.06-5.99,0-.38.01-.68.31-.71.68-.03.09-.05.19-.06.28v5.48c.01.11.03.23.07.33"/>
    <path id="Trazado_18491" class="cls-1" d="M95.03,80.74h0c-.09-.4-.48-.67-.89-.61h-5.6c-.48-.07-.93.27-.99.75-.01.07-.01.14,0,.22,0,1.85,0,3.7,0,5.54-.05.49.3.93.78.98.06,0,.11,0,.17,0h5.64c.58-.09,1-.6.98-1.18v-5.17c.01-.18-.02-.37-.09-.53"/>
    <path id="Trazado_18492" class="cls-1" d="M85.52,81.17c-.01-.11-.03-.22-.06-.33-.03-.38-.33-.68-.71-.69-1.96-.05-3.93-.04-5.89,0-.48-.01-.89.37-.9.86,0,.02,0,.04,0,.06v5.59c-.04.5.34.94.85.98.04,0,.08,0,.12,0h5.64c.44.05.83-.26.89-.7.06-.12.09-.25.07-.38v-5.38"/>
  </g>
</svg>
