<?xml version="1.0" encoding="UTF-8"?>
<svg id="Capa_1" xmlns="http://www.w3.org/2000/svg" viewBox="0 0 100 100">
  <defs>
    <style>
      .cls-1 {
        fill: currentColor;
      }
    </style>
  </defs>
  <g id="Grupo_31087">
    <path id="Trazado_18386" class="cls-1" d="M18.8,50.17v-28.01h12.41v27.89h12.52v-27.86h12.46v27.89h12.52v-27.91h12.46v28.01c1.11,0,2.08,0,3.04,0,5.17-.08,9.42,4.04,9.5,9.21,0,.1,0,.19,0,.29.03,5.09,0,10.18,0,15.74-1.22-.38-2.41-.85-3.56-1.41-1.08-.72-2.12-1.51-3.1-2.36-4.69-3.74-11.36-3.68-15.99.13-.94.74-1.83,1.54-2.83,2.2-2.12,1.57-5.02,1.6-7.17.06-1.13-.73-2.14-1.65-3.21-2.47-4.55-3.54-10.91-3.58-15.51-.11-.96.71-1.85,1.52-2.82,2.22-2.34,1.94-5.73,1.96-8.09.05-.76-.54-1.47-1.16-2.2-1.75-5.18-4.19-11.63-4.11-16.88.08-1.45,1.06-2.98,2.02-4.57,2.87-.45.15-.92.22-1.4.22-.03-.63-.08-1.17-.08-1.71,0-4.47,0-8.94,0-13.42.02-5.9,4-9.85,9.93-9.86h2.58"/>
    <path id="Trazado_18387" class="cls-1" d="M6.34,100v-18.42c.19-.08.38-.14.58-.17,3.04-.14,5.94-1.36,8.17-3.44.43-.38.87-.74,1.33-1.09,3.04-2.32,5.96-2.32,8.97.07,2.12,1.68,4.12,3.53,6.89,4.11,4.27.89,8.22.19,11.53-2.76,4.36-3.9,7.5-4.32,12.4-.05,4.7,4.35,11.95,4.37,16.67.05,4.67-4,7.87-4.24,12.4-.06,2.28,2.08,5.26,3.21,8.34,3.17v18.58H6.34Z"/>
    <path id="Trazado_18388" class="cls-1" d="M25.05,0c.72.37,1.39.81,2.02,1.32,3.34,3.6,4.92,7.79,3.84,12.71-.47,2.66-2.68,4.67-5.37,4.9-2.68.21-5.19-1.31-6.25-3.77-1.16-2.5-.44-5.48,1.74-7.16,2.58-1.84,4.08-4.83,4.02-8"/>
    <path id="Trazado_18389" class="cls-1" d="M50.03.04c.68.32,1.32.72,1.91,1.19,3.51,3.71,5.13,8.03,3.85,13.12-.56,2.59-2.79,4.48-5.44,4.6-2.62.14-5.06-1.37-6.09-3.79-1.15-2.45-.47-5.37,1.63-7.06,2.51-2.03,4.18-4.42,4.13-8.06"/>
    <path id="Trazado_18390" class="cls-1" d="M75.13.07c.68.35,1.33.78,1.91,1.27,3.29,3.56,4.86,7.7,3.85,12.57-.43,2.66-2.58,4.72-5.26,5.02-2.73.27-5.32-1.26-6.39-3.79-1.1-2.51-.38-5.46,1.75-7.18,3.2-2.85,3.47-3.36,4.14-7.9"/>
  </g>
</svg>