<?xml version="1.0" encoding="UTF-8"?>
<svg id="Capa_1" xmlns="http://www.w3.org/2000/svg" xmlns:xlink="http://www.w3.org/1999/xlink" viewBox="0 0 30 30">
  <defs>
    <style>
      .cls-1 {
        fill: currentColor;
      }

      .cls-2 {
        fill: currentColor;
      }

      .cls-3 {
        clip-path: url(#clippath);
      }
    </style>
    <clipPath id="clippath">
      <rect class="cls-1" x="6.45" y="2" width="17.11" height="26"/>
    </clipPath>
  </defs>
  <g class="cls-3">
    <g id="Grupo_35747">
      <path id="Trazado_19666" class="cls-2" d="M18.2,23.41h-6.41c-.6,0-1.08.48-1.08,1.08,0,0,0,0,0,0v.16c0,.6.49,1.08,1.08,1.08h1.06v.26c0,1.1.9,2,2,2h.29c1.1,0,2-.89,2-2,0,0,0,0,0,0v-.26h1.06c.6,0,1.08-.49,1.08-1.08v-.16c0-.6-.49-1.08-1.08-1.08"/>
      <path id="Trazado_19667" class="cls-2" d="M14,2.06c-3.83.64-6.84,3.63-7.5,7.46-.31,2.56.55,5.13,2.35,6.98.99,1.02,1.54,2.39,1.54,3.81h0c0,.73.59,1.32,1.32,1.32h6.58c.73,0,1.32-.59,1.32-1.32-.01-1.41.53-2.77,1.51-3.78,3.3-3.37,3.25-8.79-.12-12.09-1.85-1.81-4.42-2.69-6.99-2.38M14.16,18.33c.02.46-.35.85-.81.86-.46.02-.85-.35-.86-.81,0-.02,0-.04,0-.06v-3.61c0-1.13-.92-2.05-2.05-2.05-.46.02-.85-.35-.86-.81s.35-.85.81-.86c.02,0,.04,0,.06,0,2.05,0,3.72,1.67,3.72,3.72v3.6ZM19.55,12.67c-1.13,0-2.05.92-2.05,2.05v3.61c.02.46-.35.85-.81.86-.46.02-.85-.35-.86-.81,0-.02,0-.04,0-.06v-3.6c0-2.05,1.67-3.72,3.72-3.72.46-.02.85.35.86.81s-.35.85-.81.86c-.02,0-.04,0-.06,0"/>
    </g>
  </g>
</svg>
