<?xml version="1.0" encoding="UTF-8"?>
<svg id="Capa_1" xmlns="http://www.w3.org/2000/svg" xmlns:xlink="http://www.w3.org/1999/xlink" viewBox="0 0 30 30">
  <defs>
    <style>
      .cls-1 {
        fill: currentColor;
      }

      .cls-2 {
        fill: currentColor;
      }

      .cls-3 {
        clip-path: url(#clippath);
      }
    </style>
    <clipPath id="clippath">
      <rect class="cls-1" x="4.3" y="3.61" width="21.39" height="22.77"/>
    </clipPath>
  </defs>
  <g class="cls-3">
    <g id="Grupo_35739">
      <path id="Trazado_19658" class="cls-2" d="M8.1,22.49v-3.15c-.21.03-.42.05-.63.05-.41,0-.82-.06-1.22-.17v3.26c0,1.19.97,2.15,2.15,2.15h2.36v-1.85h-2.36c-.17,0-.31-.14-.31-.31M17.23,20.85h-3.69c-.68,0-1.23.55-1.23,1.23,0,0,0,0,0,0v3.08c0,.68.55,1.23,1.23,1.23h3.69c.68,0,1.23-.55,1.23-1.23v-3.08c0-.68-.55-1.23-1.23-1.23"/>
      <path id="Trazado_19659" class="cls-2" d="M13.54,9.15h3.69c.68,0,1.23-.55,1.23-1.23v-3.08c0-.68-.55-1.23-1.23-1.23,0,0,0,0,0,0h-3.69c-.68,0-1.23.55-1.23,1.23v3.08c0,.68.55,1.23,1.23,1.23M14.25,11.31v.62c.02.51.44.91.95.89.49-.02.88-.41.89-.89v-.62c-.02-.51-.44-.91-.95-.89-.49.02-.88.41-.89.89M25.52,14.25l-2.78-2.78c-.24-.24-.63-.24-.87,0h0s-2.29,2.29-2.29,2.29h-9.1c-.51-1.67-2.28-2.62-3.95-2.11-1.67.51-2.62,2.28-2.11,3.95.51,1.67,2.28,2.62,3.95,2.11,1.01-.31,1.8-1.1,2.11-2.11h9.1l2.29,2.29c.24.24.63.24.87,0h0s2.78-2.78,2.78-2.78c.24-.24.24-.63,0-.87h0M15.07,17.15c-.51,0-.92.41-.92.92,0,0,0,0,0,0v.62c.02.51.44.91.95.89.49-.02.88-.41.89-.89v-.62c0-.51-.41-.92-.92-.92,0,0,0,0,0,0"/>
    </g>
  </g>
</svg>
