<?xml version="1.0" encoding="UTF-8"?>
<svg id="Capa_1" xmlns="http://www.w3.org/2000/svg" viewBox="0 0 30 30">
  <defs>
    <style>
      .cls-1 {
        fill: currentColor;
      }
    </style>
  </defs>
  <path id="Icon_awesome-user-injured" class="cls-1" d="M17.61,3.09c-3.1-1.45-6.79-.12-8.24,2.98-.05.11-.1.22-.15.34h3.96l4.43-3.32ZM20.79,6.41c-.39-.94-1-1.77-1.78-2.42l-3.22,2.42h5ZM15,15c3.45,0,6.25-2.8,6.25-6.25,0-.26-.04-.52-.08-.78h-12.34c-.04.26-.07.52-.08.78,0,3.45,2.8,6.25,6.25,6.25h0ZM7.97,17.13v10.36h6.26l-4.81-10.81c-.5.09-.99.24-1.46.45ZM4.07,25.15c0,1.29,1.05,2.34,2.34,2.34v-9.36c-1.48,1.23-2.34,3.06-2.34,4.99v2.03ZM16.56,22.81h-2.7l2.08,4.69h.62c1.29.03,2.36-1,2.39-2.29.03-1.29-1-2.36-2.29-2.39-.03,0-.06,0-.1,0h0ZM19.38,16.56h-.81c-2.26,1.04-4.86,1.04-7.12,0h-.36l2.08,4.69h3.4c2.16,0,3.9,1.75,3.9,3.9,0,.85-.29,1.67-.81,2.34h3.92c1.29,0,2.34-1.05,2.34-2.34v-2.03c0-3.62-2.93-6.56-6.55-6.56Z"/>
</svg>