<?xml version="1.0" encoding="UTF-8"?>
<svg id="Capa_1" xmlns="http://www.w3.org/2000/svg" viewBox="0 0 30 30">
  <defs>
    <style>
      .cls-1 {
        fill: currentColor;
      }
    </style>
  </defs>
  <path id="Trazado_19492" class="cls-1" d="M17.94,7.16c1.35.84,2.23,2.25,2.4,3.83,2.08.97,4.55.07,5.53-2.01.97-2.08.07-4.55-2.01-5.53-2.08-.97-4.55-.07-5.53,2.01-.25.53-.38,1.11-.39,1.7ZM15.21,15.67c2.3,0,4.16-1.86,4.16-4.16s-1.86-4.16-4.16-4.16c-2.3,0-4.16,1.86-4.16,4.16,0,2.3,1.86,4.16,4.16,4.16h0ZM16.98,15.96h-3.53c-2.94,0-5.32,2.39-5.33,5.33v4.38s.31.1.31.1c2.34.75,4.78,1.15,7.24,1.17,2.17.07,4.33-.34,6.33-1.2l.28-.14h.03v-4.31c0-2.94-2.39-5.32-5.33-5.33h0ZM23.86,11.67h-3.5c-.04,1.35-.61,2.64-1.59,3.57,2.68.8,4.52,3.26,4.52,6.06v1.33c1.92-.01,3.82-.41,5.58-1.17l.28-.14h.03v-4.32c0-2.94-2.38-5.32-5.32-5.33h0ZM7.91,11.38c.78,0,1.55-.22,2.21-.64.2-1.3.89-2.48,1.94-3.28,0-.08.01-.15.01-.23,0-2.3-1.86-4.16-4.16-4.16s-4.16,1.86-4.16,4.16,1.86,4.16,4.16,4.16h0ZM11.65,15.24c-.97-.93-1.54-2.21-1.58-3.55-.13,0-.26-.02-.39-.02h-3.53c-2.94,0-5.32,2.39-5.32,5.33v4.38s.31.1.31.1c1.95.62,3.96,1,6,1.13v-1.31c0-2.8,1.84-5.26,4.52-6.05Z"/>
</svg>