<?xml version="1.0" encoding="UTF-8"?>
<svg id="Capa_1" data-name="Capa 1" xmlns="http://www.w3.org/2000/svg" viewBox="0 0 100 100">
  <defs>
    <style>
      .cls-1 {
        fill: currentColor;
      }
    </style>
  </defs>
  <g id="Grupo_35702" data-name="Grupo 35702">
    <path id="Trazado_19632" data-name="Trazado 19632" class="cls-1" d="M45.82.05c24.58-1.36,38.21,28.09,22.22,46.85-4.03,4.74-13.11,9.43-19.38,9.47-3.63.09-7.24-.41-10.71-1.49C8.81,44.58,14.68,1.78,45.82.05"/>
    <path id="Trazado_19633" data-name="Trazado 19633" class="cls-1" d="M90.58,95.34c-.42,2.21-3.18,4.43-5.38,4.66H8.71c-7.58-.81-5.43-11.53-4.42-16.65,1.65-8.31,5.11-15.6,12.48-20.19,4.05-2.52,11.09-4.42,15.84-3.67.97.34,1.92.73,2.85,1.17,7.82,2.73,16.37,2.58,24.08-.45-.64,1.39-1.43,2.7-1.96,4.15-5.92,16.32,8.42,32.6,25.36,29.01,2.7-.66,5.28-1.75,7.62-3.23-.2,1.53.27,3.76,0,5.2"/>
    <path id="Trazado_19634" data-name="Trazado 19634" class="cls-1" d="M63.29,68.79c-.24-.07-.27-.36-.24-.59.19-.8.46-1.57.8-2.32,3.04-7.14,10.83-10.98,18.34-9.05,4.05,1.12,7.5,3.78,9.61,7.41l4.99-1.47-5.31,10.75-10.85-5.28c-.24-.23.12-.21.28-.27,1.47-.56,3.06-.9,4.49-1.55.17-.08.32.11.25-.29-3.17-4.12-9.09-4.88-13.21-1.71-.55.42-1.05.9-1.49,1.43-.77.92-1.14,1.97-1.82,2.92h-5.84Z"/>
    <path id="Trazado_19635" data-name="Trazado 19635" class="cls-1" d="M93.31,75.18c-.71,4.8-4.43,9.09-8.82,10.98-7.35,3.22-15.95.38-19.95-6.58l-4.82,1.44,5.2-10.59.45-.11,10.31,5.22c.17.19-.2.34-.33.4-1.22.62-2.96.81-4.25,1.41-.16.08-.33-.11-.27.29.12.79,2.5,2.42,3.25,2.77,5.35,2.51,10.75-.08,13.09-5.24h6.11Z"/>
  </g>
</svg>
