<?xml version="1.0" encoding="UTF-8"?>
<svg id="Capa_1" data-name="Capa 1" xmlns="http://www.w3.org/2000/svg" viewBox="0 0 100 100">
  <defs>
    <style>
      .cls-1 {
        fill: currentColor;
      }
    </style>
  </defs>
  <g id="Grupo_35694" data-name="Grupo 35694">
    <path id="Trazado_19611" data-name="Trazado 19611" class="cls-1" d="M84.44,0c5.01,1.44,7.91,5.35,7.11,10.67,3.96-.11,6.88-.71,8.45,3.55v24c-1.58,3.83-4.77,3.76-8.44,3.56v8c3.78-.22,7.13-.04,8.44,4v24c-1.7,3.59-4.81,3.78-8.44,3.56v12.22c0,2.29-4.78,6.15-7.11,6.44H17.78c-2.4-.44-7.11-3.95-7.11-6.44v-10.44H3.78c-1.6,0-3.36-3.04-3.78-4.44v-1.33c.19-1.19,2.7-4.44,3.78-4.44h6.89v-8.44H3.78c-1.08,0-3.59-3.25-3.78-4.44v-1.33c.28-1.35,2.36-4.44,3.78-4.44h6.89v-8.44H3.78c-1.41,0-3.5-3.1-3.78-4.44v-1.33c.19-1.19,2.7-4.44,3.78-4.44h6.89v-8.44H3.78c-1.08,0-3.59-3.25-3.78-4.44v-1.33c.41-1.4,2.18-4.44,3.78-4.44h6.89V6.44c0-2.49,4.72-6.01,7.11-6.44h66.67ZM20.89,83.11c-.4,2.58,1.07,5.76,3.8,6.2,2.17.34,13.91.37,15.88-.07,1.8-.55,3.03-2.22,3-4.11l-.22-71.82c-.56-1.34-1.74-2.32-3.16-2.62-5.16-.4-10.34-.4-15.5,0-2.74.44-4.2,3.62-3.8,6.2h9.11c1.7,0,3.37,3.4,3.37,5.11s-1.67,5.11-3.37,5.11h-9.11v8.44h9.11c1.7,0,3.37,3.4,3.37,5.11s-1.67,5.11-3.37,5.11h-9.11v8.44h9.11c1.7,0,3.37,3.4,3.37,5.11s-1.67,5.11-3.37,5.11h-9.11v8.44h9.11c1.7,0,3.37,3.4,3.37,5.11s-1.67,5.11-3.37,5.11h-9.11Z"/>
  </g>
</svg>
