<?xml version="1.0" encoding="UTF-8"?>
<svg id="Capa_1" data-name="Capa 1" xmlns="http://www.w3.org/2000/svg" viewBox="0 0 100 100">
  <defs>
    <style>
      .cls-1 {
        fill: currentColor;
      }
    </style>
  </defs>
  <g id="Grupo_35704" data-name="Grupo 35704">
    <path id="Trazado_19636" data-name="Trazado 19636" class="cls-1" d="M90.24,75.7v17.06c0,3.28-4.78,7.45-8.13,7.23l-52.25-.02c-2.76.29-7.84-3.61-7.84-6.3v-17.98h68.23ZM50.13,87.07c-.93.39-.32,2.45.31,2.45h14.75c.22,0,.95-.97.78-1.36-.12-.45-.4-.84-.78-1.09h-15.06ZM71.03,87.07c-1.19.35-.56,2.45,0,2.45h7.99c.22,0,.95-.97.78-1.36-.12-.45-.4-.84-.78-1.09h-7.99Z"/>
    <path id="Trazado_19637" data-name="Trazado 19637" class="cls-1" d="M90.24,62.79H22.01c-.73-5.09,1.79-9.41,6.94-10.42l53.16-.04c5.78.43,8.62,4.94,8.13,10.46"/>
    <path id="Trazado_19638" data-name="Trazado 19638" class="cls-1" d="M90.24,65.25v7.53l-.46.46H22.01v-7.99h68.23Z"/>
    <path id="Trazado_19639" data-name="Trazado 19639" class="cls-1" d="M73.77,5.04c-1.41-2.77-4.23-4.55-7.34-4.65-15.7-1.24-33.01.95-48.88.01-4.27.4-7.6,3.85-7.85,8.13v73.16c.35,4.69,4.43,8.22,9.12,7.88.14-.01.28-.02.41-.04v-30.27c0-3.32,5.06-9.37,8.45-9.37h46.87V7.01c0-.11-.66-1.68-.8-1.97M52.16,33.29h-5.1c-.59,0-1.07.48-1.08,1.08v5.1c0,1.34-1.09,2.43-2.43,2.43h-2.82c-1.34,0-2.43-1.09-2.43-2.43v-5.41c-.32-.31-.68-.56-1.08-.77h-5.1c-1.34,0-2.43-1.09-2.43-2.43v-2.82c0-1.34,1.09-2.43,2.43-2.43h5.1c.39-.2.75-.46,1.08-.77v-5.41c0-1.34,1.09-2.43,2.43-2.43h2.82c1.34,0,2.43,1.09,2.43,2.43v5.1c0,.59.48,1.07,1.08,1.08h5.1c1.34,0,2.43,1.09,2.43,2.43v2.82c0,1.34-1.09,2.43-2.43,2.43h0"/>
  </g>
</svg>
