<?xml version="1.0" encoding="UTF-8"?>
<svg id="Capa_1" data-name="Capa 1" xmlns="http://www.w3.org/2000/svg" viewBox="0 0 100 100">
  <defs>
    <style>
      .cls-1 {
        fill: currentColor;
      }
    </style>
  </defs>
  <g id="Grupo_35697" data-name="Grupo 35697">
    <path id="Trazado_19612" data-name="Trazado 19612" class="cls-1" d="M10.65,8.82v5.93c.22.83.53,1.64.93,2.4,2.81,5.27,11.77,3.15,11.77-2.81v-5.51h38.51v5.52c.15.72.35,1.43.59,2.12,1.78,4.65,9.18,5,11.32.62.31-.76.58-1.54.8-2.33v-5.94h7.81c.92,0,2.81,1.65,2.81,2.6v23.21l-6.44-2.93c.12-2.23,1.18-7.59-2.01-8.09l-67.86-.02c-1.18-.02-2.19.82-2.39,1.98-.28,2.39.06,5.61.01,8.13-.26,12.68-.27,25.66-.22,38.29,0,2.32-.13,5.1,0,7.3.24,3.72,4.49,2.51,7.19,2.59,1.06.03,2.28.21,3.31.23,6.71.13,13.44-.11,20.16-.01,1.31,2.22,2.83,4.31,4.52,6.25H2.64c-1.14-.34-2.06-1.21-2.46-2.33C-.06,61.09-.06,36.07.18,11.14c.28-.97,1.63-2.32,2.67-2.32h7.81Z"/>
    <path id="Trazado_19613" data-name="Trazado 19613" class="cls-1" d="M23.92,26.14c2.75.19,6.26-.41,8.92-.06.71.09,1.26.65,1.35,1.35.21,2.85.21,5.71,0,8.56-.09.71-.65,1.26-1.35,1.35-2.78.2-5.57.2-8.35,0-1.01-.09-1.43-.28-1.56-1.36-.21-2.84-.21-5.7,0-8.54.08-.68.28-1.13.99-1.3"/>
    <path id="Trazado_19614" data-name="Trazado 19614" class="cls-1" d="M9.96,26.14c2.9-.23,5.81-.25,8.7-.05.77.09,1.25.34,1.36,1.14.22,2.99.22,5.99,0,8.97-.11.81-.59,1.05-1.36,1.14-2.78.2-5.57.21-8.34,0-.85,0-1.55-.68-1.55-1.53,0-.01,0-.03,0-.04-.2-2.71-.2-5.42,0-8.13.01-.71.5-1.33,1.19-1.51"/>
    <path id="Trazado_19615" data-name="Trazado 19615" class="cls-1" d="M9.96,54.25c2.9-.23,5.8-.25,8.7-.05.92.11,1.25.44,1.35,1.35.22,2.92.22,5.84,0,8.76-.02.62-.52,1.13-1.15,1.15-2.92.21-5.85.21-8.77,0-.77-.12-1.34-.79-1.35-1.57-.2-2.71-.2-5.42,0-8.13.01-.71.5-1.33,1.19-1.51"/>
    <path id="Trazado_19616" data-name="Trazado 19616" class="cls-1" d="M23.71,40.3c2.88.2,6.55-.42,9.33-.05.81.11,1.05.59,1.14,1.36.2,2.71.2,5.43,0,8.13-.11,1.24-.53,1.62-1.78,1.76s-7.64.16-8.55-.19c-.52-.15-.9-.61-.93-1.15-.21-2.92-.21-5.85,0-8.77.03-.49.33-.91.78-1.09"/>
    <path id="Trazado_19617" data-name="Trazado 19617" class="cls-1" d="M19.76,79.13c-.45.29-.96.46-1.5.48-2.64.19-5.29.19-7.93,0-.67.02-1.26-.43-1.42-1.08-.32-1.03-.29-7.3-.14-8.61.13-1.17.45-1.47,1.56-1.57,2.78-.19,5.57-.19,8.35,0,.8.08,1.24.28,1.35,1.15.2,2.85.2,5.71,0,8.55.02.38-.07.76-.27,1.08"/>
    <path id="Trazado_19618" data-name="Trazado 19618" class="cls-1" d="M19.76,51.03c-.45.29-.96.46-1.5.48-2.57.18-5.15.18-7.71-.01-.82-.09-1.38-.24-1.63-1.08-.32-1.02-.29-7.3-.14-8.61.13-1.17.45-1.47,1.56-1.57,2.78-.19,5.57-.19,8.35,0,.8.08,1.24.28,1.35,1.15.2,2.85.2,5.71,0,8.55.02.38-.07.76-.27,1.08"/>
    <path id="Trazado_19619" data-name="Trazado 19619" class="cls-1" d="M38.07,26.14c2.9-.23,5.8-.25,8.7-.05.67-.02,1.26.43,1.42,1.08.26,2.45.31,4.91.15,7.37-.01.22-.08.44-.2.63-.96.79-1.98,1.51-3.04,2.17-2.22.17-4.44.17-6.66,0-1.12-.13-1.44-.72-1.56-1.77-.19-2.56-.19-5.14,0-7.7.09-.78.33-1.53,1.19-1.72"/>
    <path id="Trazado_19620" data-name="Trazado 19620" class="cls-1" d="M32.29,68.37c.19,1.46.4,2.92.74,4.36.47,2.02,2.71,6.57-.61,6.88-2.64.19-5.29.19-7.92,0-.78,0-1.45-.57-1.57-1.35-.21-2.85-.21-5.7,0-8.55.09-.77.33-1.25,1.14-1.36,2.47-.33,5.67.26,8.22.02"/>
    <path id="Trazado_19621" data-name="Trazado 19621" class="cls-1" d="M16.01,2.83c2.9-.5,4.99,1.38,5.26,4.22.16,1.76.21,6.68-.31,8.21-1.45,4.29-7.75,3.53-8.21-1.14-.21-2.67-.18-5.36.09-8.02.33-1.62,1.57-2.9,3.18-3.27"/>
    <path id="Trazado_19622" data-name="Trazado 19622" class="cls-1" d="M67.22,2.83c2.3-.55,4.61.88,5.16,3.18.05.21.08.41.1.62.17,1.57.18,7.56-.32,8.85-.9,2.16-3.38,3.18-5.54,2.28-1.05-.44-1.88-1.28-2.3-2.34-.58-1.55-.61-8.36-.06-9.93.57-1.26,1.65-2.23,2.96-2.66"/>
    <path id="Trazado_19623" data-name="Trazado 19623" class="cls-1" d="M33.03,54.2c.08.01.52.23.54.34-1.05,3.54-1.55,7.21-1.47,10.9h-8.22c-.41,0-.86-.75-.92-1.16-.22-2.84-.23-5.69-.03-8.54.04-.41.53-1.55.95-1.55h9.16Z"/>
    <path id="Trazado_19624" data-name="Trazado 19624" class="cls-1" d="M51.04,27.04c.29-.41.69-.73,1.15-.93l9.11.04c1.48.34.85,2.44.99,3.58-3.9.72-7.68,1.95-11.25,3.66.3-1.63-.4-4.93,0-6.35"/>
    <path id="Trazado_19625" data-name="Trazado 19625" class="cls-1" d="M76.44,30.47c-3.72-.61-7.45-1.26-11.24-1.04.13-1.67-.68-3.14,1.55-3.34,2.71-.24,5.78.19,8.54.02.36-.04,1.15.95,1.15,1.14v3.23Z"/>
    <path id="Trazado_19626" data-name="Trazado 19626" class="cls-1" d="M41.88,40.25l-5,6.25v-5.1c0-.2.62-1.15.94-1.15h4.06Z"/>
    <path id="Trazado_19627" data-name="Trazado 19627" class="cls-1" d="M66.4,32.2c-25.42.84-40.2,29.23-26.15,50.59,13.1,19.91,42.84,19.14,55.09-1.25,13.24-22.04-3.39-50.18-28.94-49.34M89.35,69.72c-.15,1.14-1.05,2.03-2.19,2.18h-12.8v13.22c0,.89-1.39,1.5-2.18,1.57-3.15.3-6.79-.24-9.99-.02-.52.06-1.78-1.22-1.78-1.55v-13.22h-12.8c-1.09-.25-1.94-1.09-2.19-2.18-.24-3.32-.24-6.66.02-9.98.11-.7,1.08-1.99,1.76-1.99h13.22v-13.43c0-.44,1.2-1.35,1.66-1.46,3.43-.28,6.87-.3,10.3-.09.58.09,1.99.99,1.99,1.55v13.43h13.22c.63,0,1.65,1.11,1.76,1.78.26,3.39.26,6.8.02,10.19"/>
  </g>
</svg>
