<?xml version="1.0" encoding="UTF-8"?>
<svg id="Capa_1" xmlns="http://www.w3.org/2000/svg" xmlns:xlink="http://www.w3.org/1999/xlink" viewBox="0 0 30 30">
  <defs>
    <style>
      .cls-1 {
        fill: currentColor;
      }

      .cls-2 {
        fill: currentColor;
      }

      .cls-3 {
        clip-path: url(#clippath);
      }
    </style>
    <clipPath id="clippath">
      <rect class="cls-1" x="4.32" y="2.5" width="21.37" height="25"/>
    </clipPath>
  </defs>
  <g class="cls-3">
    <g id="Grupo_35805">
      <path id="Trazado_19724" class="cls-2" d="M8.99,17.59c-.47-.07-.91.25-.98.72,0,0,0,0,0,0-.27,1.8-.67,3.58-1.19,5.32-.14.45.12.93.57,1.07.08.03.17.04.25.04.38,0,.71-.25.82-.61.55-1.82.97-3.68,1.25-5.57.07-.47-.25-.91-.72-.98M16.33,8.77c-1.05-.25-2.15-.02-3.01.63-1.09.96-1.72,2.33-1.73,3.78-.11,2.51-.39,5.01-.85,7.47-.07.47.25.91.72.98.44.07.87-.22.97-.65.47-2.55.77-5.12.88-7.71,0-.95.38-1.86,1.06-2.52.47-.34,1.06-.45,1.62-.3,1.4.28,1.88,1.32,1.75,3.83-.12,2.45-.42,4.88-.88,7.29-.09.47.22.92.68,1.01,0,0,0,0,0,0,.05.01.11.02.16.01.41,0,.77-.29.84-.7.48-2.49.78-5,.9-7.53.07-1.35.25-4.93-3.13-5.6M17.25,23.91c-.46-.12-.93.16-1.05.62-.16.62-.34,1.25-.53,1.86-.14.45.12.93.57,1.07.08.03.17.04.25.04.38,0,.71-.25.82-.61.2-.64.38-1.29.55-1.94.12-.46-.16-.93-.62-1.05"/>
      <path id="Trazado_19725" class="cls-2" d="M11.18,22.7c-.46-.12-.93.15-1.05.61-.16.62-.36,1.27-.6,1.98-.15.45.09.94.55,1.09.09.03.18.04.27.04.37,0,.7-.24.82-.59.25-.75.45-1.43.63-2.08.12-.46-.15-.93-.61-1.05M15.56,11.78h0c-.47,0-.86.38-.86.86,0,4.61-.74,9.19-2.2,13.57-.15.45.09.94.54,1.09.09.03.18.05.28.05.37,0,.69-.23.81-.58,1.51-4.55,2.28-9.32,2.29-14.12,0-.47-.38-.86-.85-.86,0,0,0,0,0,0M15.49,4.22c.47-.02.84-.42.82-.9-.02-.45-.39-.81-.84-.82-4.65.07-8.66,3.26-9.78,7.77-.23,1.11-.34,2.25-.35,3.38-.02.59-.04,1.14-.09,1.69-.17,1.9-.47,3.78-.91,5.64-.11.46.17.93.64,1.04,0,0,0,0,0,0,.07.02.13.02.2.02.4,0,.74-.27.84-.66.46-1.93.77-3.9.95-5.88.05-.6.08-1.2.1-1.78,0-1.02.1-2.04.3-3.05.93-3.74,4.27-6.39,8.13-6.45M19.38,3.25c-.44-.17-.94.06-1.11.5-.16.43.04.91.46,1.09,3.41,1.38,5.36,4.7,5.23,8.88-.11,3.28-.51,6.55-1.18,9.77-.11.46.18.93.64,1.03.46.11.93-.18,1.03-.64,0-.01,0-.03,0-.04.69-3.31,1.1-6.68,1.22-10.06.16-4.85-2.25-8.88-6.3-10.52M15.32,5.6c-2.37.09-4.54,1.35-5.79,3.36-.78,1.47-1.15,3.12-1.08,4.77-.01.38-.03.77-.06,1.16-.04.47.32.89.79.92s.89-.32.92-.79h0c.03-.4.05-.81.07-1.22-.07-1.36.22-2.72.83-3.95,1.55-2.51,4.83-3.3,7.35-1.75.8.49,1.45,1.18,1.9,2,.8,1.48.68,3.2.55,5.02l-.02.3c-.03.47.32.88.8.92,0,0,0,0,0,0h.06c.45,0,.83-.35.86-.8l.02-.29c.14-1.9.29-4.04-.75-5.96-1.29-2.34-3.77-3.76-6.44-3.69M21.45,17.5c-.47-.05-.89.28-.96.75-.29,2.49-.76,4.97-1.4,7.39-.12.46.15.93.61,1.05.07.02.15.03.22.03.39,0,.73-.26.83-.64.66-2.51,1.14-5.06,1.45-7.63.06-.47-.28-.9-.75-.96"/>
    </g>
  </g>
</svg>
