<?xml version="1.0" encoding="UTF-8"?>
<svg id="Capa_1" xmlns="http://www.w3.org/2000/svg" xmlns:xlink="http://www.w3.org/1999/xlink" viewBox="0 0 30 30">
  <defs>
    <style>
      .cls-1 {
        fill: currentColor;
      }

      .cls-2 {
        fill: currentColor;
      }

      .cls-3 {
        clip-path: url(#clippath);
      }
    </style>
    <clipPath id="clippath">
      <rect class="cls-1" x="4.76" width="20.47" height="30"/>
    </clipPath>
  </defs>
  <g class="cls-3">
    <g id="Grupo_35773">
      <path id="Trazado_19692" class="cls-2" d="M24.97,18.58c-.37-.47-.92-.76-1.51-.8.33-.59.29-1.31-.09-1.86-.35-.44-.86-.73-1.42-.79.27-.62.21-1.33-.18-1.88-.39-.47-.96-.76-1.58-.79-.05,0-.09,0-.14,0l3.37-3.37c.48-.46.62-1.17.34-1.77-.26-.52-.78-.84-1.36-.85-.4,0-.78.16-1.07.44l-8.53,8.53c-.59-.59-.59-1.54,0-2.13l.96-.96c.2-.2.2-.54,0-.74h0s-.32-.32-.32-.32c-.8-.8-2.09-.8-2.88,0l-2.63,2.64c-.46.46-.7,1.1-.66,1.75l.18,2.69c.04.55.27,1.06.66,1.45l5.9,5.9c.42.42,1,.66,1.6.66h2.39c.6,0,1.17-.24,1.6-.66l5.14-5.14c.55-.52.64-1.36.22-1.99"/>
      <path id="Trazado_19693" class="cls-2" d="M6.47,20.83c-.15-.15-.39-.15-.53,0l-1.07,1.07c-.15.15-.15.38,0,.53,0,0,0,0,0,0l7.46,7.46c.15.15.39.15.53,0l1.07-1.07c.15-.15.15-.38,0-.53,0,0,0,0,0,0l-7.46-7.46ZM21.05,0l-5.65,5.65-2.64-2.64-2.26,2.26,4.9,4.9,7.91-7.91-2.26-2.26Z"/>
    </g>
  </g>
</svg>
