<?xml version="1.0" encoding="UTF-8"?>
<svg id="Capa_1" xmlns="http://www.w3.org/2000/svg" xmlns:xlink="http://www.w3.org/1999/xlink" viewBox="0 0 30 30">
  <defs>
    <style>
      .cls-1 {
        fill: currentColor;
      }

      .cls-2 {
        fill: currentColor;
      }

      .cls-3 {
        clip-path: url(#clippath);
      }
    </style>
    <clipPath id="clippath">
      <rect class="cls-1" x="2.5" y="2.5" width="25" height="25"/>
    </clipPath>
  </defs>
  <g class="cls-3">
    <g id="Grupo_35672">
      <path id="Trazado_19602" class="cls-2" d="M15,2.5c-6.9,0-12.49,5.6-12.49,12.5,0,6.9,5.6,12.49,12.5,12.49,6.9,0,12.48-5.59,12.49-12.49.02-6.89-5.55-12.48-12.44-12.5-.02,0-.04,0-.06,0M15,25.88c-6.01,0-10.88-4.87-10.88-10.88,0-6.01,4.87-10.88,10.88-10.88,6.01,0,10.88,4.87,10.88,10.88,0,6-4.87,10.87-10.88,10.88"/>
      <path id="Trazado_19603" class="cls-2" d="M15,5.7c-5.14,0-9.3,4.16-9.3,9.3s4.16,9.3,9.3,9.3,9.3-4.16,9.3-9.3-4.16-9.3-9.3-9.3M14.33,8.61c.41-.41,1.08-.41,1.49,0,.2.2.31.47.31.75,0,.28-.1.55-.3.74-.41.41-1.09.41-1.5,0-.2-.2-.3-.46-.3-.74,0-.28.1-.55.3-.75M17.39,21.69h-4.62v-.37c.26,0,.51-.02.77-.07.17-.04.33-.13.44-.27.11-.16.18-.35.19-.55.03-.3.04-.59.04-.89v-3.65c0-.6-.01-1.08-.03-1.42,0-.26-.04-.53-.11-.78-.02-.14-.11-.25-.22-.33-.12-.05-.25-.07-.38-.07-.11,0-.21.01-.32.04-.13.03-.25.07-.38.11l-.16-.37,2.86-1.16h.46v7.63c0,.35.02.7.08,1.05.03.2.12.38.25.53.12.11.28.18.45.19.18.01.4.02.66.02v.37Z"/>
    </g>
  </g>
</svg>
