<?xml version="1.0" encoding="UTF-8"?>
<svg id="Capa_1" data-name="Capa 1" xmlns="http://www.w3.org/2000/svg" viewBox="0 0 100 100">
  <defs>
    <style>
      .cls-1 {
        fill: currentColor;
      }
    </style>
  </defs>
  <path id="Trazado_19642" data-name="Trazado 19642" class="cls-1" d="M46.99,100c-3.98-.91-6.46-4.87-5.55-8.85.63-2.76,2.79-4.92,5.55-5.55v-16.21c-3.73-.74-7.29-2.15-10.51-4.15v11.87c0,.83-1.47,1.26-2.15,1.35-1.28.15-7.69-.18-8.08.06-.79,3.96-4.64,6.52-8.6,5.73-3.96-.79-6.52-4.64-5.73-8.6.79-3.96,4.64-6.52,8.6-5.73,2.83.57,5.06,2.75,5.69,5.57h7.25v-12.87c-9.16-9.18-9.15-24.05.03-33.22,9.18-9.16,24.05-9.15,33.22.03,9.16,9.18,9.15,24.05-.03,33.22-.07.07-.15.15-.22.22v12.25l.38.38h6.88c.88-3.94,4.79-6.41,8.73-5.53s6.41,4.79,5.53,8.73-4.79,6.41-8.73,5.53c-2.82-.63-5-2.86-5.57-5.69-.42-.27-6.86.13-8.3-.13-.52-.1-1.67-.38-1.67-1.02v-12.14c-1.17.49-2.28,1.09-3.33,1.8-3.27,1.52-6.82,2.35-10.42,2.45v16.1c3.98.92,6.45,4.89,5.53,8.87-.64,2.75-2.78,4.9-5.53,5.53l-2.98.02Z"/>
  <path id="Trazado_19643" data-name="Trazado 19643" class="cls-1" d="M58.22,0c4.27,1.75,2.4,6.92,3.4,10.52l5.45,2.16c2.22-1.54,4.89-5.62,7.78-5.47,2.03.11,4.43,2.96,5.9,4.37,2.48,2.2,4.81,4.57,6.97,7.08,3.16,4.5-2.21,6.96-4.38,10.28l2.19,5.5c3.67.67,8.77-1.05,10.47,3.28v16.48c-.71,2.2-3.07,3.41-5.28,2.7-.6-.19-1.14-.52-1.6-.95-.48-.65-.86-1.36-1.12-2.13v-11.35c-2.51-.36-6.25.37-8.26-1.37-1.17-1.02-1.92-4.66-2.63-6.37-1.12-2.67-3.62-5.2-2.34-8.11.7-1.59,3.73-3.66,4.36-4.9.18-.36.06-.38-.13-.63-.96-1.4-3.28-2.96-4.42-4.35-.53-.09-4.46,4.25-5.83,4.61-2.64.7-4.5-1.23-6.76-2.25-2.13-.95-6.47-1.66-7.6-3.4-.75-2.51-1.06-5.13-.9-7.74h-7c-.16,2.1.26,6.19-1,7.88-1.15,1.54-4.83,2.21-6.74,3-2.01.83-4.58,2.78-6.64,2.63-2.48-.17-4.55-3.59-6.7-4.75-1.61,1.39-3.13,2.89-4.55,4.49-.1.19-.17.31,0,.5,1.45,1.88,4.71,4.17,4.8,6.66.06,1.66-1.74,4.05-2.45,5.67-.8,1.8-1.15,3.69-1.83,5.41-.41,1.33-1.5,2.34-2.86,2.64-.47.1-2.25.36-2.64.36h-3.88v11.37c-.23.84-.65,1.61-1.25,2.25-1.64,1.55-4.23,1.48-5.78-.16-.46-.49-.8-1.09-.97-1.74v-16.48c1.83-4.34,6.92-2.26,10.53-3.4l2.13-5.22c-1.84-3.13-7.6-5.99-4.54-10.13,3.38-3.86,7.01-7.49,10.87-10.87,4.14-3.08,7.01,2.71,10.13,4.55l5.22-2.13c1.1-3.64-.91-8.61,3.4-10.53h16.48Z"/>
</svg>
