<?xml version="1.0" encoding="UTF-8"?>
<svg id="Capa_1" xmlns="http://www.w3.org/2000/svg" viewBox="0 0 30 30">
  <defs>
    <style>
      .cls-1 {
        fill: currentColor;
      }
    </style>
  </defs>
  <path id="Icon_awesome-syringe" class="cls-1" d="M12.34,11.04l2.72,2.72c.15.15.15.4,0,.55l-.55.55c-.15.15-.4.15-.55,0l-2.72-2.72-2.21,2.21,2.72,2.72c.15.15.15.4,0,.55l-.55.55c-.15.15-.4.15-.55,0l-2.73-2.73-1.29,1.29c-.84.84-1.25,2.01-1.12,3.19l.35,3.1-3.24,3.24c-.15.15-.15.4,0,.55l.55.55c.15.15.4.15.55,0l3.24-3.24,3.1.35c1.18.13,2.36-.28,3.19-1.12l8.88-8.88-6.63-6.62-3.17,3.17ZM27.39,6.48l-3.87-3.87c-.15-.15-.4-.15-.55,0l-.55.55c-.15.15-.15.4,0,.55l1.38,1.38-2.21,2.21-2.76-2.76-.83-.83c-.15-.15-.4-.15-.55,0l-1.65,1.65c-.15.15-.15.4,0,.55l.83.83,6.62,6.63.83.83c.15.15.4.15.55,0l1.65-1.66c.15-.15.15-.4,0-.55l-3.59-3.59,2.21-2.21,1.38,1.38c.15.15.4.15.55,0l.55-.55c.15-.16.15-.4,0-.56h0Z"/>
</svg>