<?xml version="1.0" encoding="UTF-8"?>
<svg id="Capa_1" xmlns="http://www.w3.org/2000/svg" xmlns:xlink="http://www.w3.org/1999/xlink" viewBox="0 0 30 30">
  <defs>
    <style>
      .cls-1 {
        fill: currentColor;
      }

      .cls-2 {
        fill: currentColor;
      }

      .cls-3 {
        clip-path: url(#clippath);
      }
    </style>
    <clipPath id="clippath">
      <rect class="cls-1" x="3.06" y="2.62" width="23.89" height="24.76"/>
    </clipPath>
  </defs>
  <g class="cls-3">
    <g id="Grupo_35779">
      <path id="Trazado_19698" class="cls-2" d="M11.31,16.34H3.37c-.17,0-.31.13-.31.3,0,0,0,.01,0,.02.18,2.36,2.24,4.14,4.6,3.96,2.12-.16,3.8-1.84,3.96-3.96,0-.17-.12-.31-.29-.32,0,0-.01,0-.02,0M26.63,16.34h-7.94c-.17,0-.31.13-.31.3,0,0,0,.01,0,.02.18,2.36,2.24,4.14,4.6,3.96,2.12-.16,3.8-1.84,3.96-3.96,0-.17-.12-.31-.29-.32,0,0-.01,0-.02,0"/>
      <path id="Trazado_19699" class="cls-2" d="M23.37,9.04c-.1-.23-.3-.4-.55-.45-.07-.04-.15-.08-.24-.1-1.86-.43-3.75-.68-5.65-.74-.25-.51-.69-.91-1.23-1.1l.78-1.1c.07-.09.08-.21.02-.31l-1.23-2.46c-.08-.15-.26-.21-.41-.14-.06.03-.11.08-.14.14l-1.23,2.46c-.05.1-.04.22.02.31l.78,1.1c-.54.19-.98.58-1.23,1.1-1.9.06-3.8.31-5.65.74-.08.02-.16.05-.24.1-.25.05-.45.22-.55.45l-2.42,5.77h1.66l1.46-3.49,1.46,3.49h1.67l-1.97-4.68c1.51-.3,3.03-.48,4.57-.53.16.34.4.63.71.84v12.04h-1.23c-.68,0-1.23.55-1.23,1.23h0v.61h-1.84c-.68,0-1.23.55-1.23,1.23h0v1.54c0,.17.14.31.31.31h12.87c.17,0,.31-.14.31-.31v-1.53c0-.68-.54-1.23-1.22-1.23,0,0,0,0,0,0h-1.84v-.61c0-.68-.55-1.23-1.23-1.23h-1.23v-12.03c.3-.21.55-.5.71-.84,1.53.06,3.06.24,4.57.53l-1.96,4.68h1.66l1.46-3.49,1.47,3.49h1.66l-2.42-5.77Z"/>
    </g>
  </g>
</svg>
