<?xml version="1.0" encoding="UTF-8"?>
<svg id="Capa_1" xmlns="http://www.w3.org/2000/svg" viewBox="0 0 100 100">
  <defs>
    <style>
      .cls-1 {
        fill: currentColor;
      }
    </style>
  </defs>
  <path id="Trazado_9237" class="cls-1" d="M93.95.05c-1.84-.26-3.67.56-4.7,2.11l-17.54,25.72-4.93-2.87c-3.43-2-7.81-1.23-10.35,1.82l-4.69,5.5,39.35,23.17,2.14-7.2c1.18-3.89-.43-8.09-3.92-10.18l-3.63-2.11,12.08-28.83c1.01-2.39.12-5.15-2.09-6.5-.53-.32-1.11-.53-1.71-.62ZM6.17,16.67c-2.3-.09-4.24,1.7-4.34,4-.09,2.3,1.7,4.24,4,4.34s4.24-1.7,4.34-4c0-.06,0-.12,0-.18.04-2.25-1.75-4.11-4-4.16ZM14.17,29.17c-4.6-.19-8.48,3.39-8.66,7.99-.19,4.6,3.39,8.48,7.99,8.66,4.6.19,8.48-3.39,8.66-7.99,0-.11,0-.22,0-.33.09-4.51-3.49-8.24-8-8.33ZM46.22,39.67c-11.52,12.42-27.19,20.19-44.04,21.83l19.62,12.35c4.55.54,9.14.56,13.69.07-4.2,2.97-6.82,4.46-6.82,4.46l10.66,6.79c9.16-1.09,17.93-4.31,25.61-9.4-3.5,6.11-7.71,11.78-12.53,16.91l15.17,7.3s12.5-9.44,21-35.47l-42.36-24.86Z"/>
</svg>
