<?xml version="1.0" encoding="UTF-8"?>
<svg id="Capa_1" xmlns="http://www.w3.org/2000/svg" viewBox="0 0 30 30">
  <defs>
    <style>
      .cls-1 {
        fill: currentColor;
      }
    </style>
  </defs>
  <path id="Trazado_19486" class="cls-1" d="M16.34,8.2h-4.18c-.15.01-.29,0-.43-.06-.26-.21-.39-.54-.34-.86-.03-.33.15-.64.44-.78.06-.01.12-.02.18-.01h8.7c.3,0,.5.23.58.65.08.32,0,.66-.23.91-.1.1-.22.15-.36.15-1.45,0-2.91,0-4.36,0h0Z"/>
  <path id="Trazado_19487" class="cls-1" d="M16.34,12.31h-4.18c-.15.01-.29,0-.43-.06-.26-.21-.39-.54-.34-.86-.03-.33.15-.64.44-.78.06-.01.12-.02.18-.01h8.7c.3,0,.5.23.58.65.08.32,0,.66-.23.91-.1.1-.22.15-.36.15-1.45,0-2.91,0-4.36,0h0Z"/>
  <path id="Trazado_19488" class="cls-1" d="M16.34,16.41h-4.18c-.15.01-.29,0-.43-.06-.26-.21-.39-.54-.34-.86-.03-.33.15-.64.44-.78.06-.01.12-.02.18-.01h8.7c.3,0,.5.23.58.65.08.32,0,.66-.23.91-.1.1-.22.15-.36.15-1.45,0-2.91,0-4.36,0h0Z"/>
  <path id="Trazado_19489" class="cls-1" d="M23.25,4.92h-13.75v13.74h-1.84V5.16c0-.39,0-.78,0-1.16,0-.51.42-.92.93-.93,5.16.01,10.31.02,15.46,0,.51-.06.97.3,1.03.81,0,.07,0,.15,0,.22v18.15c.04,2.3-1.63,4.28-3.91,4.61-.53.06-1.07.08-1.61.05-3.13,0-6.25,0-9.38,0-.85,0-1.7.01-2.55,0-.84-.02-1.6-.47-2.03-1.19-.55-.84-.79-1.85-.68-2.86.03-.83.32-1.63.83-2.29.48-.64,1.24-1.01,2.04-.99,4.22,0,8.44,0,12.67,0,.5-.02.92.37.94.87,0,0,0,0,0,0,.03.5-.36.93-.86.95-.01,0-.02,0-.04,0-.15,0-.29.08-.4.19-.26.29-.42.66-.47,1.04-.12.6-.06,1.22.17,1.78.04.09.09.19.14.27.15.26.44.42.74.38,1.41-.11,2.51-1.25,2.56-2.67.01-1.58,0-3.17,0-4.75V5.06s0-.09-.01-.15ZM18.29,21.42h-3.74c-2.26,0-4.52,0-6.78,0-.23-.01-.45.1-.58.29-.07.1-.14.21-.19.32-.24.56-.31,1.17-.2,1.76.04.37.18.72.39,1.02.12.18.31.28.52.29h10.4s.1,0,.18-.01c-.7-1.12-.7-2.54,0-3.66h0Z"/>
</svg>