<svg id="Grupo_31675" data-name="Grupo 31675" xmlns="http://www.w3.org/2000/svg" xmlns:xlink="http://www.w3.org/1999/xlink" width="96.666" height="100" viewBox="0 0 96.666 100">
  <defs>
    <clipPath id="clip-path">
      <rect id="Rectángulo_16836" data-name="Rectángulo 16836" width="96.666" height="100" fill="currentColor"/>
    </clipPath>
  </defs>
  <g id="Grupo_31674" data-name="Grupo 31674" clip-path="url(#clip-path)">
    <path id="Trazado_18546" data-name="Trazado 18546" d="M40.879,0c1.609.416,3.233.785,4.826,1.256C65.087,6.986,71.992,31.13,58.6,46.3c-.383.434-.746.887-1.142,1.359L96.666,87.1,87.2,96.611l-5.463-5.733L72.961,100,63.5,90.48,72.433,81.8l-5.369-4.932L57.12,87.143,47.488,77.7,57.715,67.6,47.632,57.389a29.413,29.413,0,0,1-11.1,6.638A27.866,27.866,0,0,1,.375,41.244,8.038,8.038,0,0,0,0,40V35.165a11.828,11.828,0,0,0,.373-1.442A27,27,0,0,1,8.132,17.906q4.933-4.993,9.933-9.919a27.451,27.451,0,0,1,12-6.931C31.6.62,33.172.347,34.725,0Zm9.255,27.483a12.08,12.08,0,0,0-7.557-11.106c-5-1.974-9.676-1.233-13.641,2.476-3.316,3.1-6.489,6.356-9.664,9.6A12.554,12.554,0,0,0,36.936,46.3c3.321-3.2,6.571-6.483,9.791-9.789a11.981,11.981,0,0,0,3.407-9.026" fill="currentColor"/>
  </g>
</svg>
