<?xml version="1.0" encoding="UTF-8"?>
<svg id="Capa_1" xmlns="http://www.w3.org/2000/svg" xmlns:xlink="http://www.w3.org/1999/xlink" viewBox="0 0 30 30">
  <defs>
    <style>
      .cls-1 {
        fill: currentColor;
      }

      .cls-2 {
        fill: currentColor;
      }

      .cls-3 {
        clip-path: url(#clippath);
      }
    </style>
    <clipPath id="clippath">
      <rect class="cls-1" x="2.41" y="2.62" width="25.19" height="24.76"/>
    </clipPath>
  </defs>
  <g class="cls-3">
    <g id="Grupo_35783">
      <path id="Trazado_19702" class="cls-2" d="M10.92,21.5l-3.03,1.73c-.12.07-.19.19-.19.33v3.44c0,.21.17.38.38.38.07,0,.13-.02.19-.05l3.03-1.73c.12-.07.19-.19.19-.33v-3.44c0-.21-.17-.38-.38-.38-.07,0-.13.02-.19.05M6,23.23l-3.03-1.73c-.18-.1-.41-.04-.52.14-.03.06-.05.12-.05.19v3.44c0,.14.07.26.19.33l3.03,1.73c.18.1.41.04.52-.14.03-.06.05-.12.05-.19v-3.44c0-.14-.07-.26-.19-.33M10.15,19.54l-3.01-1.72c-.12-.07-.26-.07-.38,0l-3.01,1.72c-.18.1-.24.33-.14.52.03.06.08.11.14.14l3.01,1.72c.12.07.26.07.38,0l3.01-1.72c.18-.1.24-.33.14-.52-.03-.06-.08-.11-.14-.14M22.11,23.23l-3.03-1.73c-.18-.1-.41-.04-.52.14-.03.06-.05.12-.05.19v3.44c0,.14.07.26.19.33l3.03,1.73c.18.1.41.04.52-.14.03-.06.05-.12.05-.19v-3.44c0-.14-.07-.26-.19-.33M27.03,21.5l-3.04,1.73c-.12.07-.19.19-.19.33v3.44c0,.21.17.38.38.38.07,0,.13-.02.19-.05l3.03-1.73c.12-.07.19-.19.19-.33v-3.44c0-.21-.17-.38-.38-.38-.07,0-.13.02-.19.05M26.25,19.54l-3.01-1.72c-.12-.07-.26-.07-.38,0l-3.01,1.72c-.18.1-.24.33-.14.52.03.06.08.11.14.14l3.01,1.72c.12.07.26.07.38,0l3.01-1.72c.18-.1.24-.33.14-.52-.03-.06-.08-.11-.14-.14"/>
      <path id="Trazado_19703" class="cls-2" d="M17.93,18.74l-1.93-1.16v-1.8c0-.44-.36-.81-.8-.81-.44,0-.81.36-.81.8h0v1.79l-1.88,1.14c-.38.23-.5.73-.27,1.11.23.38.73.5,1.11.27l1.85-1.12,1.9,1.15c.13.08.27.12.42.12.44,0,.81-.36.81-.8,0-.28-.15-.54-.39-.69M20.76,7.41c-.02-.13-.13-.22-.26-.22h-.53c-.17-.05-.31-.18-.36-.36-.1-.31-.23-.6-.39-.89-.06-.1-.04-.23.04-.31l.42-.42c.09-.09.1-.23.03-.34-.32-.43-.71-.82-1.14-1.14-.04-.03-.1-.05-.15-.05-.07,0-.14.03-.19.08l-.42.42s-.11.07-.18.07c-.05,0-.09-.01-.13-.04-.39-.23-.82-.39-1.26-.5v-.79c0-.13-.09-.24-.22-.26-.54-.08-1.09-.08-1.63,0-.12.02-.21.13-.21.25v.79c-.44.1-.87.27-1.26.5-.04.02-.08.04-.13.04-.07,0-.13-.03-.18-.07l-.42-.42s-.12-.07-.19-.07c-.05,0-.11.02-.15.05-.43.32-.82.71-1.14,1.15-.08.1-.06.25.03.34l.42.42c.08.08.1.21.04.31-.16.28-.29.58-.39.89-.05.17-.19.3-.36.36h-.53c-.13,0-.24.09-.26.22-.09.55-.09,1.1,0,1.65.02.12.13.22.26.21h.53c.17.05.31.18.36.36.1.31.23.6.39.89.06.1.04.23-.04.31l-.42.42c-.09.09-.1.23-.03.34.32.43.71.82,1.14,1.14.04.03.1.05.15.05.07,0,.14-.03.19-.08l.42-.42s.11-.07.18-.07c.05,0,.09.01.13.03.39.23.82.39,1.26.5v.79c0,.13.09.24.22.26.54.08,1.09.08,1.63,0,.13-.02.22-.13.22-.26v-.79c.44-.1.87-.27,1.26-.5.04-.02.08-.03.13-.03.07,0,.13.03.18.07l.42.42s.12.08.19.08c.05,0,.11-.02.15-.05.43-.33.82-.71,1.14-1.15.08-.1.06-.25-.03-.34l-.42-.42c-.08-.08-.1-.21-.04-.31.16-.28.29-.58.39-.89.05-.17.19-.3.36-.36h.53c.13,0,.23-.09.26-.21.09-.55.09-1.1,0-1.65M16.74,8.48c-.11.65-.62,1.17-1.28,1.27-.08.01-.16.02-.24.02-.85,0-1.54-.69-1.54-1.54,0-.76.55-1.4,1.29-1.52.08-.01.16-.02.24-.02.85,0,1.54.69,1.54,1.54,0,.08,0,.16-.02.24"/>
    </g>
  </g>
</svg>
