<?xml version="1.0" encoding="UTF-8"?>
<svg id="Capa_1" xmlns="http://www.w3.org/2000/svg" xmlns:xlink="http://www.w3.org/1999/xlink" viewBox="0 0 918.72 200">
  <defs>
    <style>
      .cls-1 {
        fill: currentColor;
      }

      .cls-2 {
        fill: currentColor;
      }

      .cls-3 {
        clip-path: url(#clippath);
      }
    </style>
    <clipPath id="clippath">
      <rect class="cls-1" x="0" width="918.72" height="200"/>
    </clipPath>
  </defs>
  <g class="cls-3">
    <g id="Grupo_35496-2">
      <path id="Trazado_19302" class="cls-2" d="M336.96,148.22c.08,3.36-1.25,6.61-3.67,8.94-2.89,2.57-6.69,3.86-10.55,3.6-2.62.03-5.21-.6-7.52-1.84-2.21-1.17-3.82-3.21-4.44-5.63l-8.18-26.66h-53.55l-8.19,26.68c-.63,2.43-2.27,4.48-4.5,5.63-2.37,1.24-5.02,1.87-7.7,1.84-3.72.18-7.36-1.12-10.13-3.6-2.53-2.32-3.94-5.63-3.85-9.06.02-1.94.38-3.87,1.07-5.69L262.91,11.38c.85-2.41,2.56-4.41,4.8-5.63,2.55-1.29,5.38-1.92,8.24-1.84,2.82-.08,5.61.55,8.12,1.84,2.22,1.19,3.93,3.15,4.8,5.51l47.03,131.15c.7,1.85,1.07,3.82,1.07,5.8M294.56,100.1l-18.6-60.66-18.72,60.66h37.32Z"/>
      <path id="Trazado_19303" class="cls-2" d="M374.88,186.61c-.2-3.29.86-6.53,2.96-9.06,2.19-2.26,5.26-3.45,8.4-3.26.79-.01,1.58.03,2.37.12,4.69.89,9.45,1.33,14.22,1.3,5.43.45,10.7-1.95,13.92-6.34,3.3-5.94,4.8-12.71,4.32-19.49l1.9-2.14c-.47.24-1.92,1.13-4.32,2.67-3.17,1.87-6.58,3.3-10.13,4.26-4.62,1.34-9.41,2-14.22,1.96-7.37-.03-14.58-2.21-20.73-6.28-6.65-4.29-12.1-10.21-15.82-17.2-4.01-7.33-6.08-15.57-6-23.93v-21.07c-.14-8.17,1.79-16.24,5.63-23.46,3.62-6.74,9.06-12.32,15.7-16.11,6.97-3.94,14.86-5.94,22.87-5.8,7.26-.06,14.51.48,21.68,1.6,6.55,1.11,12.98,2.83,19.2,5.16,2.53.75,4.78,2.23,6.46,4.26,1.34,2.46,1.93,5.26,1.72,8.06v91.46c.17,8.41-1.49,16.76-4.86,24.46-2.89,6.65-7.62,12.34-13.62,16.4-6.02,3.92-13.08,5.94-20.26,5.81-6.6.02-13.18-.57-19.67-1.78-7.82-1.27-11.73-5.13-11.73-11.6M410.7,129.86c3-1.09,5.88-2.48,8.59-4.15v-54.62c-3.18-.96-6.4-1.75-9.66-2.37-3.71-.55-7.45-.79-11.2-.71-3.77-.07-7.49.85-10.8,2.66-3.21,1.83-5.82,4.54-7.52,7.82-1.94,3.75-2.9,7.93-2.8,12.14v17.77c-.31,6.13,1.72,12.15,5.69,16.83,3.96,4.26,9.59,6.56,15.4,6.28,4.15.14,8.3-.42,12.26-1.66"/>
      <path id="Trazado_19304" class="cls-2" d="M543.72,49.11c6.94,4.06,12.69,9.88,16.65,16.88,3.94,6.85,6.01,14.61,6,22.51v11.98c.11,3.11-.97,6.13-3.02,8.47-2.19,2.32-5.29,3.56-8.47,3.38h-57.01v3.91c0,3.71.93,7.36,2.72,10.6,1.81,3.35,4.49,6.16,7.76,8.12,3.45,2.08,7.41,3.15,11.43,3.08,5.93-.15,11.76-1.61,17.06-4.26.9-.34,1.77-.74,2.61-1.2.88-.46,1.79-.86,2.72-1.2.84-.26,1.73-.38,2.61-.36,3.3-.14,6.49,1.23,8.65,3.73,2.1,2.41,3.24,5.51,3.2,8.71.02,1.91-.41,3.79-1.24,5.51-.82,1.69-2.06,3.14-3.6,4.21-4.33,2.77-9.05,4.88-14,6.28-5.92,1.77-12.07,2.65-18.24,2.61-8.39.14-16.67-1.95-24-6.04-6.83-3.8-12.53-9.34-16.53-16.06-3.88-6.42-5.93-13.77-5.92-21.27v-31.62c-.07-7.8,1.96-15.47,5.86-22.22,3.92-6.77,9.62-12.34,16.47-16.11,7.38-4.07,15.69-6.14,24.11-6,8.49-.14,16.85,2.05,24.17,6.34M508.51,67.99c-3.25,1.68-5.97,4.25-7.82,7.4-1.93,3.33-2.91,7.12-2.84,10.96v4.86h43.6v-4.96c.06-3.81-.95-7.57-2.9-10.84-1.9-3.16-4.65-5.73-7.94-7.4-3.43-1.75-7.23-2.65-11.08-2.61-3.83-.05-7.62.85-11.02,2.61"/>
      <path id="Trazado_19305" class="cls-2" d="M662.14,48.28c6.5,3.57,11.81,8.97,15.28,15.52,3.71,7.15,5.56,15.11,5.39,23.16v60.8c.82,6.38-3.69,12.22-10.07,13.04-.98.13-1.98.13-2.96,0-3.45.25-6.84-.96-9.36-3.32-2.3-2.69-3.45-6.18-3.2-9.72v-59.38c.39-5.62-1.64-11.13-5.57-15.16-4.07-3.6-9.38-5.46-14.8-5.2-7.34-.02-14.64,1.01-21.68,3.08v76.64c.25,3.52-.87,7.01-3.14,9.72-2.46,2.36-5.8,3.56-9.2,3.32-3.61.26-7.17-.93-9.9-3.32-2.41-2.64-3.63-6.15-3.38-9.72V59.95c-.05-2.03.44-4.03,1.42-5.8.87-1.59,2.25-2.84,3.91-3.56,6.45-2.62,13.16-4.55,20.02-5.74,8.02-1.43,16.15-2.12,24.29-2.07,7.99-.17,15.89,1.73,22.93,5.51"/>
      <path id="Trazado_19306" class="cls-2" d="M767.83,43.9c3.77.54,7.48,1.44,11.08,2.67l-1.9-5.69V12.68c0-8.45,4.27-12.67,12.8-12.68,3.48-.25,6.91.9,9.54,3.2,2.34,2.58,3.52,6,3.26,9.48v130.57c.07,2.05-.21,4.09-.83,6.04-.58,1.54-1.61,2.86-2.96,3.79-1.98,1.29-4.13,2.29-6.4,2.96-11.72,3.97-24,6.01-36.38,6.04-8.22.09-16.34-1.9-23.58-5.81-6.99-3.76-12.83-9.35-16.88-16.17-4.19-7.08-6.35-15.18-6.22-23.4v-29.98c-.05-7.61,1.82-15.11,5.45-21.8,3.61-6.69,8.97-12.26,15.52-16.11,7.04-4.12,15.07-6.21,23.22-6.04,4.78,0,9.56.37,14.28,1.12M737.73,127.5c1.85,3,4.5,5.42,7.64,6.99,3.35,1.69,7.05,2.54,10.8,2.49,3.39.04,6.78-.2,10.13-.71,2.8-.47,5.11-.95,6.93-1.42,1.82-.47,3.08-.79,3.79-.95v-62.8c-.39-.08-1.64-.41-3.73-1.01-2.51-.67-5.06-1.17-7.64-1.48-3.14-.4-6.31-.6-9.48-.59-3.74-.05-7.44.78-10.8,2.43-3.14,1.53-5.79,3.91-7.64,6.87-1.89,3.08-2.87,6.63-2.8,10.25v29.64c-.06,3.63.91,7.21,2.8,10.31"/>
      <path id="Trazado_19307" class="cls-2" d="M899.1,48.08c6.28,3.4,11.39,8.62,14.63,14.99,3.46,7.05,5.16,14.84,4.98,22.69v56.66c.08,2.16-.18,4.32-.77,6.4-.59,1.6-1.64,2.98-3.02,3.97-2.17,1.49-4.52,2.7-6.99,3.6-5.56,2.06-11.35,3.48-17.24,4.21-7.28,1.01-14.63,1.51-21.98,1.48-7.13.14-14.2-1.28-20.73-4.15-5.73-2.52-10.59-6.66-14-11.91-3.41-5.49-5.14-11.85-4.98-18.3v-.71c0-12.24,3.67-21.41,11.02-27.49,8.4-6.43,18.82-9.66,29.38-9.12,4.18-.04,8.36.24,12.5.83,3.77.59,7.51,1.38,11.2,2.37v-6.4c.4-5.33-1.47-10.58-5.16-14.46-3.86-3.39-8.9-5.14-14.04-4.86-6.12,0-12.2.99-18,2.96-1.9.47-2.73.67-2.49.59-1.75.4-3.54.63-5.33.71-1.85,0-3.64-.63-5.1-1.78-1.6-1.21-2.9-2.77-3.79-4.56-.91-1.7-1.4-3.58-1.42-5.51-.07-2.49.54-4.95,1.78-7.11,1.52-2.25,3.72-3.95,6.28-4.86,4.16-1.82,8.51-3.15,12.98-3.97,5.52-1.09,11.14-1.63,16.76-1.6,8.17-.25,16.26,1.58,23.52,5.33M893.09,137.29v-23.55c-6.54-1.45-13.21-2.2-19.9-2.25-12.32,0-18.48,4.62-18.48,13.86v.24c-.2,4.09,1.43,8.07,4.44,10.84,3.64,2.87,8.23,4.29,12.86,3.97,7.15.07,14.26-.97,21.09-3.08"/>
      <path id="Trazado_19308" class="cls-2" d="M176.31,170.66c8.13-1.12,15.2-6.12,18.96-13.42,1.37-3.12,2.49-6.35,3.34-9.66V36.89c-.13-.36-.24-.72-.33-1.09-3.6-17.8-18.26-24.12-34.54-21.96v1.94c0,4.99.1,10-.08,14.98-.19,7.31-5.52,13.47-12.74,14.7-3.81.45-7.65.57-11.48.36-7.55-.13-13.89-5.72-14.95-13.2-.34-4.48-.46-8.98-.36-13.47-.03-1.8,0-3.6,0-5.47h-22.98v1.85c0,5.05.09,10.1-.08,15.14-.15,7.38-5.52,13.6-12.8,14.83-3.54.4-7.1.52-10.66.36-8.66.18-15.82-6.7-16-15.36,0-.02,0-.03,0-.05-.16-4.99-.06-10-.08-14.98v-1.88h-5.12c-12.36-.02-23.08,8.54-25.8,20.6-.2.9-.43,1.8-.64,2.7v110.69c.12.46.27.92.36,1.4,1.29,7.72,5.95,14.47,12.73,18.4,3.2,1.79,6.68,3,10.3,3.6h121.86c.36-.13.72-.24,1.09-.32M171.11,157.86c-37.87.01-75.73.01-113.6,0-7.36.59-13.81-4.9-14.4-12.27-.06-.71-.06-1.42,0-2.13v-75.77c-.65-4.44,2.41-8.57,6.85-9.22.77-.11,1.55-.12,2.32,0h61.9c20.69,0,41.38.1,62.07-.06,4.73-.38,8.87,3.15,9.25,7.88.04.46.04.92,0,1.38-.1,24.48-.04,51.3-.04,75.77.59,7.37-4.9,13.82-12.27,14.42-.7.06-1.4.06-2.09,0"/>
      <path id="Trazado_19309" class="cls-2" d="M148.78,37.87c-3.17.24-6.35.25-9.52.02-4.16-.23-7.35-3.79-7.14-7.95,0-7.35-.08-14.7.06-22.04,0-1.63.51-3.22,1.46-4.54,1.41-1.32,2.98-2.45,4.68-3.36h11.2c.18.12.37.23.57.32,3.58.99,5.95,4.38,5.65,8.08v21.71c.13,4.04-2.95,7.46-6.97,7.76"/>
      <path id="Trazado_19310" class="cls-2" d="M93.17,29.78c.26,4.26-2.99,7.93-7.25,8.18-.12,0-.24.01-.37.01-2.8.14-5.6.14-8.4,0-4.27-.05-7.69-3.56-7.64-7.83,0-.12,0-.24.01-.36V7.74c-.08-2.01.73-3.95,2.22-5.29,1.26-.93,2.6-1.75,4-2.45h11.2c4.24,1.2,6.92,5.36,6.27,9.72-.23,6.68-.06,13.38-.06,20.06"/>
      <path id="Trazado_19311" class="cls-2" d="M160.54,185.65H38.68c-3.62-.6-7.1-1.82-10.3-3.6-6.77-3.93-11.44-10.68-12.73-18.4-.08-.47-.24-.93-.36-1.4V51.57c.22-.9.44-1.8.64-2.7,1.59-6.97,5.94-13.01,12.04-16.73-1.5,2.45-2.59,5.13-3.24,7.92-.21.9-.43,1.8-.64,2.7v110.7c.12.46.27.92.36,1.4,1.29,7.72,5.95,14.47,12.73,18.4,3.2,1.78,6.68,3,10.3,3.6h121.87c.36-.13.72-.24,1.09-.32,3.3-.53,6.48-1.66,9.38-3.33-3.9,6.6-10.59,11.07-18.18,12.14-.37.08-.73.19-1.09.32"/>
      <path id="Trazado_19312" class="cls-2" d="M.64,63.22c1.59-6.97,5.94-13.01,12.04-16.73-1.5,2.45-2.59,5.13-3.24,7.93-.2.9-.43,1.8-.64,2.7v110.7c.12.46.27.92.36,1.4,1.29,7.72,5.95,14.47,12.73,18.4,3.2,1.78,6.68,3,10.3,3.6h121.86c.36-.13.72-.24,1.09-.32,3.3-.53,6.48-1.66,9.38-3.33-3.9,6.61-10.59,11.07-18.19,12.14-.37.08-.74.19-1.09.32H23.38c-3.62-.6-7.1-1.81-10.3-3.6-6.77-3.93-11.44-10.68-12.73-18.4-.09-.47-.24-.93-.36-1.4v-110.7c.22-.9.44-1.8.64-2.7"/>
      <path id="Trazado_19313" class="cls-2" d="M111.76,102.1c-3.08-.06-6.16,0-9.24-.03-1.1-.05-2.04.81-2.08,1.91,0,.06,0,.12,0,.18.06,6.06.03,12.12.03,18.18v18.18c.15,1-.54,1.94-1.54,2.09-.18.03-.37.03-.55,0h-21.73c-1.44,0-2.11-.68-2.11-2.14,0-12.1,0-24.2.03-36.3.06-1.1-.79-2.05-1.89-2.11-.08,0-.16,0-.24,0-3.06.05-6.12,0-9.2.02-1.68-.03-3.07-1.3-3.26-2.97-.12-1.14.32-2.27,1.18-3.02.64-.64,1.3-1.26,1.94-1.91.8-.8,1.57-1.65,2.38-2.46.64-.64,1.3-1.26,1.94-1.89.82-.8,1.64-1.64,2.46-2.46l2.43-2.4,2.5-2.49,2.4-2.4c.8-.8,1.58-1.65,2.4-2.46.98-.97,2-1.91,2.96-2.88.91-1.05,1.95-1.99,3.09-2.8,1.12-.54,2.42-.59,3.58-.12,1.17.81,2.23,1.76,3.17,2.83.84.8,1.64,1.64,2.46,2.46s1.62,1.6,2.43,2.4,1.6,1.64,2.4,2.44,1.65,1.58,2.46,2.38c.64.64,1.26,1.29,1.89,1.94s1.32,1.35,2,2c.78.8,1.55,1.57,2.34,2.34s1.66,1.57,2.46,2.37c1.02,1.01,2,2.08,3.02,3.06.7.67,1.13,1.57,1.2,2.54.04,1.85-1.4,3.39-3.24,3.48"/>
      <path id="Trazado_19314" class="cls-2" d="M165.4,117.49c-3.08-.06-6.16,0-9.24-.03-1.1-.05-2.04.81-2.08,1.91,0,.06,0,.12,0,.18.06,6.06.03,12.12.03,18.18v2.78c.15,1-.54,1.94-1.54,2.09-.18.03-.37.03-.55,0h-21.73c-1.44,0-2.11-.68-2.11-2.14,0-12.1,0-8.8.03-20.9.06-1.1-.79-2.05-1.89-2.11-.08,0-.16,0-.24,0-3.06.05-6.12,0-9.2.02-1.68-.03-3.07-1.3-3.26-2.97-.12-1.14.32-2.27,1.18-3.02.64-.64,1.3-1.26,1.94-1.91.8-.8,1.57-1.65,2.38-2.46.64-.64,1.3-1.26,1.94-1.89.82-.8,1.64-1.64,2.46-2.46l2.43-2.4,2.5-2.49c.8-.8,1.6-1.6,2.4-2.4s1.58-1.65,2.4-2.46c.98-.97,2-1.91,2.96-2.88.91-1.05,1.95-1.99,3.09-2.8,1.12-.54,2.42-.59,3.58-.12,1.16.81,2.23,1.76,3.17,2.83.84.8,1.64,1.64,2.46,2.46s1.62,1.6,2.43,2.4,1.6,1.64,2.4,2.44,1.65,1.58,2.46,2.38c.64.64,1.26,1.29,1.89,1.94s1.32,1.35,2,2c.78.8,1.55,1.57,2.34,2.34s1.66,1.57,2.46,2.37c1.02,1.01,2,2.08,3.02,3.06.7.67,1.13,1.57,1.2,2.54.04,1.85-1.4,3.39-3.24,3.48"/>
    </g>
  </g>
</svg>
