<?xml version="1.0" encoding="UTF-8"?>
<svg id="Capa_1" xmlns="http://www.w3.org/2000/svg" xmlns:xlink="http://www.w3.org/1999/xlink" viewBox="0 0 30 30">
  <defs>
    <style>
      .cls-1 {
        fill: currentColor;
      }

      .cls-2 {
        fill: currentColor;
      }

      .cls-3 {
        clip-path: url(#clippath);
      }
    </style>
    <clipPath id="clippath">
      <rect class="cls-1" x="0" y="2.5" width="30.01" height="25"/>
    </clipPath>
  </defs>
  <g class="cls-3">
    <g id="Grupo_35632">
      <path id="Trazado_19547" class="cls-2" d="M23.71,27.5h3.84c1.36,0,2.45-1.1,2.45-2.45v-15.28c0-1.36-1.1-2.45-2.45-2.45h-5.11v-1.54c0-1.81-1.47-3.27-3.27-3.27h-8.34c-1.81,0-3.27,1.47-3.27,3.27v1.54H2.45C1.09,7.31,0,8.41,0,9.76v15.28c0,1.36,1.1,2.45,2.45,2.46h21.26ZM12.53,26.82h-.41V7.99h.41v18.83ZM16.75,26.82h-3.51V7.99h3.51v18.83ZM17.89,26.82h-.41V7.99h.41v18.83ZM10.01,5.77c0-.45.37-.82.82-.82h8.34c.45,0,.82.37.82.82v1.54h-9.97v-1.54Z"/>
    </g>
  </g>
</svg>
