<?xml version="1.0" encoding="UTF-8"?>
<svg id="Capa_1" xmlns="http://www.w3.org/2000/svg" xmlns:xlink="http://www.w3.org/1999/xlink" viewBox="0 0 30 30">
  <defs>
    <style>
      .cls-1 {
        fill: currentColor;
      }

      .cls-2 {
        fill: currentColor;
      }

      .cls-3 {
        clip-path: url(#clippath);
      }
    </style>
    <clipPath id="clippath">
      <rect class="cls-1" x="3.38" y="2.51" width="23.25" height="24.99"/>
    </clipPath>
  </defs>
  <g class="cls-3">
    <g id="Grupo_35835">
      <path id="Trazado_19758" class="cls-2" d="M17.93,2.51c0,1.06,0,2.11-.01,3.17.02.96-.38,1.88-1.11,2.51-1.17,1.01-2.94.88-3.95-.3-.19-.22-.34-.46-.45-.72-.22-.47-.34-.99-.33-1.51,0-1.05,0-2.1,0-3.15h5.86Z"/>
      <path id="Trazado_19759" class="cls-2" d="M10.61,2.51c0,.95.02,1.9,0,2.85-.07,1.27.35,2.53,1.17,3.5.04.07.06.16.04.24-.09.35-.18.69-.3,1.03-.24.77-.91,1.34-1.71,1.46-.13.01-.26.04-.38.07-.32.1-.67.03-.93-.2-.67-.41-1.12-1.1-1.23-1.87,0-.11.04-.23.11-.31.89-.81,1.38-1.95,1.36-3.15v-3.61h1.86Z"/>
      <path id="Trazado_19760" class="cls-2" d="M21.25,2.51v3.66c-.02,1.17.48,2.29,1.35,3.08.11.09.16.22.13.36-.13.76-.58,1.44-1.24,1.85-.24.22-.59.3-.9.2-.21-.07-.45-.07-.67-.13-.69-.18-1.24-.71-1.45-1.4-.11-.34-.21-.68-.29-1.03-.02-.1,0-.2.07-.27.75-.89,1.15-2.01,1.14-3.17,0-1.05,0-2.1.01-3.15h1.86Z"/>
      <path id="Trazado_19761" class="cls-2" d="M7.42,18l-1.08.98c.49.48.34,1.01.15,1.56-.44,1.21-.24,2.56.52,3.59.06.07.1.16.11.26-.06,1.01-.14,2.01-.21,3.01,0,.03-.01.05-.03.08h-3.52c.04-.18.07-.36.12-.54.64-2.57.81-5.24.5-7.87-.08-.76-.13-1.52-.19-2.3h22.36c0,.24.01.49,0,.73-.09,1.25-.22,2.5-.27,3.75-.06,2.03.17,4.05.7,6.01.01.05.03.11.04.17,0,.02,0,.04,0,.06h-3.52c-.05-.47-.13-.94-.16-1.41-.04-.53-.05-1.06-.05-1.59,0-.13.04-.25.11-.35.76-1.04.96-2.39.52-3.6-.02-.05-.04-.11-.06-.16-.25-.46-.17-1.03.21-1.39l-1.08-.99c-.66.65-.9,1.61-.63,2.49.06.23.16.46.22.7.37,1.27-.36,2.6-1.64,2.97-.24.07-.49.1-.73.09-2.19-.03-3.98-1.77-4.08-3.96,0-.05,0-.09-.01-.15h-1.43c-.04.28-.07.57-.12.86-.41,1.91-2.1,3.27-4.06,3.26-1.32,0-2.39-1.08-2.39-2.41,0-.27.05-.55.14-.8.23-.52.31-1.1.26-1.67-.09-.52-.33-1-.7-1.38M9.64,22.58h1.43v-1.43h-1.44v1.43ZM20.39,21.14h-1.29c-.05,0-.15.07-.15.1,0,.44,0,.89,0,1.34h1.45v-1.44Z"/>
      <path id="Trazado_19762" class="cls-2" d="M25.72,15.29H4.26c.22-.27.39-.52.6-.73.59-.57,1.35-.93,2.16-1.02,1.04-.16,2.07-.34,3.1-.53,1.36-.21,2.48-1.21,2.84-2.54.06-.18.11-.36.17-.57,1.18.58,2.57.58,3.75,0,.06.19.1.35.15.51.38,1.43,1.59,2.47,3.06,2.64,1.13.19,2.26.36,3.38.59.95.2,1.77.8,2.24,1.65"/>
      <path id="Trazado_19763" class="cls-2" d="M8.42,27.49l.18-2.02c2.46.75,5.11-.3,6.41-2.52,1.3,2.22,3.94,3.26,6.41,2.52l.18,2.02h-13.17Z"/>
    </g>
  </g>
</svg>
