<?xml version="1.0" encoding="UTF-8"?>
<svg id="Capa_1" xmlns="http://www.w3.org/2000/svg" xmlns:xlink="http://www.w3.org/1999/xlink" viewBox="0 0 30 30">
  <defs>
    <style>
      .cls-1 {
        fill: currentColor;
      }

      .cls-2 {
        fill: currentColor;
      }

      .cls-3 {
        clip-path: url(#clippath);
      }
    </style>
    <clipPath id="clippath">
      <rect class="cls-1" x="5.97" y="3.34" width="18.05" height="23.32"/>
    </clipPath>
  </defs>
  <g class="cls-3">
    <g id="Grupo_35753">
      <path id="Trazado_19671" class="cls-2" d="M19.27,3.34h-8.54c-.54,0-.99.44-.99.99s.44.99.99.99h8.54c.54,0,.99-.44.99-.99s-.44-.99-.99-.99h0"/>
      <path id="Trazado_19672" class="cls-2" d="M23.56,22.55l-4.49-6.54c-.3-.44-.46-.96-.46-1.49v-7.23c0-.18-.15-.33-.33-.33h-6.57c-.18,0-.33.15-.33.33h0v7.23c0,.53-.16,1.05-.46,1.49l-4.49,6.54c-.82,1.2-.52,2.83.68,3.65.44.3.96.46,1.49.46h12.79c1.45,0,2.63-1.17,2.63-2.62,0-.53-.16-1.05-.46-1.49M12.12,20.61l-2.03,2.91c-.26.37-.77.46-1.14.2s-.46-.77-.2-1.14l2.03-2.91c.26-.37.77-.46,1.14-.2.37.26.46.77.2,1.14h0M14.69,16.95l-.58.82c-.26.37-.77.47-1.14.21-.37-.26-.47-.77-.21-1.14,0,0,0,0,0,0l.58-.82c.26-.37.77-.46,1.14-.2.37.26.46.77.2,1.14"/>
    </g>
  </g>
</svg>
