<?xml version="1.0" encoding="UTF-8"?>
<svg id="Capa_1" xmlns="http://www.w3.org/2000/svg" xmlns:xlink="http://www.w3.org/1999/xlink" viewBox="0 0 30 30">
  <defs>
    <style>
      .cls-1 {
        fill: currentColor;
      }

      .cls-2 {
        fill: currentColor;
      }

      .cls-3 {
        clip-path: url(#clippath);
      }
    </style>
    <clipPath id="clippath">
      <rect class="cls-1" y="3.79" width="30" height="22.43"/>
    </clipPath>
  </defs>
  <g class="cls-3">
    <g id="Grupo_35636">
      <path id="Trazado_19549" class="cls-2" d="M18.79,3.79h-7.57c-.24,0-.44.2-.44.44v5.83c0,.24.2.44.44.44h7.57c.24,0,.44-.2.44-.44v-5.83c0-.24-.2-.44-.44-.44"/>
      <path id="Trazado_19550" class="cls-2" d="M29.56,19.51h-7.57c-.24,0-.44.2-.44.44v5.82c0,.24.2.44.44.44h7.57c.24,0,.44-.2.44-.44v-5.82c0-.24-.2-.44-.44-.44"/>
      <path id="Trazado_19551" class="cls-2" d="M18.79,19.51h-7.57c-.24,0-.44.2-.44.44v5.82c0,.24.2.44.44.44h7.57c.24,0,.44-.2.44-.44v-5.82c0-.24-.2-.44-.44-.44"/>
      <path id="Trazado_19552" class="cls-2" d="M8.01,19.51H.44C.2,19.51,0,19.71,0,19.95v5.82c0,.24.2.44.44.44h7.57c.24,0,.44-.2.44-.44v-5.82c0-.24-.2-.44-.44-.44"/>
      <path id="Trazado_19553" class="cls-2" d="M26.69,14.49c0-.24-.2-.44-.44-.44h-10.38v-2.4c0-.24-.2-.44-.44-.44h-.87c-.24,0-.44.2-.44.44v2.4H3.71c-.24,0-.44.2-.44.44v.16s-.01.03-.01.05v3.5c0,.24.2.44.44.44h.87c.24,0,.44-.2.44-.44v-2.4h9.11v2.4c0,.24.2.44.44.44h.87c.24,0,.44-.2.44-.44v-2.4h9.07v2.48c0,.24.2.44.44.44h.87c.24,0,.44-.2.44-.44v-3.8Z"/>
    </g>
  </g>
</svg>
