<?xml version="1.0" encoding="UTF-8"?>
<svg id="Capa_1" xmlns="http://www.w3.org/2000/svg" xmlns:xlink="http://www.w3.org/1999/xlink" viewBox="0 0 30 30">
  <defs>
    <style>
      .cls-1 {
        fill: currentColor;
      }

      .cls-2 {
        fill: currentColor;
      }

      .cls-3 {
        clip-path: url(#clippath);
      }
    </style>
    <clipPath id="clippath">
      <rect class="cls-1" x="6.27" y="2.62" width="17.46" height="24.76"/>
    </clipPath>
  </defs>
  <g class="cls-3">
    <g id="Grupo_35775">
      <path id="Trazado_19694" class="cls-2" d="M22,8.45c-.41-1-.08-2.52-.83-3.27s-2.28-.42-3.27-.83c-.97-.4-1.8-1.73-2.9-1.73s-1.94,1.33-2.9,1.73c-1,.41-2.52.08-3.27.83-.75.75-.42,2.28-.83,3.27-.4.96-1.73,1.8-1.73,2.9s1.33,1.94,1.73,2.9c.41,1,.08,2.52.83,3.27s2.28.42,3.27.83c.96.4,1.79,1.73,2.9,1.73s1.94-1.33,2.9-1.73c1-.41,2.52-.08,3.27-.83s.42-2.28.83-3.27c.4-.96,1.73-1.79,1.73-2.9s-1.33-1.94-1.73-2.9M15,16.26c-2.71,0-4.91-2.2-4.91-4.91s2.2-4.91,4.91-4.91,4.91,2.2,4.91,4.91-2.2,4.91-4.91,4.91h0"/>
      <path id="Trazado_19695" class="cls-2" d="M14.48,13.64l1.12-1.12,2.35-2.35-1.12-1.12-2.35,2.35-1.3-1.31-1.12,1.12,1.3,1.3,1.12,1.12ZM20.74,26.52l-1-7.01c-.11.01-.22.02-.32.03-.33.01-.65.06-.97.15-.27.15-.51.34-.74.55-.72.74-1.68,1.2-2.71,1.29-1.03-.09-2-.54-2.71-1.29-.23-.21-.48-.4-.74-.55-.32-.09-.64-.14-.97-.15l-.22-.02-1.08,7.17c-.05.33.18.64.51.69.13.02.25,0,.37-.06l4.62-2.39c.17-.09.38-.09.55,0l4.54,2.23c.3.15.67.02.82-.28.05-.11.07-.23.06-.35"/>
    </g>
  </g>
</svg>
