<?xml version="1.0" encoding="UTF-8"?>
<svg id="Capa_1" xmlns="http://www.w3.org/2000/svg" viewBox="0 0 30 30">
  <defs>
    <style>
      .cls-1 {
        fill: currentColor;
      }
    </style>
  </defs>
  <path id="Trazado_19764" class="cls-1" d="M24.93,27.18c0-2.97.01-5.94-.04-8.9.02-1.39-.58-2.72-1.64-3.62-.32-.24-.65-.47-1-.68-.81,3.56-2.96,5.55-6.57,5.93-.07.32.03.65.27.88.22.27.46.52.72.75,1.08.9,1.22,2.51.32,3.59-.22.27-.5.48-.8.64-.96.58-2.11.75-3.19.46-.28-.07-.56-.15-.84-.26-.13-.07-.29-.05-.39.05-.43.34-1.03.36-1.47.04-.56-.39-.7-1.17-.3-1.73.23-.33.61-.53,1.02-.53.55-.02,1.04.34,1.17.88.07.34.26.43.53.52.95.36,2,.3,2.9-.16.68-.33,1.1-1.04,1.05-1.8-.06-.36-.24-.7-.51-.95-.34-.34-.69-.67-.99-1.04-.33-.4-.48-.91-.42-1.42-3.64-.45-5.4-2.76-6.1-6.13-1.3.28-2.39,1.14-2.97,2.33-.34.7-.53,1.45-.58,2.23,0,.13-.03.26-.04.38v8.64c0,.07.02.14.05.2h19.85c0-.1-.02-.21-.02-.31"/>
  <path id="Trazado_19765" class="cls-1" d="M12.33,13.5l-.02.06h-2.72c.29,2.99,2.83,5.24,5.83,5.18,2.98.12,5.55-2.07,5.9-5.03-1.26-.16-2.53-.22-3.79-.18.98-.53,1.79-1.33,2.33-2.31.54-.98.76-2.1.64-3.22h-3.14c.46-.5.77-1.13.88-1.8h1.78c-.02-.06-.03-.09-.05-.12-.51-1.05-1.33-1.91-2.35-2.46-.14-.07-.27-.15-.38-.25-1.22-1.14-3.1-1.18-4.36-.08-.09.07-.18.14-.28.18-.7.33-1.33.8-1.84,1.38-.36.4-.65.86-.86,1.35h1.89c.11.68.42,1.31.89,1.81h-3.26c-.11,1.1.11,2.21.64,3.18.53.97,1.32,1.76,2.28,2.29M12.66,5.76c0-1.3,1.06-2.34,2.35-2.34,1.3,0,2.34,1.06,2.34,2.35,0,1.29-1.06,2.34-2.35,2.34-1.29-.01-2.33-1.06-2.34-2.35"/>
  <path id="Trazado_19766" class="cls-1" d="M15.01,6.85c.6,0,1.08-.48,1.08-1.08,0-.6-.48-1.08-1.08-1.08-.59,0-1.08.48-1.08,1.07,0,.6.48,1.08,1.07,1.09,0,0,0,0,0,0"/>
</svg>