<?xml version="1.0" encoding="UTF-8"?>
<svg id="Capa_1" xmlns="http://www.w3.org/2000/svg" viewBox="0 0 30 30">
  <defs>
    <style>
      .cls-1 {
        fill: currentColor;
      }
    </style>
  </defs>
  <g id="Grupo_35578">
    <g id="Grupo_35577">
      <path id="Trazado_19499" class="cls-1" d="M23.56,25.53l-9.39-4.97c-.25-.13-.54-.11-.77.04l-7.18,4.97c-.34.23-.42.7-.19,1.04.14.2.37.32.61.32h16.57c.41,0,.75-.33.74-.75,0-.28-.15-.53-.39-.66h0Z"/>
    </g>
  </g>
  <g id="Grupo_35580">
    <g id="Grupo_35579">
      <path id="Trazado_19500" class="cls-1" d="M26.7,24.11l-2.21-9.94c-.09-.4-.49-.66-.89-.57-.09.02-.18.06-.26.11l-7.18,4.97c-.34.24-.42.7-.19,1.04.07.1.16.18.26.23l9.39,4.97c.11.06.23.09.35.09.16,0,.32-.05.45-.15.23-.18.34-.47.28-.75Z"/>
    </g>
  </g>
  <g id="Grupo_35582">
    <g id="Grupo_35581">
      <path id="Trazado_19501" class="cls-1" d="M21.51,12.54c-.1-.31-.39-.52-.71-.52h-6.81c-1.09,1.87-2.37,3.62-3.82,5.22-.82.92-2.24,1-3.16.17-.06-.05-.12-.11-.17-.17-.29-.32-.74-.84-1.26-1.48l-1.81,8.12c-.09.4.16.8.57.89.05.01.11.02.16.02.15,0,.3-.05.42-.13l16.29-11.28c.27-.18.39-.52.29-.83Z"/>
    </g>
  </g>
  <g id="Grupo_35584">
    <g id="Grupo_35583">
      <path id="Trazado_19502" class="cls-1" d="M8.5,3.07c-2.88,0-5.22,2.34-5.22,5.22,0,2.68,4.19,7.42,4.67,7.96.27.31.75.33,1.05.06.02-.02.04-.04.06-.06.48-.53,4.67-5.28,4.67-7.96,0-2.88-2.34-5.22-5.22-5.22ZM8.5,10.53c-1.24,0-2.24-1-2.24-2.24s1-2.24,2.24-2.24c1.24,0,2.24,1,2.24,2.24h0c0,1.24-1,2.24-2.24,2.24Z"/>
    </g>
  </g>
</svg>