<?xml version="1.0" encoding="UTF-8"?>
<svg id="Capa_1" xmlns="http://www.w3.org/2000/svg" xmlns:xlink="http://www.w3.org/1999/xlink" viewBox="0 0 100 100">
  <defs>
    <style>
      .cls-1 {
        fill: currentColor;
      }

      .cls-2 {
        fill: currentColor;
      }

      .cls-3 {
        clip-path: url(#clippath);
      }
    </style>
    <clipPath id="clippath">
      <rect class="cls-1" x="13.73" y="13.75" width="72.55" height="72.5"/>
    </clipPath>
  </defs>
  <g id="Grupo_35418">
    <path id="Trazado_18454" class="cls-2" d="M0,50.02C0,22.4,22.37,0,49.98,0c27.61,0,50.01,22.37,50.02,49.98,0,27.61-22.37,50.01-49.98,50.02-.02,0-.05,0-.07,0C22.35,99.99,0,77.62,0,50.03c0,0,0,0,0-.01M95.9,50.04c.03-25.35-20.5-45.91-45.85-45.94-25.35-.03-45.91,20.5-45.94,45.85-.03,25.33,20.48,45.89,45.81,45.94,25.32.07,45.9-20.39,45.98-45.71,0-.05,0-.09,0-.14"/>
    <g id="Grupo_31637">
      <g class="cls-3">
        <g id="Grupo_31636">
          <path id="Trazado_18545" class="cls-2" d="M18.67,68.25c5.9,10.13,16.33,16.79,28,17.86.46.04.93.07,1.39.12h3.6c.68-.05,1.35-.1,2.03-.17,4.39-.4,8.66-1.65,12.59-3.67,9.51-4.73,16.45-13.42,18.94-23.75.57-2.23.91-4.51,1-6.8.01-.13.04-.26.07-.38v-2.9c-.04-.45-.1-.91-.14-1.36-.39-5.48-2.06-10.79-4.86-15.52-3.76-6.46-9.44-11.59-16.25-14.67-3.47-1.59-7.17-2.61-10.96-3.02-.75-.09-1.5-.12-2.25-.18-.13-.02-.25-.04-.37-.08h-2.9c-.45.04-.91.1-1.36.14-6.95.49-13.6,3.02-19.12,7.28-7.06,5.3-11.91,13.04-13.61,21.7-.37,1.77-.59,3.57-.66,5.38-.01.11-.03.22-.07.32v2.9c.04.45.1.9.14,1.36.39,5.44,2.04,10.72,4.8,15.42M59.57,46.16h.63c-.13-.14-.21-.23-.3-.32-1.94-1.94-3.89-3.87-5.82-5.82-1.52-1.46-1.56-3.88-.1-5.4,1.46-1.52,3.88-1.56,5.4-.1.04.04.08.08.11.12,1.86,1.84,3.7,3.69,5.54,5.53l6.95,6.95c.71.65,1.15,1.54,1.25,2.5.12,1.16-.3,2.31-1.15,3.12-4.18,4.19-8.37,8.38-12.56,12.56-1.48,1.5-3.9,1.52-5.41.04-1.5-1.48-1.52-3.9-.04-5.41.03-.03.06-.06.08-.08,1.92-1.91,3.84-3.82,5.75-5.74.08-.08.16-.17.29-.31h-17.77c-2.11.08-3.89-1.56-3.98-3.68-.08-2.11,1.56-3.89,3.68-3.98.09,0,.18,0,.28,0,5.72,0,11.43,0,17.15,0M28.73,37.08c-.02-1.6.44-3.16,1.3-4.5.89-1.33,2.3-2.24,3.88-2.5,1.83-.33,3.7-.43,5.56-.28,1.08.11,1.87,1.06,1.76,2.14,0,.03,0,.06,0,.08-.01,1.08-.9,1.95-1.98,1.94-.02,0-.03,0-.05,0-.56,0-1.11-.07-1.67-.07-.76-.02-1.52.02-2.27.1-1.29.13-2.28,1.2-2.29,2.5-.05.6-.05,1.21-.05,1.81v23.36c0,.58-.02,1.16,0,1.75-.06,1.35.99,2.49,2.34,2.55.03,0,.06,0,.08,0,.98.1,1.97.13,2.96.1.35,0,.7-.03,1.05,0,1.04.05,1.87.9,1.87,1.95.15,1.05-.59,2.02-1.64,2.17,0,0,0,0,0,0-1.78.18-3.58.15-5.36-.08-2.66-.63-4.73-2.72-5.33-5.39-.12-.61-.17-1.22-.17-1.84-.02-4.28,0-8.56,0-12.84v-12.95"/>
        </g>
      </g>
    </g>
  </g>
</svg>
