<?xml version="1.0" encoding="UTF-8"?>
<svg id="Capa_1" xmlns="http://www.w3.org/2000/svg" xmlns:xlink="http://www.w3.org/1999/xlink" viewBox="0 0 100 100">
  <defs>
    <style>
      .cls-1 {
        fill: currentColor;
      }

      .cls-2 {
        fill: currentColor;
      }

      .cls-3 {
        clip-path: url(#clippath);
      }
    </style>
    <clipPath id="clippath">
      <rect class="cls-1" width="100" height="100"/>
    </clipPath>
  </defs>
  <g class="cls-3">
    <g id="Grupo_31197">
      <path id="Trazado_18454" class="cls-2" d="M0,50.02C0,22.4,22.37,0,49.98,0c27.61,0,50.01,22.37,50.02,49.98,0,27.61-22.37,50.01-49.98,50.02-.02,0-.05,0-.07,0C22.35,99.99,0,77.62,0,50.03c0,0,0,0,0-.01M95.89,50.04c.03-25.35-20.5-45.91-45.84-45.94-25.35-.03-45.91,20.5-45.94,45.85-.03,25.33,20.48,45.89,45.81,45.94,25.32.07,45.9-20.39,45.98-45.71,0-.05,0-.09,0-.14"/>
      <path id="Trazado_18455" class="cls-2" d="M51.11,55.32c3.98-.24,7.96-.01,11.89.68,8.68,2.03,15.7,8.39,18.57,16.83.29.67.12,1.46-.43,1.94-15.13,17.2-41.33,18.87-58.52,3.75-1.31-1.15-2.55-2.39-3.71-3.7-.58-.53-.75-1.37-.45-2.08,3.53-10.12,12.92-17.03,23.63-17.4,2.62-.07,5.25,0,9.02,0"/>
      <path id="Trazado_18456" class="cls-2" d="M49.96,50.75c-10.02-.02-18.13-8.15-18.12-18.17.02-10.02,8.15-18.13,18.17-18.12,10.02.02,18.13,8.15,18.12,18.17,0,.01,0,.02,0,.03.02,9.97-8.06,18.07-18.03,18.08-.05,0-.1,0-.15,0"/>
    </g>
  </g>
</svg>
