<?xml version="1.0" encoding="UTF-8"?>
<svg id="Capa_1" xmlns="http://www.w3.org/2000/svg" xmlns:xlink="http://www.w3.org/1999/xlink" viewBox="0 0 30 30">
  <defs>
    <style>
      .cls-1 {
        fill: currentColor;
      }

      .cls-2 {
        fill: currentColor;
      }

      .cls-3 {
        clip-path: url(#clippath);
      }
    </style>
    <clipPath id="clippath">
      <rect class="cls-1" x="6.69" y="2.5" width="16.61" height="25"/>
    </clipPath>
  </defs>
  <g class="cls-3">
    <g id="Grupo_35692">
      <path id="Trazado_19615" class="cls-2" d="M22.8,26.12h-6.88c-.45,0-.84-.33-.88-.78v-1.87c.03-.74.49-1.39,1.18-1.67.19-.1.39-.4.3-.59l-.69-1.77c-.08-.11-.06-.26.05-.34.04-.03.1-.05.15-.05l5.3-2.16c.15-.04.26-.15.3-.3.08-.19.11-.39.09-.59-.18-.3-.53-.46-.88-.39l-8.27,3.24c-.24.1-.39.33-.38.59l.19.29c0,.2,0,.3-.09.4-.08.07-.19.11-.3.09-.78-.09-2.16-.69-2.67-3.04-.67-3.34,2.37-4.92,3.95-5.5.18-.1.4-.1.58,0,.11.09.3.2.3.39l-.19.2c-.11,0-.2.09-.11.2,0,.09.11.09.2.09h.09l.2-.09c.22.31.52.55.88.68v.3c0,.2,0,.3.2.3.1-.01.18-.09.19-.2v-.3c.12.07.27.11.41.1.24,0,.47-.08.67-.2l.2.4c.06.05.13.08.2.09l.09-.09c.09,0,.09-.1.09-.2l-.19-.39c.27-.22.5-.49.67-.79l.2.2h.09c.08,0,.15-.04.2-.09.09-.1,0-.3-.09-.3l-.3-.2c0-.09.09-.3.09-.39-.01-.27-.08-.54-.2-.78l.2-.1c.09,0,.2-.2.09-.29-.08-.08-.19-.12-.3-.1l-.19.2c-.12-.2-.28-.37-.49-.49-.11-.09-.11-.2-.2-.29l-2.36-5.11c-.2-.4-.67-.58-1.08-.39-.16.02-.31-.06-.39-.2l-.39-.99c-.16-.27-.49-.4-.79-.29-.31.11-.47.44-.37.75.02.05.04.1.07.14l.39.88v.2c0,.09-.09.09-.09.2-.22.04-.41.19-.5.39-.1.22-.1.46,0,.68l.69,1.57c.11.25.03.53-.19.69-1.98.89-6.1,3.43-5.02,9.14.22,2.04,1.43,3.85,3.25,4.81.68.27,1.11.94,1.08,1.67v1.57c0,.43-.34.79-.77.79-.01,0-.02,0-.03,0h-1.86c-.25.05-.44.25-.49.49v.98h15.25v-.89c.01-.26-.19-.48-.45-.49-.02,0-.04,0-.05,0M12.68,9.12h0c.16,0,.29.13.3.29,0,.2-.09.39-.3.39s-.3-.2-.3-.39c.01-.16.14-.28.3-.29M13.16,21.5h0c.2,0,.3.2.3.39,0,.16-.14.29-.3.3-.18-.01-.33-.13-.39-.3.02-.21.18-.37.39-.39"/>
    </g>
  </g>
</svg>
