<?xml version="1.0" encoding="UTF-8"?>
<svg id="Capa_1" xmlns="http://www.w3.org/2000/svg" viewBox="0 0 100 100">
  <defs>
    <style>
      .cls-1 {
        fill: currentColor;
      }
    </style>
  </defs>
  <g id="Grupo_34988-2">
    <path id="Trazado_18751" class="cls-1" d="M39.15,58.64v17.91c.06.95-.46,1.84-1.31,2.26-2.9,1.6-5.79,3.21-8.77,4.87.83.46,1.6.9,2.38,1.33,6.06,3.36,12.12,6.72,18.18,10.08.24.11.51.11.75,0,6.75-3.73,13.49-7.47,20.23-11.23.08-.05.16-.1.31-.2-1.39-.77-2.71-1.54-4.04-2.26-1.54-.85-3.05-1.71-4.59-2.53-.93-.44-1.5-1.41-1.43-2.44.02-5.71,0-11.43,0-17.14v-.63l2.56,1.39c4.75,2.6,9.51,5.2,14.27,7.8.39.16.62.55.58.97-.02,6.06,0,12.11,0,18.17v.73c-.72-.38-1.39-.73-2.02-1.15-.47-.34-1.1-.34-1.57,0-7.78,4.36-15.57,8.69-23.38,13.02-.81.49-1.83.47-2.62-.03-4.52-2.53-9.05-5.04-13.58-7.56-3.35-1.87-6.7-3.73-10.05-5.6-.26-.18-.62-.18-.88,0-.75.46-1.54.86-2.39,1.33v-18.96c-.04-.38.17-.74.52-.89,5.46-2.99,10.91-5.98,16.36-8.99.13-.07.28-.14.52-.25"/>
    <path id="Trazado_18752" class="cls-1" d="M13.1,48.94c1.8-1,3.54-1.96,5.27-2.94.67-.44,1.53-.48,2.24-.09,5.38,2.97,10.76,5.96,16.21,8.99-.45.27-.83.5-1.23.71-5.12,2.82-10.26,5.65-15.4,8.49-.38.25-.88.25-1.26,0-5.43-2.95-10.87-5.89-16.32-8.81-.14-.07-.27-.16-.46-.27,2.03-1.13,4-2.24,5.99-3.32.39-.16.63-.55.58-.97-.02-5.88,0-11.75-.03-17.62-.08-1.11.53-2.16,1.54-2.63,5.98-3.3,11.95-6.61,17.92-9.93.49-.31,1.01-.59,1.54-.84.68-.27.81-.7.8-1.38-.05-1.71,0-3.42,0-5.22.27.13.48.22.68.33l16.22,8.84c.29.16.5.3.5.71-.02,6.24-.02,12.48,0,18.71,0,.1,0,.19-.03.38-.96-.53-1.87-1.02-2.77-1.54-4.39-2.44-8.77-4.89-13.17-7.3-.93-.44-1.5-1.41-1.43-2.44.04-2.15,0-4.3,0-6.53-.38.21-.75.38-1.08.56-5.3,2.95-10.6,5.89-15.91,8.84-.26.1-.43.36-.41.64.02,4.79.02,9.58,0,14.36,0,.06,0,.12.03.27"/>
    <path id="Trazado_18753" class="cls-1" d="M86.96,48.94v-14.54c.04-.3-.11-.59-.38-.72-5.52-3.05-11.04-6.11-16.55-9.17l-.45-.25v.83c0,1.87-.04,3.74,0,5.61.09,1.11-.52,2.16-1.54,2.62-4.53,2.48-9.03,5-13.55,7.51l-2.27,1.26c0-.23-.04-.38-.04-.56v-18.47c0-.26.13-.5.33-.66,5.57-3.04,11.15-6.06,16.74-9.07.07-.04.14-.06.27-.12,0,.2.03.38.03.54v4.95c-.04.36.16.7.5.85,4.73,2.61,9.45,5.23,14.18,7.86,1.88,1.04,3.75,2.11,5.64,3.12.95.45,1.52,1.44,1.44,2.49-.03,5.94,0,11.87-.02,17.81-.04.36.16.69.49.83,1.86,1,3.69,2.04,5.53,3.07.1.05.19.12.35.23-1.49.83-2.92,1.63-4.36,2.41-4.13,2.27-8.27,4.54-12.42,6.8-.25.13-.54.15-.81.06-5.6-3.04-11.18-6.09-16.76-9.15-.05-.04-.1-.09-.15-.13.87-.49,1.71-.96,2.56-1.44,4.48-2.49,8.95-4.98,13.43-7.47.81-.49,1.83-.47,2.62.05,1.59.91,3.19,1.78,4.79,2.66.1.05.2.1.38.2"/>
    <path id="Trazado_18754" class="cls-1" d="M100,58.7v17.81c.06.96-.46,1.87-1.33,2.31-5.29,2.93-10.57,5.87-15.86,8.8-.06.02-.12.03-.18.04,0-.17-.04-.34-.04-.5v-18.47c-.05-.3.11-.59.38-.73,5.6-3.07,11.2-6.15,16.79-9.22.07-.02.15-.04.23-.05"/>
    <path id="Trazado_18755" class="cls-1" d="M17.38,87.72l-6.02-3.33c-3.23-1.79-6.44-3.62-9.7-5.38-1.08-.49-1.75-1.6-1.66-2.79C.05,70.69,0,65.16,0,59.63v-.77c.25.12.44.19.62.29,5.46,2.95,10.92,5.89,16.38,8.84.25.11.41.36.38.64v18.77c0,.08,0,.16-.03.33"/>
    <path id="Trazado_18756" class="cls-1" d="M32.68,9.33l4.87-2.69c3.7-2.06,7.42-4.1,11.11-6.18.79-.52,1.81-.53,2.62-.05,5.26,2.93,10.53,5.86,15.8,8.78.1.06.19.12.33.22l-5.65,3.07c-3.76,2.03-7.53,4.06-11.29,6.08-.23.13-.51.16-.77.07-5.65-3.07-11.29-6.15-17.03-9.28"/>
  </g>
</svg>
