<?xml version="1.0" encoding="UTF-8"?>
<svg id="Capa_1" xmlns="http://www.w3.org/2000/svg" xmlns:xlink="http://www.w3.org/1999/xlink" viewBox="0 0 30 30">
  <defs>
    <style>
      .cls-1 {
        fill: currentColor;
      }

      .cls-2 {
        fill: currentColor;
      }

      .cls-3 {
        clip-path: url(#clippath);
      }
    </style>
    <clipPath id="clippath">
      <rect class="cls-1" x="5.19" y="3.84" width="19.62" height="22.32"/>
    </clipPath>
  </defs>
  <g class="cls-3">
    <g id="Grupo_35694">
      <path id="Trazado_19616" class="cls-2" d="M22.6,15c.14-.13.26-.28.36-.45.54-.72,1.02-1.48,1.42-2.28.27-.67.42-1.39.43-2.11,0-.6-.18-1.18-.52-1.67-.3-.43-.74-.74-1.25-.88-.58-.26-1.21-.38-1.84-.35-.78,0-1.55.12-2.29.35-.02-.16-.08-.31-.18-.44-.38-.88-.92-1.68-1.58-2.37-.29-.32-.65-.56-1.06-.71-.33-.17-.69-.26-1.05-.26-.4,0-.79.08-1.15.26-.67.31-1.25.8-1.67,1.41-.46.63-.84,1.31-1.15,2.02-.75-.2-1.51-.31-2.28-.35-.6-.02-1.2.1-1.75.35-.52.16-.98.46-1.33.88-.32.5-.47,1.08-.44,1.67.02.72.17,1.44.43,2.11.43,1,1.03,1.92,1.77,2.72-.18.18-.27.35-.43.54-.54.7-.99,1.46-1.33,2.27-.34.65-.51,1.38-.52,2.11-.02.57.17,1.13.52,1.58.3.48.78.83,1.33.97.56.19,1.16.28,1.75.26.77,0,1.53-.09,2.28-.26.08.08.08.26.18.35.36.92.9,1.75,1.58,2.46.33.26.68.5,1.05.7.36.18.75.27,1.15.27.37,0,.73-.1,1.05-.27.72-.31,1.34-.83,1.77-1.49.34-.53.7-1.23,1.05-1.93.75.17,1.52.26,2.29.27.59.01,1.19-.08,1.75-.27.53-.19.99-.52,1.33-.97.35-.48.54-1.07.52-1.67-.02-.73-.2-1.45-.52-2.11-.45-.97-1.02-1.88-1.69-2.72M21.2,8.14h0c.51-.04,1.02.02,1.5.18.39.13.73.37.97.69.25.33.37.73.34,1.14-.03.61-.18,1.21-.43,1.76-.42.89-.95,1.72-1.58,2.46v-.09c-.6-.61-1.22-1.23-1.93-1.84-.13-1.41-.43-2.79-.88-4.13.67-.13,1.35-.19,2.03-.18M20.14,13.59h0c.47.45.91.92,1.33,1.41l-.08.18c-.37.35-.8.79-1.25,1.23,0-.53.1-.96.1-1.4s-.1-.88-.1-1.41M19.35,15h0c.01.7-.01,1.41-.08,2.11-.54.43-1.07.88-1.67,1.32-.84.59-1.73,1.12-2.65,1.58-.78-.43-1.67-.97-2.55-1.58-.62-.45-1.14-.88-1.67-1.32-.07-.7-.1-1.41-.08-2.11-.02-.73.01-1.47.08-2.2.54-.43,1.15-.88,1.67-1.23.84-.59,1.73-1.12,2.65-1.58.9.45,1.75.98,2.56,1.58.6.45,1.14.88,1.67,1.32.07.7.1,1.41.08,2.11M18.74,9.73h0c.19.63.34,1.28.43,1.93-.34-.26-.7-.53-1.05-.79-.7-.49-1.44-.93-2.2-1.32.39-.23.8-.41,1.24-.54.4-.17.81-.32,1.23-.43.16.37.28.75.35,1.14M11.96,7.53h0c.36-.79.87-1.51,1.5-2.11.24-.23.5-.43.79-.61.25-.1.52-.16.8-.18.27.02.54.08.79.18.52.31.98.73,1.32,1.23.41.53.74,1.13.97,1.76-.42.11-.84.26-1.23.44-.62.26-1.22.52-1.84.78-.63-.33-1.28-.63-1.95-.88-.39-.17-.8-.29-1.22-.35.07-.07.1-.17.08-.27M11.61,8.49h0c.43.18.79.27,1.23.44.43.18.88.35,1.32.53-.7.44-1.5.88-2.2,1.41-.37.24-.72.5-1.05.79.13-1.07.36-2.13.7-3.16M6.51,11.83h0c-.3-.54-.45-1.14-.43-1.75-.03-.41.09-.82.35-1.14.22-.3.52-.55.87-.7.49-.11.99-.17,1.5-.18.68,0,1.36.09,2.02.26-.17.4-.29.81-.36,1.23-.28.94-.45,1.91-.52,2.9-.69.57-1.34,1.18-1.93,1.84-.1-.08-.18-.18-.27-.26-.49-.69-.9-1.42-1.23-2.2M9.85,16.32h0c-.48-.4-.92-.84-1.32-1.32l.08-.18c.36-.44.8-.79,1.23-1.23,0,.44-.08.88-.08,1.41,0,.44.08.88.08,1.32M8.8,21.85h0c-.51.02-1.03-.07-1.5-.27-.38-.1-.72-.32-.97-.62-.21-.35-.33-.74-.35-1.14.03-.61.18-1.2.45-1.75.39-.9.93-1.73,1.58-2.47l.08.09c.57.67,1.19,1.29,1.85,1.85.13,1.38.42,2.74.87,4.04-.66.16-1.34.25-2.02.27M11.26,20.27h0c-.17-.66-.29-1.34-.35-2.02.31.31.67.57,1.05.78.7.54,1.4.97,2.12,1.41-.45.18-.8.35-1.23.53-.4.17-.82.32-1.23.44-.16-.37-.28-.75-.35-1.14M18.04,22.38h0c-.34.8-.82,1.54-1.4,2.19-.22.24-.49.42-.8.53-.47.36-1.12.36-1.58,0-.56-.24-1.05-.64-1.4-1.14-.4-.57-.72-1.19-.97-1.84.42-.07.83-.19,1.22-.35.63-.25,1.25-.55,1.85-.88.71.35,1.32.61,1.93.88.4.18.81.33,1.23.44-.05.05-.08.11-.08.18M18.39,21.42h0c-.42-.09-.83-.21-1.23-.35-.43-.18-.88-.45-1.32-.62.77-.38,1.5-.82,2.2-1.32.42-.24.8-.54,1.14-.88-.13,1.08-.4,2.14-.79,3.16M23.57,21.07h0c-.24.27-.54.48-.87.61-.48.19-.99.28-1.5.27-.69-.01-1.37-.1-2.03-.27.16-.4.28-.81.36-1.23.28-.95.45-1.92.52-2.9.72-.57,1.37-1.22,1.93-1.93.07.13.16.25.27.36.49.67.93,1.38,1.32,2.11.22.56.34,1.15.35,1.75.03.44-.09.88-.35,1.23M17.07,15h0c-.01,1.11-.91,2.01-2.02,2.02-1.12,0-2.02-.9-2.03-2.02s.9-2.02,2.02-2.03,2.02.9,2.03,2.02c0,0,0,0,0,0"/>
    </g>
  </g>
</svg>
