<?xml version="1.0" encoding="UTF-8"?>
<svg id="Capa_1" xmlns="http://www.w3.org/2000/svg" xmlns:xlink="http://www.w3.org/1999/xlink" viewBox="0 0 30 30">
  <defs>
    <style>
      .cls-1 {
        fill: currentColor;
      }

      .cls-2 {
        fill: currentColor;
      }

      .cls-3 {
        clip-path: url(#clippath);
      }
    </style>
    <clipPath id="clippath">
      <rect class="cls-1" x="2.29" y="3.34" width="25.41" height="23.32"/>
    </clipPath>
  </defs>
  <g class="cls-3">
    <g id="Grupo_35751">
      <path id="Trazado_19669" class="cls-2" d="M27.67,26.2l-9.09-16.05c-.33-.59-1.09-.8-1.68-.46-.2.11-.37.29-.48.49l-3.72,6.98,1.99,3.48c.37.65.26,1.47-.28,1.99l-.51-.08-3.92-6.86c-.34-.59-1.09-.8-1.68-.46-.2.12-.37.29-.48.5l-5.49,10.48c-.08.15-.02.34.13.41.04.02.09.04.14.04h24.8c.17,0,.31-.14.31-.31,0-.05-.01-.1-.04-.15"/>
      <path id="Trazado_19670" class="cls-2" d="M22.77,5.85c-.1-.12-.1-.3,0-.43l1.32-1.54c.12-.14.1-.34-.04-.46-.06-.05-.13-.08-.21-.08h-6.16c-.18,0-.33.15-.33.33v3.93c0,.18.15.33.33.33h6.16c.18,0,.33-.15.33-.33,0-.08-.03-.15-.08-.21l-1.32-1.54Z"/>
    </g>
  </g>
</svg>
