<?xml version="1.0" encoding="UTF-8"?>
<svg id="Capa_1" xmlns="http://www.w3.org/2000/svg" viewBox="0 0 30 30">
  <defs>
    <style>
      .cls-1 {
        fill: currentColor;
      }
    </style>
  </defs>
  <path id="Trazado_19449" class="cls-1" d="M7.62,9.71h3.6v1.69h-3.6v-1.69Z"/>
  <path id="Trazado_19450" class="cls-1" d="M22.87,2.5h6.78v1.69h-6.78v-1.69Z"/>
  <path id="Trazado_19451" class="cls-1" d="M17.72,19.06V5.33h-5.36v13.73c-.03,1.48,1.15,2.71,2.63,2.73,1.48.03,2.71-1.15,2.73-2.63,0-.03,0-.07,0-.1Z"/>
  <path id="Trazado_19452" class="cls-1" d="M.35,2.5h6.85v1.69H.35v-1.69Z"/>
  <path id="Trazado_19453" class="cls-1" d="M5.01,25.8h19.84v1.69H5.01v-1.69Z"/>
  <path id="Trazado_19454" class="cls-1" d="M6.49,19.06V5.33H1.06v13.73c0,1.5,1.22,2.72,2.72,2.72,1.5,0,2.72-1.22,2.72-2.72h0Z"/>
  <path id="Trazado_19455" class="cls-1" d="M23.58,19.06c-.03,1.48,1.15,2.71,2.63,2.73,1.48.03,2.71-1.15,2.73-2.63,0-.03,0-.07,0-.1V5.33h-5.36v13.73Z"/>
  <path id="Trazado_19456" class="cls-1" d="M18.85,9.71h3.6v1.69h-3.6v-1.69Z"/>
  <path id="Trazado_19457" class="cls-1" d="M11.65,2.5h6.78v1.69h-6.78v-1.69Z"/>
  <path id="Trazado_19458" class="cls-1" d="M14.12,22.78v1.89h1.69v-1.87c-.56.12-1.14.11-1.69-.03Z"/>
</svg>