<?xml version="1.0" encoding="UTF-8"?>
<svg id="Capa_1" xmlns="http://www.w3.org/2000/svg" xmlns:xlink="http://www.w3.org/1999/xlink" viewBox="0 0 30 30">
  <defs>
    <style>
      .cls-1 {
        fill: currentColor;
      }

      .cls-2 {
        fill: currentColor;
      }

      .cls-3 {
        clip-path: url(#clippath);
      }
    </style>
    <clipPath id="clippath">
      <rect class="cls-1" x="2.62" y="2.62" width="24.76" height="24.76"/>
    </clipPath>
  </defs>
  <g class="cls-3">
    <g id="Grupo_35789">
      <path id="Trazado_19708" class="cls-2" d="M12.45,11.76v-2.64c-.57.13-1.12.35-1.63.64-.13.08-.3.06-.41-.05l-.56-.56c-.12-.12-.31-.14-.45-.04-.57.43-1.08.94-1.51,1.51-.1.14-.08.33.04.44l.56.56c.11.11.13.28.05.41-.21.37-.39.76-.51,1.17-.07.23-.25.4-.47.47h-.69c-.17,0-.31.12-.34.29-.11.72-.11,1.46,0,2.18.03.16.17.29.34.28h.69c.23.07.4.24.47.47.13.41.3.8.51,1.17.08.13.06.3-.05.41l-.56.56c-.12.12-.14.31-.04.44.43.57.94,1.08,1.51,1.51.14.1.33.08.44-.04l.56-.56c.11-.11.27-.13.41-.05.51.29,1.06.51,1.63.64v-2.64c-1.82-.76-2.67-2.85-1.91-4.67.36-.86,1.05-1.55,1.91-1.91"/>
      <path id="Trazado_19709" class="cls-2" d="M5.58,19.52c-.17-.35-.32-.71-.45-1.08-.19-.49-.74-.74-1.23-.55-.47.18-.72.7-.57,1.18.15.44.33.86.53,1.28.23.47.8.67,1.27.44s.67-.8.44-1.27M3.65,16.57c.52-.03.92-.48.89-1.01-.01-.21-.02-.42-.02-.64,0-.18,0-.36.01-.54.04-.52-.36-.98-.88-1.02-.52-.04-.98.36-1.02.88,0,.01,0,.03,0,.04,0,.21-.01.43-.01.64,0,.25,0,.5.02.75.03.5.45.89.95.89h.06M3.88,12.1c.1.03.21.05.31.05.41,0,.77-.26.9-.64.13-.37.28-.73.45-1.08.25-.47.07-1.04-.4-1.29-.47-.25-1.04-.07-1.29.4-.01.02-.02.04-.03.06-.2.42-.38.85-.53,1.29-.17.5.09,1.04.59,1.21,0,0,0,0,0,0M6.46,8.32c.27,0,.53-.11.71-.32.26-.29.54-.57.83-.83.38-.36.41-.96.05-1.35-.35-.37-.92-.41-1.31-.08-.35.31-.68.64-.99.98-.35.39-.31,1,.08,1.34.17.15.4.24.63.24M15,2.62h-.95v24.76h.95c6.84,0,12.38-5.54,12.38-12.38S21.84,2.62,15,2.62M24.31,10.17h-3.15c-.34-1.67-.97-3.27-1.87-4.72,2.15.96,3.92,2.63,5.01,4.72M15.95,4.76c1.33.64,2.57,2.58,3.27,5.4h-3.27v-5.4ZM15.95,12.07h3.62c.13.95.19,1.9.19,2.86,0,.96-.06,1.91-.19,2.86h-3.62v-5.71ZM15.95,25.22v-5.53h3.27c-.69,2.86-1.95,4.85-3.27,5.53M19.28,24.54c.91-1.49,1.56-3.14,1.89-4.85h3.17c-1.09,2.15-2.87,3.86-5.06,4.85M21.49,17.79c.12-.95.18-1.9.18-2.86,0-.96-.06-1.91-.18-2.86h3.59c.27.93.4,1.89.4,2.86,0,.97-.13,1.93-.4,2.86h-3.59ZM11.55,24.88c-.37-.13-.73-.28-1.08-.45-.48-.22-1.04-.01-1.26.47-.21.46-.02,1.01.43,1.25.42.2.85.38,1.29.54.1.04.21.05.32.05.53,0,.95-.42.96-.95,0-.41-.25-.77-.64-.9M10.03,5.65c.14,0,.28-.03.41-.09.35-.17.71-.32,1.08-.45.5-.17.76-.72.59-1.21-.17-.5-.72-.76-1.21-.59-.44.15-.87.33-1.29.53-.47.23-.67.8-.45,1.27.16.33.49.54.86.54M7.2,21.96c-.35-.39-.95-.43-1.34-.08s-.43.95-.08,1.34c.31.35.63.67.98.98.4.34,1,.29,1.34-.11.33-.38.3-.96-.07-1.3-.29-.26-.57-.54-.83-.83"/>
    </g>
  </g>
</svg>
