<?xml version="1.0" encoding="UTF-8"?>
<svg id="Capa_1" xmlns="http://www.w3.org/2000/svg" xmlns:xlink="http://www.w3.org/1999/xlink" viewBox="0 0 30 30">
  <defs>
    <style>
      .cls-1 {
        fill: currentColor;
      }

      .cls-2 {
        fill: currentColor;
      }

      .cls-3 {
        clip-path: url(#clippath);
      }
    </style>
    <clipPath id="clippath">
      <rect class="cls-1" x="4.17" y="2.51" width="21.67" height="24.99"/>
    </clipPath>
  </defs>
  <g class="cls-3">
    <g id="Grupo_35829">
      <path id="Trazado_19747" class="cls-2" d="M23.4,19.1c.15.17.29.35.41.54.24.34.15.81-.19,1.05-.08.05-.16.09-.25.11-.59.24-.57.23-.38.84.11.34.16.69.17,1.05.02.54-.36,1.02-.9,1.13-.9.18-1.84.15-2.73-.09-1.09-.25-2.12-.67-3.08-1.24-.06-.03-.11-.07-.17-.1-.2-.12-.46-.04-.58.16,0,0,0,0,0,0-.12.17-.08.41.09.53.01,0,.02.02.04.02.42.26.85.5,1.29.71.57.26,1.16.46,1.75.69-.45.56-.63,1.28-.5,1.98,0,.09.03.17.03.26.08.33-.13.66-.46.74-.12.03-.25.02-.37-.03-1.35-.33-2.7-.66-4.05-.98-1.89-.45-3.77-.89-5.66-1.33-.77-.18-.98-.58-.74-1.34.17-.53.32-1.07.48-1.61.38-1.27.18-2.64-.54-3.75-.53-.87-1.09-1.73-1.6-2.61-1.07-1.79-1.49-3.89-1.19-5.96.34-2.28,1.66-4.3,3.62-5.52,3.67-2.36,8.34-2.48,12.13-.34,1.77.99,3.06,2.65,3.57,4.61.22.79.23,1.63.01,2.43-.19.66-.04,1.38.41,1.9.39.5.82.97,1.21,1.47.22.27.4.56.54.88.16.3.04.68-.26.84-.07.04-.14.06-.22.07-.3.08-.6.14-.9.23-.15.04-.29.1-.43.17-.38.2-.42.4-.19.77.14.21.25.45.3.7.07.46-.22.89-.67,1M9.48,9.12c.03.11.04.16.06.21.24.64.04,1.35-.48,1.79-.15.18-.42.2-.59.05,0,0-.02-.02-.03-.03-.16-.17-.15-.44.02-.6.09-.09.17-.19.24-.29.19-.45.03-.97-.38-1.23-.42,0-.83.14-1.16.41-.79,1.09-.55,2.61.53,3.4.07.05.14.1.21.14.11.05.23.05.34,0,.87-.44,1.87-.55,2.81-.28.58.21,1.09.58,1.47,1.07.14.16.13.4-.03.54-.01.01-.02.02-.04.03-.16.15-.4.14-.55-.02,0,0-.01-.01-.02-.02-.05-.05-.1-.11-.16-.17-.36-.39-.85-.65-1.37-.72-.42-.04-.84.01-1.24.15-.65.18-.52.3-.35.83.03.05.06.09.11.13.3.34.7.56,1.14.64.27.06.54.1.84.15l-.18,1.69c-.04.39.09.54.47.54h.67c.39,0,.48-.06.6-.44.27-.84.71-1.61,1.3-2.27.27-.29.56-.56.86-.81.19-.16.18-.27.02-.44-.18-.17-.41-.25-.66-.23-.23-.01-.42-.11-.42-.38-.02-.23.15-.43.38-.45.02,0,.04,0,.06,0,.59-.04,1.16.25,1.47.75.08.17.26.25.44.21.7-.08,1.37-.32,1.97-.69.5-.31.93-.74,1.23-1.25-.81-.55-1.9-.34-2.45.47-.03.04-.05.08-.08.13-.21.29-.43.36-.65.2s-.22-.38-.04-.66c.69-1.17,2.18-1.6,3.39-.99.27.16.61.12.82-.12.15-.13.29-.28.42-.43.22-.27.36-.59.41-.93-.67.29-1.43.21-2.03-.2-.29-.19-.36-.43-.22-.66s.38-.24.68-.04c.05.03.1.06.15.09.39.26.92.21,1.25-.12.08-.11.1-.25.07-.38-.24-.63-.74-1.13-1.38-1.36-.09-.04-.18-.05-.28-.03-.96.13-1.74.83-1.98,1.77-.06.33-.1.66-.1,1-.02.27-.16.43-.4.44-.22.02-.41-.14-.43-.36,0-.02,0-.05,0-.07-.01-.23,0-.46.03-.69.03-.25-.09-.32-.27-.24-.21.09-.39.22-.54.39-.21.23-.41.31-.62.17-.2-.14-.25-.41-.11-.61,0-.01.02-.02.02-.03.32-.55.95-.85,1.58-.75.14.01.22,0,.3-.13.36-.69.96-1.23,1.69-1.51.08-.03.15-.07.25-.12-.65-.68-1.59-1.02-2.53-.9,0,.11,0,.2-.01.28-.03.52-.27,1-.67,1.33-.16.17-.43.18-.6.02,0,0-.01-.01-.02-.02-.14-.18-.12-.44.05-.6.13-.15.25-.32.34-.49.13-.21.06-.49-.16-.62-.01,0-.02-.01-.04-.02-1.06-.74-2.46-.77-3.55-.07-.46.27-.65.83-.45,1.33.1.23.24.43.41.61.19.23.24.47.07.64-.17.17-.44.17-.6,0-.01-.01-.02-.03-.03-.04-.48-.41-.75-1-.75-1.63,0-.08,0-.16-.01-.24-1.27.24-2.57,1.92-2.28,2.87.5-.03,1-.02,1.51.01.99.11,1.83.76,2.17,1.7.12.2.05.45-.15.57-.01,0-.02.01-.04.02-.22.09-.47-.01-.56-.23,0,0,0-.02,0-.02-.05-.09-.09-.19-.15-.28-.22-.4-.59-.7-1.03-.84"/>
      <path id="Trazado_19748" class="cls-2" d="M13.47,8.06c.32.47.49,1.02.49,1.59-.09,1.11-.84,2.06-1.9,2.39-.22.06-.45-.08-.5-.3-.05-.18.04-.38.2-.47.2-.12.41-.21.6-.34.77-.49,1-1.52.51-2.29-.09-.14-.2-.26-.32-.37-.13-.13-.2-.3-.2-.48.02-.13.23-.27.38-.32.46-.16.6-.39.46-.86-.03-.09-.07-.18-.09-.27-.08-.2.02-.43.22-.5,0,0,.02,0,.03,0,.21-.08.44.02.52.22,0,0,0,0,0,.01.38.68.21,1.53-.4,2.01"/>
    </g>
  </g>
</svg>
