<?xml version="1.0" encoding="UTF-8"?>
<svg id="Capa_1" xmlns="http://www.w3.org/2000/svg" viewBox="0 0 100 100">
  <defs>
    <style>
      .cls-1 {
        fill: currentColor;
      }
    </style>
  </defs>
  <g id="Grupo_29528">
    <path id="Trazado_16291" class="cls-1" d="M40,19.99h20v-1.63c0-4.56,0-9.13.01-13.69-.04-2.08,1.36-3.91,3.37-4.41.59-.16,1.2-.23,1.81-.23,3.2-.02,6.4-.03,9.6-.01,3.27.02,5.16,1.93,5.17,5.19,0,4.66,0,9.32,0,13.98v.86h.89c4.66,0,9.32,0,13.98,0,1.88-.19,3.69.8,4.54,2.49.37.78.57,1.64.58,2.5.07,3.27.04,6.54.02,9.81s-1.93,5.15-5.19,5.15h-14.79v20.02h14.99c2.57-.18,4.79,1.76,4.97,4.33.01.18.01.35,0,.53.04,3.34.04,6.68,0,10.02-.04,3.21-1.92,5.05-5.13,5.06-4.68.02-9.36,0-14.04,0h-.84v14.88c0,1.98-.64,3.64-2.5,4.53-.83.37-1.73.57-2.65.58-3.22.07-6.45.05-9.67.02-3.28-.02-5.14-1.92-5.14-5.19v-14.78h-19.98c-.01.29-.04.59-.04.88v14.12c.2,2.52-1.69,4.73-4.21,4.92-.13,0-.25.01-.38.01-3.6.1-7.2.08-10.8-.02-2.46.05-4.49-1.89-4.54-4.35,0-.11,0-.21,0-.32-.05-4.8-.02-9.6-.03-14.4v-.85c-.26-.02-.49-.04-.71-.04H5.28C1.92,79.95.02,78.07,0,74.73c0-3.2,0-6.4,0-9.6.01-2.8,1.48-4.68,4.01-5.06.94-.09,1.88-.12,2.82-.07,4.19,0,8.38,0,12.56,0h.56v-20.01H5.26C1.9,39.99.02,38.11.01,34.75c0-3.18,0-6.35,0-9.53s1.93-5.18,5.17-5.18c4.66,0,9.32,0,13.98,0h.88v-.79c0-4.75,0-9.51,0-14.26-.15-2.2,1.29-4.2,3.43-4.75.5-.14,1.01-.21,1.53-.22,3.32-.02,6.63-.03,9.95,0,1.97-.17,3.82.94,4.6,2.75.29.72.43,1.48.43,2.25.03,4.77.03,9.55.03,14.33v.64M40.05,59.96h19.92v-19.93h-19.92v19.93Z"/>
  </g>
</svg>
