<?xml version="1.0" encoding="UTF-8"?>
<svg id="Capa_1" xmlns="http://www.w3.org/2000/svg" xmlns:xlink="http://www.w3.org/1999/xlink" viewBox="0 0 30 30">
  <defs>
    <style>
      .cls-1 {
        fill: currentColor;
      }

      .cls-2 {
        fill: currentColor;
      }

      .cls-3 {
        clip-path: url(#clippath);
      }
    </style>
    <clipPath id="clippath">
      <rect class="cls-1" x="1.34" y="2.5" width="27.32" height="25"/>
    </clipPath>
  </defs>
  <g class="cls-3">
    <g id="Grupo_35803">
      <path id="Trazado_19722" class="cls-2" d="M15,12.38c-1.24,0-2.25,1-2.25,2.24,0,1.24,1,2.25,2.24,2.25s2.25-1,2.25-2.24c0,0,0,0,0,0,0-1.24-1.01-2.24-2.25-2.25M28.21,13.56c-2.09-2.06-7.22-6.42-13.21-6.42S3.88,11.5,1.79,13.56c-.59.58-.59,1.52-.02,2.11,0,0,.01.01.02.02,2.09,2.07,7.22,6.42,13.21,6.42s11.12-4.36,13.21-6.42c.59-.58.59-1.52.02-2.11,0,0-.01-.01-.02-.02M15,19.12c-2.48,0-4.49-2.01-4.49-4.49s2.01-4.49,4.49-4.49,4.49,2.01,4.49,4.49-2.01,4.49-4.49,4.49"/>
      <path id="Trazado_19723" class="cls-2" d="M7.94,2.5h-3.59c-1.23,0-2.22.99-2.22,2.22v3.59c0,.62.5,1.12,1.12,1.12s1.12-.5,1.12-1.12l-.03-3.57h3.59c.62,0,1.12-.5,1.12-1.12s-.5-1.12-1.12-1.12h0M7.94,25.25l-3.57.02v-3.59c0-.62-.5-1.12-1.12-1.12s-1.12.5-1.12,1.12v3.59c0,1.23.99,2.22,2.22,2.22h3.59c.62,0,1.12-.5,1.12-1.12s-.5-1.12-1.12-1.12M24.9,2.5h-3.59c-.62,0-1.12.5-1.12,1.12s.5,1.12,1.12,1.12l3.56-.03v3.59c0,.62.5,1.12,1.12,1.12s1.12-.5,1.12-1.12h0v-3.59c0-1.22-.99-2.22-2.22-2.22M26,20.56c-.62,0-1.12.5-1.13,1.12,0,0,0,0,0,0l.02,3.57h-3.59c-.62,0-1.12.5-1.12,1.12s.5,1.12,1.12,1.12h3.59c1.23,0,2.22-.99,2.22-2.22v-3.59c0-.62-.5-1.12-1.12-1.12"/>
    </g>
  </g>
</svg>
