<?xml version="1.0" encoding="UTF-8"?>
<svg id="Capa_1" xmlns="http://www.w3.org/2000/svg" xmlns:xlink="http://www.w3.org/1999/xlink" viewBox="0 0 30 30">
  <defs>
    <style>
      .cls-1 {
        fill: currentColor;
      }

      .cls-2 {
        fill: currentColor;
      }

      .cls-3 {
        clip-path: url(#clippath);
      }
    </style>
    <clipPath id="clippath">
      <rect class="cls-1" x="4.45" y="2.5" width="21.1" height="25"/>
    </clipPath>
  </defs>
  <g class="cls-3">
    <g id="Grupo_35676">
      <path id="Trazado_19606" class="cls-2" d="M22.46,9.48c-1.71-1.71-3.96-2.78-6.37-3.03l1.74-1.74c.57-.43.68-1.24.26-1.8-.05-.06-.1-.12-.16-.17-.75-.42-1.68-.26-2.25.38l-1.74,1.74c-.74.73-1.55,1.39-2.4,1.98-.22.13-.39.34-.47.58-.1.41.1.83.47,1.02.85.59,1.66,1.25,2.4,1.98l1.74,1.74c.47.48,1.15.7,1.81.58.16-.04.31-.1.44-.2.52-.47.56-1.27.09-1.78-.04-.04-.08-.08-.12-.12-.02-.03-.05-.06-.08-.08l-1.57-1.56c4.39.69,7.39,4.82,6.7,9.21-.27,1.68-1.06,3.24-2.26,4.44-.14.14-.28.27-.43.4-3.33,2.95-8.42,2.64-11.37-.69-2.85-3.22-2.67-8.11.41-11.11l-1.77-1.77c-.28.28-.54.57-.79.88-3.64,4.55-2.89,11.19,1.66,14.83,1.87,1.49,4.19,2.31,6.59,2.31,2.6,0,5.1-.95,7.03-2.69.15-.13.29-.26.43-.4,4.12-4.12,4.12-10.8,0-14.92,0,0,0,0,0,0"/>
    </g>
  </g>
</svg>
