<?xml version="1.0" encoding="UTF-8"?>
<svg id="Capa_1" xmlns="http://www.w3.org/2000/svg" xmlns:xlink="http://www.w3.org/1999/xlink" viewBox="0 0 100 100">
  <defs>
    <style>
      .cls-1 {
        fill: currentColor;
      }

      .cls-2 {
        fill: currentColor;
      }

      .cls-3 {
        clip-path: url(#clippath);
      }
    </style>
    <clipPath id="clippath">
      <rect class="cls-1" width="100" height="100"/>
    </clipPath>
  </defs>
  <g class="cls-3">
    <g id="Grupo_35377">
      <path id="Trazado_19292" class="cls-2" d="M28.04,31.44c0,6.66,5.36,12.08,12.02,12.14,6.57.13,12.01-5.09,12.14-11.66,0-.18,0-.35,0-.53.13-6.71-5.21-12.24-11.91-12.37-.05,0-.1,0-.15,0-6.76.14-12.15,5.68-12.1,12.43" />
      <path id="Trazado_19293" class="cls-2" d="M58.37,53.84c-.1-.76-.47-1.45-1.05-1.95-.79-.81-1.51-1.7-2.36-2.43-1.71-1.94-4.59-2.33-6.75-.9-4.9,2.87-10.96,2.91-15.89.09-2.42-1.56-5.64-1.03-7.43,1.23-2.33,2.1-3.92,4.89-4.51,7.97-.46,2.27-.14,4.55-.4,7.11-10.81-9.22-14.22-24.47-8.36-37.42C17.55,14.27,31.82,6.81,46.11,9.51c8.42,1.62,15.8,6.66,20.36,13.93,4.57,7.08,6.18,15.67,4.5,23.93,2.2-.52,4.45-.78,6.71-.78.69,0,1.37.03,2.05.08.19-.38.32-.79.36-1.21C82.69,23.19,66.76,3.02,44.49.41c-4.06-.48-8.16-.34-12.18.41C11.17,5.38-2.77,25.61.5,46.99c3.14,21.57,22.82,36.75,44.48,34.33,1.67-.19,2.66-.58,3.08-1.53-.09-.96-.14-1.92-.14-2.9-.02-8.83,3.79-17.24,10.45-23.04" />
      <path id="Trazado_19294" class="cls-2" d="M77.37,54.04c-12.69-.2-23.14,9.94-23.34,22.63-.2,12.69,9.94,23.14,22.63,23.34,12.69.2,23.14-9.94,23.34-22.63,0-.11,0-.21,0-.32.09-12.6-10.03-22.9-22.63-23.02M93.38,78.01c.26,2.28-1.39,4.34-3.67,4.6-.3.03-.61.03-.91,0h-5.93c0,2.22.04,4.21,0,6.2.21,2.31-1.5,4.35-3.82,4.56-.28.02-.55.02-.83,0h-1.76c-2.31.17-4.32-1.58-4.49-3.89-.01-.18-.01-.36,0-.54-.06-2.03,0-4.07,0-6.31h-5.66c-2.37.33-4.55-1.32-4.89-3.69-.06-.41-.06-.83,0-1.24,0-.71-.03-1.4,0-2.09-.02-2.23,1.77-4.05,3.99-4.07.01,0,.03,0,.04,0,2.09-.06,4.19,0,6.49,0v-5.65c0-3.57,1.49-5.09,5-5.09h1.76c2.2-.11,4.07,1.58,4.18,3.78,0,.15,0,.29,0,.44.06,2.09,0,4.17,0,6.5h5.66c3.48,0,4.9,1.47,4.86,5.02,0,.5,0,1-.02,1.5"/>
    </g>
  </g>
</svg>
