<?xml version="1.0" encoding="UTF-8"?>
<svg id="Capa_1" xmlns="http://www.w3.org/2000/svg" xmlns:xlink="http://www.w3.org/1999/xlink" viewBox="0 0 30 30">
  <defs>
    <style>
      .cls-1 {
        fill: currentColor;
      }

      .cls-2 {
        fill: currentColor;
      }

      .cls-3 {
        clip-path: url(#clippath);
      }
    </style>
    <clipPath id="clippath">
      <rect class="cls-1" x="2.28" y="3.34" width="25.44" height="23.32"/>
    </clipPath>
  </defs>
  <g class="cls-3">
    <g id="Grupo_35741">
      <path id="Trazado_19660" class="cls-2" d="M10.76,12.53h-2.83c-.39,0-.71.32-.71.71h0v3.53c0,.39.32.71.71.71h2.83c.39,0,.71-.32.71-.71v-3.53c0-.39-.32-.71-.71-.71h0"/>
      <path id="Trazado_19661" class="cls-2" d="M24.89,3.34H5.11c-1.56,0-2.83,1.27-2.83,2.83h0v17.66c0,1.56,1.27,2.83,2.83,2.83h19.78c1.56,0,2.83-1.27,2.83-2.83h0V6.17c0-1.56-1.27-2.83-2.83-2.83h0M10.76,5.82h2.83c.59,0,1.06.47,1.06,1.06s-.47,1.06-1.06,1.06h-2.83c-.59,0-1.06-.47-1.06-1.06s.47-1.06,1.06-1.06M6.52,5.46c.78,0,1.41.63,1.41,1.41s-.63,1.41-1.41,1.41-1.41-.63-1.41-1.41.63-1.41,1.41-1.41h0M24.89,23.13c0,.39-.32.71-.71.71H5.81c-.39,0-.71-.32-.71-.71v-12.01c0-.39.32-.71.71-.71h18.37c.39,0,.71.32.71.71v12.01ZM21.71,12.7h-7.06c-.49,0-.88.4-.88.88s.4.88.88.88h7.07c.49,0,.88-.4.88-.88s-.4-.88-.88-.88M21.71,16.24h-7.07c-.49,0-.88.4-.88.88s.4.88.88.88h7.07c.49,0,.88-.4.88-.88s-.4-.88-.88-.88M21.71,19.77h-13.43c-.49,0-.88.39-.88.88,0,.49.39.88.88.88h13.43c.49,0,.88-.4.88-.88s-.4-.88-.88-.88"/>
    </g>
  </g>
</svg>
