<?xml version="1.0" encoding="UTF-8"?>
<svg id="Capa_1" xmlns="http://www.w3.org/2000/svg" viewBox="0 0 100 100">
  <defs>
    <style>
      .cls-1 {
        fill: currentColor;
      }
    </style>
  </defs>
  <g id="Grupo_31565-2">
    <path id="Trazado_18538" class="cls-1" d="M6.12,30.49c4.46,9.29,10.7,17.61,18.36,24.49l6.81-7.16,5.54,7.02.57-.31.32-2.38c.18.11.38.17.38.27,1,4.19,4.18,5.25,7.92,5.82,1.39.4,2.68,1.07,3.8,1.98,1.72,1.12,3.34,2.38,5.31,3.81-3.88,4.02-2.31,8.07.21,12.64,2.38,4.01,2.84,8.88,1.25,13.27-.75,3.18-1.12,6.43-1.12,9.69-15.32,1.87-30.6-3.78-41-15.18C.79,69.94-2.53,48.48,6.12,30.49"/>
    <path id="Trazado_18539" class="cls-1" d="M84.19,70.56c-1.92-1.13-3.66-2.01-5.23-3.15-1.95-1.38-3.79-2.91-5.5-4.58-1.15-1.45-2.81-2.41-4.64-2.67-2.31-.22-4.53-1.2-6.83-1.48-1.82-.04-3.65.03-5.46.22-.72,0-1.42-.18-2.05-.53-1.16-.54-2.21-1.31-3.08-2.26-.6-1.25-1.01-2.58-1.21-3.94l-4.17,1.28-.74-2.96c1.7-1.76,4.41-2.07,6.47-.74,2.24,1.32,2.47.52,3.84-1.65,1.98-3.04,4.34-5.82,7.02-8.27,1.63-1.35,3.54-2.32,5.59-2.86,1.98-.42,4-.66,6.02-.71.77-.89.48-1.88-.68-2.98-2.72-2.13-4.9-4.87-6.37-8-.16-.43-.5-.76-.93-.93-2.9-.68-5.83-1.29-8.99-1.97l-1.07,5.04-4.95-.84-.61-3.26c5.02.52,4.46-3.51,5.4-6.45,1.77.85,3.88.83,3.95,3.74.04,1.56,5.15,2.06,7.05.8-1.27-3.41-5.72-4.59-6.46-8.6,3.85-.61,7.61,1.56,9.01,5.2,1.32,3.92,3.87,7.31,7.27,9.67,1.38,1.15,2.46,1.33,3.24-.51.5-1.34,1.83-2.2,3.26-2.1,2.09-.08,4.18-.57,6.27-.63.78.16,1.44.65,1.84,1.33,5.85,9.26,8.25,20.28,6.78,31.14-2.19,18.35-14.57,33.88-31.97,40.09-1.44.55-2.94.93-4.59,1.44-.1-1.86.91-3.59,2.57-4.43.9-.46,1.66-1.19,2.55-1.66,2.86-1.34,4.93-3.92,5.61-7,.23-.96.88-1.76,1.76-2.19,3.46-1.09,6.17-3.81,7.26-7.27.77-1.78,1.78-3.46,2.79-5.38"/>
    <path id="Trazado_18540" class="cls-1" d="M24.43,50.57c-7.63-8.07-14.28-16.28-17.07-26.91C4.19,14.29,9.22,4.12,18.59.95s19.54,1.86,22.71,11.23c.87,2.57,1.14,5.31.8,8-1.81,8.58-5.79,16.56-11.56,23.17-1.85,2.39-3.91,4.61-6.12,7.22M24.24,27.16c5.16.11,9.44-3.99,9.54-9.16,0-.02,0-.05,0-.07-.03-5.17-4.18-9.38-9.35-9.49-5.09.03-9.24,4.09-9.37,9.18-.15,5.11,3.88,9.38,8.99,9.53.06,0,.13,0,.19,0"/>
    <path id="Trazado_18541" class="cls-1" d="M45.22,12.7l-4.69-9.17c9.93-2.07,20.26-.7,29.3,3.9-.65.02-1.29-.04-1.92-.18-2.97-1.05-6.27.1-7.95,2.76-.89,1.18-2.3,1.85-3.78,1.78-3.03,0-6.05.1-9.08.25-.66.13-1.29.36-1.88.67M49.36,8.96c3,2.57,7.28,1.4,10.84-3.02-1.44-.33-2.91-1.19-3.9-.8-2.39,1.11-4.7,2.39-6.92,3.82"/>
  </g>
</svg>