<?xml version="1.0" encoding="UTF-8"?>
<svg id="Capa_1" xmlns="http://www.w3.org/2000/svg" viewBox="0 0 100 100">
  <defs>
    <style>
      .cls-1 {
        fill: currentColor;
      }
    </style>
  </defs>
  <g id="Grupo_34522-3">
    <path id="Trazado_18654" class="cls-1" d="M78.29,33.79c-.32,2.08-.76,4.14-1.3,6.17-.88,2.79-2.07,5.48-3.08,8.24-.6,1.49-1.06,3.04-1.36,4.61-.39,3.5,1.85,6.75,5.26,7.62,1.14.24,2.33.14,3.43-.27,1.86-.71,3.87-.93,5.84-.65,3.86.47,6.6,3.97,6.14,7.83-.02.13-.03.26-.06.38-.2,1.75-.73,3.44-1.54,5-5.26,10.4-13.86,18.72-24.43,23.64-6.8,3.14-14.36,4.28-21.78,3.28-6.36-.75-12.56-2.48-18.39-5.11-8.11-3.7-14.77-9.98-18.92-17.87-4.54-7.99-6.63-17.15-6-26.32.6-8.1,3.21-15.92,7.6-22.75,2.78-4.64,6.26-8.82,10.31-12.4,7.71-6.82,17.98-9.98,28.19-8.68,7.8.77,15.19,3.9,21.17,8.98,1.27,1.07,2.42,2.27,3.67,3.46-.28.33-.44.51-.6.69l-6.62,7.26c-.05.04-.1.1-.13.15-.68,1.48-2.1,2.36-3,3.66-.94,1.28-1.81,2.62-2.61,4-.32.6-.9,1-1.57,1.1-5.79,1.29-10.27,5.87-11.44,11.68-.77,3.91-3.28,7.25-6.83,9.07-1.24.64-1.9,2.02-1.63,3.39.25,1.35,1.4,2.36,2.77,2.44,6.23.43,12.46-.79,18.07-3.53,5.03-2.52,8.52-7.31,9.38-12.87.11-.49.17-.99.16-1.49-.08-.83.31-1.64,1-2.11,1.19-.98,2.28-2.09,3.41-3.15.17-.12.31-.27.42-.45.97-2.05,3.16-3.08,4.09-5.15l.37.13M41.93,89.65c3.81,0,6.89-3.09,6.89-6.9,0-3.81-3.09-6.89-6.9-6.89-3.8,0-6.88,3.09-6.89,6.89-.01,3.8,3.06,6.89,6.86,6.9.02,0,.03,0,.05,0M23.98,52.32c.02-3.81-3.05-6.9-6.86-6.92-3.81-.02-6.9,3.05-6.92,6.86-.02,3.81,3.05,6.9,6.86,6.92,3.8.02,6.9-3.05,6.92-6.85,0,0,0,0,0,0M43.51,15.37c-3.8.02-6.87,3.12-6.85,6.92.02,3.8,3.12,6.87,6.92,6.85,3.79-.02,6.85-3.1,6.85-6.89.02-3.79-3.04-6.87-6.83-6.89-.03,0-.06,0-.09,0M31.66,32.13c.05-3.8-3-6.92-6.8-6.97-3.8-.05-6.92,3-6.97,6.8-.05,3.77,2.95,6.87,6.72,6.97,3.81.09,6.97-2.94,7.06-6.75,0-.02,0-.04,0-.06M24.13,78.88c3.8,0,6.89-3.07,6.9-6.88,0-3.8-3.07-6.89-6.88-6.9-3.77,0-6.84,3.02-6.9,6.79-.05,3.81,3,6.93,6.81,6.98.02,0,.05,0,.07,0"/>
    <path id="Trazado_18655" class="cls-1" d="M72.74,35.49c-.34-.15-.67-.33-.97-.55-1.43-1.15-2.82-2.37-4.23-3.57-.84-.48-1.14-1.55-.66-2.39.12-.2.27-.38.46-.52l21.82-23.84c2.41-2.64,1.15-1.18,3.55-3.81.52-.81,1.6-1.05,2.41-.54.16.1.3.23.42.37.56.47,1.12.94,1.67,1.42.8.5,1.03,1.56.53,2.36-.08.12-.17.24-.28.34-3.95,5.04-4.2,5.97-8.15,11.01-4.91,6.27-9.83,12.55-14.74,18.82-.4.61-1.1.96-1.83.92"/>
    <path id="Trazado_18656" class="cls-1" d="M44.44,60.24h-2.67c-.51.05-.97-.33-1.01-.84-.04-.41.2-.79.57-.95,4.15-2.17,7.07-6.13,7.91-10.73,1.19-5.16,5.37-9.08,10.59-9.95.97-.23,1.98.05,2.69.74,1.13,1.09,2.36,2.07,3.59,3.05.52.38.81,1,.77,1.65.05,5.81-3.21,11.13-8.41,13.73-3.28,1.72-6.87,2.75-10.56,3.03-1.22.13-2.45.2-3.46.27"/>
    <path id="Trazado_18657" class="cls-1" d="M65.53,30.88c.28.14.55.29.8.47,1.86,1.56,3.72,3.14,5.57,4.71.44.25.6.81.35,1.25-.07.12-.17.23-.28.31-1.2,1.15-2.43,2.27-3.64,3.4-.34.41-.96.47-1.37.13-.03-.02-.06-.05-.08-.08-1.54-1.31-3.08-2.61-4.61-3.93-.58-.5-.62-.88-.18-1.54.87-1.33,1.75-2.66,2.65-3.97.24-.29.52-.54.82-.77"/>
  </g>
</svg>