<?xml version="1.0" encoding="UTF-8"?>
<svg id="Capa_1" xmlns="http://www.w3.org/2000/svg" viewBox="0 0 30 30">
  <defs>
    <style>
      .cls-1 {
        fill: currentColor;
      }
    </style>
  </defs>
  <path id="Trazado_19473" class="cls-1" d="M9.18,15.62c.17-.07.35-.13.53-.18.13-.03.26-.02.38.04.38.27.89.29,1.29.03.31-.16.68-.17,1-.02q.55.21.55-.37v-6.88c0-.31,0-.31.32-.31h7.75c.34,0,.34,0,.34.35,0,6.24,0,12.48,0,18.72,0,.24-.08.31-.31.36-.65.11-1.32.15-1.98.13H3.52c-.47.04-.94-.11-1.28-.43-.27-.27-.42-.63-.41-1.01,0-5.75,0-11.5,0-17.25,0-.18.02-.35.05-.52.05-.3.1-.34.4-.34h6.58c.3,0,.31.01.31.31v7.39ZM12.41,20.05c.01.15.03.25.03.34v3.12c0,.39.2.65.51.66.4.02.62-.19.62-.61v-3.19c0-.08.01-.17.02-.3l1.21.95c0-.39,0-.72,0-1.04,0-.09-.04-.18-.11-.25-.43-.47-.85-.93-1.29-1.39-.3-.31-.49-.31-.79,0-.34.35-.64.74-1.01,1.06-.53.46-.39,1.03-.4,1.64l1.21-1ZM19.25,21.06c0-.41,0-.76,0-1.1-.01-.09-.05-.17-.12-.24-.44-.47-.88-.93-1.34-1.38-.29-.3-.42-.3-.72,0-.33.33-.62.7-.97,1-.53.47-.46,1.06-.43,1.69l1.19-.99c.01.14.03.23.03.32v3.23c-.03.28.17.53.44.57.41.03.58-.08.66-.46.02-.1.03-.2.02-.3v-3.05c0-.08.01-.17.02-.3l1.21,1ZM15.24,24.64c-.99,0-1.97,0-2.96,0-.18,0-.35.06-.48.18-.16.2-.19.48-.06.71.12.17.33.27.54.23h5.59c.11,0,.23,0,.34,0,.23-.02.45-.08.54-.34.13-.27.02-.6-.25-.73-.1-.05-.2-.07-.31-.05-.99,0-1.97,0-2.96,0h0Z"/>
  <path id="Trazado_19474" class="cls-1" d="M27.76,3.6c.28.38.43.85.41,1.33,0,4.96,0,9.93,0,14.89,0,.53-.02,1.07,0,1.61.06.92-.37,1.81-1.15,2.32-1.19.88-2.35,1.79-3.52,2.69-.39.32-.85.55-1.34.67,0-.11-.02-.22-.02-.33,0-6.09,0-12.17-.01-18.26-.02-.37.15-.72.46-.93,1.65-1.26,3.28-2.54,4.92-3.81.08-.05.16-.1.25-.17Z"/>
  <path id="Trazado_19475" class="cls-1" d="M27.2,2.87c-.54.37-1.06.72-1.56,1.08-1.19.84-2.38,1.67-3.55,2.53-.42.34-.95.52-1.49.51-2.23-.03-4.46-.01-6.7-.01-.11,0-.23-.02-.33-.07.07-.06.14-.13.21-.19,1.72-1.32,3.44-2.64,5.16-3.96.21-.17.47-.26.74-.25,2.13,0,4.26.01,6.4,0,.4.01.8.14,1.13.36Z"/>
  <path id="Trazado_19476" class="cls-1" d="M2.38,6.95c.22-.43.53-.79.92-1.07,1.41-.99,2.82-1.98,4.24-2.97.38-.26.83-.4,1.29-.4,2,0,4.01,0,6.01,0,.1,0,.2.02.3.02l.02.06c-.13.1-.25.2-.38.3l-4.64,3.59c-.12.11-.25.2-.39.28-.2.11-.41.18-.64.2-2.13.01-4.27,0-6.4,0-.09,0-.19,0-.34-.02Z"/>
</svg>