<?xml version="1.0" encoding="UTF-8"?>
<svg id="Capa_1" xmlns="http://www.w3.org/2000/svg" viewBox="0 0 30 30">
  <defs>
    <style>
      .cls-1 {
        fill: currentColor;
      }
    </style>
  </defs>
  <path id="Trazado_19443" class="cls-1" d="M6.99,2.5h16.01c2.48,0,4.48,2.01,4.49,4.49v16.01c0,2.48-2.01,4.48-4.49,4.49H6.99c-2.48,0-4.48-2.01-4.49-4.49V6.99c0-2.48,2.01-4.48,4.49-4.49ZM6.38,22.01h8.01c.41,1.21,1.72,1.85,2.92,1.44.68-.23,1.21-.76,1.44-1.44h4.87c.41,0,.74-.33.74-.74s-.33-.74-.74-.74h-4.87c-.41-1.21-1.72-1.85-2.92-1.44-.68.23-1.21.76-1.44,1.44H6.38c-.41,0-.74.33-.74.74s.33.74.74.74ZM6.38,15.73h1.74c.41,1.21,1.72,1.85,2.92,1.44.68-.23,1.21-.76,1.44-1.44h11.14c.41,0,.74-.33.74-.74s-.33-.74-.74-.74h-11.14c-.41-1.21-1.72-1.85-2.92-1.44-.68.23-1.21.76-1.44,1.44h-1.74c-.41,0-.73.33-.73.74s.33.73.74.73ZM6.38,9.46h11.15c.41,1.21,1.72,1.85,2.92,1.44.68-.23,1.21-.76,1.44-1.44h1.74c.41,0,.74-.33.74-.74s-.33-.74-.74-.74h-1.74c-.41-1.21-1.72-1.85-2.92-1.44-.68.23-1.21.76-1.44,1.44H6.38c-.41,0-.74.33-.74.74s.33.74.74.74Z"/>
  <path id="Trazado_19444" class="cls-1" d="M16.56,20.38c.48,0,.87.39.87.87s-.39.87-.87.87h0c-.48,0-.87-.39-.87-.87s.39-.87.87-.87Z"/>
  <path id="Trazado_19445" class="cls-1" d="M19.69,7.88c.48,0,.87.39.87.87,0,.48-.39.87-.87.87-.48,0-.87-.39-.87-.87,0-.48.39-.87.87-.87Z"/>
  <path id="Trazado_19446" class="cls-1" d="M10.31,14.13c.48,0,.87.39.87.87s-.39.87-.87.87-.87-.39-.87-.87.39-.87.87-.87h0Z"/>
</svg>