<?xml version="1.0" encoding="UTF-8"?>
<svg id="Capa_1" xmlns="http://www.w3.org/2000/svg" xmlns:xlink="http://www.w3.org/1999/xlink" viewBox="0 0 30 30">
  <defs>
    <style>
      .cls-1 {
        fill: currentColor;
      }

      .cls-2 {
        fill: currentColor;
      }

      .cls-3 {
        clip-path: url(#clippath);
      }
    </style>
    <clipPath id="clippath">
      <rect class="cls-1" x="4.18" y="2.62" width="21.64" height="24.76"/>
    </clipPath>
  </defs>
  <g class="cls-3">
    <g id="Grupo_35791">
      <path id="Trazado_19710" class="cls-2" d="M20.11,2.62h-7.56v5.81c0,1.42-1.15,2.56-2.57,2.57h-5.81v11.84c0,.8.65,1.46,1.46,1.46h6.91c.02-.15.06-.29.11-.43-.67-.29-1.15-.9-1.26-1.62-.12-.8-.12-1.61,0-2.41.11-.72.59-1.33,1.26-1.62-.27-.68-.17-1.45.26-2.05.47-.63,1.03-1.19,1.66-1.67.6-.45,1.38-.54,2.07-.26.28-.68.9-1.17,1.63-1.28.79-.12,1.59-.12,2.38,0,.33.05.64.18.91.38V4.08c0-.8-.65-1.46-1.46-1.46"/>
      <path id="Trazado_19711" class="cls-2" d="M10.49,2.74l-6.19,6.19c-.06.06-.06.15,0,.2.03.03.06.04.1.04h5.78c.31,0,.56-.25.56-.56,0,0,0,0,0,0V2.84c0-.08-.07-.14-.15-.14-.04,0-.07.02-.1.04M25.74,20.1c-.02-.14-.15-.24-.29-.24h-.59c-.19-.06-.35-.21-.41-.4-.11-.35-.26-.68-.44-1-.07-.11-.05-.25.04-.35l.48-.48c.1-.1.11-.26.03-.38-.37-.49-.8-.93-1.3-1.3-.12-.08-.28-.07-.38.03l-.48.48c-.09.09-.23.11-.35.04-.45-.26-.93-.44-1.43-.56h0v-.9c0-.14-.1-.27-.24-.29-.61-.09-1.23-.09-1.84,0-.14.03-.24.15-.24.29v.9h0c-.5.11-.98.3-1.43.56-.11.07-.25.05-.35-.04l-.48-.48c-.1-.1-.26-.11-.38-.03-.49.37-.92.8-1.29,1.3-.08.12-.07.28.03.38l.48.48c.09.09.11.24.04.35-.18.32-.33.65-.44,1-.06.19-.21.34-.41.4h-.59c-.14,0-.27.1-.29.24-.1.62-.1,1.25,0,1.86.02.14.15.24.29.24h.59c.19.06.35.21.41.4.11.35.26.68.44,1,.07.11.05.25-.04.35l-.48.48c-.1.1-.11.26-.03.38.37.49.8.93,1.29,1.3.12.08.28.07.38-.03l.48-.48c.09-.09.23-.11.35-.04.45.26.93.44,1.43.56v.9c0,.14.1.27.24.29.61.09,1.23.09,1.84,0,.14-.02.24-.15.24-.29v-.9h0c.5-.11.98-.3,1.43-.56.11-.07.25-.05.35.04l.48.48c.1.1.26.11.38.03.49-.37.93-.8,1.29-1.3.08-.12.07-.28-.03-.38l-.48-.48c-.09-.09-.11-.24-.04-.35.18-.32.33-.65.44-1,.06-.19.21-.34.41-.4h.59c.14,0,.27-.1.29-.24.1-.62.1-1.25,0-1.86M21.19,21.31c-.15.95-1.05,1.6-2,1.44s-1.6-1.05-1.44-2c.12-.74.7-1.32,1.44-1.44.96-.15,1.85.51,2,1.46.03.18.03.36,0,.54"/>
    </g>
  </g>
</svg>
