<?xml version="1.0" encoding="UTF-8"?>
<svg id="Capa_1" data-name="Capa 1" xmlns="http://www.w3.org/2000/svg" viewBox="0 0 200 200">
  <defs>
    <style>
      .cls-1 {
        fill: currentColor;
      }
    </style>
  </defs>
  <g id="Grupo_35787-2" data-name="Grupo 35787-2">
    <path id="Trazado_19662" data-name="Trazado 19662" class="cls-1" d="M146.74,15.12c50.33,35.53,43.93,111.58-10.9,139.06-53.65,26.89-117.59-13.64-117.1-73.17C19.28,15.99,93.12-22.73,146.74,15.12M91.82,88.05v19c-1.79-.28-3.54-.79-5.21-1.5-.36-.15-.67-.67-1.1-.86-1.22-.62-2.63-.7-3.91-.23-2.99,3.99-13.5,9.2-6.88,14.38,2.47,1.69,5.13,3.07,7.94,4.11,2.77.82,5.63,1.32,8.52,1.47-.09,2.63-.04,5.25.15,7.87.44,2.69,2.55,4.8,5.25,5.24,2.99.22,7.98.48,10.22-1.76,2.78-2.78,1.45-7.49,1.75-11.03,26.82-1.17,31.97-38.76,6.61-48.05-1.41-.52-6.47-1.43-7.07-2.38-.11-.48-.17-.98-.18-1.48-.4-5.58.28-11.31-.02-16.88,4.66-1.09,7.32,4.87,11.64,1.63.59-.44,6.76-6.69,7.02-7.12,2.79-4.62-2.84-7.7-6.32-9.31-3.58-1.64-7.45-2.56-11.38-2.7-.82-4.42,1.22-11.59-4.94-13.08-3.61-.87-9.36-.67-11.57,2.76-1.85,2.85-.81,6.65-1.31,9.83-2.31.25-4.59.71-6.82,1.37-16.3,5.45-21.07,27.27-9.91,39.89,4.68,4.84,10.86,7.96,17.53,8.84"/>
    <path id="Trazado_19663" data-name="Trazado 19663" class="cls-1" d="M146.86,162.42c2.63-2.06,5.59-3.66,8.29-5.63,6.05-4.49,11.61-9.61,16.59-15.27.67-.73,2.46-3.7,3.18-3.95,5.51.33,12.31-1.08,17.47,1.1,3.65,1.83,6.29,5.19,7.21,9.17-.93,13.25,1.25,28.22,0,41.27-.97,5.67-5.57,10.01-11.28,10.67H11.71c-5.66-.52-10.27-4.75-11.29-10.34-1.33-13.08.98-28.3,0-41.6,1.11-5.3,5.35-9.38,10.68-10.28,4.71-.22,9.43-.16,14.14.18,5.76,7.32,12.45,13.86,19.91,19.44l8.02,5.24h-25.06c-1.32.4-2.4,1.35-2.95,2.61-.56,2.38-.89,8.84,2.22,9.59l143.91.27c1.45-.05,2.76-.86,3.45-2.13-.4-2.22.5-6.17-.09-8.14-.68-1.11-1.78-1.9-3.05-2.2h-24.74Z"/>
    <path id="Trazado_19664" data-name="Trazado 19664" class="cls-1" d="M112.02,94.7c.71.92,1.29,1.94,1.72,3.03,1.41,3.5-.29,7.48-3.79,8.89-.51.2-1.04.35-1.58.42-.42-.09-.5-2.56-.52-3.08-.15-3.55.19-7.14,0-10.67,1.47.17,2.89.65,4.16,1.41"/>
    <path id="Trazado_19665" data-name="Trazado 19665" class="cls-1" d="M91.82,55.62v14.09c-3.96-.57-6.71-4.24-6.14-8.2.16-1.12.58-2.18,1.22-3.11.75-.83,1.54-1.62,2.37-2.37.62-.26,1.79-.08,2.54-.42"/>
  </g>
</svg>