<?xml version="1.0" encoding="UTF-8"?>
<svg id="Capa_1" xmlns="http://www.w3.org/2000/svg" xmlns:xlink="http://www.w3.org/1999/xlink" viewBox="0 0 30 30">
  <defs>
    <style>
      .cls-1 {
        fill: currentColor;
      }

      .cls-2 {
        fill: currentColor;
      }

      .cls-3 {
        clip-path: url(#clippath);
      }
    </style>
    <clipPath id="clippath">
      <rect class="cls-1" x="2.83" y="2.5" width="24.35" height="25"/>
    </clipPath>
  </defs>
  <g class="cls-3">
    <g id="Grupo_35809">
      <path id="Trazado_19728" class="cls-2" d="M18.83,21.88c-.1-.11-.27-.13-.4-.05-1.23.75-2.66,1.12-4.1,1.05-3.99-.18-7.08-3.56-6.9-7.56.14-3.14,2.3-5.84,5.34-6.66.14-.04.24-.17.24-.31v-4.04c0-.18-.15-.33-.33-.33-.02,0-.04,0-.05,0C6.17,5.12,1.85,11.28,2.99,17.75c.1.55.23,1.1.41,1.64,1.3,3.56,4.14,6.35,7.72,7.6,3.56,1.09,7.44.46,10.47-1.71.15-.11.18-.31.07-.46,0-.01-.02-.02-.03-.03-.63-.66-2.26-2.33-2.79-2.9M24.93,8.57c-.11-.15-.32-.18-.46-.07-.01,0-.02.02-.04.03l-2.18,2.18-1.16,1.13c-.1.1-.13.26-.06.39,1.45,2.66,1.07,5.95-.94,8.21-.12.13-.11.33,0,.45l3.26,3.26c.13.13.34.13.47,0,0,0,0,0,0,0,3.99-4.28,4.45-10.77,1.1-15.57"/>
      <path id="Trazado_19729" class="cls-2" d="M23.89,6.28c-2.37-2.34-5.55-3.69-8.88-3.78-.18,0-.34.14-.34.33,0,0,0,0,0,0v6.58c0,.18.14.32.32.32,1.41.08,2.75.65,3.76,1.63.13.12.33.12.46,0l1.9-1.85,2.78-2.78c.13-.13.13-.34,0-.47"/>
    </g>
  </g>
</svg>
