<?xml version="1.0" encoding="UTF-8"?>
<svg id="Capa_1" xmlns="http://www.w3.org/2000/svg" xmlns:xlink="http://www.w3.org/1999/xlink" viewBox="0 0 30 30">
  <defs>
    <style>
      .cls-1 {
        fill: currentColor;
      }

      .cls-2 {
        fill: currentColor;
      }

      .cls-3 {
        clip-path: url(#clippath);
      }
    </style>
    <clipPath id="clippath">
      <rect class="cls-1" x="2.28" y="5.5" width="25.43" height="19"/>
    </clipPath>
  </defs>
  <g class="cls-3">
    <g id="Grupo_35684">
      <path id="Trazado_19611" class="cls-2" d="M2.4,20c.21,1.42,1.01,2.69,2.2,3.49.89.58,1.93.9,3,.9,1.81,0,3.5-.9,4.5-2.4l5.52-8.1c.81-1.2,1.1-2.68.8-4.1-.3-1.39-1.13-2.61-2.32-3.39-.85-.6-1.86-.91-2.9-.9-1.81,0-3.49.9-4.5,2.4l-5.5,8.1c-.8,1.17-1.09,2.61-.8,4M6.9,21.2h0c.93.07,1.82-.4,2.3-1.2l1.4-2.2c.15-.24.42-.39.7-.4.21.02.42.08.61.19.38.25.49.76.24,1.14-.01.02-.03.04-.05.06l-1.5,2.2c-.87,1.44-2.54,2.2-4.2,1.9-.45-.16-.71-.63-.61-1.1.08-.44.49-.73.92-.65.06.01.12.03.18.05M10.19,8.89h0c.66-1.01,1.79-1.61,3-1.6.68-.02,1.35.19,1.9.6.82.52,1.4,1.35,1.61,2.3.15.94-.07,1.91-.61,2.7l-2.2,3.2c-.34.49-1,.62-1.5.3l-4.1-2.8c-.25-.16-.43-.41-.5-.69-.04-.28.04-.57.2-.8l2.19-3.21ZM16.61,18.89h0c-.11,3.06,2.29,5.63,5.36,5.74,3.06.11,5.63-2.29,5.74-5.36,0-.09,0-.19,0-.28-.07-3.07-2.61-5.5-5.68-5.43-2.93.07-5.3,2.4-5.42,5.33M19.11,17.99h0l6.21.1c.45.07.78.45.8.9.03.46-.31.86-.77.9-.04,0-.08,0-.12,0l-6.22-.1c-.48-.08-.82-.51-.8-1,.04-.47.44-.82.91-.8"/>
    </g>
  </g>
</svg>
