<?xml version="1.0" encoding="UTF-8"?>
<svg id="Capa_1" xmlns="http://www.w3.org/2000/svg" xmlns:xlink="http://www.w3.org/1999/xlink" viewBox="0 0 30 30">
  <defs>
    <style>
      .cls-1 {
        fill: currentColor;
      }

      .cls-2 {
        fill: currentColor;
      }

      .cls-3 {
        clip-path: url(#clippath);
      }
    </style>
    <clipPath id="clippath">
      <rect class="cls-1" x="2.16" y="2.62" width="25.69" height="24.76"/>
    </clipPath>
  </defs>
  <g class="cls-3">
    <g id="Grupo_35777">
      <path id="Trazado_19696" class="cls-2" d="M27.8,5.89c-.01-.09-.09-.15-.17-.15h-.36c-.12-.03-.21-.13-.25-.24-.07-.21-.16-.41-.27-.6-.04-.07-.03-.15.03-.21l.29-.29c.06-.06.07-.16.02-.23-.22-.3-.48-.56-.78-.78-.07-.05-.17-.04-.23.02l-.29.29c-.06.06-.14.07-.21.03-.27-.15-.56-.27-.86-.34v-.55c0-.09-.06-.16-.15-.17-.37-.06-.74-.06-1.11,0-.09.01-.15.09-.15.17v.54c-.3.07-.59.18-.86.34-.07.04-.15.03-.21-.03l-.28-.29c-.06-.06-.16-.07-.23-.02-.3.22-.56.49-.78.78-.05.07-.04.17.02.23l.29.29c.06.06.07.14.03.21-.11.19-.2.39-.27.6-.04.12-.13.21-.24.24h-.36c-.09,0-.16.06-.17.15-.06.37-.06.75,0,1.13.01.09.09.15.17.15h.36c.12.04.21.13.24.24.07.21.16.41.27.6.04.07.03.15-.03.21l-.29.29c-.06.06-.07.16-.02.23.22.3.48.56.78.78.07.05.17.04.23-.02l.29-.29c.06-.06.14-.07.21-.03.27.15.56.27.86.34v.54c0,.09.06.16.15.17.37.06.74.06,1.11,0,.09-.01.15-.09.15-.17v-.54c.3-.07.59-.18.86-.34.07-.04.15-.03.21.03l.29.29c.06.06.16.07.23.02.3-.22.56-.49.78-.78.05-.07.04-.17-.02-.23l-.29-.29c-.05-.06-.07-.14-.03-.21.11-.19.2-.39.27-.6.04-.12.13-.21.25-.24h.36c.09,0,.16-.06.17-.15.06-.37.06-.75,0-1.13M25.46,6.68c-.13.8-.88,1.34-1.68,1.21-.8-.13-1.34-.88-1.21-1.68.1-.62.59-1.11,1.21-1.21.8-.12,1.56.43,1.68,1.23.02.15.02.3,0,.45"/>
      <path id="Trazado_19697" class="cls-2" d="M21.68,16.8l-1.65-3.85v-.69c0-4.94-3.99-8.94-8.93-8.94S2.16,7.31,2.16,12.25c0,2.48,1.03,4.86,2.85,6.55,1.1,1.02,1.57,2.55,1.23,4.01l-.92,3.8c-.14.58.03.78.25.78h8.69c.16,0,.3-.11.34-.27l.57-2.76c.13-.64.7-1.09,1.35-1.09h2.29c.68,0,1.23-.55,1.23-1.23h0v-4.27h1.02c.38,0,.69-.31.69-.69,0-.09-.02-.19-.06-.27M15.54,12.42c-.02.11-.12.2-.23.2h-.48c-.15.05-.28.17-.32.32-.09.28-.21.55-.35.8-.05.09-.04.2.03.28l.38.38c.08.08.09.21.03.3-.29.39-.64.74-1.03,1.03-.09.07-.22.06-.3-.02l-.38-.38c-.07-.07-.19-.09-.28-.03-.36.2-.74.35-1.14.44v.72c0,.12-.08.21-.2.23-.49.07-.98.07-1.47,0-.11-.02-.2-.12-.2-.23v-.72c-.4-.09-.78-.24-1.14-.44-.09-.05-.2-.04-.28.03l-.38.38c-.08.08-.21.09-.3.02-.39-.29-.74-.64-1.03-1.03-.07-.09-.06-.22.02-.3l.38-.38c.07-.07.09-.19.03-.28-.15-.25-.26-.52-.35-.8-.05-.15-.17-.28-.32-.32h-.48c-.12,0-.21-.08-.23-.2-.08-.49-.08-.99,0-1.49.02-.11.12-.2.23-.2h.48c.16-.05.28-.17.32-.32.09-.28.21-.55.35-.8.05-.09.04-.2-.03-.28l-.38-.38c-.08-.08-.09-.21-.02-.3.29-.39.64-.74,1.03-1.04.09-.07.22-.06.3.02l.38.38c.07.07.19.09.28.03.36-.2.74-.35,1.14-.45v-.72c0-.12.08-.21.2-.23.49-.08.98-.08,1.47,0,.11.02.2.12.2.23v.72c.4.09.78.24,1.14.45.09.05.2.04.28-.03l.38-.38c.08-.08.21-.09.3-.02.39.29.74.64,1.03,1.03.07.09.06.22-.03.3l-.38.38c-.07.07-.09.19-.03.28.15.25.26.52.35.8.05.15.17.28.32.32h.48c.12,0,.21.08.23.2.08.49.08.99,0,1.49M10.22,9.76c-1.06.17-1.78,1.16-1.61,2.22.17,1.06,1.16,1.78,2.22,1.61.83-.13,1.47-.78,1.61-1.61.16-1.06-.56-2.05-1.62-2.22-.2-.03-.4-.03-.59,0"/>
    </g>
  </g>
</svg>
