<?xml version="1.0" encoding="UTF-8"?>
<svg id="Capa_1" xmlns="http://www.w3.org/2000/svg" xmlns:xlink="http://www.w3.org/1999/xlink" viewBox="0 0 30 30">
  <defs>
    <style>
      .cls-1 {
        fill: currentColor;
      }

      .cls-2 {
        fill: currentColor;
      }

      .cls-3 {
        clip-path: url(#clippath);
      }
    </style>
    <clipPath id="clippath">
      <rect class="cls-1" x="4.54" y="2.5" width="20.93" height="24.99"/>
    </clipPath>
  </defs>
  <g class="cls-3">
    <g id="Grupo_35560">
      <path id="Trazado_19447" class="cls-2" d="M9.72,16.65l3.22,5.98.12-.03c.1-1.28.26-2.56.29-3.84-.06-.5-.21-.99-.43-1.45-.27-.91.25-1.86,1.15-2.13.12-.03.24-.06.36-.07.39-.02.79-.02,1.18,0,.92.07,1.62.88,1.54,1.8,0,.12-.03.25-.07.37-.38.94-.49,1.97-.33,2.97.11.77.13,1.56.32,2.39l3.2-5.95c1.37.52,2.54,1.46,3.34,2.68,1.17,1.79,1.8,3.87,1.84,6,.03.69,0,1.38,0,2.13H4.64c-.69-4.32,1.32-8.62,5.08-10.84"/>
      <path id="Trazado_19448" class="cls-2" d="M9.34,8.16c0-3.13,2.55-5.66,5.68-5.66,3.13,0,5.66,2.55,5.66,5.68,0,3.13-2.55,5.66-5.68,5.66,0,0-.02,0-.03,0-3.11,0-5.63-2.53-5.63-5.64,0-.01,0-.03,0-.04"/>
    </g>
  </g>
</svg>
