<?xml version="1.0" encoding="UTF-8"?>
<svg id="Capa_1" xmlns="http://www.w3.org/2000/svg" viewBox="0 0 30 30">
  <defs>
    <style>
      .cls-1 {
        fill: currentColor;
      }
    </style>
  </defs>
  <path id="Icon_awesome-user-cog" class="cls-1" d="M28.54,20.47c.12-.66.12-1.33,0-1.99l1.2-.69c.14-.08.2-.25.15-.4-.31-1-.84-1.91-1.55-2.67-.11-.12-.28-.14-.42-.06l-1.2.69c-.51-.43-1.09-.77-1.72-.99v-1.39c0-.16-.11-.3-.27-.33-1.02-.23-2.07-.23-3.09,0-.16.03-.27.17-.27.33v1.39c-.63.22-1.21.56-1.72.99l-1.2-.69c-.14-.08-.31-.05-.42.06-.71.76-1.24,1.68-1.55,2.67-.05.15.02.32.15.4l1.2.69c-.12.66-.12,1.33,0,1.99l-1.2.69c-.14.08-.2.24-.15.4.31.99.84,1.91,1.55,2.67.11.12.28.14.42.06l1.2-.69c.51.43,1.09.77,1.72.99v1.39c0,.16.11.3.27.33,1.02.23,2.07.23,3.09,0,.16-.03.27-.17.27-.33v-1.38c.63-.22,1.21-.56,1.72-.99l1.2.69c.14.08.31.05.42-.06.71-.76,1.24-1.68,1.55-2.67.05-.15-.02-.32-.15-.4l-1.2-.69h0ZM23.2,21.74c-1.25,0-2.26-1.01-2.26-2.26s1.01-2.26,2.26-2.26,2.26,1.01,2.26,2.26h0c0,1.25-1.01,2.26-2.26,2.26ZM10.53,15c3.3,0,5.97-2.67,5.97-5.97s-2.67-5.97-5.97-5.97-5.97,2.67-5.97,5.97,2.67,5.97,5.97,5.97ZM19.9,25.56c-.11-.06-.21-.12-.32-.18l-.37.21c-.74.43-1.68.29-2.26-.34-.86-.93-1.5-2.04-1.87-3.25-.26-.82.09-1.7.83-2.13l.37-.21c0-.12,0-.24,0-.36l-.37-.21c-.74-.43-1.09-1.31-.83-2.13.04-.14.1-.27.15-.41-.18-.01-.35-.06-.53-.06h-.78c-2.16.99-4.64.99-6.8,0h-.78c-3.46,0-6.26,2.81-6.27,6.27v1.94c0,1.24,1,2.24,2.24,2.24h16.41c.45,0,.9-.14,1.27-.4-.06-.18-.09-.36-.1-.55v-.43Z"/>
</svg>