<?xml version="1.0" encoding="UTF-8"?>
<svg id="Capa_1" xmlns="http://www.w3.org/2000/svg" xmlns:xlink="http://www.w3.org/1999/xlink" viewBox="0 0 30 30">
  <defs>
    <style>
      .cls-1 {
        fill: currentColor;
      }

      .cls-2 {
        fill: currentColor;
      }

      .cls-3 {
        clip-path: url(#clippath);
      }
    </style>
    <clipPath id="clippath">
      <rect class="cls-1" x="7.05" y="3.61" width="15.9" height="22.77"/>
    </clipPath>
  </defs>
  <g class="cls-3">
    <g id="Grupo_35729">
      <path id="Trazado_19649" class="cls-2" d="M21.4,14.7c-1.55-1.15-3.35-1.93-5.25-2.26v-3.88c.55-.02,1.09.21,1.46.61.37.49.57,1.1.57,1.72h4.49c.02-1.56-.63-3.05-1.78-4.1-1.33-1.05-2.99-1.6-4.68-1.55v-1.62h-2.05v1.65c-1.79-.06-3.55.5-4.99,1.57-1.21.95-1.9,2.43-1.85,3.97-.05,1.36.52,2.67,1.55,3.56,1.49,1.09,3.22,1.82,5.04,2.11v4.23c-.6.02-1.17-.23-1.55-.68-.39-.63-.59-1.36-.57-2.1h-4.72c-.07,1.7.59,3.35,1.83,4.52,1.44,1.18,3.24,1.8,5.1,1.76v2.18h1.96v-2.15c1.88.01,3.72-.56,5.26-1.65,1.2-1.04,1.85-2.58,1.75-4.16.06-1.41-.5-2.78-1.55-3.72M14.28,11.99c-.65-.12-1.26-.37-1.81-.73-.33-.25-.53-.64-.52-1.06-.03-.49.17-.97.56-1.28.5-.32,1.08-.47,1.67-.42h.1v3.49ZM17.67,20.27c-.56.33-1.21.48-1.87.44v-3.76c.7.15,1.37.44,1.96.84.66.59.72,1.61.13,2.27-.07.08-.14.15-.23.21"/>
    </g>
  </g>
</svg>
