<?xml version="1.0" encoding="UTF-8"?>
<svg id="Capa_1" xmlns="http://www.w3.org/2000/svg" xmlns:xlink="http://www.w3.org/1999/xlink" viewBox="0 0 30 30">
  <defs>
    <style>
      .cls-1 {
        fill: currentColor;
      }

      .cls-2 {
        fill: currentColor;
      }

      .cls-3 {
        clip-path: url(#clippath);
      }
    </style>
    <clipPath id="clippath">
      <rect class="cls-1" x="2.29" y="2.5" width="25.43" height="25"/>
    </clipPath>
  </defs>
  <g class="cls-3">
    <g id="Grupo_35648">
      <path id="Trazado_19577" class="cls-2" d="M7.38,26.49c4.58,1.75,7.21.88,7.21,0s-.78-1.17-.78-2.24c-.13-1.37.88-2.59,2.26-2.72.03,0,.06,0,.08,0,1.38.09,2.43,1.27,2.34,2.65,0,.03,0,.05,0,.08,0,1.07-.78,1.36-.78,2.24s4.63,1.23,9.21-.52c.37-.16.66-.48.79-.86-.4-4.3-.96-6.07-1.84-6.07s-1.17.78-2.24.78c-1.37.13-2.59-.88-2.72-2.26,0-.03,0-.06,0-.08.08-1.38,1.27-2.43,2.65-2.35.03,0,.06,0,.08,0,1.07,0,1.36.78,2.24.78s1.97-3.19.97-8.02c-.14-.38-.56-.57-.94-.43,0,0-.01,0-.02,0-4.58,1.75-7.21.88-7.21,0s.78-1.17.78-2.24c.13-1.37-.88-2.59-2.25-2.72-.03,0-.05,0-.08,0-1.38.08-2.43,1.26-2.35,2.64,0,.03,0,.06,0,.09,0,1.07.78,1.36.78,2.24s-2.63,1.75-7.21,0c-.83-.37-1.37-.19-1.1.58,1.76,4.58.88,7.21,0,7.21s-1.17-.78-2.24-.78c-1.37-.13-2.59.89-2.72,2.26,0,.03,0,.05,0,.08.08,1.38,1.27,2.43,2.65,2.35.03,0,.06,0,.08,0,1.07,0,1.36-.78,2.24-.78s1.76,2.63,0,7.21c-.22.22-.22.58,0,.8.04.04.08.07.13.1"/>
    </g>
  </g>
</svg>
