<?xml version="1.0" encoding="UTF-8"?>
<svg id="Capa_1" xmlns="http://www.w3.org/2000/svg" viewBox="0 0 30 30">
  <defs>
    <style>
      .cls-1 {
        fill: currentColor;
      }
    </style>
  </defs>
  <path id="Trazado_19498" class="cls-1" d="M22.13,15.49c-.58-.85-1.52-1.37-2.55-1.41v-7.34c.49,0,.95-.19,1.29-.55.35-.34.55-.8.55-1.29,0-.49-.19-.95-.55-1.29-.34-.35-.8-.55-1.29-.55h-9.18c-.49,0-.95.19-1.29.55-.35.34-.55.8-.55,1.29,0,.49.19.95.55,1.29.34.35.8.55,1.29.55v7.34c-1.02.04-1.97.56-2.55,1.41-.73.9-1.13,2.02-1.13,3.18,0,.5.41.91.92.92h5.79l1.09,6.96c.02.23.22.41.46.39,0,0,0,0,0,0h.01c.11,0,.22-.04.29-.12.08-.08.13-.18.15-.29l.73-6.93h6.15c.5,0,.91-.41.92-.92,0-1.16-.39-2.28-1.13-3.18ZM13.62,13.62c0,.25-.2.46-.46.46-.25,0-.46-.2-.46-.46h0v-6.43c0-.25.2-.46.46-.46s.46.2.46.46h0v6.43Z"/>
</svg>