<?xml version="1.0" encoding="UTF-8"?>
<svg id="Capa_1" xmlns="http://www.w3.org/2000/svg" xmlns:xlink="http://www.w3.org/1999/xlink" viewBox="0 0 30 30">
  <defs>
    <style>
      .cls-1 {
        fill: currentColor;
      }

      .cls-2 {
        fill: currentColor;
      }

      .cls-3 {
        clip-path: url(#clippath);
      }
    </style>
    <clipPath id="clippath">
      <rect class="cls-1" x="6.44" y="3.84" width="17.12" height="22.32"/>
    </clipPath>
  </defs>
  <g class="cls-3">
    <g id="Grupo_35711">
      <path id="Trazado_19628" class="cls-2" d="M13.81,19.89l-3.46-1.95c-.36-.2-.55-.61-.46-1.02.16-.44-.07-.93-.52-1.09,0,0-.02,0-.03,0-.55-.22-1.18-.09-1.59.33-.34.35-.47.84-.36,1.32-.33.11-.61.33-.78.63-.19.34-.21.75-.07,1.11.47,1.33,1.2,1.03,1.66.64.3-.26.73-.31,1.08-.12l2.41,1.35,2.12-1.2ZM23.4,18.1c-.18-.3-.46-.52-.78-.63.11-.47-.03-.97-.36-1.32-.42-.42-1.04-.55-1.59-.33-.42.13-.67.56-.57.98.06.51-.2,1.01-.66,1.26l-7.03,3.95c-.45.25-1.01.22-1.43-.09-.47-.34-1.12-.5-1.56.74-.14.36-.11.77.08,1.11.18.3.46.52.79.63-.11.47.03.97.37,1.32.42.42,1.05.55,1.6.33.43-.13.68-.57.57-1-.06-.52.2-1.02.66-1.26l1.52-.85,1.74.98c.36.2.55.61.46,1.02-.16.45.07.94.51,1.1.01,0,.02,0,.04.01.55.22,1.18.09,1.6-.33.34-.35.47-.85.36-1.32.33-.11.61-.33.79-.63.19-.34.22-.75.08-1.11-.48-1.36-1.22-1.04-1.69-.64-.3.26-.73.3-1.08.11l-.68-.38,3.39-1.91c.45-.24,1.01-.2,1.42.11.46.33,1.1.46,1.53-.75.14-.36.11-.77-.07-1.11"/>
      <path id="Trazado_19629" class="cls-2" d="M15,3.84c-4.56,0-6.7,1.61-6.7,6.32v.86c-.04,1.1.82,2.01,1.92,2.05h2.08c.32.05.54.36.49.68-.04.25-.24.44-.49.49-.3.03-.52.29-.49.58v.58c-.05.59.39,1.11.98,1.17h4.44c.59-.06,1.03-.57.98-1.17v-.58c.02-.3-.2-.56-.49-.58-.32-.05-.54-.36-.49-.68.04-.25.24-.44.49-.49h2.07c1.1-.04,1.95-.96,1.92-2.05v-.86c0-4.71-2.13-6.32-6.7-6.32M11.79,11.33c-.97,0-1.75-.78-1.75-1.75s.78-1.75,1.75-1.75,1.75.78,1.75,1.75-.78,1.75-1.75,1.75h0M15,13.08c-.64,0-1.17.62-1.17-.18-.07-.72.45-1.37,1.17-1.46.72.09,1.24.73,1.17,1.45,0,.8-.52.18-1.17.18M18.21,11.33c-.97,0-1.75-.78-1.75-1.75s.78-1.75,1.75-1.75,1.75.78,1.75,1.75c0,0,0,0,0,0,0,.97-.78,1.75-1.75,1.75"/>
    </g>
  </g>
</svg>
