<?xml version="1.0" encoding="UTF-8"?>
<svg id="Capa_1" xmlns="http://www.w3.org/2000/svg" viewBox="0 0 30 30">
  <defs>
    <style>
      .cls-1 {
        fill: currentColor;
      }
    </style>
  </defs>
  <path id="Icon_awesome-notes-medical" class="cls-1" d="M22.03,5.63h-3.9c0-1.73-1.4-3.12-3.12-3.12s-3.12,1.4-3.12,3.12h-3.9c-1.29,0-2.34,1.05-2.34,2.34v17.18c0,1.29,1.05,2.34,2.34,2.34h14.06c1.29,0,2.34-1.05,2.34-2.34V7.97c0-1.29-1.05-2.34-2.34-2.34ZM15,4.46c.65,0,1.17.53,1.17,1.17,0,.65-.53,1.17-1.17,1.17-.65,0-1.17-.53-1.17-1.17,0-.65.52-1.17,1.17-1.17,0,0,0,0,0,0ZM19.69,19.3c0,.22-.18.39-.39.39h-2.73v2.73c0,.22-.18.39-.39.39h-2.35c-.22,0-.39-.18-.39-.39v-2.74h-2.73c-.22,0-.39-.18-.39-.39v-2.34c0-.22.18-.39.39-.39h2.73v-2.73c0-.22.18-.39.39-.39h2.34c.22,0,.39.18.39.39v2.73h2.73c.22,0,.39.18.39.39v2.35ZM19.69,9.93c0,.22-.18.39-.39.39h-8.59c-.22,0-.39-.18-.39-.39v-.78c0-.22.18-.39.39-.39h8.59c.22,0,.39.18.39.39v.78Z"/>
</svg>