<?xml version="1.0" encoding="UTF-8"?>
<svg id="Capa_1" xmlns="http://www.w3.org/2000/svg" xmlns:xlink="http://www.w3.org/1999/xlink" viewBox="0 0 30 30">
  <defs>
    <style>
      .cls-1 {
        fill: currentColor;
      }

      .cls-2 {
        fill: currentColor;
      }

      .cls-3 {
        clip-path: url(#clippath);
      }
    </style>
    <clipPath id="clippath">
      <rect class="cls-1" x="1.3" y="5.89" width="27.39" height="18.22"/>
    </clipPath>
  </defs>
  <g class="cls-3">
    <g id="Grupo_35722">
      <path id="Trazado_19636" class="cls-2" d="M19.4,12.63c0,4.74-4.4,10.42-4.4,10.42,0,0-4.4-5.68-4.4-10.42s1.95-6.74,4.4-6.74,4.4,2,4.4,6.74"/>
      <path id="Trazado_19637" class="cls-2" d="M24.82,23.6c-3.43,1.3-8.74-.32-8.74-.32,0,0,2.9-4.74,6.33-6.04,3.43-1.3,5.41-.44,6.08,1.33s-.24,3.73-3.67,5.03"/>
      <path id="Trazado_19638" class="cls-2" d="M5.18,23.6c3.43,1.3,8.74-.32,8.74-.32,0,0-2.9-4.74-6.33-6.04-3.43-1.3-5.41-.44-6.08,1.33-.67,1.77.24,3.73,3.67,5.03"/>
    </g>
  </g>
</svg>
