<?xml version="1.0" encoding="UTF-8"?>
<svg id="Capa_1" xmlns="http://www.w3.org/2000/svg" xmlns:xlink="http://www.w3.org/1999/xlink" viewBox="0 0 30 30">
  <defs>
    <style>
      .cls-1 {
        fill: currentColor;
      }

      .cls-2 {
        fill: currentColor;
      }

      .cls-3 {
        clip-path: url(#clippath);
      }
    </style>
    <clipPath id="clippath">
      <rect class="cls-1" x="1.09" y="2.5" width="27.82" height="25"/>
    </clipPath>
  </defs>
  <g class="cls-3">
    <g id="Grupo_35639">
      <path id="Trazado_19565" class="cls-2" d="M10.42,6.91h.67c.33,0,.6-.15.6-.32v-1.82c0-.22.18-.4.4-.4h5.82c.22,0,.4.18.4.4h0v1.84c0,.16.28.3.6.3h.67c.32,0,.6-.14.6-.3v-1.84c0-1.25-1.01-2.27-2.26-2.27h-5.82c-1.25,0-2.27,1.02-2.27,2.27v1.79c0,.19.28.36.6.36"/>
      <path id="Trazado_19566" class="cls-2" d="M14.08,19.8h1.84c.33,0,.6-.27.6-.6v-.69c0-.33-.27-.6-.6-.6h-1.84c-.33,0-.6.27-.6.6v.69c0,.33.27.6.6.6"/>
      <path id="Rectángulo_18915" class="cls-2" d="M14.53,20.85h.93c.58,0,1.06.47,1.06,1.06h0c0,.58-.47,1.06-1.05,1.06,0,0,0,0,0,0h-.93c-.58,0-1.06-.47-1.06-1.06h0c0-.58.47-1.06,1.06-1.06Z"/>
      <path id="Trazado_19567" class="cls-2" d="M27.35,18.73c-.16.06-.31.11-.44.16-3.05,1.04-6.23,1.66-9.44,1.84v1.17c0,1.03-.83,1.86-1.86,1.86h-1.23c-1.03,0-1.86-.83-1.86-1.86v-1.17c-3.46-.2-6.87-.9-10.12-2.09-.09-.03-.25-.09-.65-.25l-.05-.02-.07-.03v7.63c0,.84.68,1.52,1.52,1.52h23.68c.84,0,1.52-.68,1.52-1.52v-7.64l-.34.14-.67.25Z"/>
      <path id="Trazado_19568" class="cls-2" d="M27.44,8.06H2.57c-.82,0-1.48.66-1.48,1.48v6.6c.02.19.13.36.3.46,0,0,.27.12.71.29,3.34,1.29,6.86,2.06,10.44,2.28v-1.11c0-.74,1.11-1.24,1.86-1.24h1.23c.87,0,1.86.57,1.84,1.43v.92c3.11-.19,6.17-.79,9.12-1.78.9-.31,2.03-.79,2.04-.8.16-.09.28-.26.3-.45v-6.6c0-.82-.66-1.48-1.48-1.48"/>
    </g>
  </g>
</svg>
