<?xml version="1.0" encoding="UTF-8"?>
<svg id="Capa_1" xmlns="http://www.w3.org/2000/svg" xmlns:xlink="http://www.w3.org/1999/xlink" viewBox="0 0 30 30">
  <defs>
    <style>
      .cls-1 {
        fill: currentColor;
      }

      .cls-2 {
        fill: currentColor;
      }

      .cls-3 {
        clip-path: url(#clippath);
      }
    </style>
    <clipPath id="clippath">
      <rect class="cls-1" x="8.07" y="2.5" width="13.85" height="25"/>
    </clipPath>
  </defs>
  <g class="cls-3">
    <g id="Grupo_35674">
      <path id="Trazado_19604" class="cls-2" d="M20.47,4.89c-1.48-1.66-3.65-2.54-5.87-2.39-2.04-.05-4,.82-5.33,2.39-.12.15-.24.3-.34.46-.69,1.19-.97,2.57-.82,3.94.05.72.67,1.25,1.39,1.2.16-.01.32-.05.47-.13l.58-.24c.12-.05.24-.11.35-.18.66-.34,1.08-1.02,1.08-1.76l.21-.31.15-.22c.53-.69,1.37-1.08,2.25-1.02,2.15,0,3.2.83,3.2,2.53,0,.95-.57,1.95-2.11,3.69-.86.92-1.59,1.94-2.18,3.05-.61,1.23-.93,2.58-.94,3.95v.27c0,.3.77.54,1.74.54h.63c.3,0,.6-.02.9-.07.51-.08.86-.24.86-.41v-.24c.04-1.75.68-2.76,2.09-4.35,1.52-1.72,3.15-3.78,3.15-6.43.02-1.55-.5-3.06-1.46-4.27"/>
      <path id="Trazado_19605" class="cls-2" d="M16.67,25.27c-.12-.86-.9-1.47-1.76-1.38h-.63c-.72-.04-1.39.38-1.67,1.04-.05.13-.07.26-.07.4v.62s.01.57.01.57c0,.55.79.99,1.75.99h.63c.3,0,.59-.05.87-.14.52-.18.88-.51.88-.89v-.57s-.01-.64-.01-.64Z"/>
    </g>
  </g>
</svg>
