<?xml version="1.0" encoding="UTF-8"?>
<svg id="Capa_1" data-name="Capa 1" xmlns="http://www.w3.org/2000/svg" viewBox="0 0 100 100">
  <defs>
    <style>
      .cls-1 {
        fill: currentColor;
      }
    </style>
  </defs>
  <g id="Grupo_31539" data-name="Grupo 31539">
    <path id="Trazado_18533" data-name="Trazado 18533" class="cls-1" d="M50.95,0c2.02.2,4.04.31,6.04.61,6.13.65,12.04,2.6,17.35,5.73,7.28,4.39,12.12,11.91,13.11,20.35,1.13,7.54-1.03,15.19-5.94,21.02-3.41,3.64-7.27,6.83-11.48,9.5-2.02,1.48-4.05,2.96-5.99,4.55-3.04,2.7-4.71,6.62-4.55,10.68-.03.85-.26,1.09-1.1,1.09-5.56.03-11.13.09-16.69.19-.69.01-.98-.19-1.03-.89-.58-8.37,1.46-15.67,8.5-20.97,3.03-2.28,6.11-4.53,8.93-7.06,3.77-3.09,5.9-7.75,5.79-12.62.16-4.97-2.99-9.46-7.72-11-5.89-2.49-12.68-1.36-17.45,2.89-2.42,2.15-3.92,5.14-4.19,8.36-.16,1.27-.27,2.56-.38,3.84-.05.65-.22,1.04-1.01,1.05-6.48.06-12.96.16-19.44.28-.98.02-1.26-.34-1.24-1.23-.03-.46-.11-.92-.22-1.37v-1.83c.17-2.06.22-4.13.54-6.17,1.12-7.79,5.28-14.82,11.56-19.56C30.02,3.19,36.85.72,43.95.38c1.92-.15,3.86-.25,5.78-.38h1.22Z"/>
    <rect id="Rectángulo_16750" data-name="Rectángulo 16750" class="cls-1" x="41.14" y="81.36" width="18.64" height="18.64"/>
  </g>
</svg>