<?xml version="1.0" encoding="UTF-8"?>
<svg id="Capa_1" xmlns="http://www.w3.org/2000/svg" viewBox="0 0 30 30">
  <defs>
    <style>
      .cls-1 {
        fill: currentColor;
      }
    </style>
  </defs>
  <path id="Trazado_19768" class="cls-1" d="M20.44,27.48c-.04-.75.23-1.48.75-2.02,1-1.03,1.98-2.1,3.06-3.04,1.04-.83,1.6-2.12,1.5-3.45-.05-1.17.1-2.35.15-3.52.02-.58-.68-1.34-1.25-1.26-.29.09-.52.31-.62.59-.29,1.12-.52,2.25-.73,3.39-.08.62-.38,1.2-.83,1.64-.49.46-.9.99-1.39,1.45-.17.16-.58.34-.68.26-.36-.28,0-.53.17-.74.51-.6,1.06-1.17,1.57-1.77.29-.34.63-.73.19-1.17s-.85-.17-1.23.14c-.79.67-1.56,1.36-2.38,1.99-.61.48-1.02,1.17-1.15,1.94-.33,1.57-.64,3.13-.94,4.71-.17.87-.15.87-1.01.88-.51,0-1.02-.02-1.52,0-.44.03-.58-.14-.66-.57-.33-1.79-.68-3.58-1.11-5.35-.15-.54-.45-1.03-.86-1.41-.85-.81-1.78-1.53-2.68-2.29-.34-.29-.73-.42-1.09-.08-.39.36-.2.76.08,1.08.57.66,1.17,1.29,1.73,1.96.13.16.1.45.14.68-.22-.07-.51-.07-.66-.21-.62-.61-1.22-1.25-1.79-1.9-.18-.22-.3-.48-.35-.75-.26-1.19-.5-2.38-.74-3.57-.09-.44-.17-.93-.77-.91-.47.01-1.22.75-1.2,1.16.08,1.72.15,3.44.27,5.16.04.32.18.62.4.85,1.15,1.2,2.34,2.36,3.52,3.53.77.63,1.23,1.55,1.27,2.54-.18.04-.37.06-.55.07-1.62,0-3.25.01-4.87,0-.79.11-1.51-.44-1.62-1.22-.02-.13-.02-.26,0-.38,0-7.26,0-14.52,0-21.78-.09-.77.46-1.47,1.23-1.56.1-.01.2-.01.31,0,1.38-.02,2.76-.01,4.14-.01h17.46c1.35,0,1.84.48,1.84,1.82,0,7.1,0,14.2,0,21.3,0,1.39-.46,1.85-1.87,1.85-1.7,0-3.4,0-5.18,0M14.96,17.32c3.57.02,6.48-2.85,6.5-6.42s-2.85-6.48-6.42-6.5c-3.52-.02-6.41,2.78-6.5,6.3-.1,3.56,2.71,6.52,6.27,6.62.05,0,.1,0,.15,0"/>
  <path id="Trazado_19769" class="cls-1" d="M16.42,7.8v.73c0,.92.02.93.97.94.61,0,1.22.02,1.82,0,.36,0,.52.14.51.5-.01.61-.01,1.22,0,1.82,0,.38-.18.49-.52.49-.71-.01-1.42,0-2.13,0-.46,0-.67.18-.65.65.02.71-.01,1.42,0,2.13.01.39-.14.55-.53.54-.53-.02-1.05-.02-1.58.01-.52.03-.74-.13-.71-.68s.01-1.09,0-1.64c0-.97-.04-1.01-1.04-1-.59,0-1.18,0-1.76,0-.39,0-.55-.15-.53-.54.02-.59.02-1.17,0-1.76,0-.37.16-.51.52-.51.67,0,1.33,0,2,0,.74,0,.81-.08.81-.79,0-.65.02-1.3,0-1.94-.01-.4.11-.6.55-.58.59.02,1.17.02,1.76,0,.36,0,.52.13.51.5-.02.38,0,.77,0,1.15h0Z"/>
</svg>