<?xml version="1.0" encoding="UTF-8"?>
<svg id="Capa_1" data-name="Capa 1" xmlns="http://www.w3.org/2000/svg" viewBox="0 0 100 100">
  <defs>
    <style>
      .cls-1 {
        fill: currentColor;
      }
    </style>
  </defs>
  <path id="Trazado_19652" data-name="Trazado 19652" class="cls-1" d="M51.77.03l2.48,13.71c2.43.61,4.78,1.46,7.04,2.55.67.44,1.39.81,2.13,1.1l11.3-7.89,8.04,8.07-7.96,11.41c1.66,2.83,2.93,5.88,3.75,9.06l13.69,2.25v5.86h-30.77c0-8.48-6.87-15.35-15.35-15.35-8.48,0-15.35,6.87-15.35,15.35,0,8.48,6.87,15.35,15.35,15.35h0v30.77h-5.86l-2.31-13.55c-3.2-.84-6.27-2.11-9.13-3.78l-11.29,7.85-8.07-8.04,7.86-11.45c-1.69-2.83-2.97-5.89-3.79-9.08l-13.54-2.42v-11.51l13.59-2.25c.61-2.36,1.45-4.66,2.51-6.85.49-.77.91-1.59,1.25-2.44l-7.85-11.19,8.04-8.07,11.19,7.89c.85-.34,1.67-.75,2.44-1.25,2.19-1.07,4.48-1.91,6.85-2.51L40.26.03h11.51Z"/>
  <path id="Trazado_19653" data-name="Trazado 19653" class="cls-1" d="M53.8,99.96v-42.58c.24-1.98,1.89-3.49,3.89-3.56h38.47c1.94.05,3.55,1.53,3.78,3.46-.11,14.15.11,28.31.06,42.46,0,.13,0,.15-.12.23l-46.07-.02ZM92.26,65.44h-30.77l.17,26.84h30.62l-.02-26.84Z"/>
  <path id="Trazado_19654" data-name="Trazado 19654" class="cls-1" d="M79.27,79.24c1.48-.25,2.88.75,3.12,2.23.15.89-.16,1.81-.82,2.43-1.54,1.68-3.46,3.52-5.13,5.13-1.28,1.24-2.57,2.9-4.61,1.89-1.51-1.26-2.93-2.64-4.23-4.12-.86-1.24-.56-2.95.68-3.81.72-.5,1.63-.63,2.45-.34.95.32,1.57,1.33,2.31,1.97l4.74-4.73c.44-.33.95-.55,1.49-.65"/>
  <path id="Trazado_19655" data-name="Trazado 19655" class="cls-1" d="M79.15,67.73c1.46-.3,2.88.63,3.18,2.09.16.76-.02,1.55-.49,2.17-1.87,2.44-5.2,4.79-7.24,7.2-.84.58-1.93.64-2.82.15-1.58-1.27-3.02-2.7-4.3-4.27-.77-1.3-.34-2.97.96-3.74.73-.43,1.61-.5,2.4-.19.93.35,1.49,1.33,2.31,1.85l4.75-4.73c.38-.27.81-.45,1.27-.53"/>
</svg>