<?xml version="1.0" encoding="UTF-8"?>
<svg id="Capa_1" xmlns="http://www.w3.org/2000/svg" xmlns:xlink="http://www.w3.org/1999/xlink" viewBox="0 0 30 30">
  <defs>
    <style>
      .cls-1 {
        fill: currentColor;
      }

      .cls-2 {
        fill: currentColor;
      }

      .cls-3 {
        clip-path: url(#clippath);
      }
    </style>
    <clipPath id="clippath">
      <rect class="cls-1" x="3.62" y="3.61" width="22.77" height="22.77"/>
    </clipPath>
  </defs>
  <g class="cls-3">
    <g id="Grupo_35733">
      <path id="Trazado_19652" class="cls-2" d="M23.98,8.01c-.58-.74-1.25-1.41-1.99-1.99-1.99-1.56-4.46-2.41-6.99-2.4-6.28,0-11.38,5.1-11.39,11.39,0,2.54.84,5,2.4,7,.58.74,1.25,1.41,1.99,1.99,2,1.57,4.46,2.41,7,2.4,6.29,0,11.38-5.1,11.39-11.39,0-2.54-.84-5-2.41-6.99M15,22.66c-1.39,0-2.75-.38-3.94-1.09l10.51-10.51c2.18,3.63,1,8.34-2.64,10.51-1.19.71-2.55,1.09-3.94,1.09M15,7.34c1.39,0,2.75.38,3.94,1.09l-10.51,10.51c-2.18-3.63-1-8.33,2.63-10.51,1.19-.72,2.56-1.09,3.95-1.09"/>
    </g>
  </g>
</svg>
