<?xml version="1.0" encoding="UTF-8"?>
<svg id="Capa_1" xmlns="http://www.w3.org/2000/svg" xmlns:xlink="http://www.w3.org/1999/xlink" viewBox="0 0 30 30">
  <defs>
    <style>
      .cls-1 {
        fill: currentColor;
      }

      .cls-2 {
        fill: currentColor;
      }

      .cls-3 {
        clip-path: url(#clippath);
      }
    </style>
    <clipPath id="clippath">
      <rect class="cls-1" x="5.19" y="3.84" width="19.62" height="22.32"/>
    </clipPath>
  </defs>
  <g class="cls-3">
    <g id="Grupo_35699">
      <path id="Trazado_19618" class="cls-2" d="M24.19,21.67l-1.24-2.19c-1.14-1.94-2.99-5.19-4.14-7.12l-.88-1.58v-3.08c1.07,0,1.93-.86,1.94-1.93,0-1.07-.87-1.93-1.94-1.93h-5.98c-1.04.02-1.86.87-1.84,1.91,0,0,0,.02,0,.03-.03,1.04.79,1.9,1.82,1.93,0,0,.01,0,.02,0v3.08l-.88,1.58c-1.15,1.93-2.9,5.18-4.05,7.12l-1.32,2.19c-.34.59-.52,1.26-.53,1.93-.03.36.03.72.18,1.05.24.48.65.85,1.14,1.05.54.28,1.15.44,1.76.45h13.38c.82,0,1.61-.24,2.28-.7.26-.22.47-.49.62-.8.17-.32.26-.68.27-1.05-.04-.69-.26-1.35-.62-1.93M11.88,20.71h0c.57.04,1.01.49,1.05,1.06,0,.58-.47,1.05-1.05,1.06-.56.02-1.04-.42-1.06-.98,0-.03,0-.05,0-.08,0-.58.48-1.05,1.06-1.06M11.17,18.95h0c.01-.63.52-1.13,1.15-1.14.6.02,1.07.52,1.05,1.13,0,0,0,.01,0,.02-.01.58-.48,1.04-1.05,1.05-.6,0-1.1-.46-1.15-1.05M13.55,20.54h0c.02-.55.47-.98,1.03-.97.01,0,.02,0,.03,0,.55,0,1.01.42,1.05.97-.01.58-.48,1.04-1.05,1.05-.56.02-1.04-.42-1.06-.98,0-.02,0-.05,0-.07M12.14,12.97h0l1.06-1.84v-4.65h-1.23c-.36-.03-.63-.34-.61-.7-.05-.34.19-.66.54-.7.02,0,.05,0,.07,0h5.98c.38,0,.7.3.71.68,0,0,0,.02,0,.02-.03.38-.33.68-.71.7h-1.23v4.65l1.06,1.84c.53.97,1.23,2.2,1.93,3.43h-9.51c.71-1.23,1.41-2.45,1.93-3.43"/>
    </g>
  </g>
</svg>
