<?xml version="1.0" encoding="UTF-8"?>
<svg id="Capa_1" xmlns="http://www.w3.org/2000/svg" xmlns:xlink="http://www.w3.org/1999/xlink" viewBox="0 0 30 30">
  <defs>
    <style>
      .cls-1 {
        fill: currentColor;
      }

      .cls-2 {
        fill: currentColor;
      }

      .cls-3 {
        clip-path: url(#clippath);
      }
    </style>
    <clipPath id="clippath">
      <rect class="cls-1" x="2.51" y="2.51" width="24.99" height="24.99"/>
    </clipPath>
  </defs>
  <g class="cls-3">
    <g id="Grupo_35825">
      <path id="Trazado_19743" class="cls-2" d="M6.9,2.51h16.21s.04.02.07.02c.88.05,1.72.37,2.41.9,1.19.86,1.9,2.24,1.9,3.71.02.95,0,1.9,0,2.84,0,2.35,0,4.71,0,7.06,0,1.46,0,2.91,0,4.36,0,.65,0,1.3-.04,1.94-.07.81-.37,1.59-.87,2.24-.62.85-1.51,1.47-2.53,1.75-.56.14-1.14.2-1.72.17H7.88c-.45.01-.9,0-1.35-.05-1-.13-1.94-.59-2.65-1.32-.61-.6-1.04-1.36-1.24-2.19-.06-.27-.1-.55-.14-.83V6.91s.02-.08.02-.12c.07-.87.38-1.7.91-2.4.62-.85,1.53-1.46,2.55-1.72.3-.08.61-.11.91-.16M15.96,12.12h5.75c.53,0,.96-.42.97-.95,0-.53-.42-.96-.95-.97-.02,0-.05,0-.07,0h-5.7v-1.93h1.3c.85,0,1.7,0,2.55,0,.39.01.74-.23.87-.6.16-.35.08-.75-.19-1.02-.21-.22-.51-.33-.82-.3h-3.72v-.17c0-.29,0-.57,0-.86-.04-.52-.49-.92-1.02-.89-.36.02-.68.25-.81.59-.05.14-.08.28-.08.42-.01.3,0,.6,0,.91h-3.71c-.08,0-.15,0-.22,0-.53.05-.91.51-.87,1.04.04.46.41.83.87.87.18.02.37.01.55.01h3.37v1.93h-5.7c-.08,0-.17,0-.25.02-.52.11-.85.62-.75,1.13.09.45.49.77.95.76h5.74v1.92h-7.64c-.53-.02-.98.4-.99.93-.02.53.4.98.93.99.03,0,.06,0,.09,0h7.62v2.85c-.4-.08-.79-.15-1.18-.24-.38-.06-.74-.2-1.07-.4-.13-.08-.27-.14-.41-.17-1.1-.34-2.28.16-2.81,1.18-.48.78-.35,1.8.31,2.43.37.37.78.7,1.22.97.67.42,1.32.89,1.93,1.41.53.47,1.11.88,1.72,1.23.71.43,1.6.47,2.34.09.74-.37,1.44-.82,2.09-1.35.55-.43,1.09-.87,1.65-1.29.48-.33.93-.71,1.35-1.13.44-.43.64-1.04.53-1.65-.22-1.31-1.46-2.19-2.76-1.97-.35.06-.68.19-.98.4-.06.04-.13.07-.2.09-.32.08-.63.17-.95.24-.27.06-.55.1-.83.15v-2.83h7.76c.53-.04.93-.5.89-1.03-.04-.53-.5-.93-1.03-.89h-7.63v-1.92Z"/>
      <path id="Trazado_19744" class="cls-2" d="M11.48,19.26c.88.03,1.6.7,1.71,1.57.04.62-.37,1.18-.96,1.34-.93.23-1.87-.34-2.1-1.27,0-.01,0-.03,0-.04-.14-.73.33-1.43,1.06-1.58.1-.02.2-.03.3-.02"/>
      <path id="Trazado_19745" class="cls-2" d="M18.3,22.22c-.68.08-1.31-.37-1.46-1.04-.1-.56.12-1.12.57-1.46.38-.36.91-.51,1.42-.42.71.12,1.19.8,1.06,1.51-.02.12-.06.24-.11.35-.25.61-.83,1.02-1.49,1.06"/>
    </g>
  </g>
</svg>
