<?xml version="1.0" encoding="UTF-8"?>
<svg id="Capa_1" xmlns="http://www.w3.org/2000/svg" xmlns:xlink="http://www.w3.org/1999/xlink" viewBox="0 0 30 30">
  <defs>
    <style>
      .cls-1 {
        fill: currentColor;
      }

      .cls-2 {
        fill: currentColor;
      }

      .cls-3 {
        clip-path: url(#clippath);
      }
    </style>
    <clipPath id="clippath">
      <rect class="cls-1" x="2.5" y="2.5" width="25" height="25"/>
    </clipPath>
  </defs>
  <g class="cls-3">
    <g id="Grupo_35797">
      <path id="Trazado_19716" class="cls-2" d="M15,2.5c-6.91,0-12.51,5.61-12.5,12.52,0,.76.07,1.53.21,2.28.12.52.64.84,1.16.71.48-.11.8-.58.73-1.07-.12-.64-.18-1.29-.18-1.95,0-.98.14-1.95.41-2.89h3.62c-.12.96-.18,1.92-.18,2.89-.02.53.4.98.93.99.53.02.98-.4.99-.93,0-.02,0-.04,0-.06,0-.97.07-1.93.21-2.89h3.64v13.41c-.74-.06-1.47-.21-2.18-.43-.51-.16-1.05.13-1.2.63-.16.51.13,1.05.63,1.2,6.59,2.04,13.6-1.65,15.64-8.24,2.04-6.59-1.65-13.6-8.24-15.64-1.19-.37-2.44-.56-3.69-.56M8.77,10.19h-3.18c1.1-2.14,2.89-3.84,5.08-4.83-.91,1.49-1.56,3.12-1.9,4.83M14.04,10.19h-3.27c.65-2.65,1.8-4.85,3.27-5.54v5.54ZM24.41,10.19h-3.18c-.34-1.71-.99-3.35-1.9-4.83,2.19.99,3.98,2.69,5.08,4.83M15.96,4.65c1.47.69,2.62,2.89,3.27,5.54h-3.27v-5.54ZM15.96,12.12h3.64c.14.96.21,1.92.21,2.89,0,.97-.07,1.93-.21,2.89h-3.64v-5.77ZM15.96,25.35v-5.54h3.27c-.65,2.65-1.8,4.85-3.27,5.54M19.33,24.64c.91-1.49,1.56-3.12,1.9-4.83h3.18c-1.1,2.14-2.89,3.84-5.08,4.83M21.55,17.89c.12-.96.18-1.92.18-2.89,0-.96-.06-1.93-.18-2.89h3.62c.55,1.88.55,3.88,0,5.77h-3.62Z"/>
      <path id="Trazado_19717" class="cls-2" d="M11.29,17.16l-5.8,1.89c-.34.11-.52.47-.41.81.05.15.15.27.28.35l1.42.84-3.3,3.3c-.25.25-.25.65,0,.91,0,0,0,0,0,0l.49.49c.25.25.65.25.91,0,0,0,0,0,0,0l3.33-3.33.82,1.42c.18.31.57.41.88.23.14-.08.24-.21.29-.36l1.9-5.75c.11-.34-.07-.7-.41-.81-.13-.04-.27-.04-.4,0"/>
    </g>
  </g>
</svg>
