<?xml version="1.0" encoding="UTF-8"?>
<svg id="Capa_1" xmlns="http://www.w3.org/2000/svg" viewBox="0 0 100 100">
  <defs>
    <style>
      .cls-1 {
        fill: currentColor;
      }
    </style>
  </defs>
  <g id="Grupo_34544">
    <path id="Trazado_18666" class="cls-1" d="M100,49.97c.01,27.61-22.36,50.01-49.97,50.02C22.41,100.01.01,77.64,0,50.03-.01,22.41,22.36.01,49.97,0c0,0,.02,0,.02,0,27.6.02,49.96,22.38,50,49.97M50.06,5c-24.84-.03-45.01,20.08-45.04,44.92-.03,24.84,20.08,45.01,44.92,45.04,24.84.03,45.01-20.08,45.04-44.92,0,0,0,0,0,0-.04-24.81-20.11-44.94-44.93-45.04"/>
    <path id="Trazado_18667" class="cls-1" d="M77.98,20.01c-.6.5-1.05.83-1.44,1.21-.55.51-.58,1.37-.07,1.92,0,0,.02.02.03.03.55.52,1.41.51,1.94-.03.21-.18.41-.38.59-.59.18-.21.33-.44.64-.86l5,6.37c-.64.38-1.15.66-1.64.97-.67.34-.94,1.17-.6,1.84.01.03.03.06.05.08.38.63,1.2.84,1.84.46.02-.01.04-.02.05-.03.52-.28,1.02-.56,1.7-.95l3.12,7.3c-.73.21-1.31.36-1.88.54-.74.12-1.25.81-1.13,1.56.12.74.81,1.25,1.56,1.13.1-.02.2-.04.3-.08.56-.14,1.11-.28,1.82-.45l.94,5.58c-1.14,0-2.16-.03-3.18,0-1.85.04-3.42,1.34-3.8,3.15-.41,1.77.47,3.58,2.1,4.37.58.25,1.21.4,1.84.43.94.07,1.88.02,3.02.02l-.78,4.95c-.72-.18-1.33-.32-1.94-.47-.69-.3-1.49.03-1.79.72-.3.69.03,1.49.72,1.79.12.05.24.08.37.1.58.17,1.17.33,1.86.52-.73,2.57-1.73,5.05-3,7.4-.66-.37-1.25-.73-1.86-1.04-.61-.41-1.44-.24-1.85.37-.01.02-.03.04-.04.06-.39.65-.18,1.48.46,1.87.03.02.06.03.09.05.31.19.62.36.93.56l1.01.6-4.94,6.49c-.58-.63-1-1.13-1.47-1.6-.45-.6-1.31-.73-1.91-.28-.6.45-.73,1.31-.28,1.91.09.12.2.22.32.31.45.45.94.86,1.58,1.44l-6.46,5c-.46-.77-.81-1.39-1.19-2-.33-.67-1.13-.94-1.8-.62-.04.02-.08.04-.12.06-.63.37-.85,1.18-.48,1.82.01.02.02.04.04.06.34.64.71,1.25,1.17,2.06l-7.44,3.09c-.23-.83-.4-1.48-.59-2.13-.28-.97-.96-1.43-1.77-1.18-.76.23-1.08.95-.83,1.89.16.64.32,1.28.52,2.05l-5.22.86c0-1.16.03-2.18,0-3.2.06-2.19-1.67-4.02-3.86-4.09-.7-.02-1.39.14-2,.48-1.28.63-2.1,1.93-2.09,3.36-.03,1.11,0,2.21,0,3.46l-5.47-.91c.21-.82.39-1.48.56-2.14.24-.73-.16-1.51-.89-1.75-.02,0-.04-.01-.05-.02-.73-.18-1.48.26-1.66,1,0,0,0,.02,0,.03-.2.66-.37,1.33-.62,2.22l-7.4-3.11c.42-.74.76-1.33,1.09-1.93.43-.6.29-1.43-.31-1.86-.04-.03-.09-.06-.13-.08-.65-.37-1.48-.15-1.85.5-.02.03-.04.07-.05.1-.35.56-.67,1.13-1.05,1.77-.83-.58-1.63-1.08-2.37-1.67-1.31-1.02-2.59-2.09-4.17-3.38.59-.46,1.11-.79,1.53-1.21.62-.42.79-1.27.37-1.89-.42-.62-1.27-.79-1.89-.37-.13.09-.25.2-.34.34-.41.42-.75.89-1.29,1.54l-4.96-6.54c.71-.41,1.27-.71,1.8-1.05.67-.35.93-1.17.58-1.84-.02-.03-.04-.07-.06-.1-.4-.63-1.23-.82-1.86-.42-.01,0-.02.01-.03.02-.28.14-.53.3-.8.45l-.9.5c-.56-1.23-1.11-2.39-1.61-3.58s-.9-2.44-1.39-3.77c.61-.17,1.16-.31,1.71-.47.78-.12,1.31-.86,1.18-1.63,0-.02,0-.05-.01-.07-.21-.74-.98-1.16-1.72-.95-.04.01-.08.03-.13.04-.51.13-1.02.26-1.71.44l-.83-5.13c1.04,0,1.98.03,2.91,0,1.72,0,3.25-1.12,3.78-2.76.56-1.57.01-3.33-1.34-4.31-.75-.45-1.58-.75-2.45-.86-.94-.08-1.89-.09-2.84-.03l.89-5.34c.65.17,1.18.31,1.71.44.72.22,1.49-.18,1.71-.91,0,0,0,0,0,0,.2-.72-.22-1.46-.94-1.66-.01,0-.02,0-.03,0-.52-.17-1.05-.31-1.79-.52l3.06-7.25c.62.34,1.08.62,1.57.86.65.37,1.48.15,1.85-.5s.15-1.48-.5-1.85c-.23-.15-.48-.28-.72-.42s-.42-.26-.78-.49l4.99-6.42c.29.46.61.89.96,1.31.46.6,1.32.7,1.92.24.05-.04.1-.08.14-.13.52-.57.48-1.45-.09-1.96-.02-.01-.03-.03-.05-.04-.33-.33-.71-.61-1.22-1.04l6.32-4.83c.86.96,1.11,2.88,2.8,1.86,1.56-.95.09-2.06-.31-3.29l7.18-3c.19.63.31,1.11.46,1.56.13.74.84,1.23,1.58,1.09.04,0,.07-.02.11-.03.73-.22,1.15-1,.92-1.73,0-.02-.01-.03-.02-.05l-.36-1.5,5.15-.83v3.04c-.15,2.2,1.52,4.11,3.72,4.26s4.11-1.52,4.26-3.72c.01-.19.01-.37,0-.56v-3.04l5.17.83c-.15.61-.28,1.11-.4,1.61-.21.73.2,1.49.92,1.71.72.2,1.47-.22,1.67-.93,0-.01,0-.03.01-.04.16-.49.28-1,.49-1.71l7.29,2.97c-.34.61-.6,1.06-.83,1.51-.42.63-.26,1.48.37,1.9.02.02.05.03.08.05.67.37,1.52.12,1.88-.56.01-.02.02-.04.03-.06.26-.42.5-.86.86-1.48l6.45,4.89M53.01,34.38v-9.09c.01-.36-.03-.72-.12-1.07-.4-1.43-1.79-2.36-3.27-2.19-1.53.18-2.68,1.49-2.65,3.04v18.5c.05.41-.14.81-.48,1.04-2.79,1.89-3.53,5.69-1.63,8.49.06.09.12.17.18.25,2.05,2.74,5.94,3.3,8.68,1.24.05-.04.09-.07.14-.11.3-.19.67-.24,1.01-.13,5.15,2.06,10.28,4.15,15.42,6.23,2.39.97,4.77,1.96,7.18,2.9,1.01.48,2.22.06,2.7-.95.18-.38.24-.8.17-1.22-.14-.81-.74-1.48-1.53-1.69-7.22-2.91-14.44-5.85-21.67-8.75-.64-.15-1.07-.75-1.01-1.41.01-1.9-.93-3.68-2.5-4.75-.44-.28-.68-.79-.63-1.31.03-3.03,0-6.06,0-9.09"/>
  </g>
</svg>
