<?xml version="1.0" encoding="UTF-8" standalone="no" ?>
<!DOCTYPE svg PUBLIC "-//W3C//DTD SVG 1.1//EN" "http://www.w3.org/Graphics/SVG/1.1/DTD/svg11.dtd">
<svg xmlns="http://www.w3.org/2000/svg" xmlns:xlink="http://www.w3.org/1999/xlink" version="1.1" width="1080" height="1080" viewBox="0 0 1080 1080" xml:space="preserve">
<desc>Created with Fabric.js 5.2.4</desc>
<defs>
</defs>
<g transform="matrix(1 0 0 1 540 540)" id="831d94d5-beca-4fa6-827d-94c35e149d04"  >
<rect style="stroke: none; stroke-width: 1; stroke-dasharray: none; stroke-linecap: butt; stroke-dashoffset: 0; stroke-linejoin: miter; stroke-miterlimit: 4; fill: currentColor ; fill-rule: nonzero; opacity: 1; visibility: hidden;" vector-effect="non-scaling-stroke"  x="-540" y="-540" rx="0" ry="0" width="1080" height="1080" />
</g>
<g transform="matrix(1 0 0 1 540 540)" id="2e52e3d6-c900-4594-8687-5e1dbdf19331"  >
</g>
<g transform="matrix(11.23 0 0 11.23 540 540)"  >
<g style="" vector-effect="non-scaling-stroke"   >
		<g transform="matrix(1 0 0 1 0 0)" id="Trazado_18708"  >
<path style="stroke: none; stroke-width: 1; stroke-dasharray: none; stroke-linecap: butt; stroke-dashoffset: 0; stroke-linejoin: miter; stroke-miterlimit: 4; fill: currentColor ; fill-rule: nonzero; opacity: 1;" vector-effect="non-scaling-stroke"  transform=" translate(-53, -51.52)" d="M 87.99 36.87 L 82.61 50.81999999999999 L 70.72 42.49999999999999 L 76.24 40.559999999999995 C 74.96 38.3 73.53999999999999 36.129999999999995 71.97999999999999 34.06999999999999 C 64.52999999999999 25.429999999999993 55.12999999999999 22.139999999999993 44.349999999999994 25.269999999999992 C 33.769999999999996 28.339999999999993 27.429999999999993 36.03999999999999 25.429999999999993 47.16999999999999 C 22.849999999999994 61.52999999999999 33.46999999999999 76.32999999999998 47.57999999999999 78.32999999999998 C 59.01999999999999 80.17999999999998 70.29999999999998 74.15999999999998 75.39999999999999 63.47999999999998 C 76.16 61.98999999999998 77.02 60.62999999999998 78.92999999999999 60.77999999999998 C 80.77999999999999 60.76999999999998 82.3 62.29999999999998 82.3 64.20999999999998 C 82.3 64.88999999999999 82.11 65.55999999999997 81.74 66.13999999999999 C 76.97 76.04999999999998 69.58 82.68999999999998 58.91 85.11999999999999 C 41.059999999999995 89.44999999999999 23.169999999999995 78.1 18.949999999999996 59.76999999999999 C 18.869999999999997 59.39999999999999 18.779999999999994 59.01999999999999 18.709999999999997 58.64999999999999 C 14.939999999999998 39.91 26.65 21.57999999999999 44.89 17.709999999999994 C 45.67 17.539999999999992 46.46 17.409999999999993 47.26 17.299999999999994 C 61.76 15.329999999999993 75.8 23.329999999999995 81.83 36.99999999999999 C 82.39999999999999 38.24999999999999 82.95 38.519999999999996 84.13 38.04999999999999 C 85.28 37.59999999999999 86.47 37.31999999999999 87.99 36.87999999999999" stroke-linecap="round" />
</g>
		<g transform="matrix(1 0 0 1 -2.58 -0.01)" id="Trazado_18709"  >
<path style="stroke: none; stroke-width: 1; stroke-dasharray: none; stroke-linecap: butt; stroke-dashoffset: 0; stroke-linejoin: miter; stroke-miterlimit: 4; fill: currentColor ; fill-rule: nonzero; opacity: 1;" vector-effect="non-scaling-stroke"  transform=" translate(-50.42, -51.51)" d="M 70.39 51.33 C 70.49 62.66 61.620000000000005 71.93 50.59 72.03 C 39.56 72.13 30.540000000000003 63.02 30.440000000000005 51.69 C 30.340000000000003 40.36 39.21000000000001 31.089999999999996 50.24000000000001 30.99 C 50.25000000000001 30.99 50.26000000000001 30.99 50.27000000000001 30.99 C 61.290000000000006 30.919999999999998 70.28000000000002 40.01 70.39000000000001 51.33 M 48.41000000000001 44.21 C 48.430000000000014 46.52 48.44000000000001 48.83 48.47000000000001 51.14 C 48.48000000000001 52.79 49.20000000000001 53.51 50.83000000000001 53.5 L 53.52000000000001 53.48 C 56.26000000000001 53.459999999999994 59.01000000000001 53.44 61.76000000000001 53.41 C 62.54000000000001 53.47 63.27000000000001 53.059999999999995 63.65000000000001 52.36 C 64.17000000000002 51.4 63.83000000000001 50.19 62.90000000000001 49.66 C 62.59000000000001 49.48 62.22000000000001 49.38999999999999 61.860000000000014 49.41 C 58.930000000000014 49.41 56.01000000000001 49.44 53.08000000000001 49.48 C 52.52000000000001 49.48 52.320000000000014 49.349999999999994 52.33000000000001 48.75 C 52.350000000000016 46.93 52.320000000000014 45.11 52.30000000000001 43.29 C 52.29000000000001 41.18 52.28000000000001 39.08 52.250000000000014 36.98 C 52.27000000000002 35.879999999999995 51.420000000000016 34.97 50.350000000000016 34.949999999999996 C 49.280000000000015 34.92999999999999 48.390000000000015 35.809999999999995 48.37000000000002 36.91 C 48.37000000000002 36.97 48.37000000000002 37.029999999999994 48.37000000000002 37.099999999999994 C 48.38000000000002 39.46999999999999 48.40000000000002 41.839999999999996 48.43000000000002 44.209999999999994" stroke-linecap="round" />
</g>
</g>
</g>
</svg>
