<?xml version="1.0" encoding="UTF-8"?>
<svg id="Capa_1" data-name="Capa 1" xmlns="http://www.w3.org/2000/svg" viewBox="0 0 100 100">
  <defs>
    <style>
      .cls-1 {
        fill: currentColor;
        fill-rule: evenodd;
      }
    </style>
  </defs>
  <path id="d7dccf5a5437a18efacf894c10c5ea07" class="cls-1" d="M55.4,90.84l2.69-3.99c2.09-3.09,3.13-4.63,4.82-5.49,2.58-.88,5.31-1.21,8.02-.95,4.54.18,9.08-.38,13.45-1.66,5.86-2,10.69-6.22,13.46-11.75,1.93-6.2,2.57-12.73,1.89-19.18v-4.35c0-14.24,0-21.36-3.66-26.59-2.14-3-4.95-5.46-8.21-7.18-5.99-3.21-14.13-3.21-30.41-3.21h-14.92c-16.28,0-24.42,0-30.4,3.21-3.26,1.72-6.07,4.18-8.21,7.18C.26,22.1.26,29.22.26,43.47v4.35c-.68,6.46-.04,12.98,1.89,19.18,2.76,5.54,7.6,9.77,13.46,11.77,4.36,1.28,8.9,1.84,13.45,1.66,2.71-.25,5.45.07,8.02.95,1.66.83,2.73,2.4,4.82,5.49l2.69,3.99c2.3,2.98,6.57,3.54,9.56,1.24.47-.36.89-.79,1.25-1.26ZM64.77,29.55c1.53-1.26,3.74-1.26,5.27,0l1.04.9c2.68,2.22,5.22,4.61,7.6,7.15,1.96,1.95,3.12,4.55,3.25,7.31-.13,2.76-1.29,5.37-3.25,7.31-2.39,2.54-4.92,4.92-7.6,7.15l-1.04.9c-1.53,1.26-3.74,1.26-5.27,0-1.28-1.04-1.46-2.92-.42-4.2.13-.15.26-.29.42-.42l.83-.75c2.5-2.07,4.89-4.28,7.13-6.63.97-.85,1.58-2.03,1.72-3.32-.14-1.28-.76-2.46-1.72-3.32-2.24-2.35-4.62-4.56-7.13-6.63l-.83-.75c-1.29-1.02-1.5-2.92-.48-4.21.15-.18.31-.35.48-.52h0ZM60.04,24.72c.44-1.74-.61-3.5-2.35-3.94-.09-.02-.19-.04-.29-.06-1.9-.51-3.88.5-4.57,2.34l-12.87,42c-.44,1.74.61,3.5,2.35,3.94.09.02.19.04.29.06,1.89.52,3.86-.48,4.57-2.3l12.87-42.04ZM35.23,29.53c1.28,1.04,1.46,2.92.42,4.2-.13.15-.26.29-.42.42l-.83.75c-2.5,2.07-4.89,4.28-7.13,6.63-.97.85-1.58,2.03-1.72,3.32.14,1.28.76,2.46,1.72,3.32,2.24,2.35,4.62,4.56,7.13,6.63l.83.75c1.28,1.04,1.46,2.92.42,4.2-.13.15-.26.29-.42.42-1.53,1.26-3.74,1.26-5.27,0l-.83-.75-.18-.16c-2.68-2.22-5.22-4.61-7.61-7.15-1.96-1.95-3.12-4.55-3.25-7.31.13-2.76,1.29-5.36,3.25-7.31,2.39-2.54,4.93-4.92,7.61-7.15l.18-.16.83-.75c1.56-1.23,3.77-1.19,5.27.11h0Z"/>
</svg>