<?xml version="1.0" encoding="UTF-8"?>
<svg id="Capa_1" xmlns="http://www.w3.org/2000/svg" xmlns:xlink="http://www.w3.org/1999/xlink" viewBox="0 0 30 30">
  <defs>
    <style>
      .cls-1 {
        fill: currentColor;
      }

      .cls-2 {
        fill: currentColor;
      }

      .cls-3 {
        clip-path: url(#clippath);
      }
    </style>
    <clipPath id="clippath">
      <rect class="cls-1" x="2.49" y="2.5" width="25.01" height="25"/>
    </clipPath>
  </defs>
  <g class="cls-3">
    <g id="Grupo_35801">
      <path id="Trazado_19720" class="cls-2" d="M22.52,14.35h4.31v-3.86c0-.75-.61-1.36-1.36-1.36h-9.04c-.27,4.3-3.97,7.58-8.28,7.31-1.35-.08-2.65-.51-3.78-1.25v9.59c0,1.5,1.22,2.72,2.72,2.72h18.38c.75,0,1.36-.61,1.36-1.36h0v-3.4h-4.31c-2.32.08-4.26-1.73-4.34-4.05-.08-2.32,1.73-4.26,4.05-4.34.1,0,.19,0,.29,0M24.78,7.08v-1.36c0-.75-.61-1.36-1.36-1.36h-8.25c.54.83.92,1.75,1.12,2.72h8.49Z"/>
      <path id="Trazado_19721" class="cls-2" d="M8.62,2.5c-3.38,0-6.12,2.74-6.12,6.12s2.74,6.12,6.12,6.12,6.12-2.74,6.12-6.12-2.74-6.12-6.12-6.12M8.32,7.45l1.38.71c.82.41,1.28,1.32,1.12,2.22-.1.69-.56,1.28-1.2,1.56v.18c.02.47-.34.87-.81.89-.47.02-.87-.34-.89-.81,0-.03,0-.06,0-.08v-.13c-.68-.22-1.23-.73-1.52-1.38-.19-.43,0-.93.44-1.12.43-.19.93,0,1.12.44.14.33.47.52.83.49.18,0,.33-.14.35-.31.03-.18-.05-.36-.22-.44l-1.39-.71c-.83-.43-1.28-1.35-1.11-2.26.13-.79.71-1.43,1.49-1.63v-.34c-.02-.47.34-.87.81-.89s.87.34.89.81c0,.03,0,.06,0,.08v.53c.54.26.97.7,1.22,1.25.18.43-.02.93-.45,1.11-.43.18-.92-.01-1.11-.44-.14-.32-.47-.51-.82-.49-.18,0-.32.14-.34.31-.04.18.05.36.21.44M27.17,16.06h-4.65c-1.38-.08-2.56.98-2.64,2.35-.08,1.38.98,2.56,2.35,2.64.09,0,.19,0,.28,0h4.65c.19,0,.34-.15.34-.34h0v-4.32c0-.19-.15-.34-.34-.34h0M23.08,19.56c-.56,0-1.02-.46-1.02-1.02s.46-1.02,1.02-1.02,1.02.46,1.02,1.02h0c0,.56-.46,1.02-1.02,1.02"/>
    </g>
  </g>
</svg>
