<?xml version="1.0" encoding="UTF-8"?>
<svg id="Capa_1" xmlns="http://www.w3.org/2000/svg" xmlns:xlink="http://www.w3.org/1999/xlink" viewBox="0 0 30 30">
  <defs>
    <style>
      .cls-1 {
        fill: currentColor;
      }

      .cls-2 {
        fill: currentColor;
      }

      .cls-3 {
        clip-path: url(#clippath);
      }
    </style>
    <clipPath id="clippath">
      <rect class="cls-1" x="1.02" y="3.84" width="27.96" height="22.32"/>
    </clipPath>
  </defs>
  <g id="Grupo_35697">
    <g class="cls-3">
      <g id="Grupo_35696">
        <path id="Trazado_19617" class="cls-2" d="M28.98,15.82v2.09h-4.51l-2.32,4.52c-.22.34-.6.54-1,.54-.42-.05-.77-.36-.88-.77l-1.75-5.05-1.65,3.74c-.16.4-.58.63-1,.55-.51.01-.94-.37-1-.88l-1.42-9.02-1.75,13.74c-.05.51-.49.89-1,.89-.5.02-.95-.3-1.11-.77l-1.98-10.67-1.32,2.64c-.16.34-.5.55-.88.54H1.02v-2.09h3.74l2.32-4.83c.21-.41.64-.66,1.1-.66.44.1.78.44.88.88l1.44,7.48,1.75-13.97c.1-.58.65-.96,1.22-.86.44.08.79.42.86.86l1.98,12.09,1.33-3.07c.13-.43.54-.7.98-.67.45.04.83.35.98.77l1.88,5.39,1.44-2.86c.21-.35.58-.56.98-.55h5.07Z"/>
      </g>
    </g>
  </g>
</svg>
