<?xml version="1.0" encoding="UTF-8"?>
<svg id="Capa_1" xmlns="http://www.w3.org/2000/svg" viewBox="0 0 100 100">
  <defs>
    <style>
      .cls-1 {
        fill: currentColor;
      }
    </style>
  </defs>
  <g id="Grupo_31433-2">
    <path id="Trazado_18527" class="cls-1" d="M50.71,53.7c2.44,0,4.89.08,7.31-.02,3.43-.08,6.79,1,9.53,3.08,5.16,3.46,8.21,9.3,8.11,15.51.07,4.61,0,9.19.02,13.79.07.85-.45,1.63-1.26,1.9-4.55,1.93-9.36,3.15-14.27,3.63-9.92,1.07-19.94.15-29.5-2.69-1.32-.38-2.66-.7-3.99-1.02-.56-.06-.96-.55-.91-1.11,0-.01,0-.03,0-.04.02-5.17-.05-10.33.05-15.5.36-8.65,6.66-15.91,15.17-17.48.54-.06,1.09-.08,1.63-.05h8.1"/>
    <path id="Trazado_18528" class="cls-1" d="M38,50.78c-11.76,4.58-16.62,13.37-15.72,25.79-.83,0-1.61.05-2.37,0-4.89-.43-9.74-1.28-14.48-2.55-1.61-.41-3.19-.93-4.78-1.38-.42-.12-.65-.3-.64-.8.03-5.17-.05-10.34.08-15.5.26-8.84,6.72-16.27,15.45-17.74,2.47-.28,4.96-.38,7.45-.3,2.96-.04,5.92,0,8.88,0,.38,0,.75-.06.77.55.25,4.32,2.04,8.42,5.06,11.53.11.13.21.27.3.41"/>
    <path id="Trazado_18529" class="cls-1" d="M79.15,76.98v-3.7c.3-6.21-2.02-12.26-6.4-16.67-2.44-2.34-5.31-4.17-8.46-5.41-.28-.12-.55-.25-.95-.44,3.35-3.26,5.31-7.68,5.48-12.34.32-.06.65-.09.98-.11,4.38.03,8.78-.04,13.16.12,4.5.24,8.71,2.26,11.71,5.61,3.45,3.54,5.34,8.31,5.27,13.26.05,4.54.03,9.08.07,13.63.07.82-.42,1.59-1.2,1.87-4.59,1.96-9.46,3.19-14.44,3.63-1.7.19-3.4.38-5.2.56"/>
    <path id="Trazado_18530" class="cls-1" d="M50.69,23.09c8.11-.02,14.69,6.54,14.71,14.65s-6.54,14.69-14.65,14.71c-7.99.01-14.53-6.37-14.7-14.36-.13-8.15,6.37-14.87,14.53-15,.04,0,.08,0,.12,0"/>
    <path id="Trazado_18531" class="cls-1" d="M10.31,22.64c0-8.09,6.56-14.66,14.65-14.66,7.12,0,13.21,5.12,14.44,12.13.16.74.22,1.49.16,2.24-.07.66-.35,1.27-.8,1.76-2.94,2.67-4.99,6.19-5.86,10.06-.16.54-.51.99-.99,1.27-7,3.88-15.83,1.36-19.71-5.64-.89-1.6-1.46-3.34-1.7-5.15-.1-.67-.12-1.34-.18-2.01"/>
    <path id="Trazado_18532" class="cls-1" d="M89.42,23.43c.42,4.14-1.53,8.17-5.03,10.42-4.01,3.47-9.62,4.42-14.55,2.47-.69-.21-1.18-.8-1.27-1.52-.74-4.73-3.39-8.95-7.33-11.68-.76-.59-1.07-1.58-.79-2.5,1.07-7.98,8.41-13.58,16.39-12.51.79.11,1.58.28,2.34.51,5.27,1.59,9.13,6.11,9.88,11.56.13.61.2,1.23.28,1.85.05.47.06.93.09,1.4"/>
  </g>
</svg>
