<?xml version="1.0" encoding="UTF-8"?>
<svg id="Capa_1" xmlns="http://www.w3.org/2000/svg" xmlns:xlink="http://www.w3.org/1999/xlink" viewBox="0 0 30 30">
  <defs>
    <style>
      .cls-1 {
        fill: currentColor;
      }

      .cls-2 {
        fill: currentColor;
      }

      .cls-3 {
        clip-path: url(#clippath);
      }
    </style>
    <clipPath id="clippath">
      <rect class="cls-1" y="4.79" width="30" height="20.42"/>
    </clipPath>
  </defs>
  <g class="cls-3">
    <g id="Grupo_35771">
      <path id="Trazado_19690" class="cls-2" d="M29.91,10.75l-5.51-5.85c-.12-.13-.33-.14-.46-.01l-2.32,2.18c-.13.12-.14.33-.01.46l5.51,5.86c.12.13.33.14.46.01l2.32-2.18c.13-.13.14-.33.01-.46M27.89,11.42c-.29.27-.75.26-1.02-.03s-.26-.75.03-1.02c.29-.27.74-.26,1.01.03.27.29.26.74-.03,1.02,0,0,0,0,0,0M5.68,5.7c-.14-.11-.35-.09-.46.06,0,0,0,0,0,0L.07,12.38c-.11.14-.09.35.06.46,0,0,0,0,0,0l2.52,1.96c.14.11.35.09.46-.06,0,0,0,0,0,0l5.14-6.62c.11-.14.09-.35-.06-.46,0,0,0,0,0,0l-2.52-1.96ZM3.25,12.6c-.25.32-.7.37-1.01.13s-.37-.7-.13-1.01c.25-.32.7-.37,1.01-.13.32.24.37.7.13,1.01,0,0,0,0,0,0"/>
      <path id="Trazado_19691" class="cls-2" d="M22.4,19.01l-5.66-4.41-1.03.94c-1,1.01-2.34,1.6-3.76,1.66-.23,0-.47-.02-.7-.06-1.13-.19-2.11-.87-2.7-1.85-.51-.81-.36-1.87.36-2.5l4.06-3.69c-1.15-.89-2.81-.67-3.7.48l-3.97,5.12c-.32.42-.47.94-.41,1.46l.26,2.08c.06.52.33,1,.74,1.32l6.95,5.42c.44.34,1.07.29,1.44-.12l.31-.34c.4-.44.37-1.11-.07-1.51-.01-.01-.02-.02-.03-.03l1.17.98c.42.35,1.03.33,1.43-.05l.36-.35c.42-.41.44-1.08.03-1.51-.03-.03-.05-.05-.08-.08l.86.72c.42.35,1.04.33,1.43-.06l.32-.31c.42-.41.43-1.09.02-1.51-.02-.02-.04-.04-.06-.06l.57.49c.45.39,1.12.34,1.5-.11,0,0,0,0,.01-.01l.49-.59c.38-.45.32-1.13-.14-1.5,0,0-.02-.02-.03-.02M25.16,13.73l-4.77-4.87c-.21-.21-.48-.35-.77-.38l-2.44-.32c-.38-.05-.77.07-1.06.33l-.57.52-5.5,5c-.13.1-.16.27-.07.41l.03.06c.34.56.9.94,1.54,1.04,1.15.09,2.28-.35,3.07-1.2l2.06-1.88,6.47,5.05,2.02-1.89c.52-.51.53-1.35.02-1.87"/>
    </g>
  </g>
</svg>
