<?xml version="1.0" encoding="UTF-8"?>
<svg id="Capa_1" xmlns="http://www.w3.org/2000/svg" xmlns:xlink="http://www.w3.org/1999/xlink" viewBox="0 0 30 30">
  <defs>
    <style>
      .cls-1 {
        fill: currentColor;
      }

      .cls-2 {
        fill: currentColor;
      }

      .cls-3 {
        clip-path: url(#clippath);
      }
    </style>
    <clipPath id="clippath">
      <rect class="cls-1" x="2.42" y="2.62" width="25.17" height="24.76"/>
    </clipPath>
  </defs>
  <g class="cls-3">
    <g id="Grupo_35785">
      <path id="Trazado_19704" class="cls-2" d="M14.45,22.25c-1.01.13-2.03.2-3.05.2-2.91.06-5.79-.54-8.43-1.74-.18-.1-.41-.03-.51.16-.03.05-.04.11-.04.17v1.9s0,.03,0,.05,0,.04,0,.07c0,2.39,4.04,4.32,9.03,4.32,1.01,0,2.02-.08,3.02-.25,0-.04-.01-.08-.01-.12v-4.76ZM11.45,2.62c-4.99,0-9.03,1.94-9.03,4.32v4.38c0,.12.05.23.15.31,1.85,1.4,5.19,2.29,8.84,2.29s7.11-.94,8.93-2.37c.09-.07.14-.18.14-.3v-4.31c0-2.39-4.04-4.32-9.03-4.32M11.45,8.8c-2.73,0-4.94-.83-4.94-1.85s2.21-1.85,4.94-1.85,4.94.83,4.94,1.85-2.21,1.85-4.94,1.85M2.97,14.05c-.18-.1-.41-.03-.51.16-.03.05-.04.11-.04.18v3.6c0,.12.05.23.15.3,1.85,1.4,5.19,2.29,8.84,2.29,1.02,0,2.04-.08,3.05-.23v-.1c0-1.1.79-2.04,1.88-2.22v-.59c0-.79.17-1.57.5-2.29-1.77.44-3.6.66-5.42.65-2.91.06-5.79-.54-8.43-1.74"/>
      <path id="Trazado_19705" class="cls-2" d="M27.21,19.88h-1.5v-2.44c0-2.07-1.68-3.75-3.75-3.75s-3.75,1.68-3.75,3.75v2.44h-1.5c-.21,0-.38.17-.38.38v6.76c0,.21.17.38.38.38h10.5c.21,0,.37-.17.37-.38v-6.76c0-.21-.17-.37-.37-.38M23.83,19.88h-3.75v-2.44c0-1.04.84-1.88,1.88-1.88s1.88.84,1.88,1.88v2.44Z"/>
    </g>
  </g>
</svg>
