<?xml version="1.0" encoding="UTF-8"?>
<svg id="Capa_1" xmlns="http://www.w3.org/2000/svg" viewBox="0 0 100 100">
  <defs>
    <style>
      .cls-1 {
        fill: currentColor;
      }
    </style>
  </defs>
  <g id="Grupo_31104-2">
    <path id="Trazado_18401" class="cls-1" d="M47.53,0h4.96c.22.08.45.13.68.17,6.69.61,13.01,3.37,18.01,7.87,10.8,9.42,13.3,25.23,5.93,37.52-8.56,14.1-17.33,28.07-26.01,42.1-.35.57-.72,1.13-1.13,1.78-.3-.47-.53-.81-.77-1.16-1.77-2.82-3.56-5.64-5.31-8.48-.21-.48-.74-.72-1.24-.58-1.79.29-3.62.42-5.4.74-4.09.57-8.05,1.81-11.73,3.68-.52.29-.99.66-1.68,1.13,1.01.61,1.75,1.16,2.58,1.54,4.79,2.09,9.91,3.34,15.12,3.71,6.67.71,13.41.58,20.05-.39,3.99-.49,7.9-1.54,11.59-3.14.96-.45,1.85-1.07,2.99-1.74-4.19-2.51-8.82-4.18-13.64-4.92l5.61-8.72c2.7.89,5.4,1.61,7.96,2.68,4.93,1.34,8.71,5.29,9.83,10.27v1.24c-.35,1.38-.83,2.73-1.43,4.02-1.78,2.73-4.39,4.82-7.45,5.95-6.55,2.71-13.53,4.23-20.62,4.48-5.8.41-11.63.27-17.41-.41-5.03-.47-9.98-1.64-14.69-3.47-4.77-1.97-9.07-4.49-10.27-10.15v-1.86c.91-3.87,3.55-7.11,7.17-8.78,2.9-1.65,6.03-2.86,9.28-3.59,2.6-.61,5.24-1.05,7.89-1.57-.12-.2-.24-.44-.39-.67-4.58-7.15-9.07-14.35-13.77-21.41-4.23-5.98-6.14-13.3-5.37-20.58,1.47-12.75,10.74-23.22,23.21-26.25,1.79-.44,3.63-.68,5.45-1.01M49.99,14.05c-7.28-.08-13.24,5.75-13.33,13.03.26,7.38,6.46,13.15,13.84,12.89,7.03-.25,12.66-5.9,12.89-12.93-.14-7.28-6.12-13.08-13.4-12.98"/>
  </g>
</svg>
