<?xml version="1.0" encoding="UTF-8"?>
<svg id="Capa_1" xmlns="http://www.w3.org/2000/svg" xmlns:xlink="http://www.w3.org/1999/xlink" viewBox="0 0 30 30">
  <defs>
    <style>
      .cls-1 {
        fill: currentColor;
      }

      .cls-2 {
        fill: currentColor;
      }

      .cls-3 {
        clip-path: url(#clippath);
      }
    </style>
    <clipPath id="clippath">
      <rect class="cls-1" x="3.83" y="2.5" width="22.34" height="25"/>
    </clipPath>
  </defs>
  <g class="cls-3">
    <g id="Grupo_35799">
      <path id="Trazado_19718" class="cls-2" d="M25.1,7.61c-3.94-.49-7.74-3.44-9.32-4.82-.44-.39-1.11-.39-1.55,0-1.59,1.38-5.38,4.33-9.32,4.82-.63.07-1.1.61-1.07,1.24.49,11.99,8.37,17.25,10.59,18.5.36.2.8.2,1.16,0,2.22-1.25,10.1-6.51,10.59-18.5.02-.63-.44-1.17-1.07-1.24M15,20.95c-3.28,0-5.95-2.66-5.94-5.95,0-3.28,2.66-5.95,5.95-5.94,3.28,0,5.94,2.66,5.94,5.94,0,3.28-2.66,5.95-5.95,5.95"/>
      <path id="Trazado_19719" class="cls-2" d="M17.63,11.99l-3.54,3.55-1.73-1.73-1.23,1.23,1.73,1.73,1.25,1.24,1.23-1.23,3.55-3.54-1.24-1.24Z"/>
    </g>
  </g>
</svg>
