<?xml version="1.0" encoding="UTF-8"?>
<svg id="Capa_1" xmlns="http://www.w3.org/2000/svg" viewBox="0 0 100 100">
  <defs>
    <style>
      .cls-1 {
        fill: currentColor;
      }
    </style>
  </defs>
  <g id="Grupo_31084-2">
    <path id="Trazado_18383" class="cls-1" d="M100,24.17c-.12.3-.38.52-.7.59-1.84.48-3.68.97-5.51,1.45-.44.14-.91-.11-1.05-.56,0-.03-.02-.06-.02-.08-.5-1.89-1-3.78-1.5-5.66,0-.03-.02-.06-.04-.13l-13.49,21.27c5.98,5.92,8.8,13.04,7.85,21.43-.72,8.04-5.38,15.19-12.45,19.09-12.11,7.03-27.63,2.91-34.66-9.2-7.03-12.11-2.91-27.63,9.2-34.66.45-.26.91-.51,1.37-.74.13.33.26.65.38.97.45,1.19.73,2.45.83,3.72.07.78.09,1.55.08,2.33-.05,1.1-.23,2.19-.53,3.25-.03.12-.09.22-.18.3-2.85,2.54-4.72,6.01-5.27,9.79-.15,1.07-.2,2.15-.14,3.23.06,1.26.29,2.52.66,3.73,1.13,3.77,3.6,7,6.94,9.08,1.69,1.08,3.57,1.81,5.53,2.17.79.13,1.58.22,2.38.27,1.95.11,3.9-.16,5.75-.79,2.03-.66,3.9-1.73,5.51-3.13,1.69-1.45,3.06-3.24,4.02-5.25.75-1.52,1.24-3.16,1.44-4.84.1-.8.15-1.6.15-2.4-.02-1.53-.25-3.04-.71-4.5-.44-1.49-1.1-2.9-1.97-4.18-.53-.75-1.11-1.48-1.72-2.17-.97-1.08-2.11-2.01-3.36-2.74-1.7-1.05-3.58-1.77-5.55-2.12-.62-.11-1.24-.17-1.86-.25-.03,0-.06-.02-.09-.03,0-3.11-.53-6.2-1.58-9.13.56,0,1.08-.01,1.6,0,.48.02.96.07,1.45.11,1.41.12,2.8.37,4.16.74.89.25,1.76.56,2.63.86.12.07.27.03.33-.08,0-.01.01-.02.02-.04.73-1.15,1.46-2.3,2.2-3.46.94-1.49,1.89-2.98,2.83-4.47,1.16-1.83,2.31-3.65,3.47-5.47,1.07-1.69,2.14-3.37,3.21-5.05.38-.59.75-1.18,1.15-1.82-.61.16-1.18.31-1.74.46-1.07.28-2.13.57-3.2.84-.44.16-.92-.07-1.08-.5-.02-.05-.03-.1-.04-.16-.04-.16-.09-.31-.13-.47-.43-1.63-.87-3.26-1.3-4.89-.19-.49.06-1.03.54-1.22.07-.03.14-.04.21-.05,2.8-.72,5.59-1.48,8.39-2.22,3.21-.85,6.42-1.7,9.63-2.55.02-.01.04-.02.06-.04h.42c.31.1.54.35.63.66.83,3.12,1.65,6.23,2.48,9.35.66,2.48,1.31,4.95,1.96,7.43.13.47.26.94.4,1.41v.52Z"/>
    <path id="Trazado_18384" class="cls-1" d="M0,74.32c.38-.69.76-1.37,1.13-2.06.13-.24.28-.48.42-.72.39-.72,1.29-1,2.01-.61.04.02.09.05.13.08,1.57.92,3.16,1.82,4.74,2.73.79.46,1.58.92,2.38,1.38.09.05.18.09.28.14l7.4-12.81c-4.66-3.98-7.72-9.53-8.58-15.6-.81-5.19.05-10.51,2.48-15.17,6.34-12.49,21.61-17.47,34.1-11.13,7.75,3.94,12.95,11.57,13.76,20.23.98,10.43-4.54,20.39-13.9,25.08-.21-.59-.43-1.16-.62-1.74-.32-.98-.52-2-.6-3.03-.06-.88-.03-1.78,0-2.67.05-.96.21-1.92.48-2.84.04-.14.12-.26.23-.36,1.42-1.27,2.6-2.79,3.49-4.47.87-1.64,1.46-3.42,1.73-5.26.15-1.01.2-2.03.15-3.05-.36-7.7-6.09-14.09-13.71-15.3-.68-.09-1.37-.15-2.06-.17-1.66-.07-3.33.14-4.92.62-3.92,1.13-7.28,3.7-9.38,7.19-1.11,1.8-1.84,3.81-2.13,5.9-.12.9-.18,1.8-.2,2.71,0,1.47.22,2.93.65,4.33,1.21,4.12,4.01,7.6,7.78,9.65,1.56.85,3.25,1.45,5.01,1.76.59.11,1.19.15,1.82.23,0,3.11.52,6.21,1.57,9.14-3.08.08-6.15-.4-9.05-1.41l-7.41,12.83c.43.25.84.49,1.26.73l5.25,3.04c.31.18.63.36.95.54.73.42.98,1.35.56,2.07,0,.01-.01.02-.02.03-.45.72-.87,1.46-1.27,2.2-.36.77-1.28,1.09-2.05.73-.06-.03-.12-.06-.18-.1-2.26-1.31-4.52-2.62-6.78-3.92-.19-.11-.38-.21-.6-.33-.18.31-.38.62-.56.94-.99,1.71-1.97,3.41-2.95,5.12-.65,1.13-1.31,2.26-1.95,3.39-.22.38-.57.67-.99.81h-.73c-.25-.14-.51-.27-.76-.42-1.67-.96-3.34-1.93-5.01-2.88-.75-.37-1.05-1.28-.68-2.03.03-.06.07-.12.11-.18.59-.99,1.15-1.99,1.73-2.98.92-1.6,1.85-3.2,2.77-4.8.31-.54.62-1.08.95-1.65l-2.27-1.31c-1.45-.83-2.89-1.66-4.33-2.5-.62-.36-1.34-.63-1.61-1.41v-.73"/>
  </g>
</svg>