<?xml version="1.0" encoding="UTF-8"?>
<svg id="Capa_1" data-name="Capa 1" xmlns="http://www.w3.org/2000/svg" viewBox="0 0 100 100">
  <defs>
    <style>
      .cls-1 {
        fill: currentColor;
      }
    </style>
  </defs>
  <path id="Trazado_19646" data-name="Trazado 19646" class="cls-1" d="M99.9,21.53v56.91c-.18.12-.11.42-.11.61-.08,7.15.36,12.07-5.49,17.13-4.09,3.55-6.81,3.38-11.97,3.55-23.27.73-46.72-.26-70,0-5.8-1.6-10.34-6.1-11.98-11.89-.16-6.63.03-13.28-.05-19.91,0-.19.07-.49-.11-.61C.52,50.6-.26,33.81.19,17.09c-.36-4,.85-7.97,3.38-11.09C6.12,2.64,9.99.54,14.19.23,18.36,0,22.65.17,26.83.12,42.21-.04,57.64-.04,73.02.12c4.26.05,8.62-.12,12.86.1,5.76.6,10.73,4.32,12.92,9.69.94,3.8,1.3,7.71,1.09,11.62M5.45,31.61h26.2l-.11-26.28c-2.49,0-5,.02-7.48,0-6.56-.04-13.55-1.32-17.35,5.36-.87,1.68-1.33,3.56-1.32,5.46-.24,5.02.24,10.21-.06,15.25l.12.22ZM36.86,5.22v26.39h26.2l.05-26.28-26.25-.11ZM94.69,31.61c-.12-4.61.15-9.29,0-13.92.34-3.61-.99-7.18-3.6-9.7-2.46-2.07-5.64-3.07-8.84-2.77-4.61-.14-9.28.12-13.91,0v26.23l.17.17h26.19ZM5.45,63.11h26.2l-.11-26.28c-6.7-.05-13.41.06-20.11,0-1.06,0-2.14-.11-3.2-.12-.8,0-1.8-.08-2.56,0-.15,0-.29,0-.35.17l.13,26.23ZM63.22,63.11l-.16-26.2-26.21-.2v26.39h26.37ZM68.32,36.88v26.23h26.37l-.11-26.28-26.26.05ZM31.54,68.44l-26.15-.11c.07,5.74-.15,11.5.13,17.23.54,3.74,3,6.92,6.48,8.37,3.09.64,6.24.91,9.4.8h10.25l-.11-26.28ZM36.86,68.33v26.23l.17.17h26.03l.05-26.28-26.25-.11ZM68.32,68.33v26.23c.1.16.22.15.38.17,1.22.04,2.44,0,3.66-.12,4.31-.06,8.68.17,12.97-.1,4.7-.51,8.46-4.14,9.13-8.82.06-.53.1-1.33.12-1.88.21-5.07-.17-10.28,0-15.38l-26.27-.1Z"/>
</svg>
