<?xml version="1.0" encoding="UTF-8"?>
<svg id="Capa_1" xmlns="http://www.w3.org/2000/svg" viewBox="0 0 100 100">
  <defs>
    <style>
      .cls-1 {
        fill: currentColor;
      }
    </style>
  </defs>
  <g id="Grupo_31083">
    <path id="Trazado_18382" class="cls-1" d="M0,18.59c.19-1.15.46-2.29.79-3.4.33-1.15.89-2.23,1.64-3.17,2.58-2.79,5.31-5.44,8.18-7.94,2.98-2.52,6.57-3.58,10.39-2.2,1.83.66,3.52,1.66,4.99,2.95,4.4,3.9,7.85,8.76,10.06,14.21,2.21,5.41,1.28,10.38-2.44,14.86-.65.81-1.35,1.59-2.09,2.32-1.04.95-1.4,2.43-.93,3.76.7,2.28,1.85,4.39,3.38,6.22,5.8,7.46,12.54,14.14,20.06,19.87,1.89,1.56,4.08,2.71,6.43,3.37,1.24.34,2.57-.03,3.46-.96,1.89-1.83,3.91-3.53,6.03-5.08,5-3.47,10.4-3.79,15.94-1.38,3.62,1.58,6.9,3.86,9.65,6.69,5.31,5.4,5.87,11.46,1.68,17.77-2.77,3.96-6.21,7.4-10.17,10.16-2.63,1.93-5.81,2.15-8.97,2.09-6.26-.13-12.1-1.96-17.76-4.44-9.79-4.44-18.82-10.41-26.75-17.68-9.09-7.97-16.98-17.23-23.41-27.47-4.26-6.55-7.4-13.77-9.28-21.36-.38-1.67-.6-3.38-.89-5.07v-4.1"/>
  </g>
</svg>
