<?xml version="1.0" encoding="UTF-8"?>
<svg id="Capa_1" xmlns="http://www.w3.org/2000/svg" viewBox="0 0 100 100">
  <defs>
    <style>
      .cls-1 {
        fill: currentColor;
      }
    </style>
  </defs>
  <g id="Grupo_34524-3">
    <path id="Trazado_18660" class="cls-1" d="M0,2.21C.68.69,2.29-.19,3.94.04c5.07.08,10.14.02,15.22.03,1.6-.12,3,1.09,3.12,2.69,0,0,0,0,0,0,.14,1.6-1.05,3-2.64,3.14-.14.01-.29.01-.43,0H5.85v12.65c0,2.14-.66,3.27-2.16,3.69s-2.69-.27-3.7-2.08V2.21Z"/>
    <path id="Trazado_18661" class="cls-1" d="M0,79.87c.3-.53.65-1.02,1.06-1.47.83-.78,2.06-.96,3.07-.43,1.08.46,1.76,1.55,1.7,2.73v13.45h12.64c2.14,0,3.27.66,3.69,2.16s-.27,2.69-2.08,3.69H2.15c-.95-.45-1.71-1.22-2.15-2.18v-17.95"/>
    <path id="Trazado_18662" class="cls-1" d="M79.84,99.97c-.53-.3-1.02-.65-1.47-1.06-.78-.83-.95-2.06-.43-3.07.46-1.08,1.55-1.76,2.73-1.7h13.42v-12.85c0-2.26,1.09-3.57,2.95-3.56s2.9,1.32,2.9,3.51c0,4.94-.05,9.89.03,14.82.23,1.65-.65,3.25-2.18,3.93l-17.95-.02Z"/>
    <path id="Trazado_18663" class="cls-1" d="M50.01,17.25h29.47c1.92,0,2.44.49,2.44,2.41v17.07c0,1.81-.52,2.34-2.31,2.34h-7.61c-1.72,0-2.25-.55-2.26-2.31s0-3.58,0-5.38c0-1.43-.58-2.01-2.03-2.01-3.22-.02-6.44-.02-9.66,0-1.41,0-2.01.63-2.01,2.05v44.87c0,1.48.59,2.08,2.06,2.1,1.27.02,2.54,0,3.8,0,1.41,0,1.99.56,1.99,1.92.02,2.76.02,5.53,0,8.29.14.92-.49,1.78-1.41,1.92-.17.03-.34.03-.51,0h-24c-.92.14-1.78-.49-1.92-1.41-.03-.17-.03-.35,0-.52-.02-2.76-.02-5.53,0-8.29,0-1.37.59-1.92,1.99-1.92h3.8c1.47-.02,2.06-.62,2.06-2.1V31.42c0-1.42-.6-2.04-2.01-2.05-3.22-.02-6.44-.02-9.66,0-1.48,0-2.03.58-2.03,2.11v5.38c0,1.62-.58,2.19-2.16,2.19h-7.9c-1.54,0-2.11-.59-2.11-2.14v-17.46c0-1.66.57-2.22,2.24-2.22h29.76"/>
    <path id="Trazado_18664" class="cls-1" d="M94.07,5.92h-13.29c-1.49.09-2.81-.95-3.07-2.41-.31-1.56.7-3.07,2.26-3.38.16-.03.32-.05.48-.05,5.56-.05,11.12-.05,16.68,0,1.55,0,2.8,1.27,2.8,2.82.03,5.52.03,11.05,0,16.58-.08,1.61-1.45,2.85-3.06,2.77-1.54-.08-2.75-1.33-2.77-2.87-.02-4.09,0-8.19,0-12.3v-1.15"/>
  </g>
</svg>
