<?xml version="1.0" encoding="UTF-8"?>
<svg id="Capa_1" xmlns="http://www.w3.org/2000/svg" viewBox="0 0 100 100">
  <defs>
    <style>
      .cls-1 {
        fill: currentColor;
      }
    </style>
  </defs>
  <g id="Grupo_34549-3">
    <path id="Trazado_18668" class="cls-1" d="M99.98,74.23c-.31,1.75-.71,3.48-1.2,5.19-3.28,11.16-12.94,19.25-24.5,20.53-.16,0-.31,0-.47,0v-12.43h-5.83v12.33c-13.79-1.14-24.72-12.13-25.78-25.93h12.12v-5.92h-12.1c1.42-13.61,12.11-24.4,25.7-25.95v12.36h5.86v-12.65c2.08.38,4.13.87,6.15,1.48,10.71,3.41,18.46,12.73,19.86,23.88.05.22.11.44.18.65v.2h-12.55v5.91h11.43c.39.02.77.07,1.15.14l-.02.21ZM70.43,67.11l-6.88-4.92-3.42,4.76,10.98,7.88,14.26-14.63-3.96-4.33-10.98,11.25"/>
    <path id="Trazado_18669" class="cls-1" d="M34.56.03c1.07.25,2.15.44,3.2.75,10.12,2.87,16,13.41,13.12,23.53-2.87,10.12-13.41,16-23.53,13.12-10.12-2.87-16-13.41-13.12-23.53C16.18,7.02,21.83,1.81,28.85.42c.6-.12,1.2-.25,1.8-.38h3.91Z"/>
    <path id="Trazado_18670" class="cls-1" d="M39.11,86.25H.12c-.04-.14-.06-.28-.08-.42.03-5.82-.2-11.66.17-17.47.52-10,5.8-19.15,14.2-24.6,4.49-3.11,9.73-4.97,15.17-5.38v22.07h5.9v-22.12c5.08.45,9.98,2.11,14.3,4.82-13.7,11.92-16.8,26.36-10.67,43.1"/>
  </g>
</svg>