<?xml version="1.0" encoding="UTF-8"?>
<svg id="Capa_1" xmlns="http://www.w3.org/2000/svg" viewBox="0 0 100 100">
  <defs>
    <style>
      .cls-1 {
        fill: currentColor;
      }
    </style>
  </defs>
  <g id="Grupo_31089-2">
    <path id="Trazado_18391" class="cls-1" d="M49.89,15.01h39.25c6.75,0,10.83,4.03,10.84,10.75.03,16.2.03,32.39,0,48.59-.01,6.58-4.08,10.64-10.64,10.64-26.25.01-52.51.01-78.76,0C4.14,84.99.04,80.95.02,74.54,0,58.17,0,41.79.02,25.42c0-6.2,4.18-10.39,10.35-10.4,13.17-.03,26.34,0,39.51,0M54.88,74.98c.99-12.3-6.1-19.98-18.11-19.98-3.29,0-6.58.11-9.86-.03-4.14-.17-7.65,1.36-10.82,3.78-5.34,4.06-7.55,10.42-5.75,16.23h44.53ZM44.97,37.65c.13-6.9-5.35-12.6-12.25-12.73-.12,0-.24,0-.36,0-6.81.14-12.31,5.61-12.48,12.42.02,7.02,5.68,12.72,12.7,12.78,6.82-.12,12.31-5.65,12.39-12.47M89.88,35.01h-24.76v9.89h24.75v-9.89ZM65.16,65.01h24.8v-9.9h-24.8v9.9Z"/>
  </g>
</svg>