<?xml version="1.0" encoding="UTF-8"?>
<svg id="Capa_1" xmlns="http://www.w3.org/2000/svg" viewBox="0 0 100 100">
  <defs>
    <style>
      .cls-1 {
        fill: currentColor;
      }
    </style>
  </defs>
  <g id="Grupo_34280-2">
    <path id="Trazado_18587" class="cls-1" d="M74.37,1.67c.63.18,1.25.41,1.86.67,2.31,1.05,3.78,3.37,3.76,5.91.06,2.95,0,5.9,0,8.85v1.23h7.25c1.21-.05,2.43-.03,3.64.07,3.4.43,5.9,3.38,5.78,6.8.01,9.82.01,19.65,0,29.47v15.58c-3.16-.49-6.39.24-9.03,2.04-4.94,2.28-9.89,4.54-14.81,6.86-1.19.64-2.54.93-3.89.86-.82-.07-1.65,0-2.45,0,.1-1.4.09-2.8-.03-4.19-.72-4.24-4.35-7.37-8.65-7.44-7.84-.06-15.69-.03-23.54,0-.43.03-.83.22-1.15.52-.99.96-1.9,1.97-2.85,2.97l-.25-.21V25.59c-.33-3.68,2.4-6.93,6.08-7.25.4-.03.79-.03,1.19,0h9.4v-9.49c-.26-3.29,1.94-6.28,5.17-7,.09-.05.17-.1.24-.17h22.29ZM63.31,28.34c-10.12.01-18.32,8.23-18.31,18.35s8.23,18.32,18.35,18.31c10.11-.01,18.31-8.21,18.31-18.33,0-10.13-8.21-18.34-18.34-18.34,0,0,0,0-.01,0M53.43,18.27h19.83v-9.9h-19.83v9.9Z"/>
    <rect id="Rectángulo_16900" class="cls-1" y="75" width="13.33" height="23.33"/>
    <path id="Trazado_18588" class="cls-1" d="M91.11,74.35c-4.75,2.19-9.58,4.23-14.23,6.62-3.35,1.83-7.15,2.66-10.96,2.38-2.33-.19-4.68-.03-7.32-.03.37-.16.45-.2.54-.23,3.09-.92,4.86-4.17,3.94-7.27-.78-2.63-3.28-4.36-6.01-4.17-7.06,0-14.09,0-21.14.03-.6.04-1.16.28-1.6.68-1.84,1.74-3.58,3.58-5.42,5.33-.39.36-.9.57-1.43.59-3.23.05-6.46.03-9.68.03h-1.08v18.33h1.17c18.16,0,36.31,0,54.47-.02.65,0,1.29-.18,1.86-.49,7.3-4.09,14.56-8.2,21.87-12.27,1.85-.82,3.27-2.39,3.91-4.31v-2.08c-2-4.26-4.52-5.15-8.88-3.14"/>
    <path id="Trazado_18589" class="cls-1" d="M66.69,36.74v6.57h6.58v6.69h-6.58v6.6h-6.69v-6.58h-6.6v-6.69h6.57v-6.6h6.73Z"/>
  </g>
</svg>
