<?xml version="1.0" encoding="UTF-8"?>
<svg id="Capa_1" xmlns="http://www.w3.org/2000/svg" viewBox="0 0 100 100">
  <defs>
    <style>
      .cls-1 {
        fill: currentColor;
      }
    </style>
  </defs>
  <g id="Grupo_34521-3">
    <path id="Trazado_18651" class="cls-1" d="M61.33,73.19c-2.19-5.78-4.23-11.19-6.32-16.57-.26-.41-.7-.67-1.19-.71-7.18-.04-14.36-.04-21.54,0-.49.03-.94.28-1.21.69-1.51,3.84-3.13,7.67-4.41,11.6-1.02,3.14.18,4.62,3.51,4.8,1.85.1,3.7,0,5.67,0v3.61H12.1v-3.54c1.11,0,2.17-.02,3.22,0,2.92.2,5.61-1.59,6.54-4.36,2.03-4.85,4.12-9.67,6.11-14.53,7.06-17.29,14.1-34.6,21.12-51.92.57-1.41,1.43-1.34,2.56-1.42,1.21-.09,1.51.56,1.86,1.48,8.71,23.04,17.42,46.07,26.13,69.11.49,1.3,1.07,1.83,2.49,1.73,1.89-.14,3.8-.03,5.8-.03v3.55h-36.52v-3.47h9.93ZM53.27,51.98l-9.78-25.72-10.56,25.72h20.34Z"/>
    <rect id="Rectángulo_17484" class="cls-1" x="12.09" y="86.85" width="75.82" height="12.32"/>
    <path id="Trazado_18652" class="cls-1" d="M11.98,39.59c0,2.39.12,4.8-.06,7.19-.09.95-.59,1.81-1.37,2.36-.89.16-1.8-.11-2.46-.71-2.46-2.27-4.8-4.68-7.14-7.07-1-.7-1.25-2.07-.55-3.07.14-.2.32-.38.52-.53,2.38-2.43,4.76-4.88,7.25-7.19.64-.57,1.51-.81,2.35-.64.77.48,1.28,1.28,1.4,2.18.18,2.49.06,4.99.06,7.49"/>
    <path id="Trazado_18653" class="cls-1" d="M88.02,39.49v-7.19c-.15-1.04.41-2.04,1.36-2.47,1.13-.5,1.93.11,2.67.86,2.3,2.29,4.6,4.58,6.88,6.88,1.4,1.41,1.42,2.45.06,3.83-2.31,2.35-4.66,4.66-6.99,7-.76.76-1.71,1.47-2.65.73-.72-.64-1.17-1.52-1.27-2.47-.17-2.38-.06-4.78-.06-7.19"/>
  </g>
</svg>