<?xml version="1.0" encoding="UTF-8"?>
<svg id="Capa_1" xmlns="http://www.w3.org/2000/svg" viewBox="0 0 100 100">
  <defs>
    <style>
      .cls-1 {
        fill: currentColor;
      }
    </style>
  </defs>
  <path id="icons8_camera_enhance_1" class="cls-1" d="M33.33,12.5c-2.74,0-4.4,2.63-6,5.19-.62,1.15-1.41,2.21-2.33,3.14H6.25c-3.45,0-6.25,2.8-6.25,6.25v54.17c0,3.45,2.8,6.25,6.25,6.25h87.5c3.45,0,6.25-2.8,6.25-6.25V27.08c0-3.45-2.8-6.25-6.25-6.25h-18.65c-.58-.2-1.78-2.13-2.43-3.15-1.6-2.55-3.26-5.18-6-5.18h-33.33ZM50,33.33c11.51,0,20.83,9.33,20.83,20.83s-9.33,20.83-20.83,20.83-20.83-9.33-20.83-20.83,9.33-20.83,20.83-20.83ZM50,41.67c-1.04,2.94-2.44,5.74-4.17,8.33-2.6,1.72-5.4,3.12-8.33,4.17,2.94,1.04,5.74,2.44,8.33,4.17,1.72,2.6,3.12,5.4,4.17,8.33,1.04-2.94,2.44-5.74,4.17-8.33,2.6-1.72,5.4-3.12,8.33-4.17-2.94-1.04-5.74-2.44-8.33-4.17-1.72-2.6-3.12-5.4-4.17-8.33Z"/>
</svg>
