<?xml version="1.0" encoding="UTF-8"?>
<svg id="Capa_1" xmlns="http://www.w3.org/2000/svg" viewBox="0 0 100 100">
  <defs>
    <style>
      .cls-1 {
        fill: currentColor;
      }
    </style>
  </defs>
  <g id="Grupo_12666">
    <path id="Trazado_11165" class="cls-1" d="M48.7,99.99c-8.72.13-17.32-2.07-24.9-6.39-5.6-3.15-10.67-7.15-15.03-11.87-1-.85-1.34-2.24-.84-3.45,2.77-6.77,6.72-12.67,12.64-17.1,5.17-3.82,11.28-6.15,17.68-6.76,6.91-.8,13.87-.91,20.8-.31,5.75.53,11.33,1.68,16.48,4.45,6.69,3.66,11.99,9.4,15.12,16.35.46.97.84,1.98,1.3,2.95.64,1.28.36,2.83-.68,3.81-3.48,3.96-7.56,7.35-12.09,10.05-7.22,4.22-15.25,6.85-23.57,7.7-2.67.31-5.36.44-6.92.56"/>
    <path id="Trazado_11166" class="cls-1" d="M49.99,48.49c-13.2.13-24.01-10.47-24.13-23.67,0-.24,0-.47,0-.71C25.94,10.72,36.86-.08,50.24,0c13.39.08,24.18,10.99,24.11,24.38-.08,13.38-10.98,24.17-24.36,24.11"/>
  </g>
</svg>
