<?xml version="1.0" encoding="UTF-8"?>
<svg id="Capa_1" xmlns="http://www.w3.org/2000/svg" viewBox="0 0 30 30">
  <defs>
    <style>
      .cls-1 {
        fill: currentColor;
      }
    </style>
  </defs>
  <rect id="Rectángulo_18878" class="cls-1" x="2.98" y="25.69" width="24.04" height="1.24"/>
  <path id="Trazado_19493" class="cls-1" d="M7.86,14.02v4.01l1.4-.93v-4.01l-1.4.93Z"/>
  <path id="Trazado_19494" class="cls-1" d="M17.22,15.32l.44-.18.33.34c.43.45,1.15.48,1.61.06l.39-.35.44.27c.44.27,1.01.13,1.28-.31.27-.44.13-1.01-.31-1.28-.3-.18-.68-.18-.98,0l-.44.27-.39-.35c-.47-.42-1.18-.39-1.61.06l-.33.34-.44-.18c-.36-.14-.77.03-.91.39s.03.77.39.91c.17.07.35.07.52,0h0Z"/>
  <path id="Trazado_19495" class="cls-1" d="M16.72,24.09v-7.33c-1.15-.14-1.97-1.19-1.83-2.34.12-.96.87-1.71,1.83-1.83v-3.28l-3.26-1.37v9.16h1.63v1.4h-1.63v1.4h1.63v1.4h-1.63v1.4h1.63v1.4h1.63Z"/>
  <path id="Trazado_19496" class="cls-1" d="M7.86,24.09h4.2v-7.18l-4.2,2.8v4.38Z"/>
  <path id="Trazado_19497" class="cls-1" d="M6.47,13.27l4.2-2.8v5.69l1.4-.93V5.84l6.06,2.55v3.83c.68-.19,1.41-.09,2.02.27,1.21-.43,2.55.2,2.98,1.42.43,1.21-.2,2.55-1.42,2.98-.5.18-1.06.18-1.56,0-.61.36-1.34.46-2.02.27v1.49h5.6v5.45h2.8v-9.6c0-6.31-5.11-11.42-11.42-11.42S3.67,8.18,3.67,14.49v9.6h2.8v-10.82Z"/>
  <rect id="Rectángulo_18879" class="cls-1" x="18.32" y="19.89" width="4.15" height="4.15"/>
</svg>