<?xml version="1.0" encoding="UTF-8"?>
<svg id="Capa_1" xmlns="http://www.w3.org/2000/svg" viewBox="0 0 100 100">
  <defs>
    <style>
      .cls-1 {
        fill: currentColor;
      }
    </style>
  </defs>
  <g id="Grupo_35530-3">
    <path id="Trazado_19439" class="cls-1" d="M30.59,94.11H7.59c-3.62.09-6.77-2.45-7.44-6.01-.36-1.78-.04-3.64.9-5.2l15.61-27.01c2.45-4.24,4.89-8.48,7.34-12.73,1.92-3.61,6.4-4.98,10.02-3.06,1.28.68,2.33,1.72,3.03,3,2.45,4.2,4.86,8.43,7.29,12.64,4.28,7.41,8.56,14.81,12.84,22.21.94,1.62,1.88,3.25,2.81,4.87,2.14,3.49,1.04,8.05-2.45,10.18-1.22.75-2.64,1.13-4.07,1.09h-22.86M26.88,58.54c.2,3.62.4,7.2.6,10.77.05.94.11,1.87.17,2.81,0,1.59,1.3,2.88,2.89,2.88,1.57-.04,2.84-1.29,2.88-2.86.1-1.51.19-3.01.26-4.52.17-3.19.34-6.38.5-9.57.11-2.02-1.44-3.76-3.46-3.87-.88-.05-1.74.22-2.43.75-1.13.84-1.68,2.24-1.42,3.62M30.39,85.22c2.25.06,4.12-1.71,4.19-3.96s-1.71-4.12-3.96-4.19c-2.23-.06-4.1,1.68-4.18,3.91-.07,2.26,1.7,4.15,3.95,4.23"/>
    <path id="Trazado_19440" class="cls-1" d="M94.27,51.91h-1.4c-1.44.01-2.61-1.15-2.62-2.58-.01-1.44,1.15-2.61,2.58-2.62h1.42c-1.29-18.81-16.27-33.77-35.07-35.06v1.28c.06,1.44-1.05,2.66-2.49,2.72-1.44.06-2.66-1.05-2.72-2.49,0-.06,0-.12,0-.18v-1.42c-1.32.17-2.58.29-3.83.51-8.29,1.4-15.87,5.56-21.5,11.8-4.84,5.23-8.06,11.75-9.27,18.78-.21,1.2-.3,2.43-.49,3.64-.06.58-.22,1.15-.47,1.67-.64,1.05-1.92,1.51-3.08,1.12-1.2-.25-2.06-1.33-2.04-2.56.13-1.92.37-3.83.72-5.72,1.23-6.43,3.95-12.48,7.93-17.67,5.12-6.81,12.14-11.95,20.17-14.77,12.17-4.29,25.63-2.95,36.71,3.67,8.5,5.03,15.01,12.83,18.43,22.1,1.67,4.41,2.59,9.07,2.71,13.79.49,14.72-6.53,28.68-18.63,37.07-4.36,3.03-9.23,5.24-14.38,6.53-1.49.46-3.07-.37-3.54-1.85-.46-1.49.37-3.07,1.85-3.54.08-.03.17-.05.25-.07,4.61-1.11,8.95-3.09,12.81-5.85,7.21-5.05,12.42-12.47,14.72-20.97.62-2.25,1.02-4.56,1.2-6.9v-.42"/>
    <path id="Trazado_19441" class="cls-1" d="M59.38,33.37v9.97c-.02.3.14.58.4.72,2.77,1.65,3.77,5.17,2.3,8.04-.12.2-.1.46.05.64,2.38,3.67,4.76,7.33,7.13,11,1.22,1.88,2.43,3.76,3.65,5.64.92,1.25.65,3.01-.6,3.93-1.25.92-3.01.65-3.93-.6-.07-.09-.13-.18-.18-.28l-7.73-11.93c-1.02-1.56-2.04-3.11-3.03-4.68-.13-.25-.4-.39-.68-.36-3.39.12-6.24-2.54-6.36-5.93-.08-2.27,1.1-4.39,3.06-5.53.3-.18.3-.4.3-.68v-19.76c-.05-1.54,1.17-2.83,2.71-2.87.29,0,.58.03.86.11,1.21.33,2.05,1.43,2.04,2.68v9.88h.02Z"/>
  </g>
</svg>