<?xml version="1.0" encoding="UTF-8"?>
<svg id="Capa_1" xmlns="http://www.w3.org/2000/svg" viewBox="0 0 100 100">
  <defs>
    <style>
      .cls-1 {
        fill: currentColor;
      }
    </style>
  </defs>
  <g id="Grupo_35451">
    <path id="Trazado_19300" class="cls-1" d="M99.99,50.02v39.28c.18,5.73-4.32,10.52-10.04,10.7-.22,0-.43,0-.65,0H10.69C4.96,100.16.17,95.65,0,89.92c0-.19,0-.38,0-.57V10.67C-.16,4.94,4.35.17,10.08,0c.19,0,.39,0,.58,0h78.68c5.73-.16,10.5,4.36,10.66,10.09,0,.2,0,.39,0,.59v39.34M75.73,20.3l-15.43,8.83-10.3-18.77-10.3,18.76-15.41-8.82c.03.21.04.28.05.36,1.3,7.19,2.59,14.39,3.89,21.58.08.46.32.47.68.47h42.18c.47,0,.62-.14.7-.6.66-3.77,1.36-7.54,2.04-11.31.62-3.46,1.25-6.93,1.9-10.54M70.38,70.99h1.11c2.08-.07,4.17,0,6.23-.24,2.83-.16,5.34-1.88,6.5-4.48.63-1.51.9-3.14.76-4.77.08-3.3-2.09-6.23-5.28-7.1-.83-.26-1.68-.4-2.55-.43-4.97-.06-9.93-.05-14.9-.07-.09,0-.19.02-.28.04v27.08h8.38l.02-10.03ZM44.43,53.94c-.12-.02-.23-.03-.35-.04-2.58,0-5.15,0-7.73-.01-.44,0-.49.28-.58.56-1.24,4.01-2.47,8.02-3.71,12.03-.7,2.28-1.41,4.56-2.16,6.97-.13-.41-.23-.67-.31-.94-1.87-5.97-3.73-11.95-5.59-17.92-.16-.51-.36-.71-.93-.7-2.47.04-4.95,0-7.42.01-.18,0-.36.02-.59.03.05.18.07.31.12.44,3.3,8.74,6.6,17.48,9.89,26.23.08.32.39.53.72.48,2.66-.02,5.32-.02,7.98,0,.39.05.75-.21.82-.6,2.56-6.95,5.14-13.89,7.73-20.83.7-1.89,1.39-3.77,2.11-5.7M55.9,53.94h-8.33v27.1h8.33v-27.1Z"/>
    <path id="Trazado_19301" class="cls-1" d="M70.43,59.52c1.29,0,2.55-.09,3.79.02,1.46.07,2.6,1.27,2.61,2.72.18,1.45-.85,2.78-2.3,2.97-1.36.18-2.73.3-4.1.34v-6.05Z"/>
  </g>
</svg>
