<?xml version="1.0" encoding="UTF-8"?>
<svg id="Capa_1" xmlns="http://www.w3.org/2000/svg" viewBox="0 0 890 101">
  <defs>
    <style>
      .cls-1, .cls-2 {
        fill: currentColor;
      }

      .cls-3, .cls-2 {
        isolation: isolate;
      }

      .cls-2 {
        font-family: OpenSans-Semibold, 'Open Sans';
        font-size: 82.31px;
        font-weight: 600;
      }
    </style>
  </defs>
  <g id="Grupo_28727">
    <g id="Grupo_10105">
      <g id="Grupo_5302">
        <g id="Grupo_5299">
          <circle id="Elipse_114" class="cls-1" cx="195.74" cy="87.17" r="13.26"/>
          <circle id="Elipse_115" class="cls-1" cx="232.52" cy="52.97" r="13.26"/>
          <circle id="Elipse_116" class="cls-1" cx="267.58" cy="87.17" r="13.26"/>
          <circle id="Elipse_117" class="cls-1" cx="304.36" cy="52.97" r="13.26"/>
          <circle id="Elipse_118" class="cls-1" cx="161.11" cy="17.04" r="13.26"/>
          <circle id="Elipse_119" class="cls-1" cx="232.52" cy="17.04" r="13.26"/>
          <circle id="Elipse_120" class="cls-1" cx="267.58" cy="17.04" r="13.26"/>
          <path id="Trazado_4873" class="cls-1" d="M304.36,3.79c-7.31-.01-13.24,5.9-13.26,13.21,0,1.97.43,3.92,1.28,5.7l-18.56,18.59c-6.46-3.45-14.48-1.01-17.93,5.45-2.08,3.9-2.08,8.58,0,12.48l-16.6,16.57c-4.75-2.84-10.76-2.43-15.07,1.05l-17.1-17.1c3.74-6.29,1.68-14.42-4.61-18.17-6.29-3.74-14.42-1.68-18.17,4.61-2.43,4.08-2.49,9.15-.15,13.29l-16.32,16.32c-6.3-3.76-14.46-1.7-18.23,4.6-3.76,6.3-1.7,14.46,4.6,18.23,6.3,3.76,14.46,1.7,18.23-4.6,2.5-4.2,2.5-9.43,0-13.62l16.22-16.22c4.2,2.66,9.55,2.72,13.82.16l17.76,17.76c-2.82,6.76.37,14.53,7.13,17.35,6.76,2.82,14.53-.37,17.35-7.13,1.62-3.89,1.3-8.31-.86-11.93l16.38-16.38c6.11,4.03,14.33,2.35,18.36-3.75,2.93-4.43,2.93-10.18,0-14.61l17.93-17.88c5.91,4.32,14.2,3.03,18.52-2.88,4.32-5.91,3.03-14.2-2.88-18.52-2.27-1.66-5.01-2.55-7.83-2.55v-.03Z"/>
        </g>
        <g id="Grupo_5301">
          <g id="Grupo_5300">
            <path id="Trazado_4874" class="cls-1" d="M388.24,19.16c.2-4.07,3.66-7.21,7.73-7.01,3.79.19,6.82,3.22,7.01,7.01v68.57c-.2,4.07-3.66,7.21-7.73,7.01-3.79-.19-6.82-3.22-7.01-7.01V19.16Z"/>
            <path id="Trazado_4875" class="cls-1" d="M444.09,25.92h-20.38c-3.67.11-6.73-2.78-6.84-6.45-.11-3.67,2.78-6.74,6.45-6.84.13,0,.26,0,.4,0h55.74c3.67-.11,6.73,2.78,6.84,6.45.11,3.67-2.78,6.74-6.45,6.84-.13,0-.26,0-.4,0h-20.51v61.81c-.16,4.1-3.62,7.3-7.73,7.14-3.88-.15-6.98-3.26-7.14-7.14V25.92Z"/>
            <path id="Trazado_4876" class="cls-1" d="M526.84,19.16c.16-4.07,3.6-7.24,7.67-7.08,3.84.15,6.92,3.23,7.08,7.08v27.4h40.03v-27.4c.16-4.07,3.6-7.24,7.67-7.08,3.84.15,6.92,3.23,7.08,7.08v68.57c-.16,4.07-3.6,7.24-7.67,7.08-3.84-.15-6.92-3.23-7.08-7.08v-27.87h-40.03v27.87c-.16,4.07-3.6,7.24-7.67,7.08-3.84-.15-6.92-3.23-7.08-7.08V19.16Z"/>
            <path id="Trazado_4877" class="cls-1" d="M643.34,95.66c-17.19.74-31.73-12.6-32.47-29.8-.03-.72-.04-1.44-.02-2.16v-.24c-.63-17.07,12.71-31.42,29.78-32.05.38-.01.76-.02,1.14-.02,16.28-.34,29.75,12.59,30.09,28.87.01.48,0,.97,0,1.45.05,3.69-2.91,6.73-6.61,6.77-.08,0-.17,0-.25,0h-39.67c.99,9.21,8.97,16.06,18.23,15.63,5.47.04,10.78-1.86,14.98-5.36,1.04-.87,2.36-1.33,3.72-1.28,3.11-.07,5.69,2.4,5.76,5.51,0,.07,0,.14,0,.21-.03,1.64-.72,3.19-1.92,4.32-6.28,5.5-14.41,8.41-22.76,8.15ZM657.72,59.16c0-8.9-7.17-16.13-16.06-16.21-8.88.25-16.06,7.33-16.42,16.21h32.48Z"/>
            <path id="Trazado_4878" class="cls-1" d="M680.61,76.54v-.26c0-13.29,10.67-19.83,26.13-19.83,5.77-.06,11.52.81,17.02,2.56v-1.52c0-8.75-5.51-13.41-15.7-13.41-4.79-.06-9.54.77-14.02,2.45-.74.22-1.5.34-2.28.35-3.29.09-6.03-2.51-6.11-5.81,0,0,0-.02,0-.03.07-2.49,1.63-4.7,3.96-5.6,6.51-2.47,13.42-3.7,20.38-3.62,7.63-.58,15.18,1.89,20.98,6.88,4.83,5.1,7.31,12,6.83,19.01v30.32c-.03,3.77-3.1,6.8-6.87,6.77-.06,0-.12,0-.19,0-3.56.33-6.71-2.28-7.05-5.83,0-.04,0-.08-.01-.12v-2.35c-5.16,5.96-12.74,9.26-20.62,8.98-11.9.05-22.45-6.6-22.45-18.95ZM724,72.1v-4.2c-4.61-1.66-9.48-2.49-14.39-2.45-9.35,0-14.86,3.85-14.86,10.26v.24c0,5.95,5.39,9.33,12.35,9.33,9.59,0,16.89-5.37,16.89-13.18h.02Z"/>
            <path id="Trazado_4879" class="cls-1" d="M754.08,15.54c.03-3.9,3.22-7.03,7.11-7,.03,0,.05,0,.08,0,3.95-.09,7.22,3.03,7.31,6.98,0,0,0,.01,0,.02v72.32c-.12,4.01-3.46,7.16-7.46,7.04-3.84-.11-6.93-3.2-7.04-7.04V15.54Z"/>
            <path id="Trazado_4880" class="cls-1" d="M788.6,77.24v-32.42h-2.4c-3.35.1-6.15-2.53-6.25-5.88-.1-3.35,2.53-6.15,5.88-6.25.13,0,.25,0,.38,0h2.4v-10.49c.12-4.01,3.46-7.16,7.46-7.04,3.84.11,6.93,3.2,7.04,7.04v10.49h11.38c3.35-.18,6.21,2.39,6.39,5.74.18,3.35-2.39,6.21-5.74,6.39-.22.01-.44.01-.65,0h-11.38v30.2c-.53,3.73,2.06,7.18,5.78,7.71.67.1,1.34.09,2.01-.01,1.2-.06,2.4-.17,3.59-.35,3.22-.15,5.95,2.34,6.1,5.56.12,2.54-1.43,4.87-3.82,5.75-3.2,1.11-6.56,1.66-9.95,1.63-10.69,0-18.22-4.54-18.22-18.07Z"/>
            <path id="Trazado_4881" class="cls-1" d="M832.94,15.54c.03-3.9,3.22-7.03,7.11-7,.03,0,.05,0,.08,0,3.94-.1,7.22,3.03,7.31,6.97,0,0,0,.02,0,.03v26.59c4.28-6.77,11.77-10.83,19.78-10.73,14.26,0,22.54,9.33,22.54,23.56v32.89c.02,3.85-3.09,6.98-6.93,7-.09,0-.17,0-.26,0-3.89.14-7.17-2.9-7.31-6.79,0-.07,0-.14,0-.2v-28.57c0-9.56-4.92-15.05-13.52-15.05-7.65-.26-14.07,5.73-14.33,13.38-.02.64,0,1.27.07,1.9v28.34c-.12,4.01-3.46,7.16-7.46,7.04-3.84-.11-6.93-3.2-7.04-7.04l-.02-72.31Z"/>
          </g>
        </g>
      </g>
      <g id="BY" class="cls-3">
        <text class="cls-2" transform="translate(.24 71.03)"><tspan x="0" y="0">BY</tspan></text>
      </g>
    </g>
  </g>
</svg>
